g Custom Mesh - Baked
v -614.2478 202.8247 884.653
v -613.2324 203.3468 874.7268
v -608.9731 202.8247 881.3004
v -618.4742 203.3468 878.1305
v -619.5225 202.8247 888.0056
v -617.3136 203.6782 868.3165
v -623.7161 203.3468 881.5342
v -622.6136 203.6782 871.629
v -627.9136 203.6782 874.9415
v -622.6136 203.6782 871.629
v -621.3574 203.6869 861.7662
v -617.3136 203.6782 868.3165
v -626.6891 203.6869 865.0274
v -627.9136 203.6782 874.9415
v -625.3501 203.5509 855.2078
v -632.0208 203.6869 868.2886
v -630.6938 203.5509 858.4493
v -636.0375 203.5509 861.6908
v -630.6938 203.5509 858.4493
v -629.351 203.3568 848.5993
v -625.3501 203.5509 855.2078
v -634.6999 203.3568 851.8322
v -636.0375 203.5509 861.6908
v -633.3589 203.1335 841.9609
v -640.0488 203.3568 855.065
v -638.7104 203.1335 845.1896
v -644.062 203.1335 848.4182
v -638.7104 203.1335 845.1896
v -637.3817 202.8966 835.2903
v -633.3589 203.1335 841.9609
v -642.7343 202.8966 838.517
v -644.062 203.1335 848.4182
v -641.4131 202.6555 828.6022
v -648.0869 202.8966 841.7438
v -646.7657 202.6555 831.829
v -652.1183 202.6555 835.0558
v -646.7657 202.6555 831.829
v -645.4615 202.4176 821.8889
v -641.4131 202.6555 828.6022
v -650.813 202.4176 825.1177
v -652.1183 202.6555 835.0558
v -649.6788 202.1846 814.905
v -656.1644 202.4176 828.3464
v -655.0273 202.1846 818.1384
v -660.3759 202.1846 821.3719

vn 0.01745478 0.7993379 0.02746144
vn 0.03042786 0.7980465 0.04686096
vn 0.01745478 0.7993379 0.02746144
vn 0.03042786 0.7980465 0.04686096
vn 0.01745478 0.7993379 0.02746144
vn 0.007537578 0.7998737 0.01206028
vn 0.03042786 0.7980465 0.04686096
vn 0.007537578 0.7998737 0.01206028
vn 0.007537578 0.7998737 0.01206028
vn 0.007537578 0.7998737 0.01206028
vn -0.004726342 0.7999487 -0.007726827
vn 0.007537578 0.7998737 0.01206028
vn -0.004726342 0.7999487 -0.007726827
vn 0.00753758 0.7998737 0.01206028
vn -0.009320431 0.799798 -0.01536496
vn -0.004726342 0.7999487 -0.007726827
vn -0.009320431 0.799798 -0.01536496
vn -0.009320431 0.799798 -0.01536496
vn -0.009320431 0.799798 -0.01536496
vn -0.01132341 0.7997004 -0.01873528
vn -0.009320431 0.799798 -0.01536496
vn -0.01132341 0.7997004 -0.01873528
vn -0.009320431 0.799798 -0.01536496
vn -0.01229653 0.7996457 -0.0203818
vn -0.01132341 0.7997004 -0.01873528
vn -0.01229653 0.7996457 -0.0203818
vn -0.01229653 0.7996457 -0.0203818
vn -0.01229653 0.7996457 -0.0203818
vn -0.01271961 0.7996206 -0.02109934
vn -0.01229653 0.7996457 -0.0203818
vn -0.01271961 0.7996206 -0.02109934
vn -0.01229653 0.7996457 -0.0203818
vn -0.01271033 0.7996211 -0.02108381
vn -0.01271961 0.7996206 -0.02109934
vn -0.01271027 0.7996211 -0.02108388
vn -0.01271033 0.7996211 -0.02108381
vn -0.01271033 0.7996211 -0.02108381
vn -0.01226197 0.7996478 -0.02032326
vn -0.01271033 0.7996211 -0.02108381
vn -0.01226197 0.7996478 -0.02032326
vn -0.01271035 0.7996211 -0.02108384
vn -0.0111817 0.799708 -0.01849597
vn -0.01226197 0.7996478 -0.02032326
vn -0.0111817 0.799708 -0.01849597
vn -0.0111817 0.799708 -0.01849597

vt 0.5 0
vt 1 0.5
vt 1 0
vt 0.5 0.5
vt 0 0
vt 1 1
vt 0 0.5
vt 0.5 1
vt 0 1
vt 0.5 0
vt 1 0.5
vt 1 0
vt 0.5 0.5
vt 0 0
vt 1 1
vt 0 0.5
vt 0.5 1
vt 0 1
vt 0.5 0
vt 1 0.5
vt 1 0
vt 0.5 0.5
vt 0 0
vt 1 1
vt 0 0.5
vt 0.5 1
vt 0 1
vt 0.5 0
vt 1 0.5
vt 1 0
vt 0.5 0.5
vt 0 0
vt 1 1
vt 0 0.5
vt 0.5 1
vt 0 1
vt 0.5 0
vt 1 0.5
vt 1 0
vt 0.5 0.5
vt 0 0
vt 1 1
vt 0 0.5
vt 0.5 1
vt 0 1

vt2 0 0
vt2 0 0
vt2 0 0
vt2 0 0
vt2 0 0
vt2 0 0
vt2 0 0
vt2 0 0
vt2 0 0
vt2 0 0
vt2 0 0
vt2 0 0
vt2 0 0
vt2 0 0
vt2 0 0
vt2 0 0
vt2 0 0
vt2 0 0
vt2 0 0
vt2 0 0
vt2 0 0
vt2 0 0
vt2 0 0
vt2 0 0
vt2 0 0
vt2 0 0
vt2 0 0
vt2 0 0
vt2 0 0
vt2 0 0
vt2 0 0
vt2 0 0
vt2 0 0
vt2 0 0
vt2 0 0
vt2 0 0
vt2 0 0
vt2 0 0
vt2 0 0
vt2 0 0
vt2 0 0
vt2 0 0
vt2 0 0
vt2 0 0
vt2 0 0

vt2 0 0
vt2 0 0
vt2 0 0
vt2 0 0
vt2 0 0
vt2 0 0
vt2 0 0
vt2 0 0
vt2 0 0
vt2 0 0
vt2 0 0
vt2 0 0
vt2 0 0
vt2 0 0
vt2 0 0
vt2 0 0
vt2 0 0
vt2 0 0
vt2 0 0
vt2 0 0
vt2 0 0
vt2 0 0
vt2 0 0
vt2 0 0
vt2 0 0
vt2 0 0
vt2 0 0
vt2 0 0
vt2 0 0
vt2 0 0
vt2 0 0
vt2 0 0
vt2 0 0
vt2 0 0
vt2 0 0
vt2 0 0
vt2 0 0
vt2 0 0
vt2 0 0
vt2 0 0
vt2 0 0
vt2 0 0
vt2 0 0
vt2 0 0
vt2 0 0

vc 1 1 1 1
vc 1 1 1 1
vc 1 1 1 1
vc 1 1 1 1
vc 1 1 1 1
vc 1 1 1 1
vc 1 1 1 1
vc 1 1 1 1
vc 1 1 1 1
vc 1 1 1 1
vc 1 1 1 1
vc 1 1 1 1
vc 1 1 1 1
vc 1 1 1 1
vc 1 1 1 1
vc 1 1 1 1
vc 1 1 1 1
vc 1 1 1 1
vc 1 1 1 1
vc 1 1 1 1
vc 1 1 1 1
vc 1 1 1 1
vc 1 1 1 1
vc 1 1 1 1
vc 1 1 1 1
vc 1 1 1 1
vc 1 1 1 1
vc 1 1 1 1
vc 1 1 1 1
vc 1 1 1 1
vc 1 1 1 1
vc 1 1 1 1
vc 1 1 1 1
vc 1 1 1 1
vc 1 1 1 1
vc 1 1 1 1
vc 1 1 1 1
vc 1 1 1 1
vc 1 1 1 1
vc 1 1 1 1
vc 1 1 1 1
vc 1 1 1 1
vc 1 1 1 1
vc 1 1 1 1
vc 1 1 1 1

usemtl Default-Diffuse
usemap Default-Diffuse
f 3/3/3 2/2/2 1/1/1
f 2/2/2 4/4/4 1/1/1
f 1/1/1 4/4/4 5/5/5
f 2/2/2 6/6/6 4/4/4
f 4/4/4 7/7/7 5/5/5
f 6/6/6 8/8/8 4/4/4
f 4/4/4 8/8/8 7/7/7
f 8/8/8 9/9/9 7/7/7
f 12/12/12 11/11/11 10/10/10
f 11/11/11 13/13/13 10/10/10
f 10/10/10 13/13/13 14/14/14
f 11/11/11 15/15/15 13/13/13
f 13/13/13 16/16/16 14/14/14
f 15/15/15 17/17/17 13/13/13
f 13/13/13 17/17/17 16/16/16
f 17/17/17 18/18/18 16/16/16
f 21/21/21 20/20/20 19/19/19
f 20/20/20 22/22/22 19/19/19
f 19/19/19 22/22/22 23/23/23
f 20/20/20 24/24/24 22/22/22
f 22/22/22 25/25/25 23/23/23
f 24/24/24 26/26/26 22/22/22
f 22/22/22 26/26/26 25/25/25
f 26/26/26 27/27/27 25/25/25
f 30/30/30 29/29/29 28/28/28
f 29/29/29 31/31/31 28/28/28
f 28/28/28 31/31/31 32/32/32
f 29/29/29 33/33/33 31/31/31
f 31/31/31 34/34/34 32/32/32
f 33/33/33 35/35/35 31/31/31
f 31/31/31 35/35/35 34/34/34
f 35/35/35 36/36/36 34/34/34
f 39/39/39 38/38/38 37/37/37
f 38/38/38 40/40/40 37/37/37
f 37/37/37 40/40/40 41/41/41
f 38/38/38 42/42/42 40/40/40
f 40/40/40 43/43/43 41/41/41
f 42/42/42 44/44/44 40/40/40
f 40/40/40 44/44/44 43/43/43
f 44/44/44 45/45/45 43/43/43
