g Custom Mesh - Baked
v -76.50101 89.68067 -437.3099
v -101.3462 90.04437 -458.708
v -99.96898 89.95906 -460.1558
v -77.90184 89.76665 -435.8851
v -52.76862 89.41214 -414.0963
v -102.7235 90.12968 -457.2603
v -54.1544 89.4977 -412.6567
v -79.30267 89.85264 -434.4602
v -55.54018 89.58325 -411.2172
v -31.97634 89.06226 -394.7895
v -54.1544 89.4977 -412.6567
v -52.76862 89.41214 -414.0963
v -33.28589 89.14558 -393.2802
v -17.31754 88.55108 -383.162
v -55.54018 89.58325 -411.2172
v -18.46441 88.62767 -381.5253
v -34.59544 89.22891 -391.7708
v -19.61128 88.70426 -379.8886
v -8.095535 87.91544 -377.7798
v -18.46441 88.62767 -381.5253
v -17.31754 88.55108 -383.162
v -8.863036 87.97443 -375.9338
v -0.5265271 87.21661 -375.7011
v -19.61128 88.70426 -379.8886
v -0.8446175 87.25169 -373.7268
v -9.630537 88.03342 -374.0879
v -1.162708 87.28676 -371.7526
v 9.154855 86.48859 -374.5558
v -0.8446175 87.25169 -373.7268
v -0.5265271 87.21661 -375.7011
v 9.072041 86.50965 -372.5576
v 20.63827 85.68707 -375.2942
v -1.162708 87.28676 -371.7526
v 20.92343 85.68526 -373.3146
v 8.989226 86.53072 -370.5594
v 21.2086 85.68346 -371.3351
v 32.42507 84.87692 -377.6624
v 20.92343 85.68526 -373.3146
v 20.63827 85.68707 -375.2942
v 32.90773 84.85655 -375.7216
v 43.02295 84.18299 -380.6264
v 21.2086 85.68346 -371.3351
v 43.60648 84.14803 -378.7137
v 33.39038 84.83618 -373.7808
v 44.19001 84.11308 -376.8011
v 51.61456 83.68366 -383.6902
v 43.60648 84.14803 -378.7137
v 43.02295 84.18299 -380.6264
v 52.38253 83.63197 -381.8443
v 58.95506 83.30577 -387.3474
v 44.19001 84.11308 -376.8011
v 59.97391 83.231 -385.628
v 53.1505 83.58027 -379.9983
v 60.99276 83.15622 -383.9086
v 65.45895 82.97352 -391.9483
v 59.97391 83.231 -385.628
v 58.95506 83.30577 -387.3474
v 66.74005 82.87416 -390.4157
v 71.4678 82.69749 -397.6685
v 60.99276 83.15622 -383.9086
v 72.91653 82.58668 -396.2941
v 68.02115 82.7748 -388.8831
v 74.36525 82.47587 -394.9197
v 76.72024 82.57948 -404.0919
v 72.91653 82.58668 -396.2941
v 71.4678 82.69749 -397.6685
v 78.3581 82.45505 -402.9509
v 81.26378 82.28609 -412.0729
v 74.36525 82.47587 -394.9197
v 83.07206 82.14591 -411.23
v 79.99596 82.33061 -401.8099
v 84.88034 82.00573 -410.3871
v 85.11374 81.4117 -422.7778
v 83.07206 82.14591 -411.23
v 81.26378 82.28609 -412.0729
v 87.0382 81.26793 -422.2527
v 88.07404 79.67088 -437.635
v 84.88034 82.00573 -410.3871
v 90.04247 79.54897 -437.3027
v 88.96266 81.12416 -421.7275
v 92.01089 79.42706 -436.9705
v 90.4674 77.72363 -454.0103
v 90.04247 79.54897 -437.3027
v 88.07404 79.67088 -437.635
v 92.4441 77.62981 -453.7207
v 92.75522 76.32808 -468.5769
v 92.01089 79.42706 -436.9705
v 94.71744 76.27514 -468.1937
v 94.4208 77.53598 -453.4312
v 96.67966 76.2222 -467.8104
v 94.97395 75.61431 -480.0979
v 94.71744 76.27514 -468.1937
v 92.75522 76.32808 -468.5769
v 96.93537 75.55226 -479.7119
v 97.013 75.01791 -490.0571
v 96.67966 76.2222 -467.8104
v 98.96397 74.94937 -489.6223
v 98.8968 75.49021 -479.326
v 100.9149 74.88084 -489.1875
v 99.05257 74.53609 -498.2614
v 98.96397 74.94937 -489.6223
v 97.013 75.01791 -490.0571
v 100.97 74.46178 -497.6975
v 101.6831 74.14825 -504.7194
v 100.9149 74.88084 -489.1875
v 103.3982 74.08648 -503.6924
v 102.8874 74.38746 -497.1336
v 105.1132 74.02471 -502.6653
v 105.3775 73.84525 -509.3364
v 103.3982 74.08648 -503.6924
v 101.6831 74.14825 -504.7194
v 106.7679 73.80533 -507.8993
v 109.146 73.62382 -512.4802
v 105.1132 74.02471 -502.6653
v 110.3395 73.59577 -510.8756
v 108.1582 73.7654 -506.4621
v 111.533 73.56773 -509.271
v 112.3517 73.43832 -515.019
v 110.3395 73.59577 -510.8756
v 109.146 73.62382 -512.4802
v 113.4702 73.4319 -513.1246
v 116.4918 73.17233 -517.4686
v 111.533 73.56773 -509.271
v 117.3978 73.24461 -514.8202
v 114.5887 73.42548 -511.2302
v 118.3039 73.31689 -512.1718
v 120.905 72.87804 -519.4195
v 117.3978 73.24461 -514.8202
v 116.4918 73.17233 -517.4686
v 121.8297 73.03805 -516.1516
v 124.4909 72.589 -521.1131
v 118.3039 73.31689 -512.1718
v 125.8332 72.83853 -517.3533
v 122.7544 73.19806 -512.8836
v 127.1756 73.08806 -513.5936

vn 0.0355805 0.9990464 -0.02530419
vn 0.0368721 0.9990367 -0.02379482
vn 0.0368721 0.9990367 -0.02379482
vn 0.0355805 0.9990464 -0.02530419
vn 0.03640179 0.999041 -0.02433296
vn 0.0368721 0.9990367 -0.02379482
vn 0.03640179 0.999041 -0.02433296
vn 0.0355805 0.9990464 -0.02530419
vn 0.03640179 0.999041 -0.02433296
vn 0.04072622 0.9989737 -0.01981877
vn 0.03640179 0.999041 -0.02433296
vn 0.03640179 0.999041 -0.02433296
vn 0.04072622 0.9989737 -0.01981877
vn 0.05649705 0.9983773 -0.007130028
vn 0.03640179 0.999041 -0.02433296
vn 0.05649705 0.9983773 -0.007130028
vn 0.04072622 0.9989737 -0.01981877
vn 0.05649705 0.9983773 -0.007130028
vn 0.08382135 0.9964763 0.003007974
vn 0.05649705 0.9983773 -0.007130028
vn 0.05649705 0.9983773 -0.007130028
vn 0.08382135 0.9964763 0.003007974
vn 0.08758357 0.9961509 -0.003584091
vn 0.05649705 0.9983773 -0.007130028
vn 0.08758357 0.9961509 -0.003584091
vn 0.08382135 0.9964763 0.003007974
vn 0.08758357 0.9961509 -0.003584091
vn 0.06913192 0.9975781 -0.007650486
vn 0.08758357 0.9961509 -0.003584091
vn 0.08758357 0.9961509 -0.003584091
vn 0.06913192 0.9975781 -0.007650486
vn 0.06826492 0.9976272 -0.008923939
vn 0.08758357 0.9961509 -0.003584091
vn 0.06826492 0.9976272 -0.008923939
vn 0.06913192 0.9975781 -0.007650486
vn 0.06826492 0.9976272 -0.008923939
vn 0.06648285 0.9977691 -0.006060142
vn 0.06826492 0.9976272 -0.008923939
vn 0.06826492 0.9976272 -0.008923939
vn 0.06648285 0.9977691 -0.006060142
vn 0.06275653 0.9980284 -0.0009051787
vn 0.06826492 0.9976272 -0.008923939
vn 0.06275653 0.9980284 -0.0009051787
vn 0.06648285 0.9977691 -0.006060142
vn 0.06275653 0.9980284 -0.0009051787
vn 0.05674348 0.9983793 0.004354647
vn 0.06275653 0.9980284 -0.0009051787
vn 0.06275653 0.9980284 -0.0009051787
vn 0.05674348 0.9983793 0.004354647
vn 0.05715033 0.99832 0.009551214
vn 0.06275653 0.9980284 -0.0009051787
vn 0.05715033 0.99832 0.009551214
vn 0.05674348 0.9983793 0.004354647
vn 0.05715033 0.99832 0.009551214
vn 0.06446137 0.9978615 0.01080909
vn 0.05715033 0.99832 0.009551214
vn 0.05715033 0.99832 0.009551214
vn 0.06446137 0.9978615 0.01080909
vn 0.05358913 0.9982746 0.02399836
vn 0.05715033 0.99832 0.009551214
vn 0.05358913 0.9982746 0.02399836
vn 0.06446137 0.9978615 0.01080909
vn 0.05358913 0.9982746 0.02399836
vn 0.06131331 0.9979015 0.02081887
vn 0.05358913 0.9982746 0.02399836
vn 0.05358913 0.9982746 0.02399836
vn 0.06131331 0.9979015 0.02081887
vn 0.08470474 0.9962772 -0.01602564
vn 0.05358913 0.9982746 0.02399836
vn 0.08470474 0.9962772 -0.01602564
vn 0.06131331 0.9979015 0.02081887
vn 0.08470474 0.9962772 -0.01602564
vn 0.09489741 0.9925793 -0.07603156
vn 0.08470474 0.9962772 -0.01602564
vn 0.08470474 0.9962772 -0.01602564
vn 0.09489741 0.9925793 -0.07603156
vn 0.07923055 0.9912376 -0.1056897
vn 0.08470474 0.9962772 -0.01602564
vn 0.07923055 0.9912376 -0.1056897
vn 0.09489741 0.9925793 -0.07603156
vn 0.07923055 0.9912376 -0.1056897
vn 0.06185932 0.9930114 -0.1005083
vn 0.07923055 0.9912376 -0.1056897
vn 0.07923055 0.9912376 -0.1056897
vn 0.06185932 0.9930114 -0.1005083
vn 0.03797576 0.9976733 -0.05661941
vn 0.07923055 0.9912376 -0.1056897
vn 0.03797576 0.9976733 -0.05661941
vn 0.06185932 0.9930114 -0.1005083
vn 0.03797576 0.9976733 -0.05661941
vn 0.04203947 0.9976958 -0.05325317
vn 0.03797576 0.9976733 -0.05661941
vn 0.03797576 0.9976733 -0.05661941
vn 0.04203947 0.9976958 -0.05325317
vn 0.04617892 0.9976835 -0.0499498
vn 0.03797576 0.9976733 -0.05661941
vn 0.04617892 0.9976835 -0.0499498
vn 0.04203947 0.9976958 -0.05325317
vn 0.04617892 0.9976835 -0.0499498
vn 0.05208697 0.9975991 -0.04563723
vn 0.04617892 0.9976835 -0.0499498
vn 0.04617892 0.9976835 -0.0499498
vn 0.05208697 0.9975991 -0.04563723
vn 0.05500326 0.9979788 -0.03182612
vn 0.04617892 0.9976835 -0.0499498
vn 0.05500326 0.9979788 -0.03182612
vn 0.05208697 0.9975991 -0.04563723
vn 0.05500326 0.9979788 -0.03182612
vn 0.04837729 0.9986473 -0.01905836
vn 0.05500326 0.9979788 -0.03182612
vn 0.05500326 0.9979788 -0.03182612
vn 0.04837729 0.9986473 -0.01905836
vn 0.04245915 0.9989983 -0.01412084
vn 0.05500326 0.9979788 -0.03182612
vn 0.04245915 0.9989983 -0.01412084
vn 0.04837729 0.9986473 -0.01905836
vn 0.04245915 0.9989983 -0.01412084
vn 0.03526217 0.9082335 -0.01774499
vn 0.04245915 0.9989983 -0.01412084
vn 0.04245915 0.9989983 -0.01412084
vn 0.03526217 0.9082335 -0.01774499
vn 0.02372663 0.7133583 -0.02758634
vn 0.04245915 0.9989983 -0.01412084
vn 0.02372663 0.7133583 -0.02758634
vn 0.03526217 0.9082335 -0.01774499
vn 0.02372663 0.7133583 -0.02758634
vn 0.01834028 0.5869694 -0.03392999
vn 0.02372663 0.7133583 -0.02758634
vn 0.02372663 0.7133583 -0.02758634
vn 0.01834028 0.5869694 -0.03392999
vn 0.01355382 0.498376 -0.03791589
vn 0.02372663 0.7133583 -0.02758634
vn 0.01355382 0.498376 -0.03791589
vn 0.01834028 0.5869694 -0.03392999
vn 0.01355382 0.498376 -0.03791589

vt 0.5 0
vt 1 0.5
vt 1 0
vt 0.5 0.5
vt 0 0
vt 1 1
vt 0 0.5
vt 0.5 1
vt 0 1
vt 0.5 0
vt 1 0.5
vt 1 0
vt 0.5 0.5
vt 0 0
vt 1 1
vt 0 0.5
vt 0.5 1
vt 0 1
vt 0.5 0
vt 1 0.5
vt 1 0
vt 0.5 0.5
vt 0 0
vt 1 1
vt 0 0.5
vt 0.5 1
vt 0 1
vt 0.5 0
vt 1 0.5
vt 1 0
vt 0.5 0.5
vt 0 0
vt 1 1
vt 0 0.5
vt 0.5 1
vt 0 1
vt 0.5 0
vt 1 0.5
vt 1 0
vt 0.5 0.5
vt 0 0
vt 1 1
vt 0 0.5
vt 0.5 1
vt 0 1
vt 0.5 0
vt 1 0.5
vt 1 0
vt 0.5 0.5
vt 0 0
vt 1 1
vt 0 0.5
vt 0.5 1
vt 0 1
vt 0.5 0
vt 1 0.5
vt 1 0
vt 0.5 0.5
vt 0 0
vt 1 1
vt 0 0.5
vt 0.5 1
vt 0 1
vt 0.5 0
vt 1 0.5
vt 1 0
vt 0.5 0.5
vt 0 0
vt 1 1
vt 0 0.5
vt 0.5 1
vt 0 1
vt 0.5 0
vt 1 0.5
vt 1 0
vt 0.5 0.5
vt 0 0
vt 1 1
vt 0 0.5
vt 0.5 1
vt 0 1
vt 0.5 0
vt 1 0.5
vt 1 0
vt 0.5 0.5
vt 0 0
vt 1 1
vt 0 0.5
vt 0.5 1
vt 0 1
vt 0.5 0
vt 1 0.5
vt 1 0
vt 0.5 0.5
vt 0 0
vt 1 1
vt 0 0.5
vt 0.5 1
vt 0 1
vt 0.5 0
vt 1 0.5
vt 1 0
vt 0.5 0.5
vt 0 0
vt 1 1
vt 0 0.5
vt 0.5 1
vt 0 1
vt 0.5 0
vt 1 0.5
vt 1 0
vt 0.5 0.5
vt 0 0
vt 1 1
vt 0 0.5
vt 0.5 1
vt 0 1
vt 0.5 0
vt 1 0.5
vt 1 0
vt 0.5 0.5
vt 0 0
vt 1 1
vt 0 0.5
vt 0.5 1
vt 0 1
vt 0.5 0
vt 1 0.5
vt 1 0
vt 0.5 0.5
vt 0 0
vt 1 1
vt 0 0.5
vt 0.5 1
vt 0 1

vt2 0 0
vt2 0 0
vt2 0 0
vt2 0 0
vt2 0 0
vt2 0 0
vt2 0 0
vt2 0 0
vt2 0 0
vt2 0 0
vt2 0 0
vt2 0 0
vt2 0 0
vt2 0 0
vt2 0 0
vt2 0 0
vt2 0 0
vt2 0 0
vt2 0 0
vt2 0 0
vt2 0 0
vt2 0 0
vt2 0 0
vt2 0 0
vt2 0 0
vt2 0 0
vt2 0 0
vt2 0 0
vt2 0 0
vt2 0 0
vt2 0 0
vt2 0 0
vt2 0 0
vt2 0 0
vt2 0 0
vt2 0 0
vt2 0 0
vt2 0 0
vt2 0 0
vt2 0 0
vt2 0 0
vt2 0 0
vt2 0 0
vt2 0 0
vt2 0 0
vt2 0 0
vt2 0 0
vt2 0 0
vt2 0 0
vt2 0 0
vt2 0 0
vt2 0 0
vt2 0 0
vt2 0 0
vt2 0 0
vt2 0 0
vt2 0 0
vt2 0 0
vt2 0 0
vt2 0 0
vt2 0 0
vt2 0 0
vt2 0 0
vt2 0 0
vt2 0 0
vt2 0 0
vt2 0 0
vt2 0 0
vt2 0 0
vt2 0 0
vt2 0 0
vt2 0 0
vt2 0 0
vt2 0 0
vt2 0 0
vt2 0 0
vt2 0 0
vt2 0 0
vt2 0 0
vt2 0 0
vt2 0 0
vt2 0 0
vt2 0 0
vt2 0 0
vt2 0 0
vt2 0 0
vt2 0 0
vt2 0 0
vt2 0 0
vt2 0 0
vt2 0 0
vt2 0 0
vt2 0 0
vt2 0 0
vt2 0 0
vt2 0 0
vt2 0 0
vt2 0 0
vt2 0 0
vt2 0 0
vt2 0 0
vt2 0 0
vt2 0 0
vt2 0 0
vt2 0 0
vt2 0 0
vt2 0 0
vt2 0 0
vt2 0 0
vt2 0 0
vt2 0 0
vt2 0 0
vt2 0 0
vt2 0 0
vt2 0 0
vt2 0 0
vt2 0 0
vt2 0 0
vt2 0 0
vt2 0 0
vt2 0 0
vt2 0 0
vt2 0 0
vt2 0 0
vt2 0 0
vt2 0 0
vt2 0 0
vt2 0 0
vt2 0 0
vt2 0 0
vt2 0 0
vt2 0 0
vt2 0 0
vt2 0 0
vt2 0 0

vt2 0 0
vt2 0 0
vt2 0 0
vt2 0 0
vt2 0 0
vt2 0 0
vt2 0 0
vt2 0 0
vt2 0 0
vt2 0 0
vt2 0 0
vt2 0 0
vt2 0 0
vt2 0 0
vt2 0 0
vt2 0 0
vt2 0 0
vt2 0 0
vt2 0 0
vt2 0 0
vt2 0 0
vt2 0 0
vt2 0 0
vt2 0 0
vt2 0 0
vt2 0 0
vt2 0 0
vt2 0 0
vt2 0 0
vt2 0 0
vt2 0 0
vt2 0 0
vt2 0 0
vt2 0 0
vt2 0 0
vt2 0 0
vt2 0 0
vt2 0 0
vt2 0 0
vt2 0 0
vt2 0 0
vt2 0 0
vt2 0 0
vt2 0 0
vt2 0 0
vt2 0 0
vt2 0 0
vt2 0 0
vt2 0 0
vt2 0 0
vt2 0 0
vt2 0 0
vt2 0 0
vt2 0 0
vt2 0 0
vt2 0 0
vt2 0 0
vt2 0 0
vt2 0 0
vt2 0 0
vt2 0 0
vt2 0 0
vt2 0 0
vt2 0 0
vt2 0 0
vt2 0 0
vt2 0 0
vt2 0 0
vt2 0 0
vt2 0 0
vt2 0 0
vt2 0 0
vt2 0 0
vt2 0 0
vt2 0 0
vt2 0 0
vt2 0 0
vt2 0 0
vt2 0 0
vt2 0 0
vt2 0 0
vt2 0 0
vt2 0 0
vt2 0 0
vt2 0 0
vt2 0 0
vt2 0 0
vt2 0 0
vt2 0 0
vt2 0 0
vt2 0 0
vt2 0 0
vt2 0 0
vt2 0 0
vt2 0 0
vt2 0 0
vt2 0 0
vt2 0 0
vt2 0 0
vt2 0 0
vt2 0 0
vt2 0 0
vt2 0 0
vt2 0 0
vt2 0 0
vt2 0 0
vt2 0 0
vt2 0 0
vt2 0 0
vt2 0 0
vt2 0 0
vt2 0 0
vt2 0 0
vt2 0 0
vt2 0 0
vt2 0 0
vt2 0 0
vt2 0 0
vt2 0 0
vt2 0 0
vt2 0 0
vt2 0 0
vt2 0 0
vt2 0 0
vt2 0 0
vt2 0 0
vt2 0 0
vt2 0 0
vt2 0 0
vt2 0 0
vt2 0 0
vt2 0 0
vt2 0 0
vt2 0 0
vt2 0 0

vc 1 1 1 1
vc 1 1 1 1
vc 1 1 1 1
vc 1 1 1 1
vc 1 1 1 1
vc 1 1 1 1
vc 1 1 1 1
vc 1 1 1 1
vc 1 1 1 1
vc 1 1 1 1
vc 1 1 1 1
vc 1 1 1 1
vc 1 1 1 1
vc 1 1 1 1
vc 1 1 1 1
vc 1 1 1 1
vc 1 1 1 1
vc 1 1 1 1
vc 1 1 1 1
vc 1 1 1 1
vc 1 1 1 1
vc 1 1 1 1
vc 1 1 1 1
vc 1 1 1 1
vc 1 1 1 1
vc 1 1 1 1
vc 1 1 1 1
vc 1 1 1 1
vc 1 1 1 1
vc 1 1 1 1
vc 1 1 1 1
vc 1 1 1 1
vc 1 1 1 1
vc 1 1 1 1
vc 1 1 1 1
vc 1 1 1 1
vc 1 1 1 1
vc 1 1 1 1
vc 1 1 1 1
vc 1 1 1 1
vc 1 1 1 1
vc 1 1 1 1
vc 1 1 1 1
vc 1 1 1 1
vc 1 1 1 1
vc 1 1 1 1
vc 1 1 1 1
vc 1 1 1 1
vc 1 1 1 1
vc 1 1 1 1
vc 1 1 1 1
vc 1 1 1 1
vc 1 1 1 1
vc 1 1 1 1
vc 1 1 1 1
vc 1 1 1 1
vc 1 1 1 1
vc 1 1 1 1
vc 1 1 1 1
vc 1 1 1 1
vc 1 1 1 1
vc 1 1 1 1
vc 1 1 1 1
vc 1 1 1 1
vc 1 1 1 1
vc 1 1 1 1
vc 1 1 1 1
vc 1 1 1 1
vc 1 1 1 1
vc 1 1 1 1
vc 1 1 1 1
vc 1 1 1 1
vc 1 1 1 1
vc 1 1 1 1
vc 1 1 1 1
vc 1 1 1 1
vc 1 1 1 1
vc 1 1 1 1
vc 1 1 1 1
vc 1 1 1 1
vc 1 1 1 1
vc 1 1 1 1
vc 1 1 1 1
vc 1 1 1 1
vc 1 1 1 1
vc 1 1 1 1
vc 1 1 1 1
vc 1 1 1 1
vc 1 1 1 1
vc 1 1 1 1
vc 1 1 1 1
vc 1 1 1 1
vc 1 1 1 1
vc 1 1 1 1
vc 1 1 1 1
vc 1 1 1 1
vc 1 1 1 1
vc 1 1 1 1
vc 1 1 1 1
vc 1 1 1 1
vc 1 1 1 1
vc 1 1 1 1
vc 1 1 1 1
vc 1 1 1 1
vc 1 1 1 1
vc 1 1 1 1
vc 1 1 1 1
vc 1 1 1 1
vc 1 1 1 1
vc 1 1 1 1
vc 1 1 1 1
vc 1 1 1 1
vc 1 1 1 1
vc 1 1 1 1
vc 1 1 1 1
vc 1 1 1 1
vc 1 1 1 1
vc 1 1 1 1
vc 1 1 1 1
vc 1 1 1 1
vc 1 1 1 1
vc 1 1 1 1
vc 1 1 1 1
vc 1 1 1 1
vc 1 1 1 1
vc 1 1 1 1
vc 1 1 1 1
vc 1 1 1 1
vc 1 1 1 1
vc 1 1 1 1
vc 1 1 1 1
vc 1 1 1 1
vc 1 1 1 1
vc 1 1 1 1
vc 1 1 1 1

usemtl Default-Diffuse
usemap Default-Diffuse
f 3/3/3 2/2/2 1/1/1
f 2/2/2 4/4/4 1/1/1
f 1/1/1 4/4/4 5/5/5
f 2/2/2 6/6/6 4/4/4
f 4/4/4 7/7/7 5/5/5
f 6/6/6 8/8/8 4/4/4
f 4/4/4 8/8/8 7/7/7
f 8/8/8 9/9/9 7/7/7
f 12/12/12 11/11/11 10/10/10
f 11/11/11 13/13/13 10/10/10
f 10/10/10 13/13/13 14/14/14
f 11/11/11 15/15/15 13/13/13
f 13/13/13 16/16/16 14/14/14
f 15/15/15 17/17/17 13/13/13
f 13/13/13 17/17/17 16/16/16
f 17/17/17 18/18/18 16/16/16
f 21/21/21 20/20/20 19/19/19
f 20/20/20 22/22/22 19/19/19
f 19/19/19 22/22/22 23/23/23
f 20/20/20 24/24/24 22/22/22
f 22/22/22 25/25/25 23/23/23
f 24/24/24 26/26/26 22/22/22
f 22/22/22 26/26/26 25/25/25
f 26/26/26 27/27/27 25/25/25
f 30/30/30 29/29/29 28/28/28
f 29/29/29 31/31/31 28/28/28
f 28/28/28 31/31/31 32/32/32
f 29/29/29 33/33/33 31/31/31
f 31/31/31 34/34/34 32/32/32
f 33/33/33 35/35/35 31/31/31
f 31/31/31 35/35/35 34/34/34
f 35/35/35 36/36/36 34/34/34
f 39/39/39 38/38/38 37/37/37
f 38/38/38 40/40/40 37/37/37
f 37/37/37 40/40/40 41/41/41
f 38/38/38 42/42/42 40/40/40
f 40/40/40 43/43/43 41/41/41
f 42/42/42 44/44/44 40/40/40
f 40/40/40 44/44/44 43/43/43
f 44/44/44 45/45/45 43/43/43
f 48/48/48 47/47/47 46/46/46
f 47/47/47 49/49/49 46/46/46
f 46/46/46 49/49/49 50/50/50
f 47/47/47 51/51/51 49/49/49
f 49/49/49 52/52/52 50/50/50
f 51/51/51 53/53/53 49/49/49
f 49/49/49 53/53/53 52/52/52
f 53/53/53 54/54/54 52/52/52
f 57/57/57 56/56/56 55/55/55
f 56/56/56 58/58/58 55/55/55
f 55/55/55 58/58/58 59/59/59
f 56/56/56 60/60/60 58/58/58
f 58/58/58 61/61/61 59/59/59
f 60/60/60 62/62/62 58/58/58
f 58/58/58 62/62/62 61/61/61
f 62/62/62 63/63/63 61/61/61
f 66/66/66 65/65/65 64/64/64
f 65/65/65 67/67/67 64/64/64
f 64/64/64 67/67/67 68/68/68
f 65/65/65 69/69/69 67/67/67
f 67/67/67 70/70/70 68/68/68
f 69/69/69 71/71/71 67/67/67
f 67/67/67 71/71/71 70/70/70
f 71/71/71 72/72/72 70/70/70
f 75/75/75 74/74/74 73/73/73
f 74/74/74 76/76/76 73/73/73
f 73/73/73 76/76/76 77/77/77
f 74/74/74 78/78/78 76/76/76
f 76/76/76 79/79/79 77/77/77
f 78/78/78 80/80/80 76/76/76
f 76/76/76 80/80/80 79/79/79
f 80/80/80 81/81/81 79/79/79
f 84/84/84 83/83/83 82/82/82
f 83/83/83 85/85/85 82/82/82
f 82/82/82 85/85/85 86/86/86
f 83/83/83 87/87/87 85/85/85
f 85/85/85 88/88/88 86/86/86
f 87/87/87 89/89/89 85/85/85
f 85/85/85 89/89/89 88/88/88
f 89/89/89 90/90/90 88/88/88
f 93/93/93 92/92/92 91/91/91
f 92/92/92 94/94/94 91/91/91
f 91/91/91 94/94/94 95/95/95
f 92/92/92 96/96/96 94/94/94
f 94/94/94 97/97/97 95/95/95
f 96/96/96 98/98/98 94/94/94
f 94/94/94 98/98/98 97/97/97
f 98/98/98 99/99/99 97/97/97
f 102/102/102 101/101/101 100/100/100
f 101/101/101 103/103/103 100/100/100
f 100/100/100 103/103/103 104/104/104
f 101/101/101 105/105/105 103/103/103
f 103/103/103 106/106/106 104/104/104
f 105/105/105 107/107/107 103/103/103
f 103/103/103 107/107/107 106/106/106
f 107/107/107 108/108/108 106/106/106
f 111/111/111 110/110/110 109/109/109
f 110/110/110 112/112/112 109/109/109
f 109/109/109 112/112/112 113/113/113
f 110/110/110 114/114/114 112/112/112
f 112/112/112 115/115/115 113/113/113
f 114/114/114 116/116/116 112/112/112
f 112/112/112 116/116/116 115/115/115
f 116/116/116 117/117/117 115/115/115
f 120/120/120 119/119/119 118/118/118
f 119/119/119 121/121/121 118/118/118
f 118/118/118 121/121/121 122/122/122
f 119/119/119 123/123/123 121/121/121
f 121/121/121 124/124/124 122/122/122
f 123/123/123 125/125/125 121/121/121
f 121/121/121 125/125/125 124/124/124
f 125/125/125 126/126/126 124/124/124
f 129/129/129 128/128/128 127/127/127
f 128/128/128 130/130/130 127/127/127
f 127/127/127 130/130/130 131/131/131
f 128/128/128 132/132/132 130/130/130
f 130/130/130 133/133/133 131/131/131
f 132/132/132 134/134/134 130/130/130
f 130/130/130 134/134/134 133/133/133
f 134/134/134 135/135/135 133/133/133
