g Custom Mesh - Baked
v 554.7297 40.81443 -1020.735
v 556.7374 40.71 -1022.641
v 556.7209 40.77295 -1020.553
v 554.7401 40.75983 -1022.549
v 552.7385 40.85591 -1020.918
v 556.6132 40.65547 -1024.56
v 552.7429 40.80967 -1022.458
v 554.6178 40.7063 -1024.433
v 552.6224 40.75712 -1024.307
v 554.6178 40.7063 -1024.433
v 556.5676 40.60711 -1026.209
v 556.6132 40.65547 -1024.56
v 554.5693 40.65216 -1026.278
v 552.6224 40.75712 -1024.307
v 556.7238 40.56694 -1027.428
v 552.571 40.69722 -1026.347
v 554.8009 40.59582 -1027.977
v 552.878 40.6247 -1028.526
v 554.8009 40.59582 -1027.977
v 557.058 40.53761 -1028.144
v 556.7238 40.56694 -1027.428
v 555.5192 40.53561 -1029.421
v 552.878 40.6247 -1028.526
v 558.0656 40.47337 -1029.725
v 553.9804 40.53362 -1030.699
v 556.3027 40.48663 -1030.669
v 554.5399 40.49989 -1031.614
v 556.3027 40.48663 -1030.669
v 558.5424 40.45211 -1030.496
v 558.0656 40.47337 -1029.725
v 557.0277 40.44869 -1031.802
v 554.5399 40.49989 -1031.614
v 559.136 40.43628 -1030.878
v 555.513 40.44527 -1033.108
v 558.3358 40.40025 -1032.711
v 557.5355 40.36421 -1034.543
v 558.3358 40.40025 -1032.711
v 561.0953 40.37396 -1031.302
v 559.136 40.43628 -1030.878
v 560.8685 40.3198 -1033.288
v 557.5355 40.36421 -1034.543
v 565.2216 40.24677 -1031.429
v 560.6418 40.26564 -1035.275
v 565.2676 40.18582 -1033.427
v 565.3135 40.12487 -1035.426
v 565.2676 40.18582 -1033.427
v 572.0141 40.04512 -1031.011
v 565.2216 40.24677 -1031.429
v 572.1776 39.99039 -1033.004
v 565.3135 40.12487 -1035.426
v 580.78 39.79926 -1030.14
v 572.3411 39.93566 -1034.996
v 580.9988 39.75175 -1032.127
v 581.2176 39.70424 -1034.115
v 580.9988 39.75175 -1032.127
v 590.7689 39.51533 -1028.944
v 580.78 39.79926 -1030.14
v 591.0198 39.47536 -1030.928
v 581.2176 39.70424 -1034.115
v 601.2571 39.19898 -1027.552
v 591.2706 39.4354 -1032.911
v 601.5292 39.16669 -1029.534
v 601.8013 39.13441 -1031.515
v 601.5292 39.16669 -1029.534
v 611.5281 38.85575 -1026.096
v 601.2571 39.19898 -1027.552
v 611.816 38.8312 -1028.075
v 601.8013 39.13441 -1031.515
v 621.6174 38.48075 -1024.516
v 612.1039 38.80666 -1030.054
v 621.9414 38.45474 -1026.49
v 622.2654 38.42873 -1028.463
v 621.9414 38.45474 -1026.49
v 632.0435 38.06347 -1022.732
v 621.6174 38.48075 -1024.516
v 632.3893 38.03657 -1024.701
v 622.2654 38.42873 -1028.463
v 642.6674 37.62167 -1020.828
v 632.7352 38.00967 -1026.671
v 643.0229 37.59438 -1022.796
v 643.3784 37.5671 -1024.764
v 643.0229 37.59438 -1022.796
v 653.3516 37.17309 -1018.891
v 642.6674 37.62167 -1020.828
v 653.7053 37.14588 -1020.859
v 643.3784 37.5671 -1024.764
v 663.9592 36.73543 -1017.008
v 654.0591 37.11866 -1022.827
v 664.2997 36.70875 -1018.978
v 664.6402 36.68207 -1020.949

vn 0.0471126 1.998548 -0.05987007
vn 0.04711254 1.998548 -0.05986987
vn 0.0471126 1.998548 -0.05987007
vn 0.04711254 1.998548 -0.05986987
vn 0.0471126 1.998548 -0.05987007
vn 0.04711237 1.998549 -0.05987086
vn 0.04711254 1.998548 -0.05986987
vn 0.04711237 1.998549 -0.05987086
vn 0.04711237 1.998549 -0.05987086
vn 0.04711237 1.998549 -0.05987086
vn 0.04711257 1.998549 -0.05987025
vn 0.04711237 1.998549 -0.05987086
vn 0.04711257 1.998549 -0.05987024
vn 0.04711237 1.998549 -0.05987086
vn 0.04711282 1.998548 -0.05986981
vn 0.04711257 1.998549 -0.05987024
vn 0.04711283 1.998549 -0.05986984
vn 0.04711281 1.998548 -0.0598698
vn 0.04711283 1.998549 -0.05986984
vn 0.04711229 1.998548 -0.0598691
vn 0.04711281 1.998548 -0.0598698
vn 0.04711249 1.998548 -0.05986893
vn 0.04711283 1.998549 -0.05986984
vn 0.03921345 1.999107 -0.04512046
vn 0.04711249 1.998548 -0.05986893
vn 0.03921345 1.999107 -0.04512046
vn 0.03921345 1.999107 -0.04512046
vn 0.03921345 1.999107 -0.04512046
vn 0.03477722 1.999178 -0.04556479
vn 0.03921345 1.999107 -0.04512046
vn 0.03477722 1.999178 -0.04556479
vn 0.03921345 1.999107 -0.04512046
vn 0.04222395 1.99872 -0.05773773
vn 0.03477737 1.999178 -0.04556477
vn 0.04222404 1.99872 -0.0577379
vn 0.04222404 1.99872 -0.0577379
vn 0.04222404 1.99872 -0.0577379
vn 0.05477812 1.998327 -0.06073796
vn 0.04222404 1.99872 -0.0577379
vn 0.05477812 1.998327 -0.06073796
vn 0.04222404 1.99872 -0.0577379
vn 0.06191831 1.998155 -0.05951675
vn 0.05477799 1.998327 -0.0607382
vn 0.06191831 1.998155 -0.05951675
vn 0.0619182 1.998155 -0.05951668
vn 0.0619182 1.998155 -0.05951668
vn 0.05879074 1.998509 -0.05006938
vn 0.0619182 1.998155 -0.05951668
vn 0.05879074 1.998509 -0.05006938
vn 0.0619182 1.998155 -0.05951668
vn 0.05869626 1.998711 -0.04132015
vn 0.05879074 1.998509 -0.05006938
vn 0.05869626 1.998711 -0.04132015
vn 0.05869626 1.998711 -0.04132015
vn 0.05869626 1.998711 -0.04132015
vn 0.06062873 1.998815 -0.03260133
vn 0.05869626 1.998711 -0.04132015
vn 0.06062873 1.998815 -0.03260133
vn 0.05869626 1.998711 -0.04132015
vn 0.06478696 1.99881 -0.02367268
vn 0.06062873 1.998815 -0.03260133
vn 0.06478696 1.99881 -0.02367268
vn 0.06478696 1.99881 -0.02367268
vn 0.06478696 1.99881 -0.02367268
vn 0.07225066 1.998644 -0.01428065
vn 0.06478696 1.99881 -0.02367268
vn 0.07225682 1.998643 -0.01427964
vn 0.06478696 1.99881 -0.02367268
vn 0.07965047 1.99837 -0.01326413
vn 0.07225682 1.998643 -0.01427964
vn 0.07965047 1.99837 -0.01326413
vn 0.07965047 1.99837 -0.01326413
vn 0.07965047 1.99837 -0.01326413
vn 0.08411513 1.998191 -0.01251589
vn 0.07965047 1.99837 -0.01326413
vn 0.08411513 1.998191 -0.01251589
vn 0.07965047 1.99837 -0.01326413
vn 0.08607882 1.99811 -0.01215467
vn 0.08411513 1.998191 -0.01251589
vn 0.08607882 1.99811 -0.01215467
vn 0.08607882 1.99811 -0.01215467
vn 0.08607882 1.99811 -0.01215467
vn 0.08571908 1.998125 -0.0122221
vn 0.08607882 1.99811 -0.01215467
vn 0.08571908 1.998125 -0.0122221
vn 0.08607882 1.99811 -0.01215467
vn 0.08301505 1.998236 -0.01270959
vn 0.08571908 1.998125 -0.0122221
vn 0.08301505 1.998236 -0.01270959
vn 0.08301241 1.998236 -0.01271034

vt 0.5 0
vt 1 0.5
vt 1 0
vt 0.5 0.5
vt 0 0
vt 1 1
vt 0 0.5
vt 0.5 1
vt 0 1
vt 0.5 0
vt 1 0.5
vt 1 0
vt 0.5 0.5
vt 0 0
vt 1 1
vt 0 0.5
vt 0.5 1
vt 0 1
vt 0.5 0
vt 1 0.5
vt 1 0
vt 0.5 0.5
vt 0 0
vt 1 1
vt 0 0.5
vt 0.5 1
vt 0 1
vt 0.5 0
vt 1 0.5
vt 1 0
vt 0.5 0.5
vt 0 0
vt 1 1
vt 0 0.5
vt 0.5 1
vt 0 1
vt 0.5 0
vt 1 0.5
vt 1 0
vt 0.5 0.5
vt 0 0
vt 1 1
vt 0 0.5
vt 0.5 1
vt 0 1
vt 0.5 0
vt 1 0.5
vt 1 0
vt 0.5 0.5
vt 0 0
vt 1 1
vt 0 0.5
vt 0.5 1
vt 0 1
vt 0.5 0
vt 1 0.5
vt 1 0
vt 0.5 0.5
vt 0 0
vt 1 1
vt 0 0.5
vt 0.5 1
vt 0 1
vt 0.5 0
vt 1 0.5
vt 1 0
vt 0.5 0.5
vt 0 0
vt 1 1
vt 0 0.5
vt 0.5 1
vt 0 1
vt 0.5 0
vt 1 0.5
vt 1 0
vt 0.5 0.5
vt 0 0
vt 1 1
vt 0 0.5
vt 0.5 1
vt 0 1
vt 0.5 0
vt 1 0.5
vt 1 0
vt 0.5 0.5
vt 0 0
vt 1 1
vt 0 0.5
vt 0.5 1
vt 0 1

vt2 0.02457036 0.1368096
vt2 0.0417721 0.1193823
vt2 0.04221763 0.137845
vt2 0.02414902 0.120772
vt2 0.006923064 0.1357743
vt2 0.04013152 0.1024644
vt2 0.006525948 0.1221616
vt2 0.02253497 0.1041593
vt2 0.004938425 0.1058543
vt2 0.02253497 0.1041593
vt2 0.03926158 0.0878951
vt2 0.04013152 0.1024644
vt2 0.02158391 0.0878668
vt2 0.004938425 0.1058543
vt2 0.04029744 0.07708245
vt2 0.00390625 0.08783849
vt2 0.02314981 0.07278469
vt2 0.006002221 0.06848695
vt2 0.02314981 0.07278469
vt2 0.04304823 0.07065799
vt2 0.04029744 0.07708245
vt2 0.02908853 0.0598113
vt2 0.006002221 0.06848695
vt2 0.0515024 0.05639436
vt2 0.01512881 0.04896466
vt2 0.03565757 0.04855566
vt2 0.0198127 0.04071704
vt2 0.03565757 0.04855566
vt2 0.05549588 0.04944595
vt2 0.0515024 0.05639436
vt2 0.04174104 0.03834102
vt2 0.0198127 0.04071704
vt2 0.06063121 0.04589615
vt2 0.02798616 0.02723615
vt2 0.05304065 0.02993131
vt2 0.04545013 0.01396644
vt2 0.05304065 0.02993131
vt2 0.07782537 0.04158099
vt2 0.06063121 0.04589615
vt2 0.07525898 0.02409072
vt2 0.04545013 0.01396644
vt2 0.1142586 0.03926045
vt2 0.07269258 0.006600447
vt2 0.1140985 0.02158335
vt2 0.1139384 0.00390625
vt2 0.1140985 0.02158335
vt2 0.1744123 0.04096817
vt2 0.1142586 0.03926045
vt2 0.1752904 0.0233121
vt2 0.1139384 0.00390625
vt2 0.2521353 0.04611422
vt2 0.1761685 0.005656035
vt2 0.2535014 0.02848921
vt2 0.2548675 0.0108642
vt2 0.2535014 0.02848921
vt2 0.3407628 0.05377097
vt2 0.2521353 0.04611422
vt2 0.342411 0.03617045
vt2 0.2548675 0.0108642
vt2 0.4338645 0.06300732
vt2 0.3440591 0.01856993
vt2 0.4356989 0.04542546
vt2 0.4375333 0.0278436
vt2 0.4356989 0.04542546
vt2 0.525075 0.07287712
vt2 0.4338645 0.06300732
vt2 0.5270467 0.05530979
vt2 0.4375333 0.0278436
vt2 0.6147266 0.08388544
vt2 0.5290189 0.03774245
vt2 0.61702 0.06635716
vt2 0.6193134 0.04882887
vt2 0.61702 0.06635716
vt2 0.7074264 0.09660656
vt2 0.6147266 0.08388544
vt2 0.709914 0.0791048
vt2 0.6193134 0.04882887
vt2 0.8019158 0.1103207
vt2 0.7124016 0.0616025
vt2 0.8044893 0.09283122
vt2 0.8070626 0.07534122
vt2 0.8044893 0.09283122
vt2 0.8969496 0.1243081
vt2 0.8019158 0.1103207
vt2 0.8995073 0.1068164
vt2 0.8070626 0.07534122
vt2 0.9912877 0.137845
vt2 0.9020649 0.08932478
vt2 0.9937276 0.1203362
vt2 0.9961674 0.1028273

vt2 0 0
vt2 0 0
vt2 0 0
vt2 0 0
vt2 0 0
vt2 0 0
vt2 0 0
vt2 0 0
vt2 0 0
vt2 0 0
vt2 0 0
vt2 0 0
vt2 0 0
vt2 0 0
vt2 0 0
vt2 0 0
vt2 0 0
vt2 0 0
vt2 0 0
vt2 0 0
vt2 0 0
vt2 0 0
vt2 0 0
vt2 0 0
vt2 0 0
vt2 0 0
vt2 0 0
vt2 0 0
vt2 0 0
vt2 0 0
vt2 0 0
vt2 0 0
vt2 0 0
vt2 0 0
vt2 0 0
vt2 0 0
vt2 0 0
vt2 0 0
vt2 0 0
vt2 0 0
vt2 0 0
vt2 0 0
vt2 0 0
vt2 0 0
vt2 0 0
vt2 0 0
vt2 0 0
vt2 0 0
vt2 0 0
vt2 0 0
vt2 0 0
vt2 0 0
vt2 0 0
vt2 0 0
vt2 0 0
vt2 0 0
vt2 0 0
vt2 0 0
vt2 0 0
vt2 0 0
vt2 0 0
vt2 0 0
vt2 0 0
vt2 0 0
vt2 0 0
vt2 0 0
vt2 0 0
vt2 0 0
vt2 0 0
vt2 0 0
vt2 0 0
vt2 0 0
vt2 0 0
vt2 0 0
vt2 0 0
vt2 0 0
vt2 0 0
vt2 0 0
vt2 0 0
vt2 0 0
vt2 0 0
vt2 0 0
vt2 0 0
vt2 0 0
vt2 0 0
vt2 0 0
vt2 0 0
vt2 0 0
vt2 0 0
vt2 0 0

vc 1 1 1 1
vc 1 1 1 1
vc 1 1 1 1
vc 1 1 1 1
vc 1 1 1 1
vc 1 1 1 1
vc 1 1 1 1
vc 1 1 1 1
vc 1 1 1 1
vc 1 1 1 1
vc 1 1 1 1
vc 1 1 1 1
vc 1 1 1 1
vc 1 1 1 1
vc 1 1 1 1
vc 1 1 1 1
vc 1 1 1 1
vc 1 1 1 1
vc 1 1 1 1
vc 1 1 1 1
vc 1 1 1 1
vc 1 1 1 1
vc 1 1 1 1
vc 1 1 1 1
vc 1 1 1 1
vc 1 1 1 1
vc 1 1 1 1
vc 1 1 1 1
vc 1 1 1 1
vc 1 1 1 1
vc 1 1 1 1
vc 1 1 1 1
vc 1 1 1 1
vc 1 1 1 1
vc 1 1 1 1
vc 1 1 1 1
vc 1 1 1 1
vc 1 1 1 1
vc 1 1 1 1
vc 1 1 1 1
vc 1 1 1 1
vc 1 1 1 1
vc 1 1 1 1
vc 1 1 1 1
vc 1 1 1 1
vc 1 1 1 1
vc 1 1 1 1
vc 1 1 1 1
vc 1 1 1 1
vc 1 1 1 1
vc 1 1 1 1
vc 1 1 1 1
vc 1 1 1 1
vc 1 1 1 1
vc 1 1 1 1
vc 1 1 1 1
vc 1 1 1 1
vc 1 1 1 1
vc 1 1 1 1
vc 1 1 1 1
vc 1 1 1 1
vc 1 1 1 1
vc 1 1 1 1
vc 1 1 1 1
vc 1 1 1 1
vc 1 1 1 1
vc 1 1 1 1
vc 1 1 1 1
vc 1 1 1 1
vc 1 1 1 1
vc 1 1 1 1
vc 1 1 1 1
vc 1 1 1 1
vc 1 1 1 1
vc 1 1 1 1
vc 1 1 1 1
vc 1 1 1 1
vc 1 1 1 1
vc 1 1 1 1
vc 1 1 1 1
vc 1 1 1 1
vc 1 1 1 1
vc 1 1 1 1
vc 1 1 1 1
vc 1 1 1 1
vc 1 1 1 1
vc 1 1 1 1
vc 1 1 1 1
vc 1 1 1 1
vc 1 1 1 1

usemtl Default-Diffuse
usemap Default-Diffuse
f 3/3/3 2/2/2 1/1/1
f 2/2/2 4/4/4 1/1/1
f 1/1/1 4/4/4 5/5/5
f 2/2/2 6/6/6 4/4/4
f 4/4/4 7/7/7 5/5/5
f 6/6/6 8/8/8 4/4/4
f 4/4/4 8/8/8 7/7/7
f 8/8/8 9/9/9 7/7/7
f 12/12/12 11/11/11 10/10/10
f 11/11/11 13/13/13 10/10/10
f 10/10/10 13/13/13 14/14/14
f 11/11/11 15/15/15 13/13/13
f 13/13/13 16/16/16 14/14/14
f 15/15/15 17/17/17 13/13/13
f 13/13/13 17/17/17 16/16/16
f 17/17/17 18/18/18 16/16/16
f 21/21/21 20/20/20 19/19/19
f 20/20/20 22/22/22 19/19/19
f 19/19/19 22/22/22 23/23/23
f 20/20/20 24/24/24 22/22/22
f 22/22/22 25/25/25 23/23/23
f 24/24/24 26/26/26 22/22/22
f 22/22/22 26/26/26 25/25/25
f 26/26/26 27/27/27 25/25/25
f 30/30/30 29/29/29 28/28/28
f 29/29/29 31/31/31 28/28/28
f 28/28/28 31/31/31 32/32/32
f 29/29/29 33/33/33 31/31/31
f 31/31/31 34/34/34 32/32/32
f 33/33/33 35/35/35 31/31/31
f 31/31/31 35/35/35 34/34/34
f 35/35/35 36/36/36 34/34/34
f 39/39/39 38/38/38 37/37/37
f 38/38/38 40/40/40 37/37/37
f 37/37/37 40/40/40 41/41/41
f 38/38/38 42/42/42 40/40/40
f 40/40/40 43/43/43 41/41/41
f 42/42/42 44/44/44 40/40/40
f 40/40/40 44/44/44 43/43/43
f 44/44/44 45/45/45 43/43/43
f 48/48/48 47/47/47 46/46/46
f 47/47/47 49/49/49 46/46/46
f 46/46/46 49/49/49 50/50/50
f 47/47/47 51/51/51 49/49/49
f 49/49/49 52/52/52 50/50/50
f 51/51/51 53/53/53 49/49/49
f 49/49/49 53/53/53 52/52/52
f 53/53/53 54/54/54 52/52/52
f 57/57/57 56/56/56 55/55/55
f 56/56/56 58/58/58 55/55/55
f 55/55/55 58/58/58 59/59/59
f 56/56/56 60/60/60 58/58/58
f 58/58/58 61/61/61 59/59/59
f 60/60/60 62/62/62 58/58/58
f 58/58/58 62/62/62 61/61/61
f 62/62/62 63/63/63 61/61/61
f 66/66/66 65/65/65 64/64/64
f 65/65/65 67/67/67 64/64/64
f 64/64/64 67/67/67 68/68/68
f 65/65/65 69/69/69 67/67/67
f 67/67/67 70/70/70 68/68/68
f 69/69/69 71/71/71 67/67/67
f 67/67/67 71/71/71 70/70/70
f 71/71/71 72/72/72 70/70/70
f 75/75/75 74/74/74 73/73/73
f 74/74/74 76/76/76 73/73/73
f 73/73/73 76/76/76 77/77/77
f 74/74/74 78/78/78 76/76/76
f 76/76/76 79/79/79 77/77/77
f 78/78/78 80/80/80 76/76/76
f 76/76/76 80/80/80 79/79/79
f 80/80/80 81/81/81 79/79/79
f 84/84/84 83/83/83 82/82/82
f 83/83/83 85/85/85 82/82/82
f 82/82/82 85/85/85 86/86/86
f 83/83/83 87/87/87 85/85/85
f 85/85/85 88/88/88 86/86/86
f 87/87/87 89/89/89 85/85/85
f 85/85/85 89/89/89 88/88/88
f 89/89/89 90/90/90 88/88/88
