g Custom Mesh - Baked
v 738.9142 39.67743 -801.0682
v 736.5343 39.44807 -805.0928
v 739.4934 39.56382 -804.613
v 735.9552 39.55998 -801.5479
v 738.3351 39.79103 -797.5234
v 733.5752 39.33231 -805.5725
v 735.3761 39.6719 -798.0031
v 732.9962 39.44254 -802.0276
v 732.4171 39.55276 -798.4827
v 737.756 39.90464 -793.9786
v 735.3761 39.6719 -798.0031
v 738.3351 39.79103 -797.5234
v 734.7971 39.78382 -794.4582
v 737.1769 40.01825 -790.4338
v 732.4171 39.55276 -798.4827
v 734.218 39.89573 -790.9133
v 731.8381 39.66299 -794.9377
v 731.259 39.77321 -791.3928
v 736.5977 40.13186 -786.889
v 734.218 39.89573 -790.9133
v 737.1769 40.01825 -790.4338
v 733.6388 40.00764 -787.3684
v 736.0185 40.24546 -783.3442
v 731.259 39.77321 -791.3928
v 733.0597 40.11956 -783.8235
v 730.6799 39.88343 -787.8478
v 730.1009 39.99366 -784.3029
v 735.4393 40.35907 -779.7994
v 733.0597 40.11956 -783.8235
v 736.0185 40.24546 -783.3442
v 732.4806 40.23148 -780.2787
v 734.8602 40.47268 -776.2546
v 730.1009 39.99366 -784.3029
v 731.9016 40.3434 -776.7338
v 729.5219 40.10388 -780.758
v 728.9429 40.21411 -777.2131
v 734.281 40.58629 -772.7097
v 731.9016 40.3434 -776.7338
v 734.8602 40.47268 -776.2546
v 731.3224 40.45531 -773.1889
v 733.7018 40.6999 -769.1649
v 728.9429 40.21411 -777.2131
v 730.7433 40.56723 -769.644
v 728.3639 40.32433 -773.6681
v 727.7849 40.43456 -770.1232
v 733.1227 40.8135 -765.6201
v 730.7433 40.56723 -769.644
v 733.7018 40.6999 -769.1649
v 730.1642 40.67914 -766.0992
v 732.5435 40.9271 -762.0753
v 727.7849 40.43456 -770.1232
v 729.5851 40.79106 -762.5543
v 727.2058 40.54478 -766.5782
v 726.6268 40.65501 -763.0333
v 731.9644 41.04071 -758.5305
v 729.5851 40.79106 -762.5543
v 732.5435 40.9271 -762.0753
v 729.006 40.90297 -759.0095
v 731.3852 41.15432 -754.9857
v 726.6268 40.65501 -763.0333
v 728.4269 41.01489 -755.4646
v 726.0477 40.76524 -759.4884
v 725.4687 40.87545 -755.9435
v 730.806 41.26793 -751.4409
v 728.4269 41.01489 -755.4646
v 731.3852 41.15432 -754.9857
v 727.8478 41.1268 -751.9197
v 730.2269 41.38153 -747.8961
v 725.4687 40.87545 -755.9435
v 727.2687 41.23872 -748.3748
v 724.8896 40.98568 -752.3985
v 724.3106 41.0959 -748.8536
v 729.6477 41.49514 -744.3513
v 727.2687 41.23872 -748.3748
v 730.2269 41.38154 -747.8961
v 726.6896 41.35064 -744.83
v 729.0685 41.60875 -740.8065
v 724.3106 41.09591 -748.8536
v 726.1105 41.46255 -741.2851
v 723.7316 41.20613 -745.3086
v 723.1526 41.31635 -741.7637
v 728.4893 41.72235 -737.2617
v 726.1105 41.46255 -741.2851
v 729.0685 41.60875 -740.8065
v 725.5314 41.57447 -737.7402
v 727.9102 41.83597 -733.7169
v 723.1526 41.31635 -741.7637
v 724.9523 41.68638 -734.1954
v 722.5735 41.42658 -738.2188
v 721.9945 41.5368 -734.6738
v 727.3311 41.94958 -730.1721
v 724.9523 41.68638 -734.1954
v 727.9102 41.83597 -733.7169
v 724.3733 41.7983 -730.6505
v 726.7518 42.06318 -726.6273
v 721.9945 41.5368 -734.6738
v 723.7942 41.91022 -727.1057
v 721.4155 41.64703 -731.1289
v 720.8365 41.75726 -727.584
v 726.1727 42.17678 -723.0825
v 723.7942 41.91022 -727.1057
v 726.7518 42.06318 -726.6273
v 723.2151 42.02213 -723.5608
v 725.5936 42.29041 -719.5377
v 720.8365 41.75726 -727.584
v 722.636 42.13405 -720.0159
v 720.2575 41.86748 -724.0391
v 719.6785 41.9777 -720.4941
v 725.0144 42.40401 -715.9929
v 722.636 42.13405 -720.0159
v 725.5936 42.29041 -719.5377
v 722.0569 42.24596 -716.471
v 724.4352 42.51762 -712.4481
v 719.6785 41.9777 -720.4941
v 721.4778 42.35788 -712.9261
v 719.0995 42.08792 -716.9492
v 718.5205 42.19814 -713.4042
v 723.856 42.63123 -708.9032
v 721.4778 42.35788 -712.9261
v 724.4352 42.51762 -712.4481
v 720.8987 42.4698 -709.3812
v 723.2769 42.74483 -705.3584
v 718.5205 42.19814 -713.4042
v 720.3196 42.58171 -705.8364
v 717.9415 42.30836 -709.8593
v 717.3624 42.41859 -706.3143
v 722.6976 42.85843 -701.8136
v 720.3196 42.58171 -705.8364
v 723.2769 42.74483 -705.3584
v 719.7405 42.69363 -702.2915
v 722.1184 42.97205 -698.2689
v 717.3624 42.41859 -706.3143
v 719.1614 42.80554 -698.7466
v 716.7834 42.52882 -702.7694
v 716.2043 42.63903 -699.2244

vn -0.03363798 0.9987479 -0.03702683
vn -0.03308135 0.9987698 -0.03693661
vn -0.03308135 0.9987698 -0.03693661
vn -0.03363798 0.9987479 -0.03702683
vn -0.03419473 0.9987257 -0.03711709
vn -0.03308135 0.9987698 -0.03693661
vn -0.03419473 0.9987257 -0.03711709
vn -0.03363798 0.9987479 -0.03702683
vn -0.03419473 0.9987257 -0.03711709
vn -0.03475123 0.9987031 -0.0372073
vn -0.03419473 0.9987257 -0.03711709
vn -0.03419473 0.9987257 -0.03711709
vn -0.03475123 0.9987031 -0.0372073
vn -0.03530869 0.9986803 -0.03729763
vn -0.03419473 0.9987257 -0.03711709
vn -0.03530869 0.9986803 -0.03729763
vn -0.03475123 0.9987031 -0.0372073
vn -0.03530869 0.9986803 -0.03729763
vn -0.03586522 0.998657 -0.0373878
vn -0.03530869 0.9986803 -0.03729763
vn -0.03530869 0.9986803 -0.03729763
vn -0.03586522 0.998657 -0.0373878
vn -0.03642198 0.9986335 -0.03747801
vn -0.03530869 0.9986803 -0.03729763
vn -0.03642198 0.9986335 -0.03747801
vn -0.03586522 0.998657 -0.0373878
vn -0.03642198 0.9986335 -0.03747801
vn -0.03697932 0.9986097 -0.03756831
vn -0.03642198 0.9986335 -0.03747801
vn -0.03642198 0.9986335 -0.03747801
vn -0.03697932 0.9986097 -0.03756831
vn -0.03753584 0.9985856 -0.03765849
vn -0.03642198 0.9986335 -0.03747801
vn -0.03753584 0.9985856 -0.03765849
vn -0.03697932 0.9986097 -0.03756831
vn -0.03753584 0.9985856 -0.03765849
vn -0.03809257 0.9985608 -0.03774867
vn -0.03753584 0.9985856 -0.03765849
vn -0.03753584 0.9985856 -0.03765849
vn -0.03809257 0.9985608 -0.03774867
vn -0.03864993 0.9985363 -0.03783896
vn -0.03753584 0.9985856 -0.03765849
vn -0.03864993 0.9985363 -0.03783896
vn -0.03809257 0.9985608 -0.03774867
vn -0.03864993 0.9985363 -0.03783896
vn -0.03920562 0.9985111 -0.03792895
vn -0.03864993 0.9985363 -0.03783896
vn -0.03864993 0.9985363 -0.03783896
vn -0.03920562 0.9985111 -0.03792895
vn -0.03976122 0.9984857 -0.0380189
vn -0.03864993 0.9985363 -0.03783896
vn -0.03976122 0.9984857 -0.0380189
vn -0.03920562 0.9985111 -0.03792895
vn -0.03976122 0.9984857 -0.0380189
vn -0.04031691 0.9984598 -0.03810887
vn -0.03976122 0.9984857 -0.0380189
vn -0.03976122 0.9984857 -0.0380189
vn -0.04031691 0.9984598 -0.03810887
vn -0.0408771 0.9984336 -0.03819954
vn -0.03976122 0.9984857 -0.0380189
vn -0.0408771 0.9984336 -0.03819954
vn -0.04031691 0.9984598 -0.03810887
vn -0.0408771 0.9984336 -0.03819954
vn -0.04143364 0.9984072 -0.03828962
vn -0.0408771 0.9984336 -0.03819954
vn -0.0408771 0.9984336 -0.03819954
vn -0.04143364 0.9984072 -0.03828962
vn -0.04199019 0.9983807 -0.0383797
vn -0.0408771 0.9984336 -0.03819954
vn -0.04199019 0.9983807 -0.0383797
vn -0.04143364 0.9984072 -0.03828962
vn -0.04199019 0.9983807 -0.0383797
vn -0.04254733 0.9983537 -0.03846984
vn -0.04199019 0.9983807 -0.0383797
vn -0.04199019 0.9983807 -0.0383797
vn -0.04254733 0.9983537 -0.03846984
vn -0.04310315 0.9983264 -0.03855978
vn -0.04199019 0.9983807 -0.0383797
vn -0.04310315 0.9983264 -0.03855978
vn -0.04254733 0.9983537 -0.03846984
vn -0.04310315 0.9983264 -0.03855978
vn -0.04365908 0.9982985 -0.03864971
vn -0.04310315 0.9983264 -0.03855978
vn -0.04310315 0.9983264 -0.03855978
vn -0.04365908 0.9982985 -0.03864971
vn -0.0442187 0.9982705 -0.03874025
vn -0.04310315 0.9983264 -0.03855978
vn -0.0442187 0.9982705 -0.03874025
vn -0.04365908 0.9982985 -0.03864971
vn -0.0442187 0.9982705 -0.03874025
vn -0.04477464 0.9982421 -0.03883017
vn -0.0442187 0.9982705 -0.03874025
vn -0.0442187 0.9982705 -0.03874025
vn -0.04477464 0.9982421 -0.03883017
vn -0.04533036 0.9982136 -0.03892006
vn -0.0442187 0.9982705 -0.03874025
vn -0.04533036 0.9982136 -0.03892006
vn -0.04477464 0.9982421 -0.03883017
vn -0.04533036 0.9982136 -0.03892006
vn -0.04588622 0.9981847 -0.03900995
vn -0.04533036 0.9982136 -0.03892006
vn -0.04533036 0.9982136 -0.03892006
vn -0.04588622 0.9981847 -0.03900995
vn -0.04644687 0.9981552 -0.0391006
vn -0.04533036 0.9982136 -0.03892006
vn -0.04644687 0.9981552 -0.0391006
vn -0.04588622 0.9981847 -0.03900995
vn -0.04644687 0.9981552 -0.0391006
vn -0.04700376 0.9981255 -0.03919065
vn -0.04644687 0.9981552 -0.0391006
vn -0.04644687 0.9981552 -0.0391006
vn -0.04700376 0.9981255 -0.03919065
vn -0.04756056 0.9980957 -0.03928068
vn -0.04644687 0.9981552 -0.0391006
vn -0.04756056 0.9980957 -0.03928068
vn -0.04700376 0.9981255 -0.03919065
vn -0.04756056 0.9980957 -0.03928068
vn -0.04811805 0.9980653 -0.03937078
vn -0.04756056 0.9980957 -0.03928068
vn -0.04756056 0.9980957 -0.03928068
vn -0.04811805 0.9980653 -0.03937078
vn -0.04867308 0.998035 -0.03946051
vn -0.04756056 0.9980957 -0.03928068
vn -0.04867308 0.998035 -0.03946051
vn -0.04811805 0.9980653 -0.03937078
vn -0.04867308 0.998035 -0.03946051
vn -0.04922857 0.9980041 -0.03955027
vn -0.04867308 0.998035 -0.03946051
vn -0.04867308 0.998035 -0.03946051
vn -0.04922857 0.9980041 -0.03955027
vn -0.0497909 0.9979728 -0.03964115
vn -0.04867308 0.998035 -0.03946051
vn -0.0497909 0.9979728 -0.03964115
vn -0.04922857 0.9980041 -0.03955027
vn -0.0497909 0.9979728 -0.03964115

vt 0.5 0
vt 1 0.5
vt 1 0
vt 0.5 0.5
vt 0 0
vt 1 1
vt 0 0.5
vt 0.5 1
vt 0 1
vt 0.5 0
vt 1 0.5
vt 1 0
vt 0.5 0.5
vt 0 0
vt 1 1
vt 0 0.5
vt 0.5 1
vt 0 1
vt 0.5 0
vt 1 0.5
vt 1 0
vt 0.5 0.5
vt 0 0
vt 1 1
vt 0 0.5
vt 0.5 1
vt 0 1
vt 0.5 0
vt 1 0.5
vt 1 0
vt 0.5 0.5
vt 0 0
vt 1 1
vt 0 0.5
vt 0.5 1
vt 0 1
vt 0.5 0
vt 1 0.5
vt 1 0
vt 0.5 0.5
vt 0 0
vt 1 1
vt 0 0.5
vt 0.5 1
vt 0 1
vt 0.5 0
vt 1 0.5
vt 1 0
vt 0.5 0.5
vt 0 0
vt 1 1
vt 0 0.5
vt 0.5 1
vt 0 1
vt 0.5 0
vt 1 0.5
vt 1 0
vt 0.5 0.5
vt 0 0
vt 1 1
vt 0 0.5
vt 0.5 1
vt 0 1
vt 0.5 0
vt 1 0.5
vt 1 0
vt 0.5 0.5
vt 0 0
vt 1 1
vt 0 0.5
vt 0.5 1
vt 0 1
vt 0.5 0
vt 1 0.5
vt 1 0
vt 0.5 0.5
vt 0 0
vt 1 1
vt 0 0.5
vt 0.5 1
vt 0 1
vt 0.5 0
vt 1 0.5
vt 1 0
vt 0.5 0.5
vt 0 0
vt 1 1
vt 0 0.5
vt 0.5 1
vt 0 1
vt 0.5 0
vt 1 0.5
vt 1 0
vt 0.5 0.5
vt 0 0
vt 1 1
vt 0 0.5
vt 0.5 1
vt 0 1
vt 0.5 0
vt 1 0.5
vt 1 0
vt 0.5 0.5
vt 0 0
vt 1 1
vt 0 0.5
vt 0.5 1
vt 0 1
vt 0.5 0
vt 1 0.5
vt 1 0
vt 0.5 0.5
vt 0 0
vt 1 1
vt 0 0.5
vt 0.5 1
vt 0 1
vt 0.5 0
vt 1 0.5
vt 1 0
vt 0.5 0.5
vt 0 0
vt 1 1
vt 0 0.5
vt 0.5 1
vt 0 1
vt 0.5 0
vt 1 0.5
vt 1 0
vt 0.5 0.5
vt 0 0
vt 1 1
vt 0 0.5
vt 0.5 1
vt 0 1

vt2 0 0
vt2 0 0
vt2 0 0
vt2 0 0
vt2 0 0
vt2 0 0
vt2 0 0
vt2 0 0
vt2 0 0
vt2 0 0
vt2 0 0
vt2 0 0
vt2 0 0
vt2 0 0
vt2 0 0
vt2 0 0
vt2 0 0
vt2 0 0
vt2 0 0
vt2 0 0
vt2 0 0
vt2 0 0
vt2 0 0
vt2 0 0
vt2 0 0
vt2 0 0
vt2 0 0
vt2 0 0
vt2 0 0
vt2 0 0
vt2 0 0
vt2 0 0
vt2 0 0
vt2 0 0
vt2 0 0
vt2 0 0
vt2 0 0
vt2 0 0
vt2 0 0
vt2 0 0
vt2 0 0
vt2 0 0
vt2 0 0
vt2 0 0
vt2 0 0
vt2 0 0
vt2 0 0
vt2 0 0
vt2 0 0
vt2 0 0
vt2 0 0
vt2 0 0
vt2 0 0
vt2 0 0
vt2 0 0
vt2 0 0
vt2 0 0
vt2 0 0
vt2 0 0
vt2 0 0
vt2 0 0
vt2 0 0
vt2 0 0
vt2 0 0
vt2 0 0
vt2 0 0
vt2 0 0
vt2 0 0
vt2 0 0
vt2 0 0
vt2 0 0
vt2 0 0
vt2 0 0
vt2 0 0
vt2 0 0
vt2 0 0
vt2 0 0
vt2 0 0
vt2 0 0
vt2 0 0
vt2 0 0
vt2 0 0
vt2 0 0
vt2 0 0
vt2 0 0
vt2 0 0
vt2 0 0
vt2 0 0
vt2 0 0
vt2 0 0
vt2 0 0
vt2 0 0
vt2 0 0
vt2 0 0
vt2 0 0
vt2 0 0
vt2 0 0
vt2 0 0
vt2 0 0
vt2 0 0
vt2 0 0
vt2 0 0
vt2 0 0
vt2 0 0
vt2 0 0
vt2 0 0
vt2 0 0
vt2 0 0
vt2 0 0
vt2 0 0
vt2 0 0
vt2 0 0
vt2 0 0
vt2 0 0
vt2 0 0
vt2 0 0
vt2 0 0
vt2 0 0
vt2 0 0
vt2 0 0
vt2 0 0
vt2 0 0
vt2 0 0
vt2 0 0
vt2 0 0
vt2 0 0
vt2 0 0
vt2 0 0
vt2 0 0
vt2 0 0
vt2 0 0
vt2 0 0
vt2 0 0
vt2 0 0
vt2 0 0

vt2 0 0
vt2 0 0
vt2 0 0
vt2 0 0
vt2 0 0
vt2 0 0
vt2 0 0
vt2 0 0
vt2 0 0
vt2 0 0
vt2 0 0
vt2 0 0
vt2 0 0
vt2 0 0
vt2 0 0
vt2 0 0
vt2 0 0
vt2 0 0
vt2 0 0
vt2 0 0
vt2 0 0
vt2 0 0
vt2 0 0
vt2 0 0
vt2 0 0
vt2 0 0
vt2 0 0
vt2 0 0
vt2 0 0
vt2 0 0
vt2 0 0
vt2 0 0
vt2 0 0
vt2 0 0
vt2 0 0
vt2 0 0
vt2 0 0
vt2 0 0
vt2 0 0
vt2 0 0
vt2 0 0
vt2 0 0
vt2 0 0
vt2 0 0
vt2 0 0
vt2 0 0
vt2 0 0
vt2 0 0
vt2 0 0
vt2 0 0
vt2 0 0
vt2 0 0
vt2 0 0
vt2 0 0
vt2 0 0
vt2 0 0
vt2 0 0
vt2 0 0
vt2 0 0
vt2 0 0
vt2 0 0
vt2 0 0
vt2 0 0
vt2 0 0
vt2 0 0
vt2 0 0
vt2 0 0
vt2 0 0
vt2 0 0
vt2 0 0
vt2 0 0
vt2 0 0
vt2 0 0
vt2 0 0
vt2 0 0
vt2 0 0
vt2 0 0
vt2 0 0
vt2 0 0
vt2 0 0
vt2 0 0
vt2 0 0
vt2 0 0
vt2 0 0
vt2 0 0
vt2 0 0
vt2 0 0
vt2 0 0
vt2 0 0
vt2 0 0
vt2 0 0
vt2 0 0
vt2 0 0
vt2 0 0
vt2 0 0
vt2 0 0
vt2 0 0
vt2 0 0
vt2 0 0
vt2 0 0
vt2 0 0
vt2 0 0
vt2 0 0
vt2 0 0
vt2 0 0
vt2 0 0
vt2 0 0
vt2 0 0
vt2 0 0
vt2 0 0
vt2 0 0
vt2 0 0
vt2 0 0
vt2 0 0
vt2 0 0
vt2 0 0
vt2 0 0
vt2 0 0
vt2 0 0
vt2 0 0
vt2 0 0
vt2 0 0
vt2 0 0
vt2 0 0
vt2 0 0
vt2 0 0
vt2 0 0
vt2 0 0
vt2 0 0
vt2 0 0
vt2 0 0
vt2 0 0
vt2 0 0
vt2 0 0
vt2 0 0

vc 1 1 1 1
vc 1 1 1 1
vc 1 1 1 1
vc 1 1 1 1
vc 1 1 1 1
vc 1 1 1 1
vc 1 1 1 1
vc 1 1 1 1
vc 1 1 1 1
vc 1 1 1 1
vc 1 1 1 1
vc 1 1 1 1
vc 1 1 1 1
vc 1 1 1 1
vc 1 1 1 1
vc 1 1 1 1
vc 1 1 1 1
vc 1 1 1 1
vc 1 1 1 1
vc 1 1 1 1
vc 1 1 1 1
vc 1 1 1 1
vc 1 1 1 1
vc 1 1 1 1
vc 1 1 1 1
vc 1 1 1 1
vc 1 1 1 1
vc 1 1 1 1
vc 1 1 1 1
vc 1 1 1 1
vc 1 1 1 1
vc 1 1 1 1
vc 1 1 1 1
vc 1 1 1 1
vc 1 1 1 1
vc 1 1 1 1
vc 1 1 1 1
vc 1 1 1 1
vc 1 1 1 1
vc 1 1 1 1
vc 1 1 1 1
vc 1 1 1 1
vc 1 1 1 1
vc 1 1 1 1
vc 1 1 1 1
vc 1 1 1 1
vc 1 1 1 1
vc 1 1 1 1
vc 1 1 1 1
vc 1 1 1 1
vc 1 1 1 1
vc 1 1 1 1
vc 1 1 1 1
vc 1 1 1 1
vc 1 1 1 1
vc 1 1 1 1
vc 1 1 1 1
vc 1 1 1 1
vc 1 1 1 1
vc 1 1 1 1
vc 1 1 1 1
vc 1 1 1 1
vc 1 1 1 1
vc 1 1 1 1
vc 1 1 1 1
vc 1 1 1 1
vc 1 1 1 1
vc 1 1 1 1
vc 1 1 1 1
vc 1 1 1 1
vc 1 1 1 1
vc 1 1 1 1
vc 1 1 1 1
vc 1 1 1 1
vc 1 1 1 1
vc 1 1 1 1
vc 1 1 1 1
vc 1 1 1 1
vc 1 1 1 1
vc 1 1 1 1
vc 1 1 1 1
vc 1 1 1 1
vc 1 1 1 1
vc 1 1 1 1
vc 1 1 1 1
vc 1 1 1 1
vc 1 1 1 1
vc 1 1 1 1
vc 1 1 1 1
vc 1 1 1 1
vc 1 1 1 1
vc 1 1 1 1
vc 1 1 1 1
vc 1 1 1 1
vc 1 1 1 1
vc 1 1 1 1
vc 1 1 1 1
vc 1 1 1 1
vc 1 1 1 1
vc 1 1 1 1
vc 1 1 1 1
vc 1 1 1 1
vc 1 1 1 1
vc 1 1 1 1
vc 1 1 1 1
vc 1 1 1 1
vc 1 1 1 1
vc 1 1 1 1
vc 1 1 1 1
vc 1 1 1 1
vc 1 1 1 1
vc 1 1 1 1
vc 1 1 1 1
vc 1 1 1 1
vc 1 1 1 1
vc 1 1 1 1
vc 1 1 1 1
vc 1 1 1 1
vc 1 1 1 1
vc 1 1 1 1
vc 1 1 1 1
vc 1 1 1 1
vc 1 1 1 1
vc 1 1 1 1
vc 1 1 1 1
vc 1 1 1 1
vc 1 1 1 1
vc 1 1 1 1
vc 1 1 1 1
vc 1 1 1 1
vc 1 1 1 1
vc 1 1 1 1
vc 1 1 1 1
vc 1 1 1 1
vc 1 1 1 1

usemtl Default-Diffuse
usemap Default-Diffuse
f 3/3/3 2/2/2 1/1/1
f 2/2/2 4/4/4 1/1/1
f 1/1/1 4/4/4 5/5/5
f 2/2/2 6/6/6 4/4/4
f 4/4/4 7/7/7 5/5/5
f 6/6/6 8/8/8 4/4/4
f 4/4/4 8/8/8 7/7/7
f 8/8/8 9/9/9 7/7/7
f 12/12/12 11/11/11 10/10/10
f 11/11/11 13/13/13 10/10/10
f 10/10/10 13/13/13 14/14/14
f 11/11/11 15/15/15 13/13/13
f 13/13/13 16/16/16 14/14/14
f 15/15/15 17/17/17 13/13/13
f 13/13/13 17/17/17 16/16/16
f 17/17/17 18/18/18 16/16/16
f 21/21/21 20/20/20 19/19/19
f 20/20/20 22/22/22 19/19/19
f 19/19/19 22/22/22 23/23/23
f 20/20/20 24/24/24 22/22/22
f 22/22/22 25/25/25 23/23/23
f 24/24/24 26/26/26 22/22/22
f 22/22/22 26/26/26 25/25/25
f 26/26/26 27/27/27 25/25/25
f 30/30/30 29/29/29 28/28/28
f 29/29/29 31/31/31 28/28/28
f 28/28/28 31/31/31 32/32/32
f 29/29/29 33/33/33 31/31/31
f 31/31/31 34/34/34 32/32/32
f 33/33/33 35/35/35 31/31/31
f 31/31/31 35/35/35 34/34/34
f 35/35/35 36/36/36 34/34/34
f 39/39/39 38/38/38 37/37/37
f 38/38/38 40/40/40 37/37/37
f 37/37/37 40/40/40 41/41/41
f 38/38/38 42/42/42 40/40/40
f 40/40/40 43/43/43 41/41/41
f 42/42/42 44/44/44 40/40/40
f 40/40/40 44/44/44 43/43/43
f 44/44/44 45/45/45 43/43/43
f 48/48/48 47/47/47 46/46/46
f 47/47/47 49/49/49 46/46/46
f 46/46/46 49/49/49 50/50/50
f 47/47/47 51/51/51 49/49/49
f 49/49/49 52/52/52 50/50/50
f 51/51/51 53/53/53 49/49/49
f 49/49/49 53/53/53 52/52/52
f 53/53/53 54/54/54 52/52/52
f 57/57/57 56/56/56 55/55/55
f 56/56/56 58/58/58 55/55/55
f 55/55/55 58/58/58 59/59/59
f 56/56/56 60/60/60 58/58/58
f 58/58/58 61/61/61 59/59/59
f 60/60/60 62/62/62 58/58/58
f 58/58/58 62/62/62 61/61/61
f 62/62/62 63/63/63 61/61/61
f 66/66/66 65/65/65 64/64/64
f 65/65/65 67/67/67 64/64/64
f 64/64/64 67/67/67 68/68/68
f 65/65/65 69/69/69 67/67/67
f 67/67/67 70/70/70 68/68/68
f 69/69/69 71/71/71 67/67/67
f 67/67/67 71/71/71 70/70/70
f 71/71/71 72/72/72 70/70/70
f 75/75/75 74/74/74 73/73/73
f 74/74/74 76/76/76 73/73/73
f 73/73/73 76/76/76 77/77/77
f 74/74/74 78/78/78 76/76/76
f 76/76/76 79/79/79 77/77/77
f 78/78/78 80/80/80 76/76/76
f 76/76/76 80/80/80 79/79/79
f 80/80/80 81/81/81 79/79/79
f 84/84/84 83/83/83 82/82/82
f 83/83/83 85/85/85 82/82/82
f 82/82/82 85/85/85 86/86/86
f 83/83/83 87/87/87 85/85/85
f 85/85/85 88/88/88 86/86/86
f 87/87/87 89/89/89 85/85/85
f 85/85/85 89/89/89 88/88/88
f 89/89/89 90/90/90 88/88/88
f 93/93/93 92/92/92 91/91/91
f 92/92/92 94/94/94 91/91/91
f 91/91/91 94/94/94 95/95/95
f 92/92/92 96/96/96 94/94/94
f 94/94/94 97/97/97 95/95/95
f 96/96/96 98/98/98 94/94/94
f 94/94/94 98/98/98 97/97/97
f 98/98/98 99/99/99 97/97/97
f 102/102/102 101/101/101 100/100/100
f 101/101/101 103/103/103 100/100/100
f 100/100/100 103/103/103 104/104/104
f 101/101/101 105/105/105 103/103/103
f 103/103/103 106/106/106 104/104/104
f 105/105/105 107/107/107 103/103/103
f 103/103/103 107/107/107 106/106/106
f 107/107/107 108/108/108 106/106/106
f 111/111/111 110/110/110 109/109/109
f 110/110/110 112/112/112 109/109/109
f 109/109/109 112/112/112 113/113/113
f 110/110/110 114/114/114 112/112/112
f 112/112/112 115/115/115 113/113/113
f 114/114/114 116/116/116 112/112/112
f 112/112/112 116/116/116 115/115/115
f 116/116/116 117/117/117 115/115/115
f 120/120/120 119/119/119 118/118/118
f 119/119/119 121/121/121 118/118/118
f 118/118/118 121/121/121 122/122/122
f 119/119/119 123/123/123 121/121/121
f 121/121/121 124/124/124 122/122/122
f 123/123/123 125/125/125 121/121/121
f 121/121/121 125/125/125 124/124/124
f 125/125/125 126/126/126 124/124/124
f 129/129/129 128/128/128 127/127/127
f 128/128/128 130/130/130 127/127/127
f 127/127/127 130/130/130 131/131/131
f 128/128/128 132/132/132 130/130/130
f 130/130/130 133/133/133 131/131/131
f 132/132/132 134/134/134 130/130/130
f 130/130/130 134/134/134 133/133/133
f 134/134/134 135/135/135 133/133/133
