g Custom Mesh - Baked
v 256.8565 53.27184 -844.7062
v 247.1833 53.74405 -843.3041
v 247.6754 53.52958 -846.2557
v 256.3641 53.4771 -841.7541
v 266.0376 53.01411 -843.1569
v 246.6913 53.95853 -840.3525
v 265.5448 53.21015 -840.2041
v 255.8716 53.68236 -838.8019
v 265.052 53.40619 -837.2513
v 275.2187 52.7564 -841.6074
v 265.5448 53.21015 -840.2041
v 266.0376 53.01411 -843.1569
v 274.7255 52.9432 -838.6541
v 284.3997 52.49868 -840.0578
v 265.052 53.40619 -837.2513
v 283.9062 52.67624 -837.104
v 274.2323 53.12999 -835.7007
v 283.4127 52.85381 -834.1502
v 293.5808 52.24096 -838.5082
v 283.9062 52.67624 -837.104
v 284.3997 52.49868 -840.0578
v 293.0869 52.40929 -835.554
v 302.7619 51.98325 -836.9586
v 283.4127 52.85381 -834.1502
v 302.2677 52.14234 -834.0039
v 292.593 52.57763 -832.5997
v 301.7734 52.30144 -831.0492
v 311.943 51.72552 -835.4091
v 302.2677 52.14234 -834.0039
v 302.7619 51.98325 -836.9586
v 311.4484 51.87539 -832.4539
v 321.124 51.46781 -833.8594
v 301.7734 52.30144 -831.0492
v 320.6291 51.60844 -830.9039
v 310.9538 52.02525 -829.4988
v 320.1342 51.74907 -827.9483
v 330.3051 51.21009 -832.3098
v 320.6291 51.60844 -830.9039
v 321.124 51.46781 -833.8594
v 329.8098 51.34148 -829.3538
v 339.4861 50.95237 -830.7601
v 320.1342 51.74907 -827.9483
v 338.9905 51.07453 -827.8038
v 329.3146 51.47288 -826.3979
v 338.495 51.1967 -824.8476
v 348.6671 50.69464 -829.2104
v 338.9905 51.07453 -827.8038
v 339.4861 50.95237 -830.7601
v 348.1713 50.80758 -826.2538
v 357.8482 50.43694 -827.6606
v 338.495 51.1967 -824.8476
v 357.352 50.54063 -824.7037
v 347.6754 50.92052 -823.2972
v 356.8558 50.64431 -821.7469
v 367.0292 50.17922 -826.1108
v 357.352 50.54063 -824.7037
v 357.8482 50.43694 -827.6606
v 366.5327 50.27367 -823.1537
v 376.2103 49.92152 -824.561
v 356.8558 50.64431 -821.7469
v 375.7134 50.00672 -821.6037
v 366.0362 50.36813 -820.1966
v 375.2166 50.09193 -818.6464
v 385.3913 49.6638 -823.0112
v 375.7134 50.00672 -821.6037
v 376.2103 49.92152 -824.561
v 384.8941 49.73977 -820.0537
v 394.5723 49.4061 -821.4614
v 375.2166 50.09193 -818.6464
v 394.0749 49.47282 -818.5037
v 384.397 49.81574 -817.0962
v 393.5774 49.53954 -815.546
v 403.7533 49.14838 -819.9115
v 394.0749 49.47282 -818.5037
v 394.5723 49.4061 -821.4614
v 403.2556 49.20587 -816.9536
v 412.9343 48.89068 -818.3616
v 393.5774 49.53954 -815.546
v 412.4363 48.93892 -815.4036
v 402.7578 49.26336 -813.9957
v 411.9383 48.98714 -812.4456
v 422.1153 48.63298 -816.8116
v 412.4363 48.93892 -815.4036
v 412.9343 48.89069 -818.3616
v 421.617 48.67197 -813.8535
v 431.2963 48.37527 -815.2615
v 411.9383 48.98715 -812.4456
v 430.7977 48.40501 -812.3034
v 421.1187 48.71095 -810.8954
v 430.2992 48.43476 -809.3453

vn 0.0527852 1.32966 -0.08364352
vn 0.05345922 1.329372 -0.08768523
vn 0.05345922 1.329372 -0.08768523
vn 0.0527852 1.32966 -0.08364352
vn 0.05211061 1.329934 -0.07960087
vn 0.05345922 1.329372 -0.08768523
vn 0.05211061 1.329934 -0.07960087
vn 0.0527852 1.32966 -0.08364352
vn 0.05211061 1.329934 -0.07960087
vn 0.0514334 1.330198 -0.07554452
vn 0.05211061 1.329934 -0.07960087
vn 0.05211061 1.329934 -0.07960087
vn 0.0514334 1.330198 -0.07554452
vn 0.05075722 1.330447 -0.07149635
vn 0.05211061 1.329934 -0.07960087
vn 0.05075722 1.330447 -0.07149635
vn 0.0514334 1.330198 -0.07554452
vn 0.05075722 1.330447 -0.07149635
vn 0.05008058 1.330684 -0.06744812
vn 0.05075722 1.330447 -0.07149635
vn 0.05075722 1.330447 -0.07149635
vn 0.05008058 1.330684 -0.06744812
vn 0.04940348 1.330909 -0.06339883
vn 0.05075722 1.330447 -0.07149635
vn 0.04940348 1.330909 -0.06339883
vn 0.05008058 1.330684 -0.06744812
vn 0.04940348 1.330909 -0.06339883
vn 0.04872583 1.33112 -0.05934945
vn 0.04940348 1.330909 -0.06339883
vn 0.04940348 1.330909 -0.06339883
vn 0.04872583 1.33112 -0.05934945
vn 0.04804786 1.331319 -0.05529933
vn 0.04940348 1.330909 -0.06339883
vn 0.04804786 1.331319 -0.05529933
vn 0.04872583 1.33112 -0.05934945
vn 0.04804786 1.331319 -0.05529933
vn 0.04736967 1.331506 -0.05125007
vn 0.04804786 1.331319 -0.05529933
vn 0.04804786 1.331319 -0.05529933
vn 0.04736967 1.331506 -0.05125007
vn 0.04669163 1.331679 -0.04720393
vn 0.04804786 1.331319 -0.05529933
vn 0.04669163 1.331679 -0.04720393
vn 0.04736967 1.331506 -0.05125007
vn 0.04669163 1.331679 -0.04720393
vn 0.04601299 1.33184 -0.04315724
vn 0.04669163 1.331679 -0.04720393
vn 0.04669163 1.331679 -0.04720393
vn 0.04601299 1.33184 -0.04315724
vn 0.04533243 1.331989 -0.03910081
vn 0.04669163 1.331679 -0.04720393
vn 0.04533243 1.331989 -0.03910081
vn 0.04601299 1.33184 -0.04315724
vn 0.04533243 1.331989 -0.03910081
vn 0.04465314 1.332124 -0.03505366
vn 0.04533243 1.331989 -0.03910081
vn 0.04533243 1.331989 -0.03910081
vn 0.04465314 1.332124 -0.03505366
vn 0.04397174 1.332248 -0.03099647
vn 0.04533243 1.331989 -0.03910081
vn 0.04397174 1.332248 -0.03099647
vn 0.04465314 1.332124 -0.03505366
vn 0.04397174 1.332248 -0.03099647
vn 0.04329146 1.332358 -0.02694907
vn 0.04397174 1.332248 -0.03099647
vn 0.04397174 1.332248 -0.03099647
vn 0.04329146 1.332358 -0.02694907
vn 0.04260938 1.332456 -0.0228915
vn 0.04397174 1.332248 -0.03099647
vn 0.04260938 1.332456 -0.0228915
vn 0.04329146 1.332358 -0.02694907
vn 0.04260938 1.332456 -0.0228915
vn 0.04192836 1.332541 -0.01884369
vn 0.04260938 1.332456 -0.0228915
vn 0.04260938 1.332456 -0.0228915
vn 0.04192836 1.332541 -0.01884369
vn 0.0412452 1.332613 -0.01478469
vn 0.04260938 1.332456 -0.0228915
vn 0.0412452 1.332613 -0.01478469
vn 0.04192836 1.332541 -0.01884369
vn 0.0412452 1.332613 -0.01478469
vn 0.04056271 1.332673 -0.01073204
vn 0.0412452 1.332613 -0.01478469
vn 0.0412452 1.332613 -0.01478469
vn 0.04056271 1.332673 -0.01073204
vn 0.03987992 1.33272 -0.006680077
vn 0.0412452 1.332613 -0.01478469
vn 0.03987992 1.33272 -0.006680077
vn 0.04056271 1.332673 -0.01073204
vn 0.03987992 1.33272 -0.006680077

vt 0.5 0
vt 1 0.5
vt 1 0
vt 0.5 0.5
vt 0 0
vt 1 1
vt 0 0.5
vt 0.5 1
vt 0 1
vt 0.5 0
vt 1 0.5
vt 1 0
vt 0.5 0.5
vt 0 0
vt 1 1
vt 0 0.5
vt 0.5 1
vt 0 1
vt 0.5 0
vt 1 0.5
vt 1 0
vt 0.5 0.5
vt 0 0
vt 1 1
vt 0 0.5
vt 0.5 1
vt 0 1
vt 0.5 0
vt 1 0.5
vt 1 0
vt 0.5 0.5
vt 0 0
vt 1 1
vt 0 0.5
vt 0.5 1
vt 0 1
vt 0.5 0
vt 1 0.5
vt 1 0
vt 0.5 0.5
vt 0 0
vt 1 1
vt 0 0.5
vt 0.5 1
vt 0 1
vt 0.5 0
vt 1 0.5
vt 1 0
vt 0.5 0.5
vt 0 0
vt 1 1
vt 0 0.5
vt 0.5 1
vt 0 1
vt 0.5 0
vt 1 0.5
vt 1 0
vt 0.5 0.5
vt 0 0
vt 1 1
vt 0 0.5
vt 0.5 1
vt 0 1
vt 0.5 0
vt 1 0.5
vt 1 0
vt 0.5 0.5
vt 0 0
vt 1 1
vt 0 0.5
vt 0.5 1
vt 0 1
vt 0.5 0
vt 1 0.5
vt 1 0
vt 0.5 0.5
vt 0 0
vt 1 1
vt 0 0.5
vt 0.5 1
vt 0 1
vt 0.5 0
vt 1 0.5
vt 1 0
vt 0.5 0.5
vt 0 0
vt 1 1
vt 0 0.5
vt 0.5 1
vt 0 1

vt2 0 0
vt2 0 0
vt2 0 0
vt2 0 0
vt2 0 0
vt2 0 0
vt2 0 0
vt2 0 0
vt2 0 0
vt2 0 0
vt2 0 0
vt2 0 0
vt2 0 0
vt2 0 0
vt2 0 0
vt2 0 0
vt2 0 0
vt2 0 0
vt2 0 0
vt2 0 0
vt2 0 0
vt2 0 0
vt2 0 0
vt2 0 0
vt2 0 0
vt2 0 0
vt2 0 0
vt2 0 0
vt2 0 0
vt2 0 0
vt2 0 0
vt2 0 0
vt2 0 0
vt2 0 0
vt2 0 0
vt2 0 0
vt2 0 0
vt2 0 0
vt2 0 0
vt2 0 0
vt2 0 0
vt2 0 0
vt2 0 0
vt2 0 0
vt2 0 0
vt2 0 0
vt2 0 0
vt2 0 0
vt2 0 0
vt2 0 0
vt2 0 0
vt2 0 0
vt2 0 0
vt2 0 0
vt2 0 0
vt2 0 0
vt2 0 0
vt2 0 0
vt2 0 0
vt2 0 0
vt2 0 0
vt2 0 0
vt2 0 0
vt2 0 0
vt2 0 0
vt2 0 0
vt2 0 0
vt2 0 0
vt2 0 0
vt2 0 0
vt2 0 0
vt2 0 0
vt2 0 0
vt2 0 0
vt2 0 0
vt2 0 0
vt2 0 0
vt2 0 0
vt2 0 0
vt2 0 0
vt2 0 0
vt2 0 0
vt2 0 0
vt2 0 0
vt2 0 0
vt2 0 0
vt2 0 0
vt2 0 0
vt2 0 0
vt2 0 0

vt2 0 0
vt2 0 0
vt2 0 0
vt2 0 0
vt2 0 0
vt2 0 0
vt2 0 0
vt2 0 0
vt2 0 0
vt2 0 0
vt2 0 0
vt2 0 0
vt2 0 0
vt2 0 0
vt2 0 0
vt2 0 0
vt2 0 0
vt2 0 0
vt2 0 0
vt2 0 0
vt2 0 0
vt2 0 0
vt2 0 0
vt2 0 0
vt2 0 0
vt2 0 0
vt2 0 0
vt2 0 0
vt2 0 0
vt2 0 0
vt2 0 0
vt2 0 0
vt2 0 0
vt2 0 0
vt2 0 0
vt2 0 0
vt2 0 0
vt2 0 0
vt2 0 0
vt2 0 0
vt2 0 0
vt2 0 0
vt2 0 0
vt2 0 0
vt2 0 0
vt2 0 0
vt2 0 0
vt2 0 0
vt2 0 0
vt2 0 0
vt2 0 0
vt2 0 0
vt2 0 0
vt2 0 0
vt2 0 0
vt2 0 0
vt2 0 0
vt2 0 0
vt2 0 0
vt2 0 0
vt2 0 0
vt2 0 0
vt2 0 0
vt2 0 0
vt2 0 0
vt2 0 0
vt2 0 0
vt2 0 0
vt2 0 0
vt2 0 0
vt2 0 0
vt2 0 0
vt2 0 0
vt2 0 0
vt2 0 0
vt2 0 0
vt2 0 0
vt2 0 0
vt2 0 0
vt2 0 0
vt2 0 0
vt2 0 0
vt2 0 0
vt2 0 0
vt2 0 0
vt2 0 0
vt2 0 0
vt2 0 0
vt2 0 0
vt2 0 0

vc 1 1 1 1
vc 1 1 1 1
vc 1 1 1 1
vc 1 1 1 1
vc 1 1 1 1
vc 1 1 1 1
vc 1 1 1 1
vc 1 1 1 1
vc 1 1 1 1
vc 1 1 1 1
vc 1 1 1 1
vc 1 1 1 1
vc 1 1 1 1
vc 1 1 1 1
vc 1 1 1 1
vc 1 1 1 1
vc 1 1 1 1
vc 1 1 1 1
vc 1 1 1 1
vc 1 1 1 1
vc 1 1 1 1
vc 1 1 1 1
vc 1 1 1 1
vc 1 1 1 1
vc 1 1 1 1
vc 1 1 1 1
vc 1 1 1 1
vc 1 1 1 1
vc 1 1 1 1
vc 1 1 1 1
vc 1 1 1 1
vc 1 1 1 1
vc 1 1 1 1
vc 1 1 1 1
vc 1 1 1 1
vc 1 1 1 1
vc 1 1 1 1
vc 1 1 1 1
vc 1 1 1 1
vc 1 1 1 1
vc 1 1 1 1
vc 1 1 1 1
vc 1 1 1 1
vc 1 1 1 1
vc 1 1 1 1
vc 1 1 1 1
vc 1 1 1 1
vc 1 1 1 1
vc 1 1 1 1
vc 1 1 1 1
vc 1 1 1 1
vc 1 1 1 1
vc 1 1 1 1
vc 1 1 1 1
vc 1 1 1 1
vc 1 1 1 1
vc 1 1 1 1
vc 1 1 1 1
vc 1 1 1 1
vc 1 1 1 1
vc 1 1 1 1
vc 1 1 1 1
vc 1 1 1 1
vc 1 1 1 1
vc 1 1 1 1
vc 1 1 1 1
vc 1 1 1 1
vc 1 1 1 1
vc 1 1 1 1
vc 1 1 1 1
vc 1 1 1 1
vc 1 1 1 1
vc 1 1 1 1
vc 1 1 1 1
vc 1 1 1 1
vc 1 1 1 1
vc 1 1 1 1
vc 1 1 1 1
vc 1 1 1 1
vc 1 1 1 1
vc 1 1 1 1
vc 1 1 1 1
vc 1 1 1 1
vc 1 1 1 1
vc 1 1 1 1
vc 1 1 1 1
vc 1 1 1 1
vc 1 1 1 1
vc 1 1 1 1
vc 1 1 1 1

usemtl Default-Diffuse
usemap Default-Diffuse
f 3/3/3 2/2/2 1/1/1
f 2/2/2 4/4/4 1/1/1
f 1/1/1 4/4/4 5/5/5
f 2/2/2 6/6/6 4/4/4
f 4/4/4 7/7/7 5/5/5
f 6/6/6 8/8/8 4/4/4
f 4/4/4 8/8/8 7/7/7
f 8/8/8 9/9/9 7/7/7
f 12/12/12 11/11/11 10/10/10
f 11/11/11 13/13/13 10/10/10
f 10/10/10 13/13/13 14/14/14
f 11/11/11 15/15/15 13/13/13
f 13/13/13 16/16/16 14/14/14
f 15/15/15 17/17/17 13/13/13
f 13/13/13 17/17/17 16/16/16
f 17/17/17 18/18/18 16/16/16
f 21/21/21 20/20/20 19/19/19
f 20/20/20 22/22/22 19/19/19
f 19/19/19 22/22/22 23/23/23
f 20/20/20 24/24/24 22/22/22
f 22/22/22 25/25/25 23/23/23
f 24/24/24 26/26/26 22/22/22
f 22/22/22 26/26/26 25/25/25
f 26/26/26 27/27/27 25/25/25
f 30/30/30 29/29/29 28/28/28
f 29/29/29 31/31/31 28/28/28
f 28/28/28 31/31/31 32/32/32
f 29/29/29 33/33/33 31/31/31
f 31/31/31 34/34/34 32/32/32
f 33/33/33 35/35/35 31/31/31
f 31/31/31 35/35/35 34/34/34
f 35/35/35 36/36/36 34/34/34
f 39/39/39 38/38/38 37/37/37
f 38/38/38 40/40/40 37/37/37
f 37/37/37 40/40/40 41/41/41
f 38/38/38 42/42/42 40/40/40
f 40/40/40 43/43/43 41/41/41
f 42/42/42 44/44/44 40/40/40
f 40/40/40 44/44/44 43/43/43
f 44/44/44 45/45/45 43/43/43
f 48/48/48 47/47/47 46/46/46
f 47/47/47 49/49/49 46/46/46
f 46/46/46 49/49/49 50/50/50
f 47/47/47 51/51/51 49/49/49
f 49/49/49 52/52/52 50/50/50
f 51/51/51 53/53/53 49/49/49
f 49/49/49 53/53/53 52/52/52
f 53/53/53 54/54/54 52/52/52
f 57/57/57 56/56/56 55/55/55
f 56/56/56 58/58/58 55/55/55
f 55/55/55 58/58/58 59/59/59
f 56/56/56 60/60/60 58/58/58
f 58/58/58 61/61/61 59/59/59
f 60/60/60 62/62/62 58/58/58
f 58/58/58 62/62/62 61/61/61
f 62/62/62 63/63/63 61/61/61
f 66/66/66 65/65/65 64/64/64
f 65/65/65 67/67/67 64/64/64
f 64/64/64 67/67/67 68/68/68
f 65/65/65 69/69/69 67/67/67
f 67/67/67 70/70/70 68/68/68
f 69/69/69 71/71/71 67/67/67
f 67/67/67 71/71/71 70/70/70
f 71/71/71 72/72/72 70/70/70
f 75/75/75 74/74/74 73/73/73
f 74/74/74 76/76/76 73/73/73
f 73/73/73 76/76/76 77/77/77
f 74/74/74 78/78/78 76/76/76
f 76/76/76 79/79/79 77/77/77
f 78/78/78 80/80/80 76/76/76
f 76/76/76 80/80/80 79/79/79
f 80/80/80 81/81/81 79/79/79
f 84/84/84 83/83/83 82/82/82
f 83/83/83 85/85/85 82/82/82
f 82/82/82 85/85/85 86/86/86
f 83/83/83 87/87/87 85/85/85
f 85/85/85 88/88/88 86/86/86
f 87/87/87 89/89/89 85/85/85
f 85/85/85 89/89/89 88/88/88
f 89/89/89 90/90/90 88/88/88
