g Custom Mesh - Baked
v -156.4062 97.50758 -319.8611
v -164.9098 98.59752 -306.5191
v -168.4454 98.59752 -313.6954
v -152.7037 97.50758 -312.7695
v -143.7517 96.37025 -326.4521
v -161.3741 98.59752 -299.3429
v -140.1006 96.37025 -319.3338
v -149.0011 97.50758 -305.6779
v -136.4496 96.37025 -312.2155
v -132.0882 95.38698 -332.1654
v -140.1006 96.37025 -319.3338
v -143.7517 96.37025 -326.4521
v -128.7878 95.38698 -324.8779
v -122.1289 94.7701 -335.4238
v -136.4496 96.37025 -312.2155
v -120.5556 94.7701 -327.9884
v -125.4874 95.38698 -317.5904
v -118.9823 94.7701 -320.5531
v -113.2197 94.64362 -332.7717
v -120.5556 94.7701 -327.9884
v -122.1289 94.7701 -335.4238
v -116.5462 94.64362 -327.7783
v -111.4782 94.78382 -328.7223
v -118.9823 94.7701 -320.5531
v -114.77 94.78382 -325.8026
v -119.8727 94.64362 -322.7849
v -118.0617 94.78382 -322.883
v -111.9304 94.83793 -327.3293
v -114.77 94.78382 -325.8026
v -111.4782 94.78382 -328.7223
v -112.0599 94.83793 -324.5323
v -106.7435 94.51754 -327.982
v -118.0617 94.78382 -322.883
v -105.948 94.51754 -326.147
v -112.1893 94.83793 -321.7354
v -105.1524 94.51754 -324.312
v -98.59817 93.91441 -332.1782
v -105.948 94.51754 -326.147
v -106.7435 94.51754 -327.982
v -97.64194 93.91441 -330.4216
v -88.54472 93.17274 -337.3485
v -105.1524 94.51754 -324.312
v -87.71197 93.17274 -335.5302
v -96.68572 93.91441 -328.665
v -86.87921 93.17274 -333.7118
v -76.60436 92.40289 -341.5396
v -87.71197 93.17274 -335.5302
v -88.54472 93.17274 -337.3485
v -76.13327 92.40289 -339.5958
v -62.72732 91.65507 -343.5322
v -86.87921 93.17274 -333.7118
v -62.57627 91.65507 -341.5379
v -75.66218 92.40289 -337.6521
v -62.42523 91.65507 -339.5436
v -46.71682 90.86758 -344.115
v -62.57627 91.65507 -341.5379
v -62.72732 91.65507 -343.5322
v -46.70182 90.86758 -342.1151
v -30.04759 90.075 -343.9761
v -62.42523 91.65507 -339.5436
v -30.08374 90.075 -341.9764
v -46.68682 90.86758 -340.1151
v -30.11989 90.075 -339.9767
v -14.33474 89.3195 -343.6995
v -30.08374 90.075 -341.9764
v -30.04759 90.075 -343.9761
v -14.35589 89.3195 -341.6996
v 0.6175416 88.61066 -343.8129
v -30.11989 90.075 -339.9767
v 0.6463916 88.61066 -341.8131
v -14.37703 89.3195 -339.6997
v 0.6752415 88.61066 -339.8133
v 15.4811 87.92752 -343.8616
v 0.6463916 88.61066 -341.8131
v 0.6175416 88.61066 -343.8129
v 15.44166 87.92752 -341.862
v 29.03574 87.27629 -342.9368
v 0.6752415 88.61066 -339.8133
v 28.76012 87.27629 -340.9559
v 15.40221 87.92752 -339.8624
v 28.4845 87.27629 -338.975
v 40.09175 86.64859 -340.0971
v 28.76012 87.27629 -340.9559
v 29.03574 87.27629 -342.9368
v 39.32227 86.64859 -338.251
v 47.99077 85.90875 -335.436
v 28.4845 87.27629 -338.975
v 46.69991 85.90875 -333.9084
v 38.55278 86.64859 -336.405
v 45.40906 85.90875 -332.3807
v 53.49789 85.08375 -329.2803
v 46.69991 85.90875 -333.9084
v 47.99077 85.90875 -335.436
v 51.87434 85.08375 -328.1123
v 58.11114 84.30502 -322.024
v 45.40906 85.90875 -332.3807
v 56.39376 84.30502 -320.9991
v 50.2508 85.08375 -326.9444
v 54.67638 84.30502 -319.9741
v 63.00453 83.64915 -313.5299
v 56.39376 84.30502 -320.9991
v 58.11114 84.30502 -322.024
v 61.22468 83.64915 -312.6177
v 67.09129 82.96308 -304.3747
v 54.67638 84.30502 -319.9741
v 65.23328 82.96308 -303.6345
v 59.44483 83.64915 -311.7055
v 63.37528 82.96308 -302.8944
v 70.37663 82.29496 -295.6941
v 65.23328 82.96308 -303.6345
v 67.09129 82.96308 -304.3747
v 68.50166 82.29496 -294.998
v 73.23811 81.75132 -288.5933
v 63.37528 82.96308 -302.8944
v 71.42422 81.75132 -287.7508
v 66.62669 82.29496 -294.302
v 69.61033 81.75132 -286.9083
v 76.25257 81.34187 -283.3649
v 71.42422 81.75132 -287.7508
v 73.23811 81.75132 -288.5933
v 74.10214 81.33701 -282.2992
v 78.76301 80.97134 -279.7132
v 69.61033 81.75132 -286.9083
v 76.23563 80.9545 -278.2244
v 71.95171 81.33215 -281.2336
v 73.70826 80.93764 -276.7356
v 80.60939 80.71415 -278.0893
v 76.23563 80.9545 -278.2244
v 78.76301 80.97135 -279.7132
v 78.26243 80.66214 -275.5385
v 81.36698 80.64845 -278.1973
v 73.70826 80.93765 -276.7356
v 80.65828 80.52572 -274.2625
v 75.91547 80.61013 -272.9876
v 79.94958 80.40298 -270.3277

vn 0.01769827 0.2492015 -0.009240328
vn 0.01748812 0.2492387 -0.008616273
vn 0.01748812 0.2492387 -0.008616273
vn 0.01769827 0.2492015 -0.009240328
vn 0.01763626 0.249213 -0.009045825
vn 0.01748812 0.2492387 -0.008616273
vn 0.01763626 0.249213 -0.009045825
vn 0.01769827 0.2492015 -0.009240328
vn 0.01763626 0.249213 -0.009045825
vn 0.01714754 0.2492903 -0.007765778
vn 0.01763626 0.249213 -0.009045825
vn 0.01763626 0.249213 -0.009045825
vn 0.01714754 0.2492903 -0.007765778
vn 0.01457086 0.2627361 -0.003083086
vn 0.01763626 0.249213 -0.009045825
vn 0.01457086 0.2627361 -0.003083086
vn 0.01714754 0.2492903 -0.007765778
vn 0.01457086 0.2627361 -0.003083086
vn -0.007066631 0.3332252 -0.004707723
vn 0.01457086 0.2627361 -0.003083086
vn 0.01457086 0.2627361 -0.003083086
vn -0.007066631 0.3332252 -0.004707723
vn -0.0169245 0.4538293 -0.01908151
vn 0.01457086 0.2627361 -0.003083086
vn -0.0169245 0.4538293 -0.01908151
vn -0.007066631 0.3332252 -0.004707723
vn -0.0169245 0.4538293 -0.01908151
vn 0.01604975 0.714105 0.0007425752
vn -0.0169245 0.4538293 -0.01908151
vn -0.0169245 0.4538293 -0.01908151
vn 0.01604975 0.714105 0.0007425752
vn 0.05567392 0.9981573 -0.02413658
vn -0.0169245 0.4538293 -0.01908151
vn 0.05567392 0.9981573 -0.02413658
vn 0.01604975 0.714105 0.0007425752
vn 0.05567392 0.9981573 -0.02413658
vn 0.05813923 0.9978066 -0.03164864
vn 0.05567392 0.9981573 -0.02413658
vn 0.05567392 0.9981573 -0.02413658
vn 0.05813923 0.9978066 -0.03164864
vn 0.05952142 0.9978547 -0.0272587
vn 0.05567392 0.9981573 -0.02413658
vn 0.05952142 0.9978547 -0.0272587
vn 0.05813923 0.9978066 -0.03164864
vn 0.05952142 0.9978547 -0.0272587
vn 0.05709769 0.9982726 -0.01383818
vn 0.05952142 0.9978547 -0.0272587
vn 0.05952142 0.9978547 -0.0272587
vn 0.05709769 0.9982726 -0.01383818
vn 0.05120701 0.9986805 -0.00387833
vn 0.05952142 0.9978547 -0.0272587
vn 0.05120701 0.9986805 -0.00387833
vn 0.05709769 0.9982726 -0.01383818
vn 0.05120701 0.9986805 -0.00387833
vn 0.04818783 0.9988381 -0.0003613926
vn 0.05120701 0.9986805 -0.00387833
vn 0.05120701 0.9986805 -0.00387833
vn 0.04818783 0.9988381 -0.0003613926
vn 0.04745526 0.9988729 0.0008580762
vn 0.05120701 0.9986805 -0.00387833
vn 0.04745526 0.9988729 0.0008580762
vn 0.04818783 0.9988381 -0.0003613926
vn 0.04745526 0.9988729 0.0008580762
vn 0.04902843 0.9987973 0.0005184124
vn 0.04745526 0.9988729 0.0008580762
vn 0.04745526 0.9988729 0.0008580762
vn 0.04902843 0.9987973 0.0005184124
vn 0.04611811 0.9989358 -0.000665322
vn 0.04745526 0.9988729 0.0008580762
vn 0.04611811 0.9989358 -0.000665322
vn 0.04902843 0.9987973 0.0005184124
vn 0.04611811 0.9989358 -0.000665322
vn 0.04675096 0.9989062 0.0009221468
vn 0.04611811 0.9989358 -0.000665322
vn 0.04611811 0.9989358 -0.000665322
vn 0.04675096 0.9989062 0.0009221468
vn 0.05109379 0.9986687 0.007109001
vn 0.04611811 0.9989358 -0.000665322
vn 0.05109379 0.9986687 0.007109001
vn 0.04675096 0.9989062 0.0009221468
vn 0.05109379 0.9986687 0.007109001
vn 0.06363846 0.9976203 0.02652635
vn 0.05109379 0.9986687 0.007109001
vn 0.05109379 0.9986687 0.007109001
vn 0.06363846 0.9976203 0.02652635
vn 0.07790431 0.994785 0.06582909
vn 0.05109379 0.9986687 0.007109001
vn 0.07790431 0.994785 0.06582909
vn 0.06363846 0.9976203 0.02652635
vn 0.07790431 0.994785 0.06582909
vn 0.06011757 0.994687 0.0835683
vn 0.07790431 0.994785 0.06582909
vn 0.07790431 0.994785 0.06582909
vn 0.06011757 0.994687 0.0835683
vn 0.0402123 0.9969172 0.06737533
vn 0.07790431 0.994785 0.06582909
vn 0.0402123 0.9969172 0.06737533
vn 0.06011757 0.994687 0.0835683
vn 0.0402123 0.9969172 0.06737533
vn 0.03033343 0.9977861 0.05918449
vn 0.0402123 0.9969172 0.06737533
vn 0.0402123 0.9969172 0.06737533
vn 0.03033343 0.9977861 0.05918449
vn 0.02650833 0.9974314 0.06654298
vn 0.0402123 0.9969172 0.06737533
vn 0.02650833 0.9974314 0.06654298
vn 0.03033343 0.9977861 0.05918449
vn 0.02650833 0.9974314 0.06654298
vn 0.02502365 0.9974115 0.06740757
vn 0.02650833 0.9974314 0.06654298
vn 0.02650833 0.9974314 0.06654298
vn 0.02502365 0.9974115 0.06740757
vn 0.02743647 0.9978767 0.05907019
vn 0.02650833 0.9974314 0.06654298
vn 0.02743647 0.9978767 0.05907019
vn 0.02502365 0.9974115 0.06740757
vn 0.02743647 0.9978767 0.05907019
vn 0.02667219 0.8309116 0.05760906
vn 0.02743647 0.9978767 0.05907019
vn 0.02743647 0.9978767 0.05907019
vn 0.02667219 0.8309116 0.05760906
vn 0.02726303 0.6791319 0.05396748
vn 0.02743647 0.9978767 0.05907019
vn 0.02726303 0.6791319 0.05396748
vn 0.02667219 0.8309116 0.05760906
vn 0.02726303 0.6791319 0.05396748
vn 0.02655448 0.5751761 0.03616017
vn 0.02726303 0.6791319 0.05396748
vn 0.02726303 0.6791319 0.05396748
vn 0.02655448 0.5751761 0.03616017
vn 0.002285647 0.4997388 0.01599899
vn 0.02726303 0.6791319 0.05396748
vn 0.002285647 0.4997388 0.01599899
vn 0.02655448 0.5751761 0.03616017
vn 0.002285647 0.4997388 0.01599899

vt 0.5 0
vt 1 0.5
vt 1 0
vt 0.5 0.5
vt 0 0
vt 1 1
vt 0 0.5
vt 0.5 1
vt 0 1
vt 0.5 0
vt 1 0.5
vt 1 0
vt 0.5 0.5
vt 0 0
vt 1 1
vt 0 0.5
vt 0.5 1
vt 0 1
vt 0.5 0
vt 1 0.5
vt 1 0
vt 0.5 0.5
vt 0 0
vt 1 1
vt 0 0.5
vt 0.5 1
vt 0 1
vt 0.5 0
vt 1 0.5
vt 1 0
vt 0.5 0.5
vt 0 0
vt 1 1
vt 0 0.5
vt 0.5 1
vt 0 1
vt 0.5 0
vt 1 0.5
vt 1 0
vt 0.5 0.5
vt 0 0
vt 1 1
vt 0 0.5
vt 0.5 1
vt 0 1
vt 0.5 0
vt 1 0.5
vt 1 0
vt 0.5 0.5
vt 0 0
vt 1 1
vt 0 0.5
vt 0.5 1
vt 0 1
vt 0.5 0
vt 1 0.5
vt 1 0
vt 0.5 0.5
vt 0 0
vt 1 1
vt 0 0.5
vt 0.5 1
vt 0 1
vt 0.5 0
vt 1 0.5
vt 1 0
vt 0.5 0.5
vt 0 0
vt 1 1
vt 0 0.5
vt 0.5 1
vt 0 1
vt 0.5 0
vt 1 0.5
vt 1 0
vt 0.5 0.5
vt 0 0
vt 1 1
vt 0 0.5
vt 0.5 1
vt 0 1
vt 0.5 0
vt 1 0.5
vt 1 0
vt 0.5 0.5
vt 0 0
vt 1 1
vt 0 0.5
vt 0.5 1
vt 0 1
vt 0.5 0
vt 1 0.5
vt 1 0
vt 0.5 0.5
vt 0 0
vt 1 1
vt 0 0.5
vt 0.5 1
vt 0 1
vt 0.5 0
vt 1 0.5
vt 1 0
vt 0.5 0.5
vt 0 0
vt 1 1
vt 0 0.5
vt 0.5 1
vt 0 1
vt 0.5 0
vt 1 0.5
vt 1 0
vt 0.5 0.5
vt 0 0
vt 1 1
vt 0 0.5
vt 0.5 1
vt 0 1
vt 0.5 0
vt 1 0.5
vt 1 0
vt 0.5 0.5
vt 0 0
vt 1 1
vt 0 0.5
vt 0.5 1
vt 0 1
vt 0.5 0
vt 1 0.5
vt 1 0
vt 0.5 0.5
vt 0 0
vt 1 1
vt 0 0.5
vt 0.5 1
vt 0 1

vt2 0 0
vt2 0 0
vt2 0 0
vt2 0 0
vt2 0 0
vt2 0 0
vt2 0 0
vt2 0 0
vt2 0 0
vt2 0 0
vt2 0 0
vt2 0 0
vt2 0 0
vt2 0 0
vt2 0 0
vt2 0 0
vt2 0 0
vt2 0 0
vt2 0 0
vt2 0 0
vt2 0 0
vt2 0 0
vt2 0 0
vt2 0 0
vt2 0 0
vt2 0 0
vt2 0 0
vt2 0 0
vt2 0 0
vt2 0 0
vt2 0 0
vt2 0 0
vt2 0 0
vt2 0 0
vt2 0 0
vt2 0 0
vt2 0 0
vt2 0 0
vt2 0 0
vt2 0 0
vt2 0 0
vt2 0 0
vt2 0 0
vt2 0 0
vt2 0 0
vt2 0 0
vt2 0 0
vt2 0 0
vt2 0 0
vt2 0 0
vt2 0 0
vt2 0 0
vt2 0 0
vt2 0 0
vt2 0 0
vt2 0 0
vt2 0 0
vt2 0 0
vt2 0 0
vt2 0 0
vt2 0 0
vt2 0 0
vt2 0 0
vt2 0 0
vt2 0 0
vt2 0 0
vt2 0 0
vt2 0 0
vt2 0 0
vt2 0 0
vt2 0 0
vt2 0 0
vt2 0 0
vt2 0 0
vt2 0 0
vt2 0 0
vt2 0 0
vt2 0 0
vt2 0 0
vt2 0 0
vt2 0 0
vt2 0 0
vt2 0 0
vt2 0 0
vt2 0 0
vt2 0 0
vt2 0 0
vt2 0 0
vt2 0 0
vt2 0 0
vt2 0 0
vt2 0 0
vt2 0 0
vt2 0 0
vt2 0 0
vt2 0 0
vt2 0 0
vt2 0 0
vt2 0 0
vt2 0 0
vt2 0 0
vt2 0 0
vt2 0 0
vt2 0 0
vt2 0 0
vt2 0 0
vt2 0 0
vt2 0 0
vt2 0 0
vt2 0 0
vt2 0 0
vt2 0 0
vt2 0 0
vt2 0 0
vt2 0 0
vt2 0 0
vt2 0 0
vt2 0 0
vt2 0 0
vt2 0 0
vt2 0 0
vt2 0 0
vt2 0 0
vt2 0 0
vt2 0 0
vt2 0 0
vt2 0 0
vt2 0 0
vt2 0 0
vt2 0 0
vt2 0 0
vt2 0 0
vt2 0 0
vt2 0 0
vt2 0 0

vt2 0 0
vt2 0 0
vt2 0 0
vt2 0 0
vt2 0 0
vt2 0 0
vt2 0 0
vt2 0 0
vt2 0 0
vt2 0 0
vt2 0 0
vt2 0 0
vt2 0 0
vt2 0 0
vt2 0 0
vt2 0 0
vt2 0 0
vt2 0 0
vt2 0 0
vt2 0 0
vt2 0 0
vt2 0 0
vt2 0 0
vt2 0 0
vt2 0 0
vt2 0 0
vt2 0 0
vt2 0 0
vt2 0 0
vt2 0 0
vt2 0 0
vt2 0 0
vt2 0 0
vt2 0 0
vt2 0 0
vt2 0 0
vt2 0 0
vt2 0 0
vt2 0 0
vt2 0 0
vt2 0 0
vt2 0 0
vt2 0 0
vt2 0 0
vt2 0 0
vt2 0 0
vt2 0 0
vt2 0 0
vt2 0 0
vt2 0 0
vt2 0 0
vt2 0 0
vt2 0 0
vt2 0 0
vt2 0 0
vt2 0 0
vt2 0 0
vt2 0 0
vt2 0 0
vt2 0 0
vt2 0 0
vt2 0 0
vt2 0 0
vt2 0 0
vt2 0 0
vt2 0 0
vt2 0 0
vt2 0 0
vt2 0 0
vt2 0 0
vt2 0 0
vt2 0 0
vt2 0 0
vt2 0 0
vt2 0 0
vt2 0 0
vt2 0 0
vt2 0 0
vt2 0 0
vt2 0 0
vt2 0 0
vt2 0 0
vt2 0 0
vt2 0 0
vt2 0 0
vt2 0 0
vt2 0 0
vt2 0 0
vt2 0 0
vt2 0 0
vt2 0 0
vt2 0 0
vt2 0 0
vt2 0 0
vt2 0 0
vt2 0 0
vt2 0 0
vt2 0 0
vt2 0 0
vt2 0 0
vt2 0 0
vt2 0 0
vt2 0 0
vt2 0 0
vt2 0 0
vt2 0 0
vt2 0 0
vt2 0 0
vt2 0 0
vt2 0 0
vt2 0 0
vt2 0 0
vt2 0 0
vt2 0 0
vt2 0 0
vt2 0 0
vt2 0 0
vt2 0 0
vt2 0 0
vt2 0 0
vt2 0 0
vt2 0 0
vt2 0 0
vt2 0 0
vt2 0 0
vt2 0 0
vt2 0 0
vt2 0 0
vt2 0 0
vt2 0 0
vt2 0 0
vt2 0 0
vt2 0 0
vt2 0 0
vt2 0 0

vc 1 1 1 1
vc 1 1 1 1
vc 1 1 1 1
vc 1 1 1 1
vc 1 1 1 1
vc 1 1 1 1
vc 1 1 1 1
vc 1 1 1 1
vc 1 1 1 1
vc 1 1 1 1
vc 1 1 1 1
vc 1 1 1 1
vc 1 1 1 1
vc 1 1 1 1
vc 1 1 1 1
vc 1 1 1 1
vc 1 1 1 1
vc 1 1 1 1
vc 1 1 1 1
vc 1 1 1 1
vc 1 1 1 1
vc 1 1 1 1
vc 1 1 1 1
vc 1 1 1 1
vc 1 1 1 1
vc 1 1 1 1
vc 1 1 1 1
vc 1 1 1 1
vc 1 1 1 1
vc 1 1 1 1
vc 1 1 1 1
vc 1 1 1 1
vc 1 1 1 1
vc 1 1 1 1
vc 1 1 1 1
vc 1 1 1 1
vc 1 1 1 1
vc 1 1 1 1
vc 1 1 1 1
vc 1 1 1 1
vc 1 1 1 1
vc 1 1 1 1
vc 1 1 1 1
vc 1 1 1 1
vc 1 1 1 1
vc 1 1 1 1
vc 1 1 1 1
vc 1 1 1 1
vc 1 1 1 1
vc 1 1 1 1
vc 1 1 1 1
vc 1 1 1 1
vc 1 1 1 1
vc 1 1 1 1
vc 1 1 1 1
vc 1 1 1 1
vc 1 1 1 1
vc 1 1 1 1
vc 1 1 1 1
vc 1 1 1 1
vc 1 1 1 1
vc 1 1 1 1
vc 1 1 1 1
vc 1 1 1 1
vc 1 1 1 1
vc 1 1 1 1
vc 1 1 1 1
vc 1 1 1 1
vc 1 1 1 1
vc 1 1 1 1
vc 1 1 1 1
vc 1 1 1 1
vc 1 1 1 1
vc 1 1 1 1
vc 1 1 1 1
vc 1 1 1 1
vc 1 1 1 1
vc 1 1 1 1
vc 1 1 1 1
vc 1 1 1 1
vc 1 1 1 1
vc 1 1 1 1
vc 1 1 1 1
vc 1 1 1 1
vc 1 1 1 1
vc 1 1 1 1
vc 1 1 1 1
vc 1 1 1 1
vc 1 1 1 1
vc 1 1 1 1
vc 1 1 1 1
vc 1 1 1 1
vc 1 1 1 1
vc 1 1 1 1
vc 1 1 1 1
vc 1 1 1 1
vc 1 1 1 1
vc 1 1 1 1
vc 1 1 1 1
vc 1 1 1 1
vc 1 1 1 1
vc 1 1 1 1
vc 1 1 1 1
vc 1 1 1 1
vc 1 1 1 1
vc 1 1 1 1
vc 1 1 1 1
vc 1 1 1 1
vc 1 1 1 1
vc 1 1 1 1
vc 1 1 1 1
vc 1 1 1 1
vc 1 1 1 1
vc 1 1 1 1
vc 1 1 1 1
vc 1 1 1 1
vc 1 1 1 1
vc 1 1 1 1
vc 1 1 1 1
vc 1 1 1 1
vc 1 1 1 1
vc 1 1 1 1
vc 1 1 1 1
vc 1 1 1 1
vc 1 1 1 1
vc 1 1 1 1
vc 1 1 1 1
vc 1 1 1 1
vc 1 1 1 1
vc 1 1 1 1
vc 1 1 1 1
vc 1 1 1 1
vc 1 1 1 1
vc 1 1 1 1
vc 1 1 1 1

usemtl Default-Diffuse
usemap Default-Diffuse
f 3/3/3 2/2/2 1/1/1
f 2/2/2 4/4/4 1/1/1
f 1/1/1 4/4/4 5/5/5
f 2/2/2 6/6/6 4/4/4
f 4/4/4 7/7/7 5/5/5
f 6/6/6 8/8/8 4/4/4
f 4/4/4 8/8/8 7/7/7
f 8/8/8 9/9/9 7/7/7
f 12/12/12 11/11/11 10/10/10
f 11/11/11 13/13/13 10/10/10
f 10/10/10 13/13/13 14/14/14
f 11/11/11 15/15/15 13/13/13
f 13/13/13 16/16/16 14/14/14
f 15/15/15 17/17/17 13/13/13
f 13/13/13 17/17/17 16/16/16
f 17/17/17 18/18/18 16/16/16
f 21/21/21 20/20/20 19/19/19
f 20/20/20 22/22/22 19/19/19
f 19/19/19 22/22/22 23/23/23
f 20/20/20 24/24/24 22/22/22
f 22/22/22 25/25/25 23/23/23
f 24/24/24 26/26/26 22/22/22
f 22/22/22 26/26/26 25/25/25
f 26/26/26 27/27/27 25/25/25
f 30/30/30 29/29/29 28/28/28
f 29/29/29 31/31/31 28/28/28
f 28/28/28 31/31/31 32/32/32
f 29/29/29 33/33/33 31/31/31
f 31/31/31 34/34/34 32/32/32
f 33/33/33 35/35/35 31/31/31
f 31/31/31 35/35/35 34/34/34
f 35/35/35 36/36/36 34/34/34
f 39/39/39 38/38/38 37/37/37
f 38/38/38 40/40/40 37/37/37
f 37/37/37 40/40/40 41/41/41
f 38/38/38 42/42/42 40/40/40
f 40/40/40 43/43/43 41/41/41
f 42/42/42 44/44/44 40/40/40
f 40/40/40 44/44/44 43/43/43
f 44/44/44 45/45/45 43/43/43
f 48/48/48 47/47/47 46/46/46
f 47/47/47 49/49/49 46/46/46
f 46/46/46 49/49/49 50/50/50
f 47/47/47 51/51/51 49/49/49
f 49/49/49 52/52/52 50/50/50
f 51/51/51 53/53/53 49/49/49
f 49/49/49 53/53/53 52/52/52
f 53/53/53 54/54/54 52/52/52
f 57/57/57 56/56/56 55/55/55
f 56/56/56 58/58/58 55/55/55
f 55/55/55 58/58/58 59/59/59
f 56/56/56 60/60/60 58/58/58
f 58/58/58 61/61/61 59/59/59
f 60/60/60 62/62/62 58/58/58
f 58/58/58 62/62/62 61/61/61
f 62/62/62 63/63/63 61/61/61
f 66/66/66 65/65/65 64/64/64
f 65/65/65 67/67/67 64/64/64
f 64/64/64 67/67/67 68/68/68
f 65/65/65 69/69/69 67/67/67
f 67/67/67 70/70/70 68/68/68
f 69/69/69 71/71/71 67/67/67
f 67/67/67 71/71/71 70/70/70
f 71/71/71 72/72/72 70/70/70
f 75/75/75 74/74/74 73/73/73
f 74/74/74 76/76/76 73/73/73
f 73/73/73 76/76/76 77/77/77
f 74/74/74 78/78/78 76/76/76
f 76/76/76 79/79/79 77/77/77
f 78/78/78 80/80/80 76/76/76
f 76/76/76 80/80/80 79/79/79
f 80/80/80 81/81/81 79/79/79
f 84/84/84 83/83/83 82/82/82
f 83/83/83 85/85/85 82/82/82
f 82/82/82 85/85/85 86/86/86
f 83/83/83 87/87/87 85/85/85
f 85/85/85 88/88/88 86/86/86
f 87/87/87 89/89/89 85/85/85
f 85/85/85 89/89/89 88/88/88
f 89/89/89 90/90/90 88/88/88
f 93/93/93 92/92/92 91/91/91
f 92/92/92 94/94/94 91/91/91
f 91/91/91 94/94/94 95/95/95
f 92/92/92 96/96/96 94/94/94
f 94/94/94 97/97/97 95/95/95
f 96/96/96 98/98/98 94/94/94
f 94/94/94 98/98/98 97/97/97
f 98/98/98 99/99/99 97/97/97
f 102/102/102 101/101/101 100/100/100
f 101/101/101 103/103/103 100/100/100
f 100/100/100 103/103/103 104/104/104
f 101/101/101 105/105/105 103/103/103
f 103/103/103 106/106/106 104/104/104
f 105/105/105 107/107/107 103/103/103
f 103/103/103 107/107/107 106/106/106
f 107/107/107 108/108/108 106/106/106
f 111/111/111 110/110/110 109/109/109
f 110/110/110 112/112/112 109/109/109
f 109/109/109 112/112/112 113/113/113
f 110/110/110 114/114/114 112/112/112
f 112/112/112 115/115/115 113/113/113
f 114/114/114 116/116/116 112/112/112
f 112/112/112 116/116/116 115/115/115
f 116/116/116 117/117/117 115/115/115
f 120/120/120 119/119/119 118/118/118
f 119/119/119 121/121/121 118/118/118
f 118/118/118 121/121/121 122/122/122
f 119/119/119 123/123/123 121/121/121
f 121/121/121 124/124/124 122/122/122
f 123/123/123 125/125/125 121/121/121
f 121/121/121 125/125/125 124/124/124
f 125/125/125 126/126/126 124/124/124
f 129/129/129 128/128/128 127/127/127
f 128/128/128 130/130/130 127/127/127
f 127/127/127 130/130/130 131/131/131
f 128/128/128 132/132/132 130/130/130
f 130/130/130 133/133/133 131/131/131
f 132/132/132 134/134/134 130/130/130
f 130/130/130 134/134/134 133/133/133
f 134/134/134 135/135/135 133/133/133
