g Custom Mesh - Baked
v 392.9942 40.04906 -1331.514
v 425.1716 38.75176 -1329.914
v 424.4908 38.82002 -1325.973
v 393.6895 39.9602 -1335.452
v 359.9539 41.34272 -1337.393
v 425.8524 38.6835 -1333.855
v 360.6502 41.23399 -1341.331
v 394.3847 39.87134 -1339.39
v 361.3465 41.12525 -1345.268
v 327.7914 42.59958 -1343.081
v 360.6502 41.23399 -1341.331
v 359.9539 41.34272 -1337.393
v 328.4761 42.47147 -1347.02
v 298.9348 43.71798 -1348.046
v 361.3465 41.12525 -1345.268
v 299.5891 43.57098 -1351.99
v 329.1608 42.34335 -1350.959
v 300.2435 43.42398 -1355.933
v 275.8299 44.59591 -1351.756
v 299.5891 43.57098 -1351.99
v 298.9348 43.71798 -1348.046
v 276.4115 44.4309 -1355.71
v 260.4023 45.14666 -1354.007
v 300.2435 43.42398 -1355.933
v 260.9486 44.95849 -1357.965
v 276.9931 44.26589 -1359.664
v 261.4949 44.77032 -1361.923
v 250.668 45.45384 -1355.227
v 260.9486 44.95849 -1357.965
v 260.4023 45.14666 -1354.007
v 251.0536 45.24472 -1359.202
v 244.5235 45.62058 -1355.598
v 261.4949 44.77032 -1361.923
v 244.5243 45.39396 -1359.592
v 251.4392 45.0356 -1363.178
v 244.5252 45.16733 -1363.585
v 239.5785 45.75467 -1355.332
v 244.5243 45.39396 -1359.592
v 244.5235 45.62058 -1355.598
v 239.159 45.51059 -1359.302
v 233.2758 45.96872 -1354.548
v 244.5252 45.16733 -1363.585
v 232.7555 45.69901 -1358.505
v 238.7394 45.26651 -1363.273
v 232.2352 45.42929 -1362.462
v 226.144 46.22147 -1353.346
v 232.7555 45.69901 -1358.505
v 233.2758 45.96872 -1354.548
v 225.317 45.95979 -1357.251
v 219.577 46.46843 -1351.642
v 232.2352 45.42929 -1362.462
v 218.3791 46.21881 -1355.451
v 224.49 45.6981 -1361.156
v 217.1812 45.96918 -1359.259
v 213.3427 46.71981 -1349.331
v 218.3791 46.21881 -1355.451
v 219.577 46.46843 -1351.642
v 211.7502 46.48607 -1352.993
v 207.2013 46.98722 -1346.29
v 217.1812 45.96918 -1359.259
v 205.2388 46.7716 -1349.769
v 210.1578 46.25233 -1356.655
v 203.2763 46.55597 -1353.247
v 200.9254 47.2831 -1342.38
v 205.2388 46.7716 -1349.769
v 207.2013 46.98722 -1346.29
v 198.6534 47.08538 -1345.667
v 195.1984 47.58857 -1337.398
v 203.2763 46.55597 -1353.247
v 192.346 47.48029 -1340.2
v 196.3815 46.88766 -1348.953
v 189.4936 47.37201 -1343.002
v 189.4808 47.99444 -1330.972
v 192.346 47.48029 -1340.2
v 195.1984 47.58857 -1337.398
v 186.414 47.94275 -1333.54
v 183.387 48.4119 -1323.685
v 189.4936 47.37201 -1343.002
v 180.3498 48.40163 -1326.288
v 183.3472 47.89105 -1336.107
v 177.3127 48.39137 -1328.891
v 176.4364 48.75267 -1316.179
v 180.3498 48.40163 -1326.288
v 183.387 48.4119 -1323.685
v 173.6457 48.78586 -1319.045
v 168.0943 48.93326 -1309.14
v 177.3127 48.39137 -1328.891
v 165.7941 49.02433 -1312.411
v 170.8551 48.81905 -1321.91
v 163.4939 49.11541 -1315.682
v 158.0205 48.96683 -1302.807
v 165.7941 49.02433 -1312.411
v 168.0943 48.93326 -1309.14
v 156.0158 49.06214 -1306.267
v 146.6221 48.86327 -1296.631
v 163.4939 49.11541 -1315.682
v 144.7941 48.96068 -1300.188
v 154.0112 49.15744 -1309.727
v 142.9661 49.05808 -1303.744
v 134.8167 48.6824 -1290.809
v 144.7941 48.96068 -1300.188
v 146.6221 48.86327 -1296.631
v 133.0968 48.78094 -1294.419
v 123.5517 48.48481 -1285.57
v 142.9661 49.05808 -1303.744
v 121.8921 48.58395 -1289.208
v 131.377 48.87949 -1298.029
v 120.2325 48.68308 -1292.847
v 113.7951 48.33142 -1281.157
v 121.8921 48.58395 -1289.208
v 123.5517 48.48481 -1285.57
v 112.1478 48.43068 -1284.801
v 105.7814 48.2709 -1277.796
v 120.2325 48.68308 -1292.847
v 104.3349 48.32766 -1281.525
v 110.5006 48.52993 -1288.445
v 102.8884 48.38441 -1285.253
v 98.93253 48.21619 -1275.338
v 104.3349 48.32766 -1281.525
v 105.7814 48.2709 -1277.796
v 97.67448 48.23084 -1279.135
v 92.82591 48.16534 -1273.425
v 102.8884 48.38441 -1285.253
v 91.67767 48.13761 -1277.257
v 96.41644 48.24549 -1282.932
v 90.52943 48.10987 -1281.088
v 87.02448 48.11696 -1271.688
v 91.67767 48.13761 -1277.257
v 92.82591 48.16534 -1273.425
v 85.85549 48.04531 -1275.513
v 81.03036 48.06916 -1269.75
v 90.52943 48.10987 -1281.088
v 79.71896 47.95132 -1273.527
v 84.6865 47.97367 -1279.338
v 78.40757 47.83347 -1277.304

vn 0.04118268 0.9990349 -0.01527215
vn 0.03994825 0.9991475 -0.01040496
vn 0.03994825 0.9991475 -0.01040496
vn 0.04118268 0.9990349 -0.01527215
vn 0.04209318 0.9989106 -0.02014195
vn 0.03994825 0.9991475 -0.01040496
vn 0.04209318 0.9989106 -0.02014195
vn 0.04118268 0.9990349 -0.01527215
vn 0.04209318 0.9989106 -0.02014195
vn 0.04265859 0.9987752 -0.02507086
vn 0.04209318 0.9989106 -0.02014195
vn 0.04209318 0.9989106 -0.02014195
vn 0.04265859 0.9987752 -0.02507086
vn 0.04266308 0.9986345 -0.03014765
vn 0.04209318 0.9989106 -0.02014195
vn 0.04266308 0.9986345 -0.03014765
vn 0.04265859 0.9987752 -0.02507086
vn 0.04266308 0.9986345 -0.03014765
vn 0.04133964 0.9985111 -0.03558936
vn 0.04266308 0.9986345 -0.03014765
vn 0.04266308 0.9986345 -0.03014765
vn 0.04133964 0.9985111 -0.03558936
vn 0.03746552 0.9984025 -0.0422934
vn 0.04266308 0.9986345 -0.03014765
vn 0.03746552 0.9984025 -0.0422934
vn 0.04133964 0.9985111 -0.03558936
vn 0.03746552 0.9984025 -0.0422934
vn 0.03016309 0.9983145 -0.04958247
vn 0.03746552 0.9984025 -0.0422934
vn 0.03746552 0.9984025 -0.0422934
vn 0.03016309 0.9983145 -0.04958247
vn 0.02069911 0.9981802 -0.05663923
vn 0.03746552 0.9984025 -0.0422934
vn 0.02069911 0.9981802 -0.05663923
vn 0.03016309 0.9983145 -0.04958247
vn 0.02069911 0.9981802 -0.05663923
vn 0.01788494 0.9978386 -0.06323235
vn 0.02069911 0.9981802 -0.05663923
vn 0.02069911 0.9981802 -0.05663923
vn 0.01788494 0.9978386 -0.06323235
vn 0.02483925 0.9971501 -0.07123603
vn 0.02069911 0.9981802 -0.05663923
vn 0.02483925 0.9971501 -0.07123603
vn 0.01788494 0.9978386 -0.06323235
vn 0.02483925 0.9971501 -0.07123603
vn 0.02102377 0.9972345 -0.07128431
vn 0.02483925 0.9971501 -0.07123603
vn 0.02483925 0.9971501 -0.07123603
vn 0.02102377 0.9972345 -0.07128431
vn 0.01658421 0.9973674 -0.07059306
vn 0.02483925 0.9971501 -0.07123603
vn 0.01658421 0.9973674 -0.07059306
vn 0.02102377 0.9972345 -0.07128431
vn 0.01658421 0.9973674 -0.07059306
vn 0.01212967 0.9975464 -0.06894864
vn 0.01658421 0.9973674 -0.07059306
vn 0.01658421 0.9973674 -0.07059306
vn 0.01212967 0.9975464 -0.06894864
vn 0.008332119 0.9977487 -0.06654473
vn 0.01658421 0.9973674 -0.07059306
vn 0.008332119 0.9977487 -0.06654473
vn 0.01212967 0.9975464 -0.06894864
vn 0.008332119 0.9977487 -0.06654473
vn 0.005574135 0.997941 -0.06389619
vn 0.008332119 0.9977487 -0.06654473
vn 0.008332119 0.9977487 -0.06654473
vn 0.005574135 0.997941 -0.06389619
vn 0.01639287 0.9983372 -0.05526398
vn 0.008332119 0.9977487 -0.06654473
vn 0.01639287 0.9983372 -0.05526398
vn 0.005574135 0.997941 -0.06389619
vn 0.01639287 0.9983372 -0.05526398
vn 0.02304385 0.9985991 -0.04763195
vn 0.01639287 0.9983372 -0.05526398
vn 0.01639287 0.9983372 -0.05526398
vn 0.02304385 0.9985991 -0.04763195
vn 0.02715755 0.9989961 -0.03562794
vn 0.01639287 0.9983372 -0.05526398
vn 0.02715755 0.9989961 -0.03562794
vn 0.02304385 0.9985991 -0.04763195
vn 0.02715755 0.9989961 -0.03562794
vn 0.02858912 0.9994589 -0.01626733
vn 0.02715755 0.9989961 -0.03562794
vn 0.02715755 0.9989961 -0.03562794
vn 0.02858912 0.9994589 -0.01626733
vn 0.02350138 0.9996598 0.01130631
vn 0.02715755 0.9989961 -0.03562794
vn 0.02350138 0.9996598 0.01130631
vn 0.02858912 0.9994589 -0.01626733
vn 0.02350138 0.9996598 0.01130631
vn 0.00923759 0.9997112 0.02218456
vn 0.02350138 0.9996598 0.01130631
vn 0.02350138 0.9996598 0.01130631
vn 0.00923759 0.9997112 0.02218456
vn 0.0008983322 0.9996373 0.0269163
vn 0.02350138 0.9996598 0.01130631
vn 0.0008983322 0.9996373 0.0269163
vn 0.00923759 0.9997112 0.02218456
vn 0.0008983322 0.9996373 0.0269163
vn -0.003370426 0.9995769 0.02889206
vn 0.0008983322 0.9996373 0.0269163
vn 0.0008983322 0.9996373 0.0269163
vn -0.003370426 0.9995769 0.02889206
vn -0.004092493 0.999568 0.02910454
vn 0.0008983322 0.9996373 0.0269163
vn -0.004092493 0.999568 0.02910454
vn -0.003370426 0.9995769 0.02889206
vn -0.004092493 0.999568 0.02910454
vn -0.0001333489 0.9996276 0.02728993
vn -0.004092493 0.999568 0.02910454
vn -0.004092493 0.999568 0.02910454
vn -0.0001333489 0.9996276 0.02728993
vn -0.006944046 0.9998155 0.01791018
vn -0.004092493 0.999568 0.02910454
vn -0.006944046 0.9998155 0.01791018
vn -0.0001333489 0.9996276 0.02728993
vn -0.006944046 0.9998155 0.01791018
vn -0.01249561 0.9998899 0.007997354
vn -0.006944046 0.9998155 0.01791018
vn -0.006944046 0.9998155 0.01791018
vn -0.01249561 0.9998899 0.007997354
vn -0.01652929 0.9998607 -0.00228415
vn -0.006944046 0.9998155 0.01791018
vn -0.01652929 0.9998607 -0.00228415
vn -0.01249561 0.9998899 0.007997354
vn -0.01652929 0.9998607 -0.00228415
vn -0.01960189 0.9997267 -0.0127356
vn -0.01652929 0.9998607 -0.00228415
vn -0.01652929 0.9998607 -0.00228415
vn -0.01960189 0.9997267 -0.0127356
vn -0.02285618 0.9994684 -0.02324795
vn -0.01652929 0.9998607 -0.00228415
vn -0.02285618 0.9994684 -0.02324795
vn -0.01960189 0.9997267 -0.0127356
vn -0.02285618 0.9994684 -0.02324795

vt 0.5 0
vt 1 0.5
vt 1 0
vt 0.5 0.5
vt 0 0
vt 1 1
vt 0 0.5
vt 0.5 1
vt 0 1
vt 0.5 0
vt 1 0.5
vt 1 0
vt 0.5 0.5
vt 0 0
vt 1 1
vt 0 0.5
vt 0.5 1
vt 0 1
vt 0.5 0
vt 1 0.5
vt 1 0
vt 0.5 0.5
vt 0 0
vt 1 1
vt 0 0.5
vt 0.5 1
vt 0 1
vt 0.5 0
vt 1 0.5
vt 1 0
vt 0.5 0.5
vt 0 0
vt 1 1
vt 0 0.5
vt 0.5 1
vt 0 1
vt 0.5 0
vt 1 0.5
vt 1 0
vt 0.5 0.5
vt 0 0
vt 1 1
vt 0 0.5
vt 0.5 1
vt 0 1
vt 0.5 0
vt 1 0.5
vt 1 0
vt 0.5 0.5
vt 0 0
vt 1 1
vt 0 0.5
vt 0.5 1
vt 0 1
vt 0.5 0
vt 1 0.5
vt 1 0
vt 0.5 0.5
vt 0 0
vt 1 1
vt 0 0.5
vt 0.5 1
vt 0 1
vt 0.5 0
vt 1 0.5
vt 1 0
vt 0.5 0.5
vt 0 0
vt 1 1
vt 0 0.5
vt 0.5 1
vt 0 1
vt 0.5 0
vt 1 0.5
vt 1 0
vt 0.5 0.5
vt 0 0
vt 1 1
vt 0 0.5
vt 0.5 1
vt 0 1
vt 0.5 0
vt 1 0.5
vt 1 0
vt 0.5 0.5
vt 0 0
vt 1 1
vt 0 0.5
vt 0.5 1
vt 0 1
vt 0.5 0
vt 1 0.5
vt 1 0
vt 0.5 0.5
vt 0 0
vt 1 1
vt 0 0.5
vt 0.5 1
vt 0 1
vt 0.5 0
vt 1 0.5
vt 1 0
vt 0.5 0.5
vt 0 0
vt 1 1
vt 0 0.5
vt 0.5 1
vt 0 1
vt 0.5 0
vt 1 0.5
vt 1 0
vt 0.5 0.5
vt 0 0
vt 1 1
vt 0 0.5
vt 0.5 1
vt 0 1
vt 0.5 0
vt 1 0.5
vt 1 0
vt 0.5 0.5
vt 0 0
vt 1 1
vt 0 0.5
vt 0.5 1
vt 0 1
vt 0.5 0
vt 1 0.5
vt 1 0
vt 0.5 0.5
vt 0 0
vt 1 1
vt 0 0.5
vt 0.5 1
vt 0 1

vt2 0 0
vt2 0 0
vt2 0 0
vt2 0 0
vt2 0 0
vt2 0 0
vt2 0 0
vt2 0 0
vt2 0 0
vt2 0 0
vt2 0 0
vt2 0 0
vt2 0 0
vt2 0 0
vt2 0 0
vt2 0 0
vt2 0 0
vt2 0 0
vt2 0 0
vt2 0 0
vt2 0 0
vt2 0 0
vt2 0 0
vt2 0 0
vt2 0 0
vt2 0 0
vt2 0 0
vt2 0 0
vt2 0 0
vt2 0 0
vt2 0 0
vt2 0 0
vt2 0 0
vt2 0 0
vt2 0 0
vt2 0 0
vt2 0 0
vt2 0 0
vt2 0 0
vt2 0 0
vt2 0 0
vt2 0 0
vt2 0 0
vt2 0 0
vt2 0 0
vt2 0 0
vt2 0 0
vt2 0 0
vt2 0 0
vt2 0 0
vt2 0 0
vt2 0 0
vt2 0 0
vt2 0 0
vt2 0 0
vt2 0 0
vt2 0 0
vt2 0 0
vt2 0 0
vt2 0 0
vt2 0 0
vt2 0 0
vt2 0 0
vt2 0 0
vt2 0 0
vt2 0 0
vt2 0 0
vt2 0 0
vt2 0 0
vt2 0 0
vt2 0 0
vt2 0 0
vt2 0 0
vt2 0 0
vt2 0 0
vt2 0 0
vt2 0 0
vt2 0 0
vt2 0 0
vt2 0 0
vt2 0 0
vt2 0 0
vt2 0 0
vt2 0 0
vt2 0 0
vt2 0 0
vt2 0 0
vt2 0 0
vt2 0 0
vt2 0 0
vt2 0 0
vt2 0 0
vt2 0 0
vt2 0 0
vt2 0 0
vt2 0 0
vt2 0 0
vt2 0 0
vt2 0 0
vt2 0 0
vt2 0 0
vt2 0 0
vt2 0 0
vt2 0 0
vt2 0 0
vt2 0 0
vt2 0 0
vt2 0 0
vt2 0 0
vt2 0 0
vt2 0 0
vt2 0 0
vt2 0 0
vt2 0 0
vt2 0 0
vt2 0 0
vt2 0 0
vt2 0 0
vt2 0 0
vt2 0 0
vt2 0 0
vt2 0 0
vt2 0 0
vt2 0 0
vt2 0 0
vt2 0 0
vt2 0 0
vt2 0 0
vt2 0 0
vt2 0 0
vt2 0 0
vt2 0 0
vt2 0 0
vt2 0 0
vt2 0 0

vt2 0 0
vt2 0 0
vt2 0 0
vt2 0 0
vt2 0 0
vt2 0 0
vt2 0 0
vt2 0 0
vt2 0 0
vt2 0 0
vt2 0 0
vt2 0 0
vt2 0 0
vt2 0 0
vt2 0 0
vt2 0 0
vt2 0 0
vt2 0 0
vt2 0 0
vt2 0 0
vt2 0 0
vt2 0 0
vt2 0 0
vt2 0 0
vt2 0 0
vt2 0 0
vt2 0 0
vt2 0 0
vt2 0 0
vt2 0 0
vt2 0 0
vt2 0 0
vt2 0 0
vt2 0 0
vt2 0 0
vt2 0 0
vt2 0 0
vt2 0 0
vt2 0 0
vt2 0 0
vt2 0 0
vt2 0 0
vt2 0 0
vt2 0 0
vt2 0 0
vt2 0 0
vt2 0 0
vt2 0 0
vt2 0 0
vt2 0 0
vt2 0 0
vt2 0 0
vt2 0 0
vt2 0 0
vt2 0 0
vt2 0 0
vt2 0 0
vt2 0 0
vt2 0 0
vt2 0 0
vt2 0 0
vt2 0 0
vt2 0 0
vt2 0 0
vt2 0 0
vt2 0 0
vt2 0 0
vt2 0 0
vt2 0 0
vt2 0 0
vt2 0 0
vt2 0 0
vt2 0 0
vt2 0 0
vt2 0 0
vt2 0 0
vt2 0 0
vt2 0 0
vt2 0 0
vt2 0 0
vt2 0 0
vt2 0 0
vt2 0 0
vt2 0 0
vt2 0 0
vt2 0 0
vt2 0 0
vt2 0 0
vt2 0 0
vt2 0 0
vt2 0 0
vt2 0 0
vt2 0 0
vt2 0 0
vt2 0 0
vt2 0 0
vt2 0 0
vt2 0 0
vt2 0 0
vt2 0 0
vt2 0 0
vt2 0 0
vt2 0 0
vt2 0 0
vt2 0 0
vt2 0 0
vt2 0 0
vt2 0 0
vt2 0 0
vt2 0 0
vt2 0 0
vt2 0 0
vt2 0 0
vt2 0 0
vt2 0 0
vt2 0 0
vt2 0 0
vt2 0 0
vt2 0 0
vt2 0 0
vt2 0 0
vt2 0 0
vt2 0 0
vt2 0 0
vt2 0 0
vt2 0 0
vt2 0 0
vt2 0 0
vt2 0 0
vt2 0 0
vt2 0 0
vt2 0 0
vt2 0 0
vt2 0 0
vt2 0 0

vc 1 1 1 1
vc 1 1 1 1
vc 1 1 1 1
vc 1 1 1 1
vc 1 1 1 1
vc 1 1 1 1
vc 1 1 1 1
vc 1 1 1 1
vc 1 1 1 1
vc 1 1 1 1
vc 1 1 1 1
vc 1 1 1 1
vc 1 1 1 1
vc 1 1 1 1
vc 1 1 1 1
vc 1 1 1 1
vc 1 1 1 1
vc 1 1 1 1
vc 1 1 1 1
vc 1 1 1 1
vc 1 1 1 1
vc 1 1 1 1
vc 1 1 1 1
vc 1 1 1 1
vc 1 1 1 1
vc 1 1 1 1
vc 1 1 1 1
vc 1 1 1 1
vc 1 1 1 1
vc 1 1 1 1
vc 1 1 1 1
vc 1 1 1 1
vc 1 1 1 1
vc 1 1 1 1
vc 1 1 1 1
vc 1 1 1 1
vc 1 1 1 1
vc 1 1 1 1
vc 1 1 1 1
vc 1 1 1 1
vc 1 1 1 1
vc 1 1 1 1
vc 1 1 1 1
vc 1 1 1 1
vc 1 1 1 1
vc 1 1 1 1
vc 1 1 1 1
vc 1 1 1 1
vc 1 1 1 1
vc 1 1 1 1
vc 1 1 1 1
vc 1 1 1 1
vc 1 1 1 1
vc 1 1 1 1
vc 1 1 1 1
vc 1 1 1 1
vc 1 1 1 1
vc 1 1 1 1
vc 1 1 1 1
vc 1 1 1 1
vc 1 1 1 1
vc 1 1 1 1
vc 1 1 1 1
vc 1 1 1 1
vc 1 1 1 1
vc 1 1 1 1
vc 1 1 1 1
vc 1 1 1 1
vc 1 1 1 1
vc 1 1 1 1
vc 1 1 1 1
vc 1 1 1 1
vc 1 1 1 1
vc 1 1 1 1
vc 1 1 1 1
vc 1 1 1 1
vc 1 1 1 1
vc 1 1 1 1
vc 1 1 1 1
vc 1 1 1 1
vc 1 1 1 1
vc 1 1 1 1
vc 1 1 1 1
vc 1 1 1 1
vc 1 1 1 1
vc 1 1 1 1
vc 1 1 1 1
vc 1 1 1 1
vc 1 1 1 1
vc 1 1 1 1
vc 1 1 1 1
vc 1 1 1 1
vc 1 1 1 1
vc 1 1 1 1
vc 1 1 1 1
vc 1 1 1 1
vc 1 1 1 1
vc 1 1 1 1
vc 1 1 1 1
vc 1 1 1 1
vc 1 1 1 1
vc 1 1 1 1
vc 1 1 1 1
vc 1 1 1 1
vc 1 1 1 1
vc 1 1 1 1
vc 1 1 1 1
vc 1 1 1 1
vc 1 1 1 1
vc 1 1 1 1
vc 1 1 1 1
vc 1 1 1 1
vc 1 1 1 1
vc 1 1 1 1
vc 1 1 1 1
vc 1 1 1 1
vc 1 1 1 1
vc 1 1 1 1
vc 1 1 1 1
vc 1 1 1 1
vc 1 1 1 1
vc 1 1 1 1
vc 1 1 1 1
vc 1 1 1 1
vc 1 1 1 1
vc 1 1 1 1
vc 1 1 1 1
vc 1 1 1 1
vc 1 1 1 1
vc 1 1 1 1
vc 1 1 1 1
vc 1 1 1 1
vc 1 1 1 1
vc 1 1 1 1
vc 1 1 1 1

usemtl Default-Diffuse
usemap Default-Diffuse
f 3/3/3 2/2/2 1/1/1
f 2/2/2 4/4/4 1/1/1
f 1/1/1 4/4/4 5/5/5
f 2/2/2 6/6/6 4/4/4
f 4/4/4 7/7/7 5/5/5
f 6/6/6 8/8/8 4/4/4
f 4/4/4 8/8/8 7/7/7
f 8/8/8 9/9/9 7/7/7
f 12/12/12 11/11/11 10/10/10
f 11/11/11 13/13/13 10/10/10
f 10/10/10 13/13/13 14/14/14
f 11/11/11 15/15/15 13/13/13
f 13/13/13 16/16/16 14/14/14
f 15/15/15 17/17/17 13/13/13
f 13/13/13 17/17/17 16/16/16
f 17/17/17 18/18/18 16/16/16
f 21/21/21 20/20/20 19/19/19
f 20/20/20 22/22/22 19/19/19
f 19/19/19 22/22/22 23/23/23
f 20/20/20 24/24/24 22/22/22
f 22/22/22 25/25/25 23/23/23
f 24/24/24 26/26/26 22/22/22
f 22/22/22 26/26/26 25/25/25
f 26/26/26 27/27/27 25/25/25
f 30/30/30 29/29/29 28/28/28
f 29/29/29 31/31/31 28/28/28
f 28/28/28 31/31/31 32/32/32
f 29/29/29 33/33/33 31/31/31
f 31/31/31 34/34/34 32/32/32
f 33/33/33 35/35/35 31/31/31
f 31/31/31 35/35/35 34/34/34
f 35/35/35 36/36/36 34/34/34
f 39/39/39 38/38/38 37/37/37
f 38/38/38 40/40/40 37/37/37
f 37/37/37 40/40/40 41/41/41
f 38/38/38 42/42/42 40/40/40
f 40/40/40 43/43/43 41/41/41
f 42/42/42 44/44/44 40/40/40
f 40/40/40 44/44/44 43/43/43
f 44/44/44 45/45/45 43/43/43
f 48/48/48 47/47/47 46/46/46
f 47/47/47 49/49/49 46/46/46
f 46/46/46 49/49/49 50/50/50
f 47/47/47 51/51/51 49/49/49
f 49/49/49 52/52/52 50/50/50
f 51/51/51 53/53/53 49/49/49
f 49/49/49 53/53/53 52/52/52
f 53/53/53 54/54/54 52/52/52
f 57/57/57 56/56/56 55/55/55
f 56/56/56 58/58/58 55/55/55
f 55/55/55 58/58/58 59/59/59
f 56/56/56 60/60/60 58/58/58
f 58/58/58 61/61/61 59/59/59
f 60/60/60 62/62/62 58/58/58
f 58/58/58 62/62/62 61/61/61
f 62/62/62 63/63/63 61/61/61
f 66/66/66 65/65/65 64/64/64
f 65/65/65 67/67/67 64/64/64
f 64/64/64 67/67/67 68/68/68
f 65/65/65 69/69/69 67/67/67
f 67/67/67 70/70/70 68/68/68
f 69/69/69 71/71/71 67/67/67
f 67/67/67 71/71/71 70/70/70
f 71/71/71 72/72/72 70/70/70
f 75/75/75 74/74/74 73/73/73
f 74/74/74 76/76/76 73/73/73
f 73/73/73 76/76/76 77/77/77
f 74/74/74 78/78/78 76/76/76
f 76/76/76 79/79/79 77/77/77
f 78/78/78 80/80/80 76/76/76
f 76/76/76 80/80/80 79/79/79
f 80/80/80 81/81/81 79/79/79
f 84/84/84 83/83/83 82/82/82
f 83/83/83 85/85/85 82/82/82
f 82/82/82 85/85/85 86/86/86
f 83/83/83 87/87/87 85/85/85
f 85/85/85 88/88/88 86/86/86
f 87/87/87 89/89/89 85/85/85
f 85/85/85 89/89/89 88/88/88
f 89/89/89 90/90/90 88/88/88
f 93/93/93 92/92/92 91/91/91
f 92/92/92 94/94/94 91/91/91
f 91/91/91 94/94/94 95/95/95
f 92/92/92 96/96/96 94/94/94
f 94/94/94 97/97/97 95/95/95
f 96/96/96 98/98/98 94/94/94
f 94/94/94 98/98/98 97/97/97
f 98/98/98 99/99/99 97/97/97
f 102/102/102 101/101/101 100/100/100
f 101/101/101 103/103/103 100/100/100
f 100/100/100 103/103/103 104/104/104
f 101/101/101 105/105/105 103/103/103
f 103/103/103 106/106/106 104/104/104
f 105/105/105 107/107/107 103/103/103
f 103/103/103 107/107/107 106/106/106
f 107/107/107 108/108/108 106/106/106
f 111/111/111 110/110/110 109/109/109
f 110/110/110 112/112/112 109/109/109
f 109/109/109 112/112/112 113/113/113
f 110/110/110 114/114/114 112/112/112
f 112/112/112 115/115/115 113/113/113
f 114/114/114 116/116/116 112/112/112
f 112/112/112 116/116/116 115/115/115
f 116/116/116 117/117/117 115/115/115
f 120/120/120 119/119/119 118/118/118
f 119/119/119 121/121/121 118/118/118
f 118/118/118 121/121/121 122/122/122
f 119/119/119 123/123/123 121/121/121
f 121/121/121 124/124/124 122/122/122
f 123/123/123 125/125/125 121/121/121
f 121/121/121 125/125/125 124/124/124
f 125/125/125 126/126/126 124/124/124
f 129/129/129 128/128/128 127/127/127
f 128/128/128 130/130/130 127/127/127
f 127/127/127 130/130/130 131/131/131
f 128/128/128 132/132/132 130/130/130
f 130/130/130 133/133/133 131/131/131
f 132/132/132 134/134/134 130/130/130
f 130/130/130 134/134/134 133/133/133
f 134/134/134 135/135/135 133/133/133
