g Custom Mesh - Baked
v 287.6382 43.37328 -1230.332
v 293.444 43.24154 -1233.766
v 293.0862 43.31441 -1229.783
v 288.0658 43.29812 -1234.308
v 281.5758 43.48712 -1231.031
v 293.8018 43.16868 -1237.749
v 282.0527 43.41035 -1235.002
v 288.4933 43.22296 -1238.284
v 282.5297 43.33359 -1238.973
v 275.0322 43.6456 -1231.856
v 282.0527 43.41035 -1235.002
v 281.5758 43.48712 -1231.031
v 275.546 43.56763 -1235.822
v 268.144 43.83822 -1232.78
v 282.5297 43.33359 -1238.973
v 268.6867 43.75932 -1236.742
v 276.0598 43.48966 -1239.788
v 269.2294 43.68042 -1240.705
v 261.0499 44.05447 -1233.779
v 268.6867 43.75932 -1236.742
v 268.144 43.83823 -1232.78
v 261.6162 43.97481 -1237.738
v 253.889 44.28378 -1234.827
v 269.2294 43.68042 -1240.705
v 254.4756 44.20347 -1238.783
v 262.1825 43.89515 -1241.697
v 255.0621 44.12315 -1242.739
v 246.8015 44.51557 -1235.898
v 254.4756 44.20347 -1238.783
v 253.889 44.28378 -1234.827
v 247.406 44.43468 -1239.852
v 239.9272 44.73926 -1236.968
v 255.0621 44.12315 -1242.739
v 240.5487 44.65782 -1240.919
v 248.0106 44.35378 -1243.805
v 241.1702 44.57639 -1244.869
v 233.4066 44.94424 -1238.01
v 240.5487 44.65782 -1240.919
v 239.9272 44.73926 -1236.968
v 234.0449 44.86227 -1241.958
v 227.3796 45.11995 -1239
v 241.1702 44.57639 -1244.869
v 228.0358 45.03741 -1242.945
v 234.6832 44.7803 -1245.906
v 228.6919 44.95486 -1246.89
v 220.7604 45.26191 -1240.074
v 228.0358 45.03741 -1242.945
v 227.3796 45.11995 -1239
v 221.3914 45.19854 -1244.023
v 212.3956 45.42109 -1241.4
v 228.6919 44.95486 -1246.89
v 213.0193 45.37627 -1245.351
v 222.0223 45.13516 -1247.973
v 213.6429 45.33144 -1249.302
v 202.2979 45.60254 -1242.998
v 213.0193 45.37627 -1245.351
v 212.3956 45.42109 -1241.4
v 202.9243 45.57598 -1246.948
v 190.4763 45.81151 -1244.887
v 213.6429 45.33144 -1249.302
v 191.1115 45.80309 -1248.837
v 203.5507 45.54943 -1250.899
v 191.7466 45.79467 -1252.786
v 176.9378 46.05326 -1247.089
v 191.1115 45.80309 -1248.837
v 190.4763 45.81151 -1244.887
v 177.5856 46.06296 -1251.036
v 161.6886 46.33313 -1249.622
v 191.7466 45.79467 -1252.786
v 162.3516 46.36097 -1253.567
v 178.2334 46.07266 -1254.983
v 163.0147 46.38881 -1257.511
v 144.7343 46.65651 -1252.508
v 162.3516 46.36097 -1253.567
v 161.6886 46.33313 -1249.622
v 145.4146 46.70253 -1256.449
v 126.0804 47.02874 -1255.767
v 163.0147 46.38882 -1257.511
v 126.7792 47.09301 -1259.705
v 146.0948 46.74855 -1260.391
v 127.478 47.15729 -1263.643
v 105.7322 47.4552 -1259.419
v 126.7792 47.09301 -1259.705
v 126.0805 47.02874 -1255.767
v 106.4505 47.53781 -1263.353
v 83.69469 47.94128 -1263.485
v 127.478 47.15729 -1263.643
v 84.43345 48.04231 -1267.415
v 107.1689 47.62042 -1267.287
v 85.17221 48.14333 -1271.345
v 58.88921 48.56897 -1268.015
v 84.43345 48.04231 -1267.415
v 83.69469 47.94129 -1263.485
v 59.59801 48.63305 -1271.951
v 31.13993 49.27581 -1272.913
v 85.17221 48.14333 -1271.345
v 31.82808 49.30276 -1276.854
v 60.30681 48.69713 -1275.887
v 32.51624 49.32972 -1280.794
v 0.9635568 50.04788 -1278.115
v 31.82808 49.30276 -1276.854
v 31.13993 49.27581 -1272.913
v 1.637188 50.03763 -1282.058
v -31.12465 50.87136 -1283.556
v 32.51624 49.32972 -1280.794
v -30.46112 50.82384 -1287.5
v 2.310818 50.02738 -1286
v -29.7976 50.77633 -1291.444
v -64.61006 51.73238 -1289.171
v -30.46112 50.82384 -1287.5
v -31.12465 50.87136 -1283.556
v -63.95332 51.64758 -1293.116
v -98.97858 52.61709 -1294.897
v -29.7976 50.77633 -1291.444
v -98.32587 52.49499 -1298.841
v -63.29657 51.56277 -1297.061
v -97.67315 52.37289 -1302.786
v -133.7164 53.51167 -1300.669
v -98.32587 52.49499 -1298.841
v -98.97858 52.61709 -1294.897
v -133.0652 53.35228 -1304.613
v -168.3098 54.40225 -1306.424
v -97.67315 52.37289 -1302.786
v -167.6579 54.20562 -1310.366
v -132.4141 53.1929 -1308.556
v -167.0059 54.00899 -1314.308
v -202.2456 55.27503 -1312.098
v -167.6579 54.20562 -1310.366
v -168.3098 54.40225 -1306.424
v -201.5902 55.04119 -1316.037
v -235.0106 56.11614 -1317.625
v -167.0059 54.00899 -1314.308
v -234.3488 55.84517 -1321.561
v -200.9348 54.80736 -1319.976
v -233.687 55.5742 -1325.497

vn 0.01633132 0.9997199 -0.01713915
vn 0.00577337 0.9998255 -0.0177702
vn 0.00577337 0.9998255 -0.0177702
vn 0.01633132 0.9997199 -0.01713915
vn 0.02338195 0.99959 -0.01651718
vn 0.00577337 0.9998255 -0.0177702
vn 0.02338195 0.99959 -0.01651718
vn 0.01633132 0.9997199 -0.01713915
vn 0.02338195 0.99959 -0.01651718
vn 0.02819236 0.9994745 -0.01599578
vn 0.02338195 0.99959 -0.01651718
vn 0.02338195 0.99959 -0.01651718
vn 0.02819236 0.9994745 -0.01599578
vn 0.03146319 0.9993833 -0.01559176
vn 0.02338195 0.99959 -0.01651718
vn 0.03146319 0.9993833 -0.01559176
vn 0.02819236 0.9994745 -0.01599578
vn 0.03146319 0.9993833 -0.01559176
vn 0.03357915 0.9993187 -0.01530565
vn 0.03146319 0.9993833 -0.01559176
vn 0.03146319 0.9993833 -0.01559176
vn 0.03357915 0.9993187 -0.01530565
vn 0.03475279 0.9992812 -0.01513506
vn 0.03146319 0.9993833 -0.01559176
vn 0.03475279 0.9992812 -0.01513506
vn 0.03357915 0.9993187 -0.01530565
vn 0.03475279 0.9992812 -0.01513506
vn 0.03505809 0.9992713 -0.01508644
vn 0.03475279 0.9992812 -0.01513506
vn 0.03475279 0.9992812 -0.01513506
vn 0.03505809 0.9992713 -0.01508644
vn 0.03446562 0.9992906 -0.01517692
vn 0.03475279 0.9992812 -0.01513506
vn 0.03446562 0.9992906 -0.01517692
vn 0.03505809 0.9992713 -0.01508644
vn 0.03446562 0.9992906 -0.01517692
vn 0.032827 0.9993418 -0.01544256
vn 0.03446562 0.9992906 -0.01517692
vn 0.03446562 0.9992906 -0.01517692
vn 0.032827 0.9993418 -0.01544256
vn 0.02982238 0.9994279 -0.01595143
vn 0.03446562 0.9992906 -0.01517692
vn 0.02982238 0.9994279 -0.01595143
vn 0.032827 0.9993418 -0.01544256
vn 0.02982238 0.9994279 -0.01595143
vn 0.02465218 0.9996228 -0.01210282
vn 0.02982238 0.9994279 -0.01595143
vn 0.02982238 0.9994279 -0.01595143
vn 0.02465218 0.9996228 -0.01210282
vn 0.02171593 0.9997329 -0.007914112
vn 0.02982238 0.9994279 -0.01595143
vn 0.02171593 0.9997329 -0.007914112
vn 0.02465218 0.9996228 -0.01210282
vn 0.02171593 0.9997329 -0.007914112
vn 0.02000096 0.9997938 -0.003548295
vn 0.02171593 0.9997329 -0.007914112
vn 0.02171593 0.9997329 -0.007914112
vn 0.02000096 0.9997938 -0.003548295
vn 0.01899268 0.9998192 0.0009225159
vn 0.02171593 0.9997329 -0.007914112
vn 0.01899268 0.9998192 0.0009225159
vn 0.02000096 0.9997938 -0.003548295
vn 0.01899268 0.9998192 0.0009225159
vn 0.01841388 0.9998153 0.005479134
vn 0.01899268 0.9998192 0.0009225159
vn 0.01899268 0.9998192 0.0009225159
vn 0.01841388 0.9998153 0.005479134
vn 0.01810506 0.9997849 0.01009982
vn 0.01899268 0.9998192 0.0009225159
vn 0.01810506 0.9997849 0.01009982
vn 0.01841388 0.9998153 0.005479134
vn 0.01810506 0.9997849 0.01009982
vn 0.01797236 0.9997294 0.01477333
vn 0.01810506 0.9997849 0.01009982
vn 0.01810506 0.9997849 0.01009982
vn 0.01797236 0.9997294 0.01477333
vn 0.0179475 0.9996487 0.01950178
vn 0.01810506 0.9997849 0.01009982
vn 0.0179475 0.9996487 0.01950178
vn 0.01797236 0.9997294 0.01477333
vn 0.0179475 0.9996487 0.01950178
vn 0.01798889 0.9995436 0.02427412
vn 0.0179475 0.9996487 0.01950178
vn 0.0179475 0.9996487 0.01950178
vn 0.01798889 0.9995436 0.02427412
vn 0.01806709 0.9994137 0.02908755
vn 0.0179475 0.9996487 0.01950178
vn 0.01806709 0.9994137 0.02908755
vn 0.01798889 0.9995436 0.02427412
vn 0.01806709 0.9994137 0.02908755
vn 0.02035437 0.9995939 0.01993812
vn 0.01806709 0.9994137 0.02908755
vn 0.01806709 0.9994137 0.02908755
vn 0.02035437 0.9995939 0.01993812
vn 0.02234562 0.9996926 0.01074251
vn 0.01806709 0.9994137 0.02908755
vn 0.02234562 0.9996926 0.01074251
vn 0.02035437 0.9995939 0.01993812
vn 0.02234562 0.9996926 0.01074251
vn 0.02415186 0.9997072 0.001526924
vn 0.02234562 0.9996926 0.01074251
vn 0.02234562 0.9996926 0.01074251
vn 0.02415186 0.9997072 0.001526924
vn 0.0258371 0.9996365 -0.00769618
vn 0.02234562 0.9996926 0.01074251
vn 0.0258371 0.9996365 -0.00769618
vn 0.02415186 0.9997072 0.001526924
vn 0.0258371 0.9996365 -0.00769618
vn 0.02744311 0.9994801 -0.01691835
vn 0.0258371 0.9996365 -0.00769618
vn 0.0258371 0.9996365 -0.00769618
vn 0.02744311 0.9994801 -0.01691835
vn 0.02899759 0.9992378 -0.02613298
vn 0.0258371 0.9996365 -0.00769618
vn 0.02899759 0.9992378 -0.02613298
vn 0.02744311 0.9994801 -0.01691835
vn 0.02899759 0.9992378 -0.02613298
vn 0.0305212 0.9989096 -0.03533363
vn 0.02899759 0.9992378 -0.02613298
vn 0.02899759 0.9992378 -0.02613298
vn 0.0305212 0.9989096 -0.03533363
vn 0.03203095 0.9984952 -0.0445127
vn 0.02899759 0.9992378 -0.02613298
vn 0.03203095 0.9984952 -0.0445127
vn 0.0305212 0.9989096 -0.03533363
vn 0.03203095 0.9984952 -0.0445127
vn 0.03354335 0.9979956 -0.05366372
vn 0.03203095 0.9984952 -0.0445127
vn 0.03203095 0.9984952 -0.0445127
vn 0.03354335 0.9979956 -0.05366372
vn 0.03507609 0.9974112 -0.06277446
vn 0.03203095 0.9984952 -0.0445127
vn 0.03507609 0.9974112 -0.06277446
vn 0.03354335 0.9979956 -0.05366372
vn 0.03507609 0.9974112 -0.06277446

vt 0.5 0
vt 1 0.5
vt 1 0
vt 0.5 0.5
vt 0 0
vt 1 1
vt 0 0.5
vt 0.5 1
vt 0 1
vt 0.5 0
vt 1 0.5
vt 1 0
vt 0.5 0.5
vt 0 0
vt 1 1
vt 0 0.5
vt 0.5 1
vt 0 1
vt 0.5 0
vt 1 0.5
vt 1 0
vt 0.5 0.5
vt 0 0
vt 1 1
vt 0 0.5
vt 0.5 1
vt 0 1
vt 0.5 0
vt 1 0.5
vt 1 0
vt 0.5 0.5
vt 0 0
vt 1 1
vt 0 0.5
vt 0.5 1
vt 0 1
vt 0.5 0
vt 1 0.5
vt 1 0
vt 0.5 0.5
vt 0 0
vt 1 1
vt 0 0.5
vt 0.5 1
vt 0 1
vt 0.5 0
vt 1 0.5
vt 1 0
vt 0.5 0.5
vt 0 0
vt 1 1
vt 0 0.5
vt 0.5 1
vt 0 1
vt 0.5 0
vt 1 0.5
vt 1 0
vt 0.5 0.5
vt 0 0
vt 1 1
vt 0 0.5
vt 0.5 1
vt 0 1
vt 0.5 0
vt 1 0.5
vt 1 0
vt 0.5 0.5
vt 0 0
vt 1 1
vt 0 0.5
vt 0.5 1
vt 0 1
vt 0.5 0
vt 1 0.5
vt 1 0
vt 0.5 0.5
vt 0 0
vt 1 1
vt 0 0.5
vt 0.5 1
vt 0 1
vt 0.5 0
vt 1 0.5
vt 1 0
vt 0.5 0.5
vt 0 0
vt 1 1
vt 0 0.5
vt 0.5 1
vt 0 1
vt 0.5 0
vt 1 0.5
vt 1 0
vt 0.5 0.5
vt 0 0
vt 1 1
vt 0 0.5
vt 0.5 1
vt 0 1
vt 0.5 0
vt 1 0.5
vt 1 0
vt 0.5 0.5
vt 0 0
vt 1 1
vt 0 0.5
vt 0.5 1
vt 0 1
vt 0.5 0
vt 1 0.5
vt 1 0
vt 0.5 0.5
vt 0 0
vt 1 1
vt 0 0.5
vt 0.5 1
vt 0 1
vt 0.5 0
vt 1 0.5
vt 1 0
vt 0.5 0.5
vt 0 0
vt 1 1
vt 0 0.5
vt 0.5 1
vt 0 1
vt 0.5 0
vt 1 0.5
vt 1 0
vt 0.5 0.5
vt 0 0
vt 1 1
vt 0 0.5
vt 0.5 1
vt 0 1

vt2 0 0
vt2 0 0
vt2 0 0
vt2 0 0
vt2 0 0
vt2 0 0
vt2 0 0
vt2 0 0
vt2 0 0
vt2 0 0
vt2 0 0
vt2 0 0
vt2 0 0
vt2 0 0
vt2 0 0
vt2 0 0
vt2 0 0
vt2 0 0
vt2 0 0
vt2 0 0
vt2 0 0
vt2 0 0
vt2 0 0
vt2 0 0
vt2 0 0
vt2 0 0
vt2 0 0
vt2 0 0
vt2 0 0
vt2 0 0
vt2 0 0
vt2 0 0
vt2 0 0
vt2 0 0
vt2 0 0
vt2 0 0
vt2 0 0
vt2 0 0
vt2 0 0
vt2 0 0
vt2 0 0
vt2 0 0
vt2 0 0
vt2 0 0
vt2 0 0
vt2 0 0
vt2 0 0
vt2 0 0
vt2 0 0
vt2 0 0
vt2 0 0
vt2 0 0
vt2 0 0
vt2 0 0
vt2 0 0
vt2 0 0
vt2 0 0
vt2 0 0
vt2 0 0
vt2 0 0
vt2 0 0
vt2 0 0
vt2 0 0
vt2 0 0
vt2 0 0
vt2 0 0
vt2 0 0
vt2 0 0
vt2 0 0
vt2 0 0
vt2 0 0
vt2 0 0
vt2 0 0
vt2 0 0
vt2 0 0
vt2 0 0
vt2 0 0
vt2 0 0
vt2 0 0
vt2 0 0
vt2 0 0
vt2 0 0
vt2 0 0
vt2 0 0
vt2 0 0
vt2 0 0
vt2 0 0
vt2 0 0
vt2 0 0
vt2 0 0
vt2 0 0
vt2 0 0
vt2 0 0
vt2 0 0
vt2 0 0
vt2 0 0
vt2 0 0
vt2 0 0
vt2 0 0
vt2 0 0
vt2 0 0
vt2 0 0
vt2 0 0
vt2 0 0
vt2 0 0
vt2 0 0
vt2 0 0
vt2 0 0
vt2 0 0
vt2 0 0
vt2 0 0
vt2 0 0
vt2 0 0
vt2 0 0
vt2 0 0
vt2 0 0
vt2 0 0
vt2 0 0
vt2 0 0
vt2 0 0
vt2 0 0
vt2 0 0
vt2 0 0
vt2 0 0
vt2 0 0
vt2 0 0
vt2 0 0
vt2 0 0
vt2 0 0
vt2 0 0
vt2 0 0
vt2 0 0
vt2 0 0
vt2 0 0
vt2 0 0

vt2 0 0
vt2 0 0
vt2 0 0
vt2 0 0
vt2 0 0
vt2 0 0
vt2 0 0
vt2 0 0
vt2 0 0
vt2 0 0
vt2 0 0
vt2 0 0
vt2 0 0
vt2 0 0
vt2 0 0
vt2 0 0
vt2 0 0
vt2 0 0
vt2 0 0
vt2 0 0
vt2 0 0
vt2 0 0
vt2 0 0
vt2 0 0
vt2 0 0
vt2 0 0
vt2 0 0
vt2 0 0
vt2 0 0
vt2 0 0
vt2 0 0
vt2 0 0
vt2 0 0
vt2 0 0
vt2 0 0
vt2 0 0
vt2 0 0
vt2 0 0
vt2 0 0
vt2 0 0
vt2 0 0
vt2 0 0
vt2 0 0
vt2 0 0
vt2 0 0
vt2 0 0
vt2 0 0
vt2 0 0
vt2 0 0
vt2 0 0
vt2 0 0
vt2 0 0
vt2 0 0
vt2 0 0
vt2 0 0
vt2 0 0
vt2 0 0
vt2 0 0
vt2 0 0
vt2 0 0
vt2 0 0
vt2 0 0
vt2 0 0
vt2 0 0
vt2 0 0
vt2 0 0
vt2 0 0
vt2 0 0
vt2 0 0
vt2 0 0
vt2 0 0
vt2 0 0
vt2 0 0
vt2 0 0
vt2 0 0
vt2 0 0
vt2 0 0
vt2 0 0
vt2 0 0
vt2 0 0
vt2 0 0
vt2 0 0
vt2 0 0
vt2 0 0
vt2 0 0
vt2 0 0
vt2 0 0
vt2 0 0
vt2 0 0
vt2 0 0
vt2 0 0
vt2 0 0
vt2 0 0
vt2 0 0
vt2 0 0
vt2 0 0
vt2 0 0
vt2 0 0
vt2 0 0
vt2 0 0
vt2 0 0
vt2 0 0
vt2 0 0
vt2 0 0
vt2 0 0
vt2 0 0
vt2 0 0
vt2 0 0
vt2 0 0
vt2 0 0
vt2 0 0
vt2 0 0
vt2 0 0
vt2 0 0
vt2 0 0
vt2 0 0
vt2 0 0
vt2 0 0
vt2 0 0
vt2 0 0
vt2 0 0
vt2 0 0
vt2 0 0
vt2 0 0
vt2 0 0
vt2 0 0
vt2 0 0
vt2 0 0
vt2 0 0
vt2 0 0
vt2 0 0
vt2 0 0
vt2 0 0
vt2 0 0
vt2 0 0

vc 1 1 1 1
vc 1 1 1 1
vc 1 1 1 1
vc 1 1 1 1
vc 1 1 1 1
vc 1 1 1 1
vc 1 1 1 1
vc 1 1 1 1
vc 1 1 1 1
vc 1 1 1 1
vc 1 1 1 1
vc 1 1 1 1
vc 1 1 1 1
vc 1 1 1 1
vc 1 1 1 1
vc 1 1 1 1
vc 1 1 1 1
vc 1 1 1 1
vc 1 1 1 1
vc 1 1 1 1
vc 1 1 1 1
vc 1 1 1 1
vc 1 1 1 1
vc 1 1 1 1
vc 1 1 1 1
vc 1 1 1 1
vc 1 1 1 1
vc 1 1 1 1
vc 1 1 1 1
vc 1 1 1 1
vc 1 1 1 1
vc 1 1 1 1
vc 1 1 1 1
vc 1 1 1 1
vc 1 1 1 1
vc 1 1 1 1
vc 1 1 1 1
vc 1 1 1 1
vc 1 1 1 1
vc 1 1 1 1
vc 1 1 1 1
vc 1 1 1 1
vc 1 1 1 1
vc 1 1 1 1
vc 1 1 1 1
vc 1 1 1 1
vc 1 1 1 1
vc 1 1 1 1
vc 1 1 1 1
vc 1 1 1 1
vc 1 1 1 1
vc 1 1 1 1
vc 1 1 1 1
vc 1 1 1 1
vc 1 1 1 1
vc 1 1 1 1
vc 1 1 1 1
vc 1 1 1 1
vc 1 1 1 1
vc 1 1 1 1
vc 1 1 1 1
vc 1 1 1 1
vc 1 1 1 1
vc 1 1 1 1
vc 1 1 1 1
vc 1 1 1 1
vc 1 1 1 1
vc 1 1 1 1
vc 1 1 1 1
vc 1 1 1 1
vc 1 1 1 1
vc 1 1 1 1
vc 1 1 1 1
vc 1 1 1 1
vc 1 1 1 1
vc 1 1 1 1
vc 1 1 1 1
vc 1 1 1 1
vc 1 1 1 1
vc 1 1 1 1
vc 1 1 1 1
vc 1 1 1 1
vc 1 1 1 1
vc 1 1 1 1
vc 1 1 1 1
vc 1 1 1 1
vc 1 1 1 1
vc 1 1 1 1
vc 1 1 1 1
vc 1 1 1 1
vc 1 1 1 1
vc 1 1 1 1
vc 1 1 1 1
vc 1 1 1 1
vc 1 1 1 1
vc 1 1 1 1
vc 1 1 1 1
vc 1 1 1 1
vc 1 1 1 1
vc 1 1 1 1
vc 1 1 1 1
vc 1 1 1 1
vc 1 1 1 1
vc 1 1 1 1
vc 1 1 1 1
vc 1 1 1 1
vc 1 1 1 1
vc 1 1 1 1
vc 1 1 1 1
vc 1 1 1 1
vc 1 1 1 1
vc 1 1 1 1
vc 1 1 1 1
vc 1 1 1 1
vc 1 1 1 1
vc 1 1 1 1
vc 1 1 1 1
vc 1 1 1 1
vc 1 1 1 1
vc 1 1 1 1
vc 1 1 1 1
vc 1 1 1 1
vc 1 1 1 1
vc 1 1 1 1
vc 1 1 1 1
vc 1 1 1 1
vc 1 1 1 1
vc 1 1 1 1
vc 1 1 1 1
vc 1 1 1 1
vc 1 1 1 1
vc 1 1 1 1
vc 1 1 1 1
vc 1 1 1 1
vc 1 1 1 1

usemtl Default-Diffuse
usemap Default-Diffuse
f 3/3/3 2/2/2 1/1/1
f 2/2/2 4/4/4 1/1/1
f 1/1/1 4/4/4 5/5/5
f 2/2/2 6/6/6 4/4/4
f 4/4/4 7/7/7 5/5/5
f 6/6/6 8/8/8 4/4/4
f 4/4/4 8/8/8 7/7/7
f 8/8/8 9/9/9 7/7/7
f 12/12/12 11/11/11 10/10/10
f 11/11/11 13/13/13 10/10/10
f 10/10/10 13/13/13 14/14/14
f 11/11/11 15/15/15 13/13/13
f 13/13/13 16/16/16 14/14/14
f 15/15/15 17/17/17 13/13/13
f 13/13/13 17/17/17 16/16/16
f 17/17/17 18/18/18 16/16/16
f 21/21/21 20/20/20 19/19/19
f 20/20/20 22/22/22 19/19/19
f 19/19/19 22/22/22 23/23/23
f 20/20/20 24/24/24 22/22/22
f 22/22/22 25/25/25 23/23/23
f 24/24/24 26/26/26 22/22/22
f 22/22/22 26/26/26 25/25/25
f 26/26/26 27/27/27 25/25/25
f 30/30/30 29/29/29 28/28/28
f 29/29/29 31/31/31 28/28/28
f 28/28/28 31/31/31 32/32/32
f 29/29/29 33/33/33 31/31/31
f 31/31/31 34/34/34 32/32/32
f 33/33/33 35/35/35 31/31/31
f 31/31/31 35/35/35 34/34/34
f 35/35/35 36/36/36 34/34/34
f 39/39/39 38/38/38 37/37/37
f 38/38/38 40/40/40 37/37/37
f 37/37/37 40/40/40 41/41/41
f 38/38/38 42/42/42 40/40/40
f 40/40/40 43/43/43 41/41/41
f 42/42/42 44/44/44 40/40/40
f 40/40/40 44/44/44 43/43/43
f 44/44/44 45/45/45 43/43/43
f 48/48/48 47/47/47 46/46/46
f 47/47/47 49/49/49 46/46/46
f 46/46/46 49/49/49 50/50/50
f 47/47/47 51/51/51 49/49/49
f 49/49/49 52/52/52 50/50/50
f 51/51/51 53/53/53 49/49/49
f 49/49/49 53/53/53 52/52/52
f 53/53/53 54/54/54 52/52/52
f 57/57/57 56/56/56 55/55/55
f 56/56/56 58/58/58 55/55/55
f 55/55/55 58/58/58 59/59/59
f 56/56/56 60/60/60 58/58/58
f 58/58/58 61/61/61 59/59/59
f 60/60/60 62/62/62 58/58/58
f 58/58/58 62/62/62 61/61/61
f 62/62/62 63/63/63 61/61/61
f 66/66/66 65/65/65 64/64/64
f 65/65/65 67/67/67 64/64/64
f 64/64/64 67/67/67 68/68/68
f 65/65/65 69/69/69 67/67/67
f 67/67/67 70/70/70 68/68/68
f 69/69/69 71/71/71 67/67/67
f 67/67/67 71/71/71 70/70/70
f 71/71/71 72/72/72 70/70/70
f 75/75/75 74/74/74 73/73/73
f 74/74/74 76/76/76 73/73/73
f 73/73/73 76/76/76 77/77/77
f 74/74/74 78/78/78 76/76/76
f 76/76/76 79/79/79 77/77/77
f 78/78/78 80/80/80 76/76/76
f 76/76/76 80/80/80 79/79/79
f 80/80/80 81/81/81 79/79/79
f 84/84/84 83/83/83 82/82/82
f 83/83/83 85/85/85 82/82/82
f 82/82/82 85/85/85 86/86/86
f 83/83/83 87/87/87 85/85/85
f 85/85/85 88/88/88 86/86/86
f 87/87/87 89/89/89 85/85/85
f 85/85/85 89/89/89 88/88/88
f 89/89/89 90/90/90 88/88/88
f 93/93/93 92/92/92 91/91/91
f 92/92/92 94/94/94 91/91/91
f 91/91/91 94/94/94 95/95/95
f 92/92/92 96/96/96 94/94/94
f 94/94/94 97/97/97 95/95/95
f 96/96/96 98/98/98 94/94/94
f 94/94/94 98/98/98 97/97/97
f 98/98/98 99/99/99 97/97/97
f 102/102/102 101/101/101 100/100/100
f 101/101/101 103/103/103 100/100/100
f 100/100/100 103/103/103 104/104/104
f 101/101/101 105/105/105 103/103/103
f 103/103/103 106/106/106 104/104/104
f 105/105/105 107/107/107 103/103/103
f 103/103/103 107/107/107 106/106/106
f 107/107/107 108/108/108 106/106/106
f 111/111/111 110/110/110 109/109/109
f 110/110/110 112/112/112 109/109/109
f 109/109/109 112/112/112 113/113/113
f 110/110/110 114/114/114 112/112/112
f 112/112/112 115/115/115 113/113/113
f 114/114/114 116/116/116 112/112/112
f 112/112/112 116/116/116 115/115/115
f 116/116/116 117/117/117 115/115/115
f 120/120/120 119/119/119 118/118/118
f 119/119/119 121/121/121 118/118/118
f 118/118/118 121/121/121 122/122/122
f 119/119/119 123/123/123 121/121/121
f 121/121/121 124/124/124 122/122/122
f 123/123/123 125/125/125 121/121/121
f 121/121/121 125/125/125 124/124/124
f 125/125/125 126/126/126 124/124/124
f 129/129/129 128/128/128 127/127/127
f 128/128/128 130/130/130 127/127/127
f 127/127/127 130/130/130 131/131/131
f 128/128/128 132/132/132 130/130/130
f 130/130/130 133/133/133 131/131/131
f 132/132/132 134/134/134 130/130/130
f 130/130/130 134/134/134 133/133/133
f 134/134/134 135/135/135 133/133/133
