g Custom Mesh - Baked
v 15.9039 73.29787 -693.9059
v 11.258 73.50497 -695.993
v 12.83259 73.50497 -697.2262
v 14.53806 73.29787 -692.4449
v 19.44357 73.10406 -691.0677
v 9.68341 73.50497 -694.7599
v 18.30551 73.10406 -689.4231
v 13.17222 73.29787 -690.9839
v 17.16745 73.10406 -687.7784
v 23.35886 72.89502 -688.7426
v 18.30551 73.10406 -689.4231
v 19.44357 73.10406 -691.0677
v 22.45657 72.89502 -686.9576
v 27.55924 72.64182 -686.9441
v 17.16745 73.10406 -687.7784
v 26.89425 72.64182 -685.0579
v 21.55428 72.89502 -685.1727
v 26.22926 72.64182 -683.1716
v 31.92174 72.32093 -685.7131
v 26.89425 72.64182 -685.0579
v 27.55924 72.64182 -686.9441
v 31.54118 72.32093 -683.7496
v 36.40685 71.95111 -685.2332
v 26.22926 72.64182 -683.1716
v 36.3279 71.95111 -683.2348
v 31.16061 72.32093 -681.7862
v 36.24894 71.95111 -681.2364
v 41.02785 71.55881 -685.282
v 36.3279 71.95111 -683.2348
v 36.40685 71.95111 -685.2332
v 41.12098 71.55881 -683.2842
v 45.74914 71.15659 -685.5851
v 36.24894 71.95111 -681.2364
v 45.89703 71.15659 -683.5906
v 41.21412 71.55881 -681.2864
v 46.04492 71.15659 -681.5961
v 50.55294 70.74966 -685.9353
v 45.89703 71.15659 -683.5906
v 45.74914 71.15659 -685.5851
v 50.68792 70.74966 -683.9399
v 55.25377 70.34924 -686.2335
v 46.04492 71.15659 -681.5961
v 55.40329 70.34924 -684.2391
v 50.8229 70.74966 -681.9445
v 55.55282 70.34924 -682.2447
v 59.94088 69.94007 -686.6751
v 55.40329 70.34924 -684.2391
v 55.25377 70.34924 -686.2335
v 60.15416 69.94007 -684.6865
v 64.65849 69.52742 -687.2201
v 55.55282 70.34924 -682.2447
v 64.89932 69.52742 -685.2346
v 60.36744 69.94007 -682.6979
v 65.14015 69.52742 -683.2491
v 69.41237 69.1115 -687.8092
v 64.89932 69.52742 -685.2346
v 64.65849 69.52742 -687.2201
v 69.66079 69.1115 -685.8247
v 74.20333 68.69305 -688.4029
v 65.14015 69.52742 -683.2491
v 74.4444 68.69305 -686.4175
v 69.90921 69.1115 -683.8402
v 74.68548 68.69305 -684.4321
v 79.03505 68.27285 -688.9672
v 74.4444 68.69305 -686.4175
v 74.20333 68.69305 -688.4029
v 79.25412 68.27285 -686.9792
v 83.90952 67.85252 -689.4547
v 74.68548 68.69305 -684.4321
v 84.08654 67.85252 -687.4625
v 79.47319 68.27285 -684.9912
v 84.26356 67.85252 -685.4704
v 88.84127 67.43344 -689.8076
v 84.08654 67.85252 -687.4625
v 83.90952 67.85252 -689.4547
v 88.9447 67.43344 -687.8102
v 93.88537 67.01714 -689.9109
v 84.26356 67.85252 -685.4704
v 93.84782 67.01714 -687.9113
v 89.04813 67.43344 -685.8129
v 93.81028 67.01714 -685.9117
v 98.91108 66.62935 -689.5967
v 93.84782 67.01714 -687.9113
v 93.88537 67.01714 -689.9109
v 98.69661 66.62935 -687.6083
v 103.9342 66.30904 -688.8188
v 93.81028 67.01714 -685.9117
v 103.5201 66.30904 -686.8621
v 98.48214 66.62935 -685.6198
v 103.1061 66.30904 -684.9055
v 108.8438 66.09469 -687.4655
v 103.5201 66.30904 -686.8621
v 103.9342 66.30904 -688.8188
v 108.2068 66.09469 -685.5696
v 113.5263 65.98914 -685.6141
v 103.1061 66.30904 -684.9055
v 112.7098 65.98914 -683.7883
v 107.5698 66.09469 -683.6737
v 111.8933 65.98914 -681.9626
v 117.9641 65.96809 -683.4796
v 112.7098 65.98914 -683.7883
v 113.5263 65.98914 -685.6141
v 117.0636 65.96809 -681.6937
v 122.3954 65.96426 -680.9319
v 111.8933 65.98914 -681.9626
v 121.2428 65.96426 -679.2975
v 116.1632 65.96809 -679.9079
v 120.0902 65.96426 -677.663
v 126.3297 65.88735 -677.6798
v 121.2428 65.96426 -679.2975
v 122.3954 65.96426 -680.9319
v 124.9601 65.88735 -676.2224
v 129.8308 65.75533 -674.1951
v 120.0902 65.96426 -677.663
v 128.4018 65.75533 -672.7959
v 123.5905 65.88735 -674.7649
v 126.9727 65.75533 -671.3967
v 133.2305 65.59246 -670.848
v 128.4018 65.75533 -672.7959
v 129.8308 65.75533 -674.1951
v 131.8866 65.59246 -669.3668
v 136.6609 65.42279 -668.5448
v 126.9727 65.75533 -671.3967
v 135.8872 65.42409 -666.6751
v 130.5428 65.59246 -667.8855
v 135.1135 65.42538 -664.8054
v 140.9921 65.18848 -667.9459
v 135.8872 65.42409 -666.6751
v 136.6609 65.42279 -668.5448
v 140.6128 65.23456 -665.5937
v 145.8902 65.14454 -667.7452
v 135.1135 65.42538 -664.8054
v 145.2782 65.2832 -664.8116
v 140.2335 65.28063 -663.2415
v 144.6661 65.42185 -661.8779

vn 0.02960127 0.9991786 0.02767376
vn 0.02855457 0.9989271 0.03646075
vn 0.02855457 0.9989271 0.03646075
vn 0.02960127 0.9991786 0.02767376
vn 0.03339526 0.999175 0.02310897
vn 0.02855457 0.9989271 0.03646075
vn 0.03339526 0.999175 0.02310897
vn 0.02960127 0.9991786 0.02767376
vn 0.03339526 0.999175 0.02310897
vn 0.04179669 0.9989027 0.02112879
vn 0.03339526 0.999175 0.02310897
vn 0.03339526 0.999175 0.02310897
vn 0.04179669 0.9989027 0.02112879
vn 0.05580067 0.9982481 0.01967273
vn 0.03339526 0.999175 0.02310897
vn 0.05580067 0.9982481 0.01967273
vn 0.04179669 0.9989027 0.02112879
vn 0.05580067 0.9982481 0.01967273
vn 0.07117674 0.9973683 0.01379564
vn 0.05580067 0.9982481 0.01967273
vn 0.05580067 0.9982481 0.01967273
vn 0.07117674 0.9973683 0.01379564
vn 0.07947027 0.9968323 0.003139709
vn 0.05580067 0.9982481 0.01967273
vn 0.07947027 0.9968323 0.003139709
vn 0.07117674 0.9973683 0.01379564
vn 0.07947027 0.9968323 0.003139709
vn 0.08289598 0.9965507 -0.003864525
vn 0.07947027 0.9968323 0.003139709
vn 0.07947027 0.9968323 0.003139709
vn 0.08289598 0.9965507 -0.003864525
vn 0.0840272 0.996444 -0.006230728
vn 0.07947027 0.9968323 0.003139709
vn 0.0840272 0.996444 -0.006230728
vn 0.08289598 0.9965507 -0.003864525
vn 0.0840272 0.996444 -0.006230728
vn 0.08424766 0.9964285 -0.005698743
vn 0.0840272 0.996444 -0.006230728
vn 0.0840272 0.996444 -0.006230728
vn 0.08424766 0.9964285 -0.005698743
vn 0.08462781 0.9963924 -0.006344918
vn 0.0840272 0.996444 -0.006230728
vn 0.08462781 0.9963924 -0.006344918
vn 0.08424766 0.9964285 -0.005698743
vn 0.08462781 0.9963924 -0.006344918
vn 0.0853231 0.9963114 -0.009150984
vn 0.08462781 0.9963924 -0.006344918
vn 0.08462781 0.9963924 -0.006344918
vn 0.0853231 0.9963114 -0.009150984
vn 0.08562458 0.9962734 -0.01038613
vn 0.08462781 0.9963924 -0.006344918
vn 0.08562458 0.9962734 -0.01038613
vn 0.0853231 0.9963114 -0.009150984
vn 0.08562458 0.9962734 -0.01038613
vn 0.08578239 0.9962561 -0.01073811
vn 0.08562458 0.9962734 -0.01038613
vn 0.08562458 0.9962734 -0.01038613
vn 0.08578239 0.9962561 -0.01073811
vn 0.08586071 0.9962527 -0.01042534
vn 0.08562458 0.9962734 -0.01038613
vn 0.08586071 0.9962527 -0.01042534
vn 0.08578239 0.9962561 -0.01073811
vn 0.08586071 0.9962527 -0.01042534
vn 0.08585853 0.9962626 -0.009461448
vn 0.08586071 0.9962527 -0.01042534
vn 0.08586071 0.9962527 -0.01042534
vn 0.08585853 0.9962626 -0.009461448
vn 0.08570758 0.9962912 -0.007615775
vn 0.08586071 0.9962527 -0.01042534
vn 0.08570758 0.9962912 -0.007615775
vn 0.08585853 0.9962626 -0.009461448
vn 0.08570758 0.9962912 -0.007615775
vn 0.08520041 0.9963542 -0.004412236
vn 0.08570758 0.9962912 -0.007615775
vn 0.08570758 0.9962912 -0.007615775
vn 0.08520041 0.9963542 -0.004412236
vn 0.08347597 0.9965087 0.001567077
vn 0.08570758 0.9962912 -0.007615775
vn 0.08347597 0.9965087 0.001567077
vn 0.08520041 0.9963542 -0.004412236
vn 0.08347597 0.9965087 0.001567077
vn 0.07299628 0.9973011 0.007873062
vn 0.08347597 0.9965087 0.001567077
vn 0.08347597 0.9965087 0.001567077
vn 0.07299628 0.9973011 0.007873062
vn 0.05441438 0.9984521 0.01151454
vn 0.08347597 0.9965087 0.001567077
vn 0.05441438 0.9984521 0.01151454
vn 0.07299628 0.9973011 0.007873062
vn 0.05441438 0.9984521 0.01151454
vn 0.03136658 0.9994525 0.01053898
vn 0.05441438 0.9984521 0.01151454
vn 0.05441438 0.9984521 0.01151454
vn 0.03136658 0.9994525 0.01053898
vn 0.01079699 0.9999301 0.004828598
vn 0.05441438 0.9984521 0.01151454
vn 0.01079699 0.9999301 0.004828598
vn 0.03136658 0.9994525 0.01053898
vn 0.01079699 0.9999301 0.004828598
vn -0.001338366 0.9999988 -0.0006748418
vn 0.01079699 0.9999301 0.004828598
vn 0.01079699 0.9999301 0.004828598
vn -0.001338366 0.9999988 -0.0006748418
vn 0.006884442 0.9999645 0.004854686
vn 0.01079699 0.9999301 0.004828598
vn 0.006884442 0.9999645 0.004854686
vn -0.001338366 0.9999988 -0.0006748418
vn 0.006884442 0.9999645 0.004854686
vn 0.01648904 0.9997441 0.01549501
vn 0.006884442 0.9999645 0.004854686
vn 0.006884442 0.9999645 0.004854686
vn 0.01648904 0.9997441 0.01549501
vn 0.02143426 0.9995306 0.02189088
vn 0.006884442 0.9999645 0.004854686
vn 0.02143426 0.9995306 0.02189088
vn 0.01648904 0.9997441 0.01549501
vn 0.02143426 0.9995306 0.02189088
vn 0.02608788 0.9993793 0.02366765
vn 0.02143426 0.9995306 0.02189088
vn 0.02143426 0.9995306 0.02189088
vn 0.02608788 0.9993793 0.02366765
vn 0.03150749 0.9878291 0.01235077
vn 0.02143426 0.9995306 0.02189088
vn 0.03150749 0.9878291 0.01235077
vn 0.02608788 0.9993793 0.02366765
vn 0.03150749 0.9878291 0.01235077
vn 0.03800935 0.8383369 -0.0102919
vn 0.03150749 0.9878291 0.01235077
vn 0.03150749 0.9878291 0.01235077
vn 0.03800935 0.8383369 -0.0102919
vn -0.0564586 0.6628715 -0.04310878
vn 0.03150749 0.9878291 0.01235077
vn -0.0564586 0.6628715 -0.04310878
vn 0.03800935 0.8383369 -0.0102919
vn -0.0564586 0.6628715 -0.04310878

vt 0.5 0
vt 1 0.5
vt 1 0
vt 0.5 0.5
vt 0 0
vt 1 1
vt 0 0.5
vt 0.5 1
vt 0 1
vt 0.5 0
vt 1 0.5
vt 1 0
vt 0.5 0.5
vt 0 0
vt 1 1
vt 0 0.5
vt 0.5 1
vt 0 1
vt 0.5 0
vt 1 0.5
vt 1 0
vt 0.5 0.5
vt 0 0
vt 1 1
vt 0 0.5
vt 0.5 1
vt 0 1
vt 0.5 0
vt 1 0.5
vt 1 0
vt 0.5 0.5
vt 0 0
vt 1 1
vt 0 0.5
vt 0.5 1
vt 0 1
vt 0.5 0
vt 1 0.5
vt 1 0
vt 0.5 0.5
vt 0 0
vt 1 1
vt 0 0.5
vt 0.5 1
vt 0 1
vt 0.5 0
vt 1 0.5
vt 1 0
vt 0.5 0.5
vt 0 0
vt 1 1
vt 0 0.5
vt 0.5 1
vt 0 1
vt 0.5 0
vt 1 0.5
vt 1 0
vt 0.5 0.5
vt 0 0
vt 1 1
vt 0 0.5
vt 0.5 1
vt 0 1
vt 0.5 0
vt 1 0.5
vt 1 0
vt 0.5 0.5
vt 0 0
vt 1 1
vt 0 0.5
vt 0.5 1
vt 0 1
vt 0.5 0
vt 1 0.5
vt 1 0
vt 0.5 0.5
vt 0 0
vt 1 1
vt 0 0.5
vt 0.5 1
vt 0 1
vt 0.5 0
vt 1 0.5
vt 1 0
vt 0.5 0.5
vt 0 0
vt 1 1
vt 0 0.5
vt 0.5 1
vt 0 1
vt 0.5 0
vt 1 0.5
vt 1 0
vt 0.5 0.5
vt 0 0
vt 1 1
vt 0 0.5
vt 0.5 1
vt 0 1
vt 0.5 0
vt 1 0.5
vt 1 0
vt 0.5 0.5
vt 0 0
vt 1 1
vt 0 0.5
vt 0.5 1
vt 0 1
vt 0.5 0
vt 1 0.5
vt 1 0
vt 0.5 0.5
vt 0 0
vt 1 1
vt 0 0.5
vt 0.5 1
vt 0 1
vt 0.5 0
vt 1 0.5
vt 1 0
vt 0.5 0.5
vt 0 0
vt 1 1
vt 0 0.5
vt 0.5 1
vt 0 1
vt 0.5 0
vt 1 0.5
vt 1 0
vt 0.5 0.5
vt 0 0
vt 1 1
vt 0 0.5
vt 0.5 1
vt 0 1

vt2 0 0
vt2 0 0
vt2 0 0
vt2 0 0
vt2 0 0
vt2 0 0
vt2 0 0
vt2 0 0
vt2 0 0
vt2 0 0
vt2 0 0
vt2 0 0
vt2 0 0
vt2 0 0
vt2 0 0
vt2 0 0
vt2 0 0
vt2 0 0
vt2 0 0
vt2 0 0
vt2 0 0
vt2 0 0
vt2 0 0
vt2 0 0
vt2 0 0
vt2 0 0
vt2 0 0
vt2 0 0
vt2 0 0
vt2 0 0
vt2 0 0
vt2 0 0
vt2 0 0
vt2 0 0
vt2 0 0
vt2 0 0
vt2 0 0
vt2 0 0
vt2 0 0
vt2 0 0
vt2 0 0
vt2 0 0
vt2 0 0
vt2 0 0
vt2 0 0
vt2 0 0
vt2 0 0
vt2 0 0
vt2 0 0
vt2 0 0
vt2 0 0
vt2 0 0
vt2 0 0
vt2 0 0
vt2 0 0
vt2 0 0
vt2 0 0
vt2 0 0
vt2 0 0
vt2 0 0
vt2 0 0
vt2 0 0
vt2 0 0
vt2 0 0
vt2 0 0
vt2 0 0
vt2 0 0
vt2 0 0
vt2 0 0
vt2 0 0
vt2 0 0
vt2 0 0
vt2 0 0
vt2 0 0
vt2 0 0
vt2 0 0
vt2 0 0
vt2 0 0
vt2 0 0
vt2 0 0
vt2 0 0
vt2 0 0
vt2 0 0
vt2 0 0
vt2 0 0
vt2 0 0
vt2 0 0
vt2 0 0
vt2 0 0
vt2 0 0
vt2 0 0
vt2 0 0
vt2 0 0
vt2 0 0
vt2 0 0
vt2 0 0
vt2 0 0
vt2 0 0
vt2 0 0
vt2 0 0
vt2 0 0
vt2 0 0
vt2 0 0
vt2 0 0
vt2 0 0
vt2 0 0
vt2 0 0
vt2 0 0
vt2 0 0
vt2 0 0
vt2 0 0
vt2 0 0
vt2 0 0
vt2 0 0
vt2 0 0
vt2 0 0
vt2 0 0
vt2 0 0
vt2 0 0
vt2 0 0
vt2 0 0
vt2 0 0
vt2 0 0
vt2 0 0
vt2 0 0
vt2 0 0
vt2 0 0
vt2 0 0
vt2 0 0
vt2 0 0
vt2 0 0
vt2 0 0
vt2 0 0
vt2 0 0
vt2 0 0

vt2 0 0
vt2 0 0
vt2 0 0
vt2 0 0
vt2 0 0
vt2 0 0
vt2 0 0
vt2 0 0
vt2 0 0
vt2 0 0
vt2 0 0
vt2 0 0
vt2 0 0
vt2 0 0
vt2 0 0
vt2 0 0
vt2 0 0
vt2 0 0
vt2 0 0
vt2 0 0
vt2 0 0
vt2 0 0
vt2 0 0
vt2 0 0
vt2 0 0
vt2 0 0
vt2 0 0
vt2 0 0
vt2 0 0
vt2 0 0
vt2 0 0
vt2 0 0
vt2 0 0
vt2 0 0
vt2 0 0
vt2 0 0
vt2 0 0
vt2 0 0
vt2 0 0
vt2 0 0
vt2 0 0
vt2 0 0
vt2 0 0
vt2 0 0
vt2 0 0
vt2 0 0
vt2 0 0
vt2 0 0
vt2 0 0
vt2 0 0
vt2 0 0
vt2 0 0
vt2 0 0
vt2 0 0
vt2 0 0
vt2 0 0
vt2 0 0
vt2 0 0
vt2 0 0
vt2 0 0
vt2 0 0
vt2 0 0
vt2 0 0
vt2 0 0
vt2 0 0
vt2 0 0
vt2 0 0
vt2 0 0
vt2 0 0
vt2 0 0
vt2 0 0
vt2 0 0
vt2 0 0
vt2 0 0
vt2 0 0
vt2 0 0
vt2 0 0
vt2 0 0
vt2 0 0
vt2 0 0
vt2 0 0
vt2 0 0
vt2 0 0
vt2 0 0
vt2 0 0
vt2 0 0
vt2 0 0
vt2 0 0
vt2 0 0
vt2 0 0
vt2 0 0
vt2 0 0
vt2 0 0
vt2 0 0
vt2 0 0
vt2 0 0
vt2 0 0
vt2 0 0
vt2 0 0
vt2 0 0
vt2 0 0
vt2 0 0
vt2 0 0
vt2 0 0
vt2 0 0
vt2 0 0
vt2 0 0
vt2 0 0
vt2 0 0
vt2 0 0
vt2 0 0
vt2 0 0
vt2 0 0
vt2 0 0
vt2 0 0
vt2 0 0
vt2 0 0
vt2 0 0
vt2 0 0
vt2 0 0
vt2 0 0
vt2 0 0
vt2 0 0
vt2 0 0
vt2 0 0
vt2 0 0
vt2 0 0
vt2 0 0
vt2 0 0
vt2 0 0
vt2 0 0
vt2 0 0
vt2 0 0
vt2 0 0
vt2 0 0

vc 1 1 1 1
vc 1 1 1 1
vc 1 1 1 1
vc 1 1 1 1
vc 1 1 1 1
vc 1 1 1 1
vc 1 1 1 1
vc 1 1 1 1
vc 1 1 1 1
vc 1 1 1 1
vc 1 1 1 1
vc 1 1 1 1
vc 1 1 1 1
vc 1 1 1 1
vc 1 1 1 1
vc 1 1 1 1
vc 1 1 1 1
vc 1 1 1 1
vc 1 1 1 1
vc 1 1 1 1
vc 1 1 1 1
vc 1 1 1 1
vc 1 1 1 1
vc 1 1 1 1
vc 1 1 1 1
vc 1 1 1 1
vc 1 1 1 1
vc 1 1 1 1
vc 1 1 1 1
vc 1 1 1 1
vc 1 1 1 1
vc 1 1 1 1
vc 1 1 1 1
vc 1 1 1 1
vc 1 1 1 1
vc 1 1 1 1
vc 1 1 1 1
vc 1 1 1 1
vc 1 1 1 1
vc 1 1 1 1
vc 1 1 1 1
vc 1 1 1 1
vc 1 1 1 1
vc 1 1 1 1
vc 1 1 1 1
vc 1 1 1 1
vc 1 1 1 1
vc 1 1 1 1
vc 1 1 1 1
vc 1 1 1 1
vc 1 1 1 1
vc 1 1 1 1
vc 1 1 1 1
vc 1 1 1 1
vc 1 1 1 1
vc 1 1 1 1
vc 1 1 1 1
vc 1 1 1 1
vc 1 1 1 1
vc 1 1 1 1
vc 1 1 1 1
vc 1 1 1 1
vc 1 1 1 1
vc 1 1 1 1
vc 1 1 1 1
vc 1 1 1 1
vc 1 1 1 1
vc 1 1 1 1
vc 1 1 1 1
vc 1 1 1 1
vc 1 1 1 1
vc 1 1 1 1
vc 1 1 1 1
vc 1 1 1 1
vc 1 1 1 1
vc 1 1 1 1
vc 1 1 1 1
vc 1 1 1 1
vc 1 1 1 1
vc 1 1 1 1
vc 1 1 1 1
vc 1 1 1 1
vc 1 1 1 1
vc 1 1 1 1
vc 1 1 1 1
vc 1 1 1 1
vc 1 1 1 1
vc 1 1 1 1
vc 1 1 1 1
vc 1 1 1 1
vc 1 1 1 1
vc 1 1 1 1
vc 1 1 1 1
vc 1 1 1 1
vc 1 1 1 1
vc 1 1 1 1
vc 1 1 1 1
vc 1 1 1 1
vc 1 1 1 1
vc 1 1 1 1
vc 1 1 1 1
vc 1 1 1 1
vc 1 1 1 1
vc 1 1 1 1
vc 1 1 1 1
vc 1 1 1 1
vc 1 1 1 1
vc 1 1 1 1
vc 1 1 1 1
vc 1 1 1 1
vc 1 1 1 1
vc 1 1 1 1
vc 1 1 1 1
vc 1 1 1 1
vc 1 1 1 1
vc 1 1 1 1
vc 1 1 1 1
vc 1 1 1 1
vc 1 1 1 1
vc 1 1 1 1
vc 1 1 1 1
vc 1 1 1 1
vc 1 1 1 1
vc 1 1 1 1
vc 1 1 1 1
vc 1 1 1 1
vc 1 1 1 1
vc 1 1 1 1
vc 1 1 1 1
vc 1 1 1 1
vc 1 1 1 1
vc 1 1 1 1
vc 1 1 1 1
vc 1 1 1 1
vc 1 1 1 1

usemtl Default-Diffuse
usemap Default-Diffuse
f 3/3/3 2/2/2 1/1/1
f 2/2/2 4/4/4 1/1/1
f 1/1/1 4/4/4 5/5/5
f 2/2/2 6/6/6 4/4/4
f 4/4/4 7/7/7 5/5/5
f 6/6/6 8/8/8 4/4/4
f 4/4/4 8/8/8 7/7/7
f 8/8/8 9/9/9 7/7/7
f 12/12/12 11/11/11 10/10/10
f 11/11/11 13/13/13 10/10/10
f 10/10/10 13/13/13 14/14/14
f 11/11/11 15/15/15 13/13/13
f 13/13/13 16/16/16 14/14/14
f 15/15/15 17/17/17 13/13/13
f 13/13/13 17/17/17 16/16/16
f 17/17/17 18/18/18 16/16/16
f 21/21/21 20/20/20 19/19/19
f 20/20/20 22/22/22 19/19/19
f 19/19/19 22/22/22 23/23/23
f 20/20/20 24/24/24 22/22/22
f 22/22/22 25/25/25 23/23/23
f 24/24/24 26/26/26 22/22/22
f 22/22/22 26/26/26 25/25/25
f 26/26/26 27/27/27 25/25/25
f 30/30/30 29/29/29 28/28/28
f 29/29/29 31/31/31 28/28/28
f 28/28/28 31/31/31 32/32/32
f 29/29/29 33/33/33 31/31/31
f 31/31/31 34/34/34 32/32/32
f 33/33/33 35/35/35 31/31/31
f 31/31/31 35/35/35 34/34/34
f 35/35/35 36/36/36 34/34/34
f 39/39/39 38/38/38 37/37/37
f 38/38/38 40/40/40 37/37/37
f 37/37/37 40/40/40 41/41/41
f 38/38/38 42/42/42 40/40/40
f 40/40/40 43/43/43 41/41/41
f 42/42/42 44/44/44 40/40/40
f 40/40/40 44/44/44 43/43/43
f 44/44/44 45/45/45 43/43/43
f 48/48/48 47/47/47 46/46/46
f 47/47/47 49/49/49 46/46/46
f 46/46/46 49/49/49 50/50/50
f 47/47/47 51/51/51 49/49/49
f 49/49/49 52/52/52 50/50/50
f 51/51/51 53/53/53 49/49/49
f 49/49/49 53/53/53 52/52/52
f 53/53/53 54/54/54 52/52/52
f 57/57/57 56/56/56 55/55/55
f 56/56/56 58/58/58 55/55/55
f 55/55/55 58/58/58 59/59/59
f 56/56/56 60/60/60 58/58/58
f 58/58/58 61/61/61 59/59/59
f 60/60/60 62/62/62 58/58/58
f 58/58/58 62/62/62 61/61/61
f 62/62/62 63/63/63 61/61/61
f 66/66/66 65/65/65 64/64/64
f 65/65/65 67/67/67 64/64/64
f 64/64/64 67/67/67 68/68/68
f 65/65/65 69/69/69 67/67/67
f 67/67/67 70/70/70 68/68/68
f 69/69/69 71/71/71 67/67/67
f 67/67/67 71/71/71 70/70/70
f 71/71/71 72/72/72 70/70/70
f 75/75/75 74/74/74 73/73/73
f 74/74/74 76/76/76 73/73/73
f 73/73/73 76/76/76 77/77/77
f 74/74/74 78/78/78 76/76/76
f 76/76/76 79/79/79 77/77/77
f 78/78/78 80/80/80 76/76/76
f 76/76/76 80/80/80 79/79/79
f 80/80/80 81/81/81 79/79/79
f 84/84/84 83/83/83 82/82/82
f 83/83/83 85/85/85 82/82/82
f 82/82/82 85/85/85 86/86/86
f 83/83/83 87/87/87 85/85/85
f 85/85/85 88/88/88 86/86/86
f 87/87/87 89/89/89 85/85/85
f 85/85/85 89/89/89 88/88/88
f 89/89/89 90/90/90 88/88/88
f 93/93/93 92/92/92 91/91/91
f 92/92/92 94/94/94 91/91/91
f 91/91/91 94/94/94 95/95/95
f 92/92/92 96/96/96 94/94/94
f 94/94/94 97/97/97 95/95/95
f 96/96/96 98/98/98 94/94/94
f 94/94/94 98/98/98 97/97/97
f 98/98/98 99/99/99 97/97/97
f 102/102/102 101/101/101 100/100/100
f 101/101/101 103/103/103 100/100/100
f 100/100/100 103/103/103 104/104/104
f 101/101/101 105/105/105 103/103/103
f 103/103/103 106/106/106 104/104/104
f 105/105/105 107/107/107 103/103/103
f 103/103/103 107/107/107 106/106/106
f 107/107/107 108/108/108 106/106/106
f 111/111/111 110/110/110 109/109/109
f 110/110/110 112/112/112 109/109/109
f 109/109/109 112/112/112 113/113/113
f 110/110/110 114/114/114 112/112/112
f 112/112/112 115/115/115 113/113/113
f 114/114/114 116/116/116 112/112/112
f 112/112/112 116/116/116 115/115/115
f 116/116/116 117/117/117 115/115/115
f 120/120/120 119/119/119 118/118/118
f 119/119/119 121/121/121 118/118/118
f 118/118/118 121/121/121 122/122/122
f 119/119/119 123/123/123 121/121/121
f 121/121/121 124/124/124 122/122/122
f 123/123/123 125/125/125 121/121/121
f 121/121/121 125/125/125 124/124/124
f 125/125/125 126/126/126 124/124/124
f 129/129/129 128/128/128 127/127/127
f 128/128/128 130/130/130 127/127/127
f 127/127/127 130/130/130 131/131/131
f 128/128/128 132/132/132 130/130/130
f 130/130/130 133/133/133 131/131/131
f 132/132/132 134/134/134 130/130/130
f 130/130/130 134/134/134 133/133/133
f 134/134/134 135/135/135 133/133/133
