g Custom Mesh - Baked
v -476.3938 169.2028 82.82185
v -469.304 169.0968 81.01699
v -472.9686 169.4177 86.45805
v -473.3008 169.007 78.81841
v -479.8189 168.9878 79.18565
v -467.4554 168.7095 74.45178
v -477.2977 168.9173 76.61982
v -471.5164 168.6924 73.72845
v -475.5774 168.6752 73.00511
v -471.5164 168.6924 73.72845
v -467.9275 168.1403 66.99619
v -467.4554 168.7095 74.45178
v -471.5413 168.1403 67.72952
v -475.5774 168.6752 73.00511
v -471.8887 167.0484 59.11709
v -475.1551 168.1403 68.46286
v -474.6929 167.0484 60.76007
v -477.497 167.0484 62.40306
v -474.6929 167.0484 60.76007
v -476.5961 165.6929 51.67203
v -471.8888 167.0484 59.11709
v -479.137 165.6929 52.87789
v -477.497 167.0484 62.40305
v -479.1805 164.6171 43.82386
v -481.6779 165.6929 54.08374
v -481.6461 164.6171 44.23658
v -484.1118 164.6171 44.64929
v -481.6461 164.6171 44.23658
v -480.3538 163.4887 34.20017
v -479.1805 164.6171 43.82386
v -482.8507 163.4887 34.32552
v -484.1118 164.6171 44.64929
v -479.5612 162.109 24.85141
v -485.3475 163.4887 34.45087
v -481.9777 162.109 24.21098
v -484.3943 162.109 23.57055
v -481.9777 162.109 24.21098
v -475.1065 160.4812 16.74128
v -479.5612 162.109 24.85141
v -477.0289 160.4812 15.14299
v -484.3943 162.109 23.57054
v -466.1241 158.4689 8.368316
v -478.9512 160.4812 13.5447
v -467.6344 158.4689 6.376122
v -469.1447 158.4689 4.383927
v -467.6344 158.4689 6.37612
v -455.1932 156.4943 1.678445
v -466.1241 158.4689 8.368315
v -456.2467 156.4943 -0.5887106
v -469.1447 158.4689 4.383926
v -444.5738 154.9864 -1.500903
v -457.3003 156.4943 -2.855867
v -444.9253 154.9864 -3.976061
v -445.2769 154.9864 -6.45122
v -444.9253 154.9864 -3.976062
v -433.0829 153.8162 -1.732607
v -444.5738 154.9864 -1.500903
v -432.8582 153.8162 -4.222492
v -445.2769 154.9864 -6.451221
v -421.4279 152.9412 0.4494648
v -432.6336 153.8162 -6.712377
v -420.7486 152.9412 -1.95649
v -420.0693 152.9412 -4.362444
v -420.7486 152.9412 -1.95649
v -410.3864 152.3812 4.916369
v -421.4279 152.9412 0.4494649
v -409.2082 152.3812 2.711396
v -420.0693 152.9412 -4.362444
v -399.3811 152.1355 11.95794
v -408.0301 152.3812 0.5064227
v -397.9062 152.1355 9.939329
v -396.4314 152.1355 7.920718
v -397.9062 152.1355 9.939331
v -388.9892 152.0853 20.22199
v -399.3811 152.1355 11.95794
v -387.3709 152.0853 18.31643
v -396.4314 152.1355 7.920719
v -380.0004 152.2097 28.95291
v -385.7526 152.0853 16.41087
v -378.1428 152.2097 27.2798
v -376.2852 152.2097 25.6067
v -378.1428 152.2097 27.2798
v -371.8242 152.5176 38.71723
v -380.0004 152.2097 28.95291
v -369.8766 152.5176 37.14979
v -376.2852 152.2097 25.6067
v -363.5391 152.8359 48.72539
v -367.929 152.5176 35.58235
v -361.6637 152.8359 47.07224
v -359.7883 152.8359 45.41909

vn -0.004253076 0.9984763 -0.05501999
vn 0.005067179 1.094552 -0.05390325
vn -0.004253076 0.9984763 -0.05501999
vn 0.005067179 1.094552 -0.05390325
vn -0.004253055 0.9984762 -0.05501994
vn 0.01036115 1.208963 -0.08682174
vn 0.00506736 1.094552 -0.05390318
vn 0.01036114 1.208963 -0.08682175
vn 0.01036114 1.208963 -0.08682175
vn 0.01036135 1.208963 -0.08682168
vn -0.03080226 1.347057 -0.1517912
vn 0.01036114 1.208963 -0.08682175
vn -0.03080227 1.347057 -0.1517912
vn 0.01036134 1.208963 -0.08682168
vn -0.1175241 1.520796 -0.2005813
vn -0.03080227 1.347057 -0.1517912
vn -0.1175241 1.520795 -0.2005813
vn -0.1175241 1.520795 -0.2005813
vn -0.1175241 1.520796 -0.2005813
vn -0.1062143 1.760433 -0.2238054
vn -0.1175241 1.520795 -0.2005813
vn -0.1062143 1.760433 -0.2238054
vn -0.1175241 1.520796 -0.2005813
vn -0.03448011 1.989064 -0.2059951
vn -0.1062143 1.760433 -0.2238055
vn -0.03448011 1.989064 -0.2059951
vn -0.03448011 1.989064 -0.2059951
vn -0.03448011 1.989064 -0.2059951
vn -0.0121974 1.985151 -0.2429572
vn -0.03448011 1.989064 -0.2059951
vn -0.01219739 1.985151 -0.2429572
vn -0.03448011 1.989064 -0.2059951
vn 0.07521441 1.978331 -0.2838107
vn -0.01219739 1.985151 -0.2429571
vn 0.07521442 1.978331 -0.2838107
vn 0.07521442 1.978331 -0.2838107
vn 0.07521443 1.978331 -0.2838106
vn 0.2004521 1.97527 -0.2410954
vn 0.07521442 1.978331 -0.2838107
vn 0.2004516 1.97527 -0.2410956
vn 0.07521443 1.978331 -0.2838106
vn 0.2410755 1.976987 -0.182768
vn 0.2004518 1.97527 -0.2410956
vn 0.2410757 1.976987 -0.1827679
vn 0.2410756 1.976987 -0.1827679
vn 0.2410757 1.976987 -0.1827679
vn 0.2519477 1.980609 -0.1170823
vn 0.2410756 1.976987 -0.1827679
vn 0.2519477 1.980609 -0.1170823
vn 0.2410757 1.976987 -0.1827679
vn 0.2191851 1.987709 -0.03113174
vn 0.2519478 1.980609 -0.1170821
vn 0.2191851 1.987709 -0.03113174
vn 0.2191852 1.987709 -0.03113162
vn 0.2191852 1.987709 -0.03113162
vn 0.1646691 1.993154 0.01485812
vn 0.2191852 1.987709 -0.03113162
vn 0.1646691 1.993154 0.01485812
vn 0.2191852 1.987709 -0.03113162
vn 0.1145559 1.996455 0.03234117
vn 0.1646691 1.993154 0.01485812
vn 0.1145559 1.996455 0.03234117
vn 0.1145559 1.996455 0.03234117
vn 0.1145559 1.996455 0.03234117
vn 0.05235871 1.999119 0.02797643
vn 0.1145559 1.996455 0.03234117
vn 0.05235871 1.999119 0.02797643
vn 0.1145559 1.996455 0.03234117
vn 0.01508791 1.999913 0.01102367
vn 0.05235871 1.999119 0.02797643
vn 0.01508791 1.999913 0.01102367
vn 0.01508791 1.999913 0.01102367
vn 0.01508791 1.999913 0.01102367
vn -0.000705815 2 -0.0005997213
vn 0.01508791 1.999913 0.01102367
vn -0.000705815 2 -0.0005997213
vn 0.01508791 1.999913 0.01102367
vn -0.02534283 1.999642 -0.02813759
vn -0.000705815 2 -0.0005997213
vn -0.02534283 1.999642 -0.02813759
vn -0.02534283 1.999642 -0.02813759
vn -0.02534283 1.999642 -0.02813759
vn -0.03334552 1.999293 -0.04143261
vn -0.02534283 1.999642 -0.02813759
vn -0.03334552 1.999293 -0.04143261
vn -0.02534283 1.999642 -0.02813759
vn -0.02699729 1.999583 -0.03062675
vn -0.03334552 1.999293 -0.04143261
vn -0.02699729 1.999583 -0.03062675
vn -0.02699742 1.999583 -0.03062696

vt 0.5 0
vt 1 0.5
vt 1 0
vt 0.5 0.5
vt 0 0
vt 1 1
vt 0 0.5
vt 0.5 1
vt 0 1
vt 0.5 0
vt 1 0.5
vt 1 0
vt 0.5 0.5
vt 0 0
vt 1 1
vt 0 0.5
vt 0.5 1
vt 0 1
vt 0.5 0
vt 1 0.5
vt 1 0
vt 0.5 0.5
vt 0 0
vt 1 1
vt 0 0.5
vt 0.5 1
vt 0 1
vt 0.5 0
vt 1 0.5
vt 1 0
vt 0.5 0.5
vt 0 0
vt 1 1
vt 0 0.5
vt 0.5 1
vt 0 1
vt 0.5 0
vt 1 0.5
vt 1 0
vt 0.5 0.5
vt 0 0
vt 1 1
vt 0 0.5
vt 0.5 1
vt 0 1
vt 0.5 0
vt 1 0.5
vt 1 0
vt 0.5 0.5
vt 0 0
vt 1 1
vt 0 0.5
vt 0.5 1
vt 0 1
vt 0.5 0
vt 1 0.5
vt 1 0
vt 0.5 0.5
vt 0 0
vt 1 1
vt 0 0.5
vt 0.5 1
vt 0 1
vt 0.5 0
vt 1 0.5
vt 1 0
vt 0.5 0.5
vt 0 0
vt 1 1
vt 0 0.5
vt 0.5 1
vt 0 1
vt 0.5 0
vt 1 0.5
vt 1 0
vt 0.5 0.5
vt 0 0
vt 1 1
vt 0 0.5
vt 0.5 1
vt 0 1
vt 0.5 0
vt 1 0.5
vt 1 0
vt 0.5 0.5
vt 0 0
vt 1 1
vt 0 0.5
vt 0.5 1
vt 0 1

vt2 0 0
vt2 0 0
vt2 0 0
vt2 0 0
vt2 0 0
vt2 0 0
vt2 0 0
vt2 0 0
vt2 0 0
vt2 0 0
vt2 0 0
vt2 0 0
vt2 0 0
vt2 0 0
vt2 0 0
vt2 0 0
vt2 0 0
vt2 0 0
vt2 0 0
vt2 0 0
vt2 0 0
vt2 0 0
vt2 0 0
vt2 0 0
vt2 0 0
vt2 0 0
vt2 0 0
vt2 0 0
vt2 0 0
vt2 0 0
vt2 0 0
vt2 0 0
vt2 0 0
vt2 0 0
vt2 0 0
vt2 0 0
vt2 0 0
vt2 0 0
vt2 0 0
vt2 0 0
vt2 0 0
vt2 0 0
vt2 0 0
vt2 0 0
vt2 0 0
vt2 0 0
vt2 0 0
vt2 0 0
vt2 0 0
vt2 0 0
vt2 0 0
vt2 0 0
vt2 0 0
vt2 0 0
vt2 0 0
vt2 0 0
vt2 0 0
vt2 0 0
vt2 0 0
vt2 0 0
vt2 0 0
vt2 0 0
vt2 0 0
vt2 0 0
vt2 0 0
vt2 0 0
vt2 0 0
vt2 0 0
vt2 0 0
vt2 0 0
vt2 0 0
vt2 0 0
vt2 0 0
vt2 0 0
vt2 0 0
vt2 0 0
vt2 0 0
vt2 0 0
vt2 0 0
vt2 0 0
vt2 0 0
vt2 0 0
vt2 0 0
vt2 0 0
vt2 0 0
vt2 0 0
vt2 0 0
vt2 0 0
vt2 0 0
vt2 0 0

vt2 0 0
vt2 0 0
vt2 0 0
vt2 0 0
vt2 0 0
vt2 0 0
vt2 0 0
vt2 0 0
vt2 0 0
vt2 0 0
vt2 0 0
vt2 0 0
vt2 0 0
vt2 0 0
vt2 0 0
vt2 0 0
vt2 0 0
vt2 0 0
vt2 0 0
vt2 0 0
vt2 0 0
vt2 0 0
vt2 0 0
vt2 0 0
vt2 0 0
vt2 0 0
vt2 0 0
vt2 0 0
vt2 0 0
vt2 0 0
vt2 0 0
vt2 0 0
vt2 0 0
vt2 0 0
vt2 0 0
vt2 0 0
vt2 0 0
vt2 0 0
vt2 0 0
vt2 0 0
vt2 0 0
vt2 0 0
vt2 0 0
vt2 0 0
vt2 0 0
vt2 0 0
vt2 0 0
vt2 0 0
vt2 0 0
vt2 0 0
vt2 0 0
vt2 0 0
vt2 0 0
vt2 0 0
vt2 0 0
vt2 0 0
vt2 0 0
vt2 0 0
vt2 0 0
vt2 0 0
vt2 0 0
vt2 0 0
vt2 0 0
vt2 0 0
vt2 0 0
vt2 0 0
vt2 0 0
vt2 0 0
vt2 0 0
vt2 0 0
vt2 0 0
vt2 0 0
vt2 0 0
vt2 0 0
vt2 0 0
vt2 0 0
vt2 0 0
vt2 0 0
vt2 0 0
vt2 0 0
vt2 0 0
vt2 0 0
vt2 0 0
vt2 0 0
vt2 0 0
vt2 0 0
vt2 0 0
vt2 0 0
vt2 0 0
vt2 0 0

vc 1 1 1 1
vc 1 1 1 1
vc 1 1 1 1
vc 1 1 1 1
vc 1 1 1 1
vc 1 1 1 1
vc 1 1 1 1
vc 1 1 1 1
vc 1 1 1 1
vc 1 1 1 1
vc 1 1 1 1
vc 1 1 1 1
vc 1 1 1 1
vc 1 1 1 1
vc 1 1 1 1
vc 1 1 1 1
vc 1 1 1 1
vc 1 1 1 1
vc 1 1 1 1
vc 1 1 1 1
vc 1 1 1 1
vc 1 1 1 1
vc 1 1 1 1
vc 1 1 1 1
vc 1 1 1 1
vc 1 1 1 1
vc 1 1 1 1
vc 1 1 1 1
vc 1 1 1 1
vc 1 1 1 1
vc 1 1 1 1
vc 1 1 1 1
vc 1 1 1 1
vc 1 1 1 1
vc 1 1 1 1
vc 1 1 1 1
vc 1 1 1 1
vc 1 1 1 1
vc 1 1 1 1
vc 1 1 1 1
vc 1 1 1 1
vc 1 1 1 1
vc 1 1 1 1
vc 1 1 1 1
vc 1 1 1 1
vc 1 1 1 1
vc 1 1 1 1
vc 1 1 1 1
vc 1 1 1 1
vc 1 1 1 1
vc 1 1 1 1
vc 1 1 1 1
vc 1 1 1 1
vc 1 1 1 1
vc 1 1 1 1
vc 1 1 1 1
vc 1 1 1 1
vc 1 1 1 1
vc 1 1 1 1
vc 1 1 1 1
vc 1 1 1 1
vc 1 1 1 1
vc 1 1 1 1
vc 1 1 1 1
vc 1 1 1 1
vc 1 1 1 1
vc 1 1 1 1
vc 1 1 1 1
vc 1 1 1 1
vc 1 1 1 1
vc 1 1 1 1
vc 1 1 1 1
vc 1 1 1 1
vc 1 1 1 1
vc 1 1 1 1
vc 1 1 1 1
vc 1 1 1 1
vc 1 1 1 1
vc 1 1 1 1
vc 1 1 1 1
vc 1 1 1 1
vc 1 1 1 1
vc 1 1 1 1
vc 1 1 1 1
vc 1 1 1 1
vc 1 1 1 1
vc 1 1 1 1
vc 1 1 1 1
vc 1 1 1 1
vc 1 1 1 1

usemtl Default-Diffuse
usemap Default-Diffuse
f 3/3/3 2/2/2 1/1/1
f 2/2/2 4/4/4 1/1/1
f 1/1/1 4/4/4 5/5/5
f 2/2/2 6/6/6 4/4/4
f 4/4/4 7/7/7 5/5/5
f 6/6/6 8/8/8 4/4/4
f 4/4/4 8/8/8 7/7/7
f 8/8/8 9/9/9 7/7/7
f 12/12/12 11/11/11 10/10/10
f 11/11/11 13/13/13 10/10/10
f 10/10/10 13/13/13 14/14/14
f 11/11/11 15/15/15 13/13/13
f 13/13/13 16/16/16 14/14/14
f 15/15/15 17/17/17 13/13/13
f 13/13/13 17/17/17 16/16/16
f 17/17/17 18/18/18 16/16/16
f 21/21/21 20/20/20 19/19/19
f 20/20/20 22/22/22 19/19/19
f 19/19/19 22/22/22 23/23/23
f 20/20/20 24/24/24 22/22/22
f 22/22/22 25/25/25 23/23/23
f 24/24/24 26/26/26 22/22/22
f 22/22/22 26/26/26 25/25/25
f 26/26/26 27/27/27 25/25/25
f 30/30/30 29/29/29 28/28/28
f 29/29/29 31/31/31 28/28/28
f 28/28/28 31/31/31 32/32/32
f 29/29/29 33/33/33 31/31/31
f 31/31/31 34/34/34 32/32/32
f 33/33/33 35/35/35 31/31/31
f 31/31/31 35/35/35 34/34/34
f 35/35/35 36/36/36 34/34/34
f 39/39/39 38/38/38 37/37/37
f 38/38/38 40/40/40 37/37/37
f 37/37/37 40/40/40 41/41/41
f 38/38/38 42/42/42 40/40/40
f 40/40/40 43/43/43 41/41/41
f 42/42/42 44/44/44 40/40/40
f 40/40/40 44/44/44 43/43/43
f 44/44/44 45/45/45 43/43/43
f 48/48/48 47/47/47 46/46/46
f 47/47/47 49/49/49 46/46/46
f 46/46/46 49/49/49 50/50/50
f 47/47/47 51/51/51 49/49/49
f 49/49/49 52/52/52 50/50/50
f 51/51/51 53/53/53 49/49/49
f 49/49/49 53/53/53 52/52/52
f 53/53/53 54/54/54 52/52/52
f 57/57/57 56/56/56 55/55/55
f 56/56/56 58/58/58 55/55/55
f 55/55/55 58/58/58 59/59/59
f 56/56/56 60/60/60 58/58/58
f 58/58/58 61/61/61 59/59/59
f 60/60/60 62/62/62 58/58/58
f 58/58/58 62/62/62 61/61/61
f 62/62/62 63/63/63 61/61/61
f 66/66/66 65/65/65 64/64/64
f 65/65/65 67/67/67 64/64/64
f 64/64/64 67/67/67 68/68/68
f 65/65/65 69/69/69 67/67/67
f 67/67/67 70/70/70 68/68/68
f 69/69/69 71/71/71 67/67/67
f 67/67/67 71/71/71 70/70/70
f 71/71/71 72/72/72 70/70/70
f 75/75/75 74/74/74 73/73/73
f 74/74/74 76/76/76 73/73/73
f 73/73/73 76/76/76 77/77/77
f 74/74/74 78/78/78 76/76/76
f 76/76/76 79/79/79 77/77/77
f 78/78/78 80/80/80 76/76/76
f 76/76/76 80/80/80 79/79/79
f 80/80/80 81/81/81 79/79/79
f 84/84/84 83/83/83 82/82/82
f 83/83/83 85/85/85 82/82/82
f 82/82/82 85/85/85 86/86/86
f 83/83/83 87/87/87 85/85/85
f 85/85/85 88/88/88 86/86/86
f 87/87/87 89/89/89 85/85/85
f 85/85/85 89/89/89 88/88/88
f 89/89/89 90/90/90 88/88/88
