g Custom Mesh - Baked
v 389.2202 122.8961 1410.035
v 409.2189 121.6266 1392.704
v 412.0197 121.7531 1395.557
v 387.7865 122.8621 1407.721
v 363.3195 124.7334 1418.311
v 406.418 121.5001 1389.851
v 363.6571 124.7334 1416.34
v 386.3528 122.828 1405.407
v 363.9947 124.7334 1414.368
v 339.276 128.0202 1406.517
v 363.6571 124.7334 1416.34
v 363.3195 124.7334 1418.311
v 340.3845 128.0202 1404.852
v 317.2797 131.0636 1391.739
v 363.9947 124.7334 1414.368
v 318.5265 131.0636 1390.176
v 341.493 128.0202 1403.187
v 319.7733 131.0636 1388.612
v 301.1913 134.0026 1370.474
v 318.5265 131.0636 1390.176
v 317.2797 131.0636 1391.739
v 302.9059 134.0026 1369.444
v 287.7971 136.8649 1347.997
v 319.7733 131.0636 1388.612
v 289.4713 136.8649 1346.903
v 304.6205 134.0026 1368.414
v 291.1454 136.8649 1345.808
v 273.9187 139.7001 1326.201
v 289.4713 136.8649 1346.903
v 287.7971 136.8649 1347.997
v 275.6279 139.7001 1325.163
v 260.333 142.7118 1303.752
v 291.1454 136.8649 1345.808
v 262.0414 142.7118 1302.712
v 277.3371 139.7001 1324.124
v 263.7498 142.7118 1301.672
v 246.0741 145.6697 1281.145
v 262.0414 142.7118 1302.712
v 260.333 142.7118 1303.752
v 247.7274 145.6697 1280.019
v 228.1199 147.5199 1263.553
v 263.7498 142.7118 1301.672
v 229.3182 147.5199 1261.952
v 249.3808 145.6697 1278.894
v 230.5164 147.5199 1260.351
v 206.7529 148.8903 1248.366
v 229.3182 147.5199 1261.952
v 228.1199 147.5199 1263.553
v 207.8862 148.8903 1246.718
v 184.5497 150.2538 1233.324
v 230.5164 147.5199 1260.351
v 185.6666 150.2538 1231.665
v 209.0194 148.8903 1245.07
v 186.7835 150.2538 1230.006
v 163.616 151.4054 1217.758
v 185.6666 150.2538 1231.665
v 184.5497 150.2538 1233.324
v 164.8689 151.4054 1216.199
v 143.104 151.8044 1201.355
v 186.7835 150.2538 1230.006
v 144.3505 151.8044 1199.791
v 166.1218 151.4054 1214.64
v 145.5969 151.8044 1198.227
v 121.8997 152.1466 1184.531
v 144.3505 151.8044 1199.791
v 143.104 151.8044 1201.355
v 123.1365 152.1466 1182.959
v 101.5726 153.0098 1167.864
v 145.5969 151.8044 1198.227
v 102.8549 153.0098 1166.329
v 124.3733 152.1466 1181.388
v 104.1371 153.0098 1164.794
v 80.9585 154.2926 1151.453
v 102.8549 153.0098 1166.329
v 101.5726 153.0098 1167.864
v 82.14047 154.2926 1149.84
v 58.19064 156.1377 1141.293
v 104.1371 153.0098 1164.794
v 58.37933 156.1377 1139.302
v 83.32245 154.2926 1148.227
v 58.56803 156.1377 1137.311
v 32.25414 159.5501 1140.337
v 58.37933 156.1377 1139.302
v 58.19064 156.1377 1141.293
v 32.26263 159.5501 1138.337
v 6.265936 163.1574 1140.861
v 58.56803 156.1377 1137.311
v 6.085243 163.1574 1138.87
v 32.27113 159.5501 1136.337
v 5.904551 163.1574 1136.878
v -19.38927 166.0667 1143.581
v 6.085243 163.1574 1138.87
v 6.265936 163.1574 1140.861
v -19.58317 166.0667 1141.591
v -45.96626 169.0589 1145.283
v 5.904551 163.1574 1136.878
v -45.99348 169.0589 1143.284
v -19.77708 166.0667 1139.6
v -46.0207 169.0589 1141.284
v -72.24651 172.4834 1139.111
v -45.99348 169.0589 1143.284
v -45.96626 169.0589 1145.283
v -70.86414 172.4834 1137.665
v -85.36925 176.6229 1116.008
v -46.0207 169.0589 1141.284
v -83.52727 176.6229 1115.229
v -69.48176 172.4834 1136.22
v -81.68529 176.6229 1114.45
v -95.76403 180.8359 1091.876
v -83.52727 176.6229 1115.229
v -85.36925 176.6229 1116.008
v -93.98198 180.8359 1090.968
v -113.442 185.0296 1074.317
v -81.68529 176.6229 1114.45
v -112.3216 185.0296 1072.661
v -92.19993 180.8359 1090.06
v -111.2012 185.0296 1071.004
v -135.6494 188.5573 1060.645
v -112.3216 185.0296 1072.661
v -113.442 185.0296 1074.317
v -134.6877 188.5573 1058.891
v -159.17 190.674 1048.657
v -111.2012 185.0296 1071.004
v -158.2148 190.674 1046.9
v -133.7259 188.5573 1057.138
v -157.2596 190.674 1045.142
v -182.3797 193.2771 1039.557
v -158.2148 190.674 1046.9
v -159.17 190.674 1048.657
v -182.5227 193.2771 1037.562
v -207.6197 197.6616 1046.924
v -157.2596 190.674 1045.142
v -208.4122 197.6616 1045.087
v -182.6658 193.2771 1035.567
v -209.2048 197.6616 1043.251

vn 0.02839113 0.7336015 -0.0283905
vn -0.008693255 0.4997388 -0.01362004
vn -0.008693255 0.4997388 -0.01362004
vn 0.02839113 0.7336015 -0.0283905
vn 0.1125301 0.9934614 0.01927124
vn -0.008693255 0.4997388 -0.01362004
vn 0.1125301 0.9934614 0.01927124
vn 0.02839113 0.7336015 -0.0283905
vn 0.1125301 0.9934614 0.01927124
vn 0.1039118 0.9921766 0.06919465
vn 0.1125301 0.9934614 0.01927124
vn 0.1125301 0.9934614 0.01927124
vn 0.1039118 0.9921766 0.06919465
vn 0.08303608 0.9943448 0.06620648
vn 0.1125301 0.9934614 0.01927124
vn 0.08303608 0.9943448 0.06620648
vn 0.1039118 0.9921766 0.06919465
vn 0.08303608 0.9943448 0.06620648
vn 0.05765377 0.9937093 0.09600971
vn 0.08303608 0.9943448 0.06620648
vn 0.08303608 0.9943448 0.06620648
vn 0.05765377 0.9937093 0.09600971
vn 0.05645734 0.9946613 0.0863797
vn 0.08303608 0.9943448 0.06620648
vn 0.05645734 0.9946613 0.0863797
vn 0.05765377 0.9937093 0.09600971
vn 0.05645734 0.9946613 0.0863797
vn 0.05912989 0.9934962 0.09730835
vn 0.05645734 0.9946613 0.0863797
vn 0.05645734 0.9946613 0.0863797
vn 0.05912989 0.9934962 0.09730835
vn 0.05889243 0.9935653 0.09674484
vn 0.05645734 0.9946613 0.0863797
vn 0.05889243 0.9935653 0.09674484
vn 0.05912989 0.9934962 0.09730835
vn 0.05889243 0.9935653 0.09674484
vn 0.05714448 0.9948294 0.08395844
vn 0.05889243 0.9935653 0.09674484
vn 0.05889243 0.9935653 0.09674484
vn 0.05714448 0.9948294 0.08395844
vn 0.04356898 0.9985181 0.03260272
vn 0.05889243 0.9935653 0.09674484
vn 0.04356898 0.9985181 0.03260272
vn 0.05714448 0.9948294 0.08395844
vn 0.04356898 0.9985181 0.03260272
vn 0.04178723 0.9987132 0.02873525
vn 0.04356898 0.9985181 0.03260272
vn 0.04356898 0.9985181 0.03260272
vn 0.04178723 0.9987132 0.02873525
vn 0.04292272 0.9986605 0.02889514
vn 0.04356898 0.9985181 0.03260272
vn 0.04292272 0.9986605 0.02889514
vn 0.04178723 0.9987132 0.02873525
vn 0.04292272 0.9986605 0.02889514
vn 0.01535285 0.999806 0.01233884
vn 0.04292272 0.9986605 0.02889514
vn 0.04292272 0.9986605 0.02889514
vn 0.01535285 0.999806 0.01233884
vn 0.01011856 0.9999163 0.00806318
vn 0.04292272 0.9986605 0.02889514
vn 0.01011856 0.9999163 0.00806318
vn 0.01535285 0.999806 0.01233884
vn 0.01011856 0.9999163 0.00806318
vn 0.01093131 0.9999033 0.008602295
vn 0.01011856 0.9999163 0.00806318
vn 0.01011856 0.9999163 0.00806318
vn 0.01093131 0.9999033 0.008602295
vn 0.03439536 0.9989952 0.02873543
vn 0.01011856 0.9999163 0.00806318
vn 0.03439536 0.9989952 0.02873543
vn 0.01093131 0.9999033 0.008602295
vn 0.03439536 0.9989952 0.02873543
vn 0.04192571 0.9986484 0.03071538
vn 0.03439536 0.9989952 0.02873543
vn 0.03439536 0.9989952 0.02873543
vn 0.04192571 0.9986484 0.03071538
vn 0.1128349 0.9935561 0.01069323
vn 0.03439536 0.9989952 0.02873543
vn 0.1128349 0.9935561 0.01069323
vn 0.04192571 0.9986484 0.03071538
vn 0.1128349 0.9935561 0.01069323
vn 0.1375052 0.9905008 0.0005843888
vn 0.1128349 0.9935561 0.01069323
vn 0.1128349 0.9935561 0.01069323
vn 0.1375052 0.9905008 0.0005843888
vn 0.1183691 0.9929117 -0.01073813
vn 0.1128349 0.9935561 0.01069323
vn 0.1183691 0.9929117 -0.01073813
vn 0.1375052 0.9905008 0.0005843888
vn 0.1183691 0.9929117 -0.01073813
vn 0.109914 0.9938834 -0.01070694
vn 0.1183691 0.9929117 -0.01073813
vn 0.1183691 0.9929117 -0.01073813
vn 0.109914 0.9938834 -0.01070694
vn 0.1157167 0.993281 -0.001575116
vn 0.1183691 0.9929117 -0.01073813
vn 0.1157167 0.993281 -0.001575116
vn 0.109914 0.9938834 -0.01070694
vn 0.1157167 0.993281 -0.001575116
vn 0.1120657 0.9879034 0.1071834
vn 0.1157167 0.993281 -0.001575116
vn 0.1157167 0.993281 -0.001575116
vn 0.1120657 0.9879034 0.1071834
vn 0.06103629 0.9876511 0.1442911
vn 0.1157167 0.993281 -0.001575116
vn 0.06103629 0.9876511 0.1442911
vn 0.1120657 0.9879034 0.1071834
vn 0.06103629 0.9876511 0.1442911
vn 0.07262942 0.9871182 0.1425567
vn 0.06103629 0.9876511 0.1442911
vn 0.06103629 0.9876511 0.1442911
vn 0.07262942 0.9871182 0.1425567
vn 0.1229495 0.9889236 0.0831474
vn 0.06103629 0.9876511 0.1442911
vn 0.1229495 0.9889236 0.0831474
vn 0.07262942 0.9871182 0.1425567
vn 0.1229495 0.9889236 0.0831474
vn 0.09688245 0.9938762 0.05313756
vn 0.1229495 0.9889236 0.0831474
vn 0.1229495 0.9889236 0.0831474
vn 0.09688245 0.9938762 0.05313756
vn 0.0646067 0.9972926 0.03512129
vn 0.1229495 0.9889236 0.0831474
vn 0.0646067 0.9972926 0.03512129
vn 0.09688245 0.9938762 0.05313756
vn 0.0646067 0.9972926 0.03512129
vn 0.1526697 0.9882166 -0.01094955
vn 0.0646067 0.9972926 0.03512129
vn 0.0646067 0.9972926 0.03512129
vn 0.1526697 0.9882166 -0.01094955
vn 0.1146776 0.9921689 -0.04949735
vn 0.0646067 0.9972926 0.03512129
vn 0.1146776 0.9921689 -0.04949735
vn 0.1526697 0.9882166 -0.01094955
vn 0.1146776 0.9921689 -0.04949735

vt 0.5 0
vt 1 0.5
vt 1 0
vt 0.5 0.5
vt 0 0
vt 1 1
vt 0 0.5
vt 0.5 1
vt 0 1
vt 0.5 0
vt 1 0.5
vt 1 0
vt 0.5 0.5
vt 0 0
vt 1 1
vt 0 0.5
vt 0.5 1
vt 0 1
vt 0.5 0
vt 1 0.5
vt 1 0
vt 0.5 0.5
vt 0 0
vt 1 1
vt 0 0.5
vt 0.5 1
vt 0 1
vt 0.5 0
vt 1 0.5
vt 1 0
vt 0.5 0.5
vt 0 0
vt 1 1
vt 0 0.5
vt 0.5 1
vt 0 1
vt 0.5 0
vt 1 0.5
vt 1 0
vt 0.5 0.5
vt 0 0
vt 1 1
vt 0 0.5
vt 0.5 1
vt 0 1
vt 0.5 0
vt 1 0.5
vt 1 0
vt 0.5 0.5
vt 0 0
vt 1 1
vt 0 0.5
vt 0.5 1
vt 0 1
vt 0.5 0
vt 1 0.5
vt 1 0
vt 0.5 0.5
vt 0 0
vt 1 1
vt 0 0.5
vt 0.5 1
vt 0 1
vt 0.5 0
vt 1 0.5
vt 1 0
vt 0.5 0.5
vt 0 0
vt 1 1
vt 0 0.5
vt 0.5 1
vt 0 1
vt 0.5 0
vt 1 0.5
vt 1 0
vt 0.5 0.5
vt 0 0
vt 1 1
vt 0 0.5
vt 0.5 1
vt 0 1
vt 0.5 0
vt 1 0.5
vt 1 0
vt 0.5 0.5
vt 0 0
vt 1 1
vt 0 0.5
vt 0.5 1
vt 0 1
vt 0.5 0
vt 1 0.5
vt 1 0
vt 0.5 0.5
vt 0 0
vt 1 1
vt 0 0.5
vt 0.5 1
vt 0 1
vt 0.5 0
vt 1 0.5
vt 1 0
vt 0.5 0.5
vt 0 0
vt 1 1
vt 0 0.5
vt 0.5 1
vt 0 1
vt 0.5 0
vt 1 0.5
vt 1 0
vt 0.5 0.5
vt 0 0
vt 1 1
vt 0 0.5
vt 0.5 1
vt 0 1
vt 0.5 0
vt 1 0.5
vt 1 0
vt 0.5 0.5
vt 0 0
vt 1 1
vt 0 0.5
vt 0.5 1
vt 0 1
vt 0.5 0
vt 1 0.5
vt 1 0
vt 0.5 0.5
vt 0 0
vt 1 1
vt 0 0.5
vt 0.5 1
vt 0 1

vt2 0 0
vt2 0 0
vt2 0 0
vt2 0 0
vt2 0 0
vt2 0 0
vt2 0 0
vt2 0 0
vt2 0 0
vt2 0 0
vt2 0 0
vt2 0 0
vt2 0 0
vt2 0 0
vt2 0 0
vt2 0 0
vt2 0 0
vt2 0 0
vt2 0 0
vt2 0 0
vt2 0 0
vt2 0 0
vt2 0 0
vt2 0 0
vt2 0 0
vt2 0 0
vt2 0 0
vt2 0 0
vt2 0 0
vt2 0 0
vt2 0 0
vt2 0 0
vt2 0 0
vt2 0 0
vt2 0 0
vt2 0 0
vt2 0 0
vt2 0 0
vt2 0 0
vt2 0 0
vt2 0 0
vt2 0 0
vt2 0 0
vt2 0 0
vt2 0 0
vt2 0 0
vt2 0 0
vt2 0 0
vt2 0 0
vt2 0 0
vt2 0 0
vt2 0 0
vt2 0 0
vt2 0 0
vt2 0 0
vt2 0 0
vt2 0 0
vt2 0 0
vt2 0 0
vt2 0 0
vt2 0 0
vt2 0 0
vt2 0 0
vt2 0 0
vt2 0 0
vt2 0 0
vt2 0 0
vt2 0 0
vt2 0 0
vt2 0 0
vt2 0 0
vt2 0 0
vt2 0 0
vt2 0 0
vt2 0 0
vt2 0 0
vt2 0 0
vt2 0 0
vt2 0 0
vt2 0 0
vt2 0 0
vt2 0 0
vt2 0 0
vt2 0 0
vt2 0 0
vt2 0 0
vt2 0 0
vt2 0 0
vt2 0 0
vt2 0 0
vt2 0 0
vt2 0 0
vt2 0 0
vt2 0 0
vt2 0 0
vt2 0 0
vt2 0 0
vt2 0 0
vt2 0 0
vt2 0 0
vt2 0 0
vt2 0 0
vt2 0 0
vt2 0 0
vt2 0 0
vt2 0 0
vt2 0 0
vt2 0 0
vt2 0 0
vt2 0 0
vt2 0 0
vt2 0 0
vt2 0 0
vt2 0 0
vt2 0 0
vt2 0 0
vt2 0 0
vt2 0 0
vt2 0 0
vt2 0 0
vt2 0 0
vt2 0 0
vt2 0 0
vt2 0 0
vt2 0 0
vt2 0 0
vt2 0 0
vt2 0 0
vt2 0 0
vt2 0 0
vt2 0 0
vt2 0 0
vt2 0 0
vt2 0 0
vt2 0 0

vt2 0 0
vt2 0 0
vt2 0 0
vt2 0 0
vt2 0 0
vt2 0 0
vt2 0 0
vt2 0 0
vt2 0 0
vt2 0 0
vt2 0 0
vt2 0 0
vt2 0 0
vt2 0 0
vt2 0 0
vt2 0 0
vt2 0 0
vt2 0 0
vt2 0 0
vt2 0 0
vt2 0 0
vt2 0 0
vt2 0 0
vt2 0 0
vt2 0 0
vt2 0 0
vt2 0 0
vt2 0 0
vt2 0 0
vt2 0 0
vt2 0 0
vt2 0 0
vt2 0 0
vt2 0 0
vt2 0 0
vt2 0 0
vt2 0 0
vt2 0 0
vt2 0 0
vt2 0 0
vt2 0 0
vt2 0 0
vt2 0 0
vt2 0 0
vt2 0 0
vt2 0 0
vt2 0 0
vt2 0 0
vt2 0 0
vt2 0 0
vt2 0 0
vt2 0 0
vt2 0 0
vt2 0 0
vt2 0 0
vt2 0 0
vt2 0 0
vt2 0 0
vt2 0 0
vt2 0 0
vt2 0 0
vt2 0 0
vt2 0 0
vt2 0 0
vt2 0 0
vt2 0 0
vt2 0 0
vt2 0 0
vt2 0 0
vt2 0 0
vt2 0 0
vt2 0 0
vt2 0 0
vt2 0 0
vt2 0 0
vt2 0 0
vt2 0 0
vt2 0 0
vt2 0 0
vt2 0 0
vt2 0 0
vt2 0 0
vt2 0 0
vt2 0 0
vt2 0 0
vt2 0 0
vt2 0 0
vt2 0 0
vt2 0 0
vt2 0 0
vt2 0 0
vt2 0 0
vt2 0 0
vt2 0 0
vt2 0 0
vt2 0 0
vt2 0 0
vt2 0 0
vt2 0 0
vt2 0 0
vt2 0 0
vt2 0 0
vt2 0 0
vt2 0 0
vt2 0 0
vt2 0 0
vt2 0 0
vt2 0 0
vt2 0 0
vt2 0 0
vt2 0 0
vt2 0 0
vt2 0 0
vt2 0 0
vt2 0 0
vt2 0 0
vt2 0 0
vt2 0 0
vt2 0 0
vt2 0 0
vt2 0 0
vt2 0 0
vt2 0 0
vt2 0 0
vt2 0 0
vt2 0 0
vt2 0 0
vt2 0 0
vt2 0 0
vt2 0 0
vt2 0 0
vt2 0 0
vt2 0 0
vt2 0 0
vt2 0 0

vc 1 1 1 1
vc 1 1 1 1
vc 1 1 1 1
vc 1 1 1 1
vc 1 1 1 1
vc 1 1 1 1
vc 1 1 1 1
vc 1 1 1 1
vc 1 1 1 1
vc 1 1 1 1
vc 1 1 1 1
vc 1 1 1 1
vc 1 1 1 1
vc 1 1 1 1
vc 1 1 1 1
vc 1 1 1 1
vc 1 1 1 1
vc 1 1 1 1
vc 1 1 1 1
vc 1 1 1 1
vc 1 1 1 1
vc 1 1 1 1
vc 1 1 1 1
vc 1 1 1 1
vc 1 1 1 1
vc 1 1 1 1
vc 1 1 1 1
vc 1 1 1 1
vc 1 1 1 1
vc 1 1 1 1
vc 1 1 1 1
vc 1 1 1 1
vc 1 1 1 1
vc 1 1 1 1
vc 1 1 1 1
vc 1 1 1 1
vc 1 1 1 1
vc 1 1 1 1
vc 1 1 1 1
vc 1 1 1 1
vc 1 1 1 1
vc 1 1 1 1
vc 1 1 1 1
vc 1 1 1 1
vc 1 1 1 1
vc 1 1 1 1
vc 1 1 1 1
vc 1 1 1 1
vc 1 1 1 1
vc 1 1 1 1
vc 1 1 1 1
vc 1 1 1 1
vc 1 1 1 1
vc 1 1 1 1
vc 1 1 1 1
vc 1 1 1 1
vc 1 1 1 1
vc 1 1 1 1
vc 1 1 1 1
vc 1 1 1 1
vc 1 1 1 1
vc 1 1 1 1
vc 1 1 1 1
vc 1 1 1 1
vc 1 1 1 1
vc 1 1 1 1
vc 1 1 1 1
vc 1 1 1 1
vc 1 1 1 1
vc 1 1 1 1
vc 1 1 1 1
vc 1 1 1 1
vc 1 1 1 1
vc 1 1 1 1
vc 1 1 1 1
vc 1 1 1 1
vc 1 1 1 1
vc 1 1 1 1
vc 1 1 1 1
vc 1 1 1 1
vc 1 1 1 1
vc 1 1 1 1
vc 1 1 1 1
vc 1 1 1 1
vc 1 1 1 1
vc 1 1 1 1
vc 1 1 1 1
vc 1 1 1 1
vc 1 1 1 1
vc 1 1 1 1
vc 1 1 1 1
vc 1 1 1 1
vc 1 1 1 1
vc 1 1 1 1
vc 1 1 1 1
vc 1 1 1 1
vc 1 1 1 1
vc 1 1 1 1
vc 1 1 1 1
vc 1 1 1 1
vc 1 1 1 1
vc 1 1 1 1
vc 1 1 1 1
vc 1 1 1 1
vc 1 1 1 1
vc 1 1 1 1
vc 1 1 1 1
vc 1 1 1 1
vc 1 1 1 1
vc 1 1 1 1
vc 1 1 1 1
vc 1 1 1 1
vc 1 1 1 1
vc 1 1 1 1
vc 1 1 1 1
vc 1 1 1 1
vc 1 1 1 1
vc 1 1 1 1
vc 1 1 1 1
vc 1 1 1 1
vc 1 1 1 1
vc 1 1 1 1
vc 1 1 1 1
vc 1 1 1 1
vc 1 1 1 1
vc 1 1 1 1
vc 1 1 1 1
vc 1 1 1 1
vc 1 1 1 1
vc 1 1 1 1
vc 1 1 1 1
vc 1 1 1 1
vc 1 1 1 1
vc 1 1 1 1
vc 1 1 1 1

usemtl Default-Diffuse
usemap Default-Diffuse
f 3/3/3 2/2/2 1/1/1
f 2/2/2 4/4/4 1/1/1
f 1/1/1 4/4/4 5/5/5
f 2/2/2 6/6/6 4/4/4
f 4/4/4 7/7/7 5/5/5
f 6/6/6 8/8/8 4/4/4
f 4/4/4 8/8/8 7/7/7
f 8/8/8 9/9/9 7/7/7
f 12/12/12 11/11/11 10/10/10
f 11/11/11 13/13/13 10/10/10
f 10/10/10 13/13/13 14/14/14
f 11/11/11 15/15/15 13/13/13
f 13/13/13 16/16/16 14/14/14
f 15/15/15 17/17/17 13/13/13
f 13/13/13 17/17/17 16/16/16
f 17/17/17 18/18/18 16/16/16
f 21/21/21 20/20/20 19/19/19
f 20/20/20 22/22/22 19/19/19
f 19/19/19 22/22/22 23/23/23
f 20/20/20 24/24/24 22/22/22
f 22/22/22 25/25/25 23/23/23
f 24/24/24 26/26/26 22/22/22
f 22/22/22 26/26/26 25/25/25
f 26/26/26 27/27/27 25/25/25
f 30/30/30 29/29/29 28/28/28
f 29/29/29 31/31/31 28/28/28
f 28/28/28 31/31/31 32/32/32
f 29/29/29 33/33/33 31/31/31
f 31/31/31 34/34/34 32/32/32
f 33/33/33 35/35/35 31/31/31
f 31/31/31 35/35/35 34/34/34
f 35/35/35 36/36/36 34/34/34
f 39/39/39 38/38/38 37/37/37
f 38/38/38 40/40/40 37/37/37
f 37/37/37 40/40/40 41/41/41
f 38/38/38 42/42/42 40/40/40
f 40/40/40 43/43/43 41/41/41
f 42/42/42 44/44/44 40/40/40
f 40/40/40 44/44/44 43/43/43
f 44/44/44 45/45/45 43/43/43
f 48/48/48 47/47/47 46/46/46
f 47/47/47 49/49/49 46/46/46
f 46/46/46 49/49/49 50/50/50
f 47/47/47 51/51/51 49/49/49
f 49/49/49 52/52/52 50/50/50
f 51/51/51 53/53/53 49/49/49
f 49/49/49 53/53/53 52/52/52
f 53/53/53 54/54/54 52/52/52
f 57/57/57 56/56/56 55/55/55
f 56/56/56 58/58/58 55/55/55
f 55/55/55 58/58/58 59/59/59
f 56/56/56 60/60/60 58/58/58
f 58/58/58 61/61/61 59/59/59
f 60/60/60 62/62/62 58/58/58
f 58/58/58 62/62/62 61/61/61
f 62/62/62 63/63/63 61/61/61
f 66/66/66 65/65/65 64/64/64
f 65/65/65 67/67/67 64/64/64
f 64/64/64 67/67/67 68/68/68
f 65/65/65 69/69/69 67/67/67
f 67/67/67 70/70/70 68/68/68
f 69/69/69 71/71/71 67/67/67
f 67/67/67 71/71/71 70/70/70
f 71/71/71 72/72/72 70/70/70
f 75/75/75 74/74/74 73/73/73
f 74/74/74 76/76/76 73/73/73
f 73/73/73 76/76/76 77/77/77
f 74/74/74 78/78/78 76/76/76
f 76/76/76 79/79/79 77/77/77
f 78/78/78 80/80/80 76/76/76
f 76/76/76 80/80/80 79/79/79
f 80/80/80 81/81/81 79/79/79
f 84/84/84 83/83/83 82/82/82
f 83/83/83 85/85/85 82/82/82
f 82/82/82 85/85/85 86/86/86
f 83/83/83 87/87/87 85/85/85
f 85/85/85 88/88/88 86/86/86
f 87/87/87 89/89/89 85/85/85
f 85/85/85 89/89/89 88/88/88
f 89/89/89 90/90/90 88/88/88
f 93/93/93 92/92/92 91/91/91
f 92/92/92 94/94/94 91/91/91
f 91/91/91 94/94/94 95/95/95
f 92/92/92 96/96/96 94/94/94
f 94/94/94 97/97/97 95/95/95
f 96/96/96 98/98/98 94/94/94
f 94/94/94 98/98/98 97/97/97
f 98/98/98 99/99/99 97/97/97
f 102/102/102 101/101/101 100/100/100
f 101/101/101 103/103/103 100/100/100
f 100/100/100 103/103/103 104/104/104
f 101/101/101 105/105/105 103/103/103
f 103/103/103 106/106/106 104/104/104
f 105/105/105 107/107/107 103/103/103
f 103/103/103 107/107/107 106/106/106
f 107/107/107 108/108/108 106/106/106
f 111/111/111 110/110/110 109/109/109
f 110/110/110 112/112/112 109/109/109
f 109/109/109 112/112/112 113/113/113
f 110/110/110 114/114/114 112/112/112
f 112/112/112 115/115/115 113/113/113
f 114/114/114 116/116/116 112/112/112
f 112/112/112 116/116/116 115/115/115
f 116/116/116 117/117/117 115/115/115
f 120/120/120 119/119/119 118/118/118
f 119/119/119 121/121/121 118/118/118
f 118/118/118 121/121/121 122/122/122
f 119/119/119 123/123/123 121/121/121
f 121/121/121 124/124/124 122/122/122
f 123/123/123 125/125/125 121/121/121
f 121/121/121 125/125/125 124/124/124
f 125/125/125 126/126/126 124/124/124
f 129/129/129 128/128/128 127/127/127
f 128/128/128 130/130/130 127/127/127
f 127/127/127 130/130/130 131/131/131
f 128/128/128 132/132/132 130/130/130
f 130/130/130 133/133/133 131/131/131
f 132/132/132 134/134/134 130/130/130
f 130/130/130 134/134/134 133/133/133
f 134/134/134 135/135/135 133/133/133
