g Custom Mesh - Baked
v 210.9401 83.1542 78.06423
v 218.9152 82.32915 78.01907
v 218.4273 82.3792 79.95799
v 211.4241 83.10457 76.12431
v 203.0674 83.97037 76.08286
v 219.4032 82.27912 76.08015
v 203.55 83.92088 74.14259
v 211.9081 83.05494 74.18439
v 204.0326 83.8714 72.20232
v 195.192 84.78684 74.10078
v 203.55 83.92088 74.14259
v 203.0674 83.97037 76.08286
v 195.6759 84.73721 72.16087
v 187.6969 85.56266 72.20503
v 204.0326 83.8714 72.20233
v 188.1848 85.51263 70.26611
v 196.1599 84.68758 70.22095
v 188.6727 85.46259 68.32719
v 181.1536 86.23673 70.52531
v 188.1848 85.51263 70.26611
v 187.6969 85.56267 72.20503
v 181.6509 86.18574 68.58878
v 175.7498 86.78905 69.10394
v 188.6727 85.46259 68.32719
v 176.2657 86.73612 67.17235
v 182.1481 86.13474 66.65224
v 176.7816 86.6832 65.24075
v 172.3057 87.14963 68.34638
v 176.2657 86.73612 67.17235
v 175.7498 86.78905 69.10394
v 172.6315 87.11732 66.37335
v 170.0423 87.40315 68.05695
v 176.7816 86.6832 65.24075
v 170.1739 87.39072 66.06133
v 172.9572 87.08502 64.40032
v 170.3054 87.3783 64.0657
v 168.4696 87.5807 67.95622
v 170.1739 87.39072 66.06133
v 170.0423 87.40315 68.05695
v 168.6735 87.56184 65.96673
v 166.7803 87.74505 67.58671
v 170.3054 87.3783 64.0657
v 167.5281 87.6771 65.73302
v 168.8773 87.54299 63.97723
v 168.2759 87.60915 63.87934
v 165.0697 87.86454 66.497
v 167.5281 87.6771 65.73302
v 166.7803 87.74505 67.58671
v 166.3129 87.755 64.93416
v 163.2112 87.94992 64.77345
v 168.2759 87.60915 63.87934
v 164.6311 87.82899 63.37012
v 167.5561 87.64547 63.37132
v 166.0509 87.70807 61.96679
v 160.8792 88.02483 61.74274
v 164.6311 87.82899 63.37012
v 163.2112 87.94992 64.77345
v 162.5395 87.87227 60.63817
v 158.7137 88.03319 58.11962
v 166.0509 87.70807 61.96679
v 160.4629 87.86632 57.16439
v 164.1998 87.71971 59.53359
v 162.2121 87.69945 56.20915
v 156.555 87.99875 54.05596
v 160.4629 87.86632 57.16439
v 158.7137 88.03319 58.11962
v 158.3166 87.823 53.12543
v 154.3103 87.9539 49.90474
v 162.2121 87.69945 56.20915
v 156.0435 87.76915 48.92404
v 160.0782 87.64725 52.19491
v 157.7767 87.5844 47.94334
v 151.8802 87.92301 46.00476
v 156.0435 87.76915 48.92404
v 154.3103 87.9539 49.90474
v 153.5234 87.7263 44.88171
v 149.2687 87.92435 42.60006
v 157.7767 87.5844 47.94334
v 150.7347 87.71157 41.25634
v 155.1666 87.52959 43.75867
v 152.2007 87.49879 39.91262
v 146.1636 87.93263 39.4727
v 150.7347 87.71157 41.25634
v 149.2687 87.92435 42.60006
v 147.5335 87.71906 38.03126
v 142.7563 87.94069 36.4037
v 152.2007 87.49879 39.91262
v 144.04 87.72722 34.88497
v 148.9034 87.50548 36.58981
v 145.3237 87.51375 33.36624
v 139.0934 87.9592 33.47887
v 144.04 87.72722 34.88497
v 142.7563 87.94069 36.4037
v 140.2995 87.74638 31.89774
v 135.325 87.99418 30.72215
v 145.3237 87.51375 33.36624
v 136.456 87.78246 29.08624
v 141.5056 87.53357 30.31661
v 137.5869 87.57075 27.45033
v 131.5478 88.06002 28.2416
v 136.456 87.78246 29.08624
v 135.325 87.99418 30.72215
v 132.6019 87.84984 26.55498
v 127.8639 88.15847 26.03288
v 137.5869 87.57075 27.45033
v 128.8341 87.9504 24.29637
v 133.656 87.63966 24.86835
v 129.8042 87.74233 22.55985
v 124.3513 88.33061 24.29966
v 128.8341 87.9504 24.29637
v 127.8639 88.15847 26.03288
v 125.1461 88.10291 22.47856
v 120.7951 88.54005 22.8721
v 129.8042 87.74233 22.55985
v 121.4455 88.29298 20.99703
v 125.9409 87.8752 20.65745
v 122.0959 88.0459 19.12196
v 117.1721 88.78233 21.69626
v 121.4455 88.29298 20.99703
v 120.7951 88.54005 22.8721
v 117.7344 88.51434 19.79573
v 113.493 89.03941 20.61401
v 122.0959 88.0459 19.12196
v 114.0191 88.74824 18.70654
v 118.2967 88.24635 17.89521
v 114.5452 88.45707 16.79906
v 109.7464 89.30016 19.51161
v 114.0191 88.74824 18.70654
v 113.493 89.03941 20.61401
v 110.3037 88.98214 17.61734
v 105.9523 89.55104 18.27862
v 114.5452 88.45707 16.79906
v 106.5926 89.20351 16.41605
v 110.8611 88.66412 15.72307
v 107.233 88.85599 14.55348

vn 0.1029984 0.9946815 0.0002500601
vn 0.1027362 0.9947087 0.0001840027
vn 0.1027362 0.9947087 0.0001840027
vn 0.1029984 0.9946815 0.0002500601
vn 0.1030897 0.9946719 0.000272768
vn 0.1027362 0.9947087 0.0001840027
vn 0.1030897 0.9946719 0.000272768
vn 0.1029984 0.9946815 0.0002500601
vn 0.1030897 0.9946719 0.000272768
vn 0.1029984 0.9946814 0.0002499534
vn 0.1030897 0.9946719 0.000272768
vn 0.1030897 0.9946719 0.000272768
vn 0.1029984 0.9946814 0.0002499534
vn 0.1027364 0.9947087 0.0001839316
vn 0.1030897 0.9946719 0.000272768
vn 0.1027364 0.9947087 0.0001839316
vn 0.1029984 0.9946814 0.0002499534
vn 0.1027364 0.9947087 0.0001839316
vn 0.1021196 0.9947721 2.384357E-05
vn 0.1027364 0.9947087 0.0001839316
vn 0.1027364 0.9947087 0.0001839316
vn 0.1021196 0.9947721 2.384357E-05
vn 0.1008841 0.9948981 -0.000315937
vn 0.1027364 0.9947087 0.0001839316
vn 0.1008841 0.9948981 -0.000315937
vn 0.1021196 0.9947721 2.384357E-05
vn 0.1008841 0.9948981 -0.000315937
vn 0.1077133 0.9941809 0.001506437
vn 0.1008841 0.9948981 -0.000315937
vn 0.1008841 0.9948981 -0.000315937
vn 0.1077133 0.9941809 0.001506437
vn 0.1141555 0.9934619 0.001338524
vn 0.1008841 0.9948981 -0.000315937
vn 0.1141555 0.9934619 0.001338524
vn 0.1077133 0.9941809 0.001506437
vn 0.1141555 0.9934619 0.001338524
vn 0.1087274 0.9940701 0.001720603
vn 0.1141555 0.9934619 0.001338524
vn 0.1141555 0.9934619 0.001338524
vn 0.1087274 0.9940701 0.001720603
vn 0.08432209 0.9964355 -0.002508007
vn 0.1141555 0.9934619 0.001338524
vn 0.08432209 0.9964355 -0.002508007
vn 0.1087274 0.9940701 0.001720603
vn 0.08432209 0.9964355 -0.002508007
vn 0.06672274 0.9976293 -0.01684525
vn 0.08432209 0.9964355 -0.002508007
vn 0.08432209 0.9964355 -0.002508007
vn 0.06672274 0.9976293 -0.01684525
vn 0.06186496 0.9978104 -0.02338942
vn 0.08432209 0.9964355 -0.002508007
vn 0.06186496 0.9978104 -0.02338942
vn 0.06672274 0.9976293 -0.01684525
vn 0.06186496 0.9978104 -0.02338942
vn 0.06607833 0.9970759 -0.03838284
vn 0.06186496 0.9978104 -0.02338942
vn 0.06186496 0.9978104 -0.02338942
vn 0.06607833 0.9970759 -0.03838284
vn 0.06997893 0.9964904 -0.0459362
vn 0.06186496 0.9978104 -0.02338942
vn 0.06997893 0.9964904 -0.0459362
vn 0.06607833 0.9970759 -0.03838284
vn 0.06997893 0.9964904 -0.0459362
vn 0.07261731 0.9960725 -0.0506562
vn 0.06997893 0.9964904 -0.0459362
vn 0.06997893 0.9964904 -0.0459362
vn 0.07261731 0.9960725 -0.0506562
vn 0.07493936 0.9956629 -0.05513005
vn 0.06997893 0.9964904 -0.0459362
vn 0.07493936 0.9956629 -0.05513005
vn 0.07261731 0.9960725 -0.0506562
vn 0.07493936 0.9956629 -0.05513005
vn 0.07744444 0.9951293 -0.06099175
vn 0.07493936 0.9956629 -0.05513005
vn 0.07493936 0.9956629 -0.05513005
vn 0.07744444 0.9951293 -0.06099175
vn 0.0799837 0.994322 -0.07018676
vn 0.07493936 0.9956629 -0.05513005
vn 0.0799837 0.994322 -0.07018676
vn 0.07744444 0.9951293 -0.06099175
vn 0.0799837 0.994322 -0.07018676
vn 0.07463709 0.9942806 -0.07638916
vn 0.0799837 0.994322 -0.07018676
vn 0.0799837 0.994322 -0.07018676
vn 0.07463709 0.9942806 -0.07638916
vn 0.07077631 0.9942844 -0.07993392
vn 0.0799837 0.994322 -0.07018676
vn 0.07077631 0.9942844 -0.07993392
vn 0.07463709 0.9942806 -0.07638916
vn 0.07077631 0.9942844 -0.07993392
vn 0.06898081 0.9943072 -0.0812085
vn 0.07077631 0.9942844 -0.07993392
vn 0.07077631 0.9942844 -0.07993392
vn 0.06898081 0.9943072 -0.0812085
vn 0.0689199 0.9943253 -0.08103942
vn 0.07077631 0.9942844 -0.07993392
vn 0.0689199 0.9943253 -0.08103942
vn 0.06898081 0.9943072 -0.0812085
vn 0.0689199 0.9943253 -0.08103942
vn 0.07140173 0.9942918 -0.07928211
vn 0.0689199 0.9943253 -0.08103942
vn 0.0689199 0.9943253 -0.08103942
vn 0.07140173 0.9942918 -0.07928211
vn 0.0765617 0.9941378 -0.07634343
vn 0.0689199 0.9943253 -0.08103942
vn 0.0765617 0.9941378 -0.07634343
vn 0.07140173 0.9942918 -0.07928211
vn 0.0765617 0.9941378 -0.07634343
vn 0.08496884 0.9925757 -0.08702669
vn 0.0765617 0.9941378 -0.07634343
vn 0.0765617 0.9941378 -0.07634343
vn 0.08496884 0.9925757 -0.08702669
vn 0.09091906 0.9909216 -0.09903606
vn 0.0765617 0.9941378 -0.07634343
vn 0.09091906 0.9909216 -0.09903606
vn 0.08496884 0.9925757 -0.08702669
vn 0.09091906 0.9909216 -0.09903606
vn 0.0949819 0.9892277 -0.1113868
vn 0.09091906 0.9909216 -0.09903606
vn 0.09091906 0.9909216 -0.09903606
vn 0.0949819 0.9892277 -0.1113868
vn 0.09827795 0.9874507 -0.1236232
vn 0.09091906 0.9909216 -0.09903606
vn 0.09827795 0.9874507 -0.1236232
vn 0.0949819 0.9892277 -0.1113868
vn 0.09827795 0.9874507 -0.1236232
vn 0.1020721 0.9855165 -0.1354206
vn 0.09827795 0.9874507 -0.1236232
vn 0.09827795 0.9874507 -0.1236232
vn 0.1020721 0.9855165 -0.1354206
vn 0.1073376 0.9833584 -0.1465781
vn 0.09827795 0.9874507 -0.1236232
vn 0.1073376 0.9833584 -0.1465781
vn 0.1020721 0.9855165 -0.1354206
vn 0.1073376 0.9833584 -0.1465781

vt 0.5 0
vt 1 0.5
vt 1 0
vt 0.5 0.5
vt 0 0
vt 1 1
vt 0 0.5
vt 0.5 1
vt 0 1
vt 0.5 0
vt 1 0.5
vt 1 0
vt 0.5 0.5
vt 0 0
vt 1 1
vt 0 0.5
vt 0.5 1
vt 0 1
vt 0.5 0
vt 1 0.5
vt 1 0
vt 0.5 0.5
vt 0 0
vt 1 1
vt 0 0.5
vt 0.5 1
vt 0 1
vt 0.5 0
vt 1 0.5
vt 1 0
vt 0.5 0.5
vt 0 0
vt 1 1
vt 0 0.5
vt 0.5 1
vt 0 1
vt 0.5 0
vt 1 0.5
vt 1 0
vt 0.5 0.5
vt 0 0
vt 1 1
vt 0 0.5
vt 0.5 1
vt 0 1
vt 0.5 0
vt 1 0.5
vt 1 0
vt 0.5 0.5
vt 0 0
vt 1 1
vt 0 0.5
vt 0.5 1
vt 0 1
vt 0.5 0
vt 1 0.5
vt 1 0
vt 0.5 0.5
vt 0 0
vt 1 1
vt 0 0.5
vt 0.5 1
vt 0 1
vt 0.5 0
vt 1 0.5
vt 1 0
vt 0.5 0.5
vt 0 0
vt 1 1
vt 0 0.5
vt 0.5 1
vt 0 1
vt 0.5 0
vt 1 0.5
vt 1 0
vt 0.5 0.5
vt 0 0
vt 1 1
vt 0 0.5
vt 0.5 1
vt 0 1
vt 0.5 0
vt 1 0.5
vt 1 0
vt 0.5 0.5
vt 0 0
vt 1 1
vt 0 0.5
vt 0.5 1
vt 0 1
vt 0.5 0
vt 1 0.5
vt 1 0
vt 0.5 0.5
vt 0 0
vt 1 1
vt 0 0.5
vt 0.5 1
vt 0 1
vt 0.5 0
vt 1 0.5
vt 1 0
vt 0.5 0.5
vt 0 0
vt 1 1
vt 0 0.5
vt 0.5 1
vt 0 1
vt 0.5 0
vt 1 0.5
vt 1 0
vt 0.5 0.5
vt 0 0
vt 1 1
vt 0 0.5
vt 0.5 1
vt 0 1
vt 0.5 0
vt 1 0.5
vt 1 0
vt 0.5 0.5
vt 0 0
vt 1 1
vt 0 0.5
vt 0.5 1
vt 0 1
vt 0.5 0
vt 1 0.5
vt 1 0
vt 0.5 0.5
vt 0 0
vt 1 1
vt 0 0.5
vt 0.5 1
vt 0 1

vt2 0 0
vt2 0 0
vt2 0 0
vt2 0 0
vt2 0 0
vt2 0 0
vt2 0 0
vt2 0 0
vt2 0 0
vt2 0 0
vt2 0 0
vt2 0 0
vt2 0 0
vt2 0 0
vt2 0 0
vt2 0 0
vt2 0 0
vt2 0 0
vt2 0 0
vt2 0 0
vt2 0 0
vt2 0 0
vt2 0 0
vt2 0 0
vt2 0 0
vt2 0 0
vt2 0 0
vt2 0 0
vt2 0 0
vt2 0 0
vt2 0 0
vt2 0 0
vt2 0 0
vt2 0 0
vt2 0 0
vt2 0 0
vt2 0 0
vt2 0 0
vt2 0 0
vt2 0 0
vt2 0 0
vt2 0 0
vt2 0 0
vt2 0 0
vt2 0 0
vt2 0 0
vt2 0 0
vt2 0 0
vt2 0 0
vt2 0 0
vt2 0 0
vt2 0 0
vt2 0 0
vt2 0 0
vt2 0 0
vt2 0 0
vt2 0 0
vt2 0 0
vt2 0 0
vt2 0 0
vt2 0 0
vt2 0 0
vt2 0 0
vt2 0 0
vt2 0 0
vt2 0 0
vt2 0 0
vt2 0 0
vt2 0 0
vt2 0 0
vt2 0 0
vt2 0 0
vt2 0 0
vt2 0 0
vt2 0 0
vt2 0 0
vt2 0 0
vt2 0 0
vt2 0 0
vt2 0 0
vt2 0 0
vt2 0 0
vt2 0 0
vt2 0 0
vt2 0 0
vt2 0 0
vt2 0 0
vt2 0 0
vt2 0 0
vt2 0 0
vt2 0 0
vt2 0 0
vt2 0 0
vt2 0 0
vt2 0 0
vt2 0 0
vt2 0 0
vt2 0 0
vt2 0 0
vt2 0 0
vt2 0 0
vt2 0 0
vt2 0 0
vt2 0 0
vt2 0 0
vt2 0 0
vt2 0 0
vt2 0 0
vt2 0 0
vt2 0 0
vt2 0 0
vt2 0 0
vt2 0 0
vt2 0 0
vt2 0 0
vt2 0 0
vt2 0 0
vt2 0 0
vt2 0 0
vt2 0 0
vt2 0 0
vt2 0 0
vt2 0 0
vt2 0 0
vt2 0 0
vt2 0 0
vt2 0 0
vt2 0 0
vt2 0 0
vt2 0 0
vt2 0 0
vt2 0 0
vt2 0 0
vt2 0 0
vt2 0 0

vt2 0 0
vt2 0 0
vt2 0 0
vt2 0 0
vt2 0 0
vt2 0 0
vt2 0 0
vt2 0 0
vt2 0 0
vt2 0 0
vt2 0 0
vt2 0 0
vt2 0 0
vt2 0 0
vt2 0 0
vt2 0 0
vt2 0 0
vt2 0 0
vt2 0 0
vt2 0 0
vt2 0 0
vt2 0 0
vt2 0 0
vt2 0 0
vt2 0 0
vt2 0 0
vt2 0 0
vt2 0 0
vt2 0 0
vt2 0 0
vt2 0 0
vt2 0 0
vt2 0 0
vt2 0 0
vt2 0 0
vt2 0 0
vt2 0 0
vt2 0 0
vt2 0 0
vt2 0 0
vt2 0 0
vt2 0 0
vt2 0 0
vt2 0 0
vt2 0 0
vt2 0 0
vt2 0 0
vt2 0 0
vt2 0 0
vt2 0 0
vt2 0 0
vt2 0 0
vt2 0 0
vt2 0 0
vt2 0 0
vt2 0 0
vt2 0 0
vt2 0 0
vt2 0 0
vt2 0 0
vt2 0 0
vt2 0 0
vt2 0 0
vt2 0 0
vt2 0 0
vt2 0 0
vt2 0 0
vt2 0 0
vt2 0 0
vt2 0 0
vt2 0 0
vt2 0 0
vt2 0 0
vt2 0 0
vt2 0 0
vt2 0 0
vt2 0 0
vt2 0 0
vt2 0 0
vt2 0 0
vt2 0 0
vt2 0 0
vt2 0 0
vt2 0 0
vt2 0 0
vt2 0 0
vt2 0 0
vt2 0 0
vt2 0 0
vt2 0 0
vt2 0 0
vt2 0 0
vt2 0 0
vt2 0 0
vt2 0 0
vt2 0 0
vt2 0 0
vt2 0 0
vt2 0 0
vt2 0 0
vt2 0 0
vt2 0 0
vt2 0 0
vt2 0 0
vt2 0 0
vt2 0 0
vt2 0 0
vt2 0 0
vt2 0 0
vt2 0 0
vt2 0 0
vt2 0 0
vt2 0 0
vt2 0 0
vt2 0 0
vt2 0 0
vt2 0 0
vt2 0 0
vt2 0 0
vt2 0 0
vt2 0 0
vt2 0 0
vt2 0 0
vt2 0 0
vt2 0 0
vt2 0 0
vt2 0 0
vt2 0 0
vt2 0 0
vt2 0 0
vt2 0 0
vt2 0 0
vt2 0 0
vt2 0 0
vt2 0 0

vc 1 1 1 1
vc 1 1 1 1
vc 1 1 1 1
vc 1 1 1 1
vc 1 1 1 1
vc 1 1 1 1
vc 1 1 1 1
vc 1 1 1 1
vc 1 1 1 1
vc 1 1 1 1
vc 1 1 1 1
vc 1 1 1 1
vc 1 1 1 1
vc 1 1 1 1
vc 1 1 1 1
vc 1 1 1 1
vc 1 1 1 1
vc 1 1 1 1
vc 1 1 1 1
vc 1 1 1 1
vc 1 1 1 1
vc 1 1 1 1
vc 1 1 1 1
vc 1 1 1 1
vc 1 1 1 1
vc 1 1 1 1
vc 1 1 1 1
vc 1 1 1 1
vc 1 1 1 1
vc 1 1 1 1
vc 1 1 1 1
vc 1 1 1 1
vc 1 1 1 1
vc 1 1 1 1
vc 1 1 1 1
vc 1 1 1 1
vc 1 1 1 1
vc 1 1 1 1
vc 1 1 1 1
vc 1 1 1 1
vc 1 1 1 1
vc 1 1 1 1
vc 1 1 1 1
vc 1 1 1 1
vc 1 1 1 1
vc 1 1 1 1
vc 1 1 1 1
vc 1 1 1 1
vc 1 1 1 1
vc 1 1 1 1
vc 1 1 1 1
vc 1 1 1 1
vc 1 1 1 1
vc 1 1 1 1
vc 1 1 1 1
vc 1 1 1 1
vc 1 1 1 1
vc 1 1 1 1
vc 1 1 1 1
vc 1 1 1 1
vc 1 1 1 1
vc 1 1 1 1
vc 1 1 1 1
vc 1 1 1 1
vc 1 1 1 1
vc 1 1 1 1
vc 1 1 1 1
vc 1 1 1 1
vc 1 1 1 1
vc 1 1 1 1
vc 1 1 1 1
vc 1 1 1 1
vc 1 1 1 1
vc 1 1 1 1
vc 1 1 1 1
vc 1 1 1 1
vc 1 1 1 1
vc 1 1 1 1
vc 1 1 1 1
vc 1 1 1 1
vc 1 1 1 1
vc 1 1 1 1
vc 1 1 1 1
vc 1 1 1 1
vc 1 1 1 1
vc 1 1 1 1
vc 1 1 1 1
vc 1 1 1 1
vc 1 1 1 1
vc 1 1 1 1
vc 1 1 1 1
vc 1 1 1 1
vc 1 1 1 1
vc 1 1 1 1
vc 1 1 1 1
vc 1 1 1 1
vc 1 1 1 1
vc 1 1 1 1
vc 1 1 1 1
vc 1 1 1 1
vc 1 1 1 1
vc 1 1 1 1
vc 1 1 1 1
vc 1 1 1 1
vc 1 1 1 1
vc 1 1 1 1
vc 1 1 1 1
vc 1 1 1 1
vc 1 1 1 1
vc 1 1 1 1
vc 1 1 1 1
vc 1 1 1 1
vc 1 1 1 1
vc 1 1 1 1
vc 1 1 1 1
vc 1 1 1 1
vc 1 1 1 1
vc 1 1 1 1
vc 1 1 1 1
vc 1 1 1 1
vc 1 1 1 1
vc 1 1 1 1
vc 1 1 1 1
vc 1 1 1 1
vc 1 1 1 1
vc 1 1 1 1
vc 1 1 1 1
vc 1 1 1 1
vc 1 1 1 1
vc 1 1 1 1
vc 1 1 1 1
vc 1 1 1 1
vc 1 1 1 1
vc 1 1 1 1
vc 1 1 1 1

usemtl Default-Diffuse
usemap Default-Diffuse
f 3/3/3 2/2/2 1/1/1
f 2/2/2 4/4/4 1/1/1
f 1/1/1 4/4/4 5/5/5
f 2/2/2 6/6/6 4/4/4
f 4/4/4 7/7/7 5/5/5
f 6/6/6 8/8/8 4/4/4
f 4/4/4 8/8/8 7/7/7
f 8/8/8 9/9/9 7/7/7
f 12/12/12 11/11/11 10/10/10
f 11/11/11 13/13/13 10/10/10
f 10/10/10 13/13/13 14/14/14
f 11/11/11 15/15/15 13/13/13
f 13/13/13 16/16/16 14/14/14
f 15/15/15 17/17/17 13/13/13
f 13/13/13 17/17/17 16/16/16
f 17/17/17 18/18/18 16/16/16
f 21/21/21 20/20/20 19/19/19
f 20/20/20 22/22/22 19/19/19
f 19/19/19 22/22/22 23/23/23
f 20/20/20 24/24/24 22/22/22
f 22/22/22 25/25/25 23/23/23
f 24/24/24 26/26/26 22/22/22
f 22/22/22 26/26/26 25/25/25
f 26/26/26 27/27/27 25/25/25
f 30/30/30 29/29/29 28/28/28
f 29/29/29 31/31/31 28/28/28
f 28/28/28 31/31/31 32/32/32
f 29/29/29 33/33/33 31/31/31
f 31/31/31 34/34/34 32/32/32
f 33/33/33 35/35/35 31/31/31
f 31/31/31 35/35/35 34/34/34
f 35/35/35 36/36/36 34/34/34
f 39/39/39 38/38/38 37/37/37
f 38/38/38 40/40/40 37/37/37
f 37/37/37 40/40/40 41/41/41
f 38/38/38 42/42/42 40/40/40
f 40/40/40 43/43/43 41/41/41
f 42/42/42 44/44/44 40/40/40
f 40/40/40 44/44/44 43/43/43
f 44/44/44 45/45/45 43/43/43
f 48/48/48 47/47/47 46/46/46
f 47/47/47 49/49/49 46/46/46
f 46/46/46 49/49/49 50/50/50
f 47/47/47 51/51/51 49/49/49
f 49/49/49 52/52/52 50/50/50
f 51/51/51 53/53/53 49/49/49
f 49/49/49 53/53/53 52/52/52
f 53/53/53 54/54/54 52/52/52
f 57/57/57 56/56/56 55/55/55
f 56/56/56 58/58/58 55/55/55
f 55/55/55 58/58/58 59/59/59
f 56/56/56 60/60/60 58/58/58
f 58/58/58 61/61/61 59/59/59
f 60/60/60 62/62/62 58/58/58
f 58/58/58 62/62/62 61/61/61
f 62/62/62 63/63/63 61/61/61
f 66/66/66 65/65/65 64/64/64
f 65/65/65 67/67/67 64/64/64
f 64/64/64 67/67/67 68/68/68
f 65/65/65 69/69/69 67/67/67
f 67/67/67 70/70/70 68/68/68
f 69/69/69 71/71/71 67/67/67
f 67/67/67 71/71/71 70/70/70
f 71/71/71 72/72/72 70/70/70
f 75/75/75 74/74/74 73/73/73
f 74/74/74 76/76/76 73/73/73
f 73/73/73 76/76/76 77/77/77
f 74/74/74 78/78/78 76/76/76
f 76/76/76 79/79/79 77/77/77
f 78/78/78 80/80/80 76/76/76
f 76/76/76 80/80/80 79/79/79
f 80/80/80 81/81/81 79/79/79
f 84/84/84 83/83/83 82/82/82
f 83/83/83 85/85/85 82/82/82
f 82/82/82 85/85/85 86/86/86
f 83/83/83 87/87/87 85/85/85
f 85/85/85 88/88/88 86/86/86
f 87/87/87 89/89/89 85/85/85
f 85/85/85 89/89/89 88/88/88
f 89/89/89 90/90/90 88/88/88
f 93/93/93 92/92/92 91/91/91
f 92/92/92 94/94/94 91/91/91
f 91/91/91 94/94/94 95/95/95
f 92/92/92 96/96/96 94/94/94
f 94/94/94 97/97/97 95/95/95
f 96/96/96 98/98/98 94/94/94
f 94/94/94 98/98/98 97/97/97
f 98/98/98 99/99/99 97/97/97
f 102/102/102 101/101/101 100/100/100
f 101/101/101 103/103/103 100/100/100
f 100/100/100 103/103/103 104/104/104
f 101/101/101 105/105/105 103/103/103
f 103/103/103 106/106/106 104/104/104
f 105/105/105 107/107/107 103/103/103
f 103/103/103 107/107/107 106/106/106
f 107/107/107 108/108/108 106/106/106
f 111/111/111 110/110/110 109/109/109
f 110/110/110 112/112/112 109/109/109
f 109/109/109 112/112/112 113/113/113
f 110/110/110 114/114/114 112/112/112
f 112/112/112 115/115/115 113/113/113
f 114/114/114 116/116/116 112/112/112
f 112/112/112 116/116/116 115/115/115
f 116/116/116 117/117/117 115/115/115
f 120/120/120 119/119/119 118/118/118
f 119/119/119 121/121/121 118/118/118
f 118/118/118 121/121/121 122/122/122
f 119/119/119 123/123/123 121/121/121
f 121/121/121 124/124/124 122/122/122
f 123/123/123 125/125/125 121/121/121
f 121/121/121 125/125/125 124/124/124
f 125/125/125 126/126/126 124/124/124
f 129/129/129 128/128/128 127/127/127
f 128/128/128 130/130/130 127/127/127
f 127/127/127 130/130/130 131/131/131
f 128/128/128 132/132/132 130/130/130
f 130/130/130 133/133/133 131/131/131
f 132/132/132 134/134/134 130/130/130
f 130/130/130 134/134/134 133/133/133
f 134/134/134 135/135/135 133/133/133
