g Custom Mesh - Baked
v 194.7452 65.29202 -636.7521
v 196.385 65.60637 -627.6451
v 192.5284 65.78878 -628.6906
v 198.5902 65.10141 -635.6661
v 196.9702 64.79633 -644.6419
v 200.2416 65.42396 -626.5995
v 200.81 64.5956 -643.5395
v 202.4353 64.9108 -634.5801
v 204.6499 64.39488 -642.4371
v 199.1862 64.30279 -652.4999
v 200.81 64.5956 -643.5395
v 196.9702 64.79633 -644.6419
v 203.0298 64.08979 -651.4128
v 201.3813 63.81145 -660.4814
v 204.6499 64.39488 -642.4371
v 205.235 63.58483 -659.4339
v 206.8733 63.87679 -650.3258
v 209.0888 63.3582 -658.3864
v 203.5341 63.32336 -668.8065
v 205.235 63.58483 -659.4339
v 201.3813 63.81145 -660.4814
v 207.404 63.08199 -667.8241
v 205.6409 62.83805 -677.5591
v 209.0888 63.3582 -658.3864
v 209.5295 62.5817 -676.6572
v 211.274 62.84061 -666.8417
v 213.418 62.32534 -675.7554
v 207.6964 62.35782 -687.0242
v 209.5295 62.5817 -676.6572
v 205.6409 62.83805 -677.5591
v 211.6004 62.09805 -686.1929
v 209.7248 61.89183 -696.9925
v 213.418 62.32534 -675.7554
v 213.6387 61.6298 -696.2095
v 215.5045 61.83829 -685.3616
v 217.5525 61.36777 -695.4265
v 211.7216 61.42686 -707.3519
v 213.6387 61.6298 -696.2095
v 209.7248 61.89183 -696.9925
v 215.6406 61.16366 -706.5952
v 213.6962 60.94918 -717.8361
v 217.5525 61.36777 -695.4265
v 217.6173 60.68553 -717.0906
v 219.5595 60.90046 -705.8385
v 221.5383 60.42188 -716.3452
v 215.6473 60.43853 -728.2437
v 217.6173 60.68553 -717.0906
v 213.6962 60.94918 -717.8361
v 219.567 60.1753 -727.4911
v 217.5836 59.88773 -738.4052
v 221.5383 60.42188 -716.3452
v 221.499 59.6257 -737.6301
v 223.4868 59.91208 -726.7386
v 225.4144 59.36366 -736.8549
v 219.4664 59.24425 -748.33
v 221.499 59.6257 -737.6301
v 217.5836 59.88773 -738.4052
v 223.3872 58.9906 -747.5795
v 221.3098 58.5346 -758.2832
v 225.4144 59.36366 -736.8549
v 225.2333 58.29013 -757.544
v 227.308 58.73696 -746.829
v 229.1568 58.04566 -756.8048
v 223.1294 57.7922 -768.1584
v 225.2333 58.29013 -757.544
v 221.3098 58.5346 -758.2832
v 227.0525 57.55755 -767.4136
v 224.9509 57.06351 -777.8806
v 229.1568 58.04566 -756.8048
v 228.8707 56.83899 -777.1161
v 230.9755 57.3229 -766.6689
v 232.7906 56.61447 -776.3517
v 226.801 56.40179 -787.3002
v 228.8707 56.83899 -777.1161
v 224.9509 57.06351 -777.8806
v 230.7135 56.1876 -786.4961
v 228.6958 55.83361 -796.3893
v 232.7906 56.61448 -776.3517
v 232.5964 55.62962 -795.5268
v 234.6259 55.9734 -785.692
v 236.497 55.42563 -794.6642
v 230.63 55.37128 -804.7812
v 232.5964 55.62962 -795.5268
v 228.6958 55.83361 -796.3893
v 234.5139 55.20323 -803.8392
v 232.5703 54.9865 -812.5919
v 236.497 55.42563 -794.6642
v 236.4404 54.85529 -811.5891
v 238.3978 55.03518 -802.8973
v 240.3104 54.72408 -810.5862
v 234.5269 54.66934 -820.044
v 236.4404 54.85529 -811.5891
v 232.5703 54.9865 -812.5919
v 238.3914 54.5745 -819.0162
v 236.5052 54.3825 -827.5092
v 240.3104 54.72408 -810.5862
v 240.3727 54.32272 -826.4897
v 242.256 54.47966 -817.9885
v 244.2401 54.26293 -825.4703
v 238.5254 54.10356 -835.3761
v 240.3727 54.32272 -826.4897
v 236.5052 54.3825 -827.5092
v 242.4048 54.0763 -834.4019
v 240.5928 53.80651 -843.8777
v 244.2401 54.26293 -825.4703
v 244.4884 53.80947 -842.9697
v 246.2843 54.04904 -833.4277
v 248.3839 53.81242 -842.0616
v 242.7514 53.53478 -853.3344
v 244.4884 53.80947 -842.9697
v 240.5928 53.80651 -843.8777
v 246.6538 53.52542 -852.4559
v 244.9737 53.2683 -863.3274
v 248.3839 53.81242 -842.0616
v 248.8804 53.24781 -862.4688
v 250.5561 53.51606 -851.5775
v 252.787 53.22733 -861.6101
v 247.249 53.00634 -873.7686
v 248.8804 53.24781 -862.4688
v 244.9737 53.2683 -863.3274
v 251.1578 52.97557 -872.9201
v 249.5462 52.74611 -884.3917
v 252.787 53.22733 -861.6101
v 253.4557 52.70548 -883.5469
v 255.0667 52.94481 -872.0717
v 257.3653 52.66486 -882.7021
v 251.845 52.48566 -895.0226
v 253.4557 52.70548 -883.5469
v 249.5462 52.74611 -884.3917
v 255.7536 52.43539 -894.1738
v 254.125 52.22311 -905.4847
v 257.3653 52.66486 -882.7021
v 258.0311 52.16314 -904.6251
v 259.6622 52.38512 -893.3249
v 261.9372 52.10316 -903.7656

vn 0.06245123 0.9969817 -0.04612174
vn 0.05952088 0.997186 -0.0455763
vn 0.05952088 0.997186 -0.0455763
vn 0.06245123 0.9969817 -0.04612174
vn 0.06526927 0.9968138 -0.04584842
vn 0.05952088 0.997186 -0.0455763
vn 0.06526927 0.9968138 -0.04584842
vn 0.06245123 0.9969817 -0.04612174
vn 0.06526927 0.9968138 -0.04584842
vn 0.06784675 0.9966986 -0.04459735
vn 0.06526927 0.9968138 -0.04584842
vn 0.06526927 0.9968138 -0.04584842
vn 0.06784675 0.9966986 -0.04459735
vn 0.07020736 0.9966192 -0.04267532
vn 0.06526927 0.9968138 -0.04584842
vn 0.07020736 0.9966192 -0.04267532
vn 0.06784675 0.9966986 -0.04459735
vn 0.07020736 0.9966192 -0.04267532
vn 0.07233646 0.9965737 -0.0401032
vn 0.07020736 0.9966192 -0.04267532
vn 0.07020736 0.9966192 -0.04267532
vn 0.07233646 0.9965737 -0.0401032
vn 0.07432745 0.9965391 -0.03721702
vn 0.07020736 0.9966192 -0.04267532
vn 0.07432745 0.9965391 -0.03721702
vn 0.07233646 0.9965737 -0.0401032
vn 0.07432745 0.9965391 -0.03721702
vn 0.07332539 0.9967657 -0.03288683
vn 0.07432745 0.9965391 -0.03721702
vn 0.07432745 0.9965391 -0.03721702
vn 0.07332539 0.9967657 -0.03288683
vn 0.0728915 0.9968656 -0.03075291
vn 0.07432745 0.9965391 -0.03721702
vn 0.0728915 0.9968656 -0.03075291
vn 0.07332539 0.9967657 -0.03288683
vn 0.0728915 0.9968656 -0.03075291
vn 0.07292773 0.9968567 -0.03095326
vn 0.0728915 0.9968656 -0.03075291
vn 0.0728915 0.9968656 -0.03075291
vn 0.07292773 0.9968567 -0.03095326
vn 0.07327975 0.9967682 -0.03291063
vn 0.0728915 0.9968656 -0.03075291
vn 0.07327975 0.9967682 -0.03291063
vn 0.07292773 0.9968567 -0.03095326
vn 0.07327975 0.9967682 -0.03291063
vn 0.07406309 0.9965596 -0.03719554
vn 0.07327975 0.9967682 -0.03291063
vn 0.07327975 0.9967682 -0.03291063
vn 0.07406309 0.9965596 -0.03719554
vn 0.07531111 0.9962044 -0.0436486
vn 0.07327975 0.9967682 -0.03291063
vn 0.07531111 0.9962044 -0.0436486
vn 0.07406309 0.9965596 -0.03719554
vn 0.07531111 0.9962044 -0.0436486
vn 0.07461136 0.9957901 -0.05324374
vn 0.07531111 0.9962044 -0.0436486
vn 0.07531111 0.9962044 -0.0436486
vn 0.07461136 0.9957901 -0.05324374
vn 0.07320506 0.9955524 -0.05930087
vn 0.07531111 0.9962044 -0.0436486
vn 0.07320506 0.9955524 -0.05930087
vn 0.07461136 0.9957901 -0.05324374
vn 0.07320506 0.9955524 -0.05930087
vn 0.07113811 0.9955965 -0.06104741
vn 0.07320506 0.9955524 -0.05930087
vn 0.07320506 0.9955524 -0.05930087
vn 0.07113811 0.9955965 -0.06104741
vn 0.06859975 0.9958822 -0.0592664
vn 0.07320506 0.9955524 -0.05930087
vn 0.06859975 0.9958822 -0.0592664
vn 0.07113811 0.9955965 -0.06104741
vn 0.06859975 0.9958822 -0.0592664
vn 0.06537763 0.9964694 -0.05267311
vn 0.06859975 0.9958822 -0.0592664
vn 0.06859975 0.9958822 -0.0592664
vn 0.06537763 0.9964694 -0.05267311
vn 0.06136763 0.9972451 -0.04166908
vn 0.06859975 0.9958822 -0.0592664
vn 0.06136763 0.9972451 -0.04166908
vn 0.06537763 0.9964694 -0.05267311
vn 0.06136763 0.9972451 -0.04166908
vn 0.05178045 0.9980292 -0.0354468
vn 0.06136763 0.9972451 -0.04166908
vn 0.06136763 0.9972451 -0.04166908
vn 0.05178045 0.9980292 -0.0354468
vn 0.04169042 0.9986733 -0.03022505
vn 0.06136763 0.9972451 -0.04166908
vn 0.04169042 0.9986733 -0.03022505
vn 0.05178045 0.9980292 -0.0354468
vn 0.04169042 0.9986733 -0.03022505
vn 0.03171895 0.9991301 -0.02707279
vn 0.04169042 0.9986733 -0.03022505
vn 0.04169042 0.9986733 -0.03022505
vn 0.03171895 0.9991301 -0.02707279
vn 0.02230448 0.999413 -0.02600536
vn 0.04169042 0.9986733 -0.03022505
vn 0.02230448 0.999413 -0.02600536
vn 0.03171895 0.9991301 -0.02707279
vn 0.02230448 0.999413 -0.02600536
vn 0.01390568 0.9995277 -0.02740839
vn 0.02230448 0.999413 -0.02600536
vn 0.02230448 0.999413 -0.02600536
vn 0.01390568 0.9995277 -0.02740839
vn 0.006303431 0.9995213 -0.03028917
vn 0.02230448 0.999413 -0.02600536
vn 0.006303431 0.9995213 -0.03028917
vn 0.01390568 0.9995277 -0.02740839
vn 0.006303431 0.9995213 -0.03028917
vn 0.00843546 0.9996047 -0.02681889
vn 0.006303431 0.9995213 -0.03028917
vn 0.006303431 0.9995213 -0.03028917
vn 0.00843546 0.9996047 -0.02681889
vn 0.01059761 0.999647 -0.02436477
vn 0.006303431 0.9995213 -0.03028917
vn 0.01059761 0.999647 -0.02436477
vn 0.00843546 0.9996047 -0.02681889
vn 0.01059761 0.999647 -0.02436477
vn 0.01283116 0.9996563 -0.02286102
vn 0.01059761 0.999647 -0.02436477
vn 0.01059761 0.999647 -0.02436477
vn 0.01283116 0.9996563 -0.02286102
vn 0.01513896 0.9996436 -0.02198529
vn 0.01059761 0.999647 -0.02436477
vn 0.01513896 0.9996436 -0.02198529
vn 0.01283116 0.9996563 -0.02286102
vn 0.01513896 0.9996436 -0.02198529
vn 0.01759649 0.9996068 -0.02182631
vn 0.01513896 0.9996436 -0.02198529
vn 0.01513896 0.9996436 -0.02198529
vn 0.01759649 0.9996068 -0.02182631
vn 0.02024221 0.9995477 -0.02224373
vn 0.01513896 0.9996436 -0.02198529
vn 0.02024221 0.9995477 -0.02224373
vn 0.01759649 0.9996068 -0.02182631
vn 0.02024221 0.9995477 -0.02224373

vt 0.5 0
vt 1 0.5
vt 1 0
vt 0.5 0.5
vt 0 0
vt 1 1
vt 0 0.5
vt 0.5 1
vt 0 1
vt 0.5 0
vt 1 0.5
vt 1 0
vt 0.5 0.5
vt 0 0
vt 1 1
vt 0 0.5
vt 0.5 1
vt 0 1
vt 0.5 0
vt 1 0.5
vt 1 0
vt 0.5 0.5
vt 0 0
vt 1 1
vt 0 0.5
vt 0.5 1
vt 0 1
vt 0.5 0
vt 1 0.5
vt 1 0
vt 0.5 0.5
vt 0 0
vt 1 1
vt 0 0.5
vt 0.5 1
vt 0 1
vt 0.5 0
vt 1 0.5
vt 1 0
vt 0.5 0.5
vt 0 0
vt 1 1
vt 0 0.5
vt 0.5 1
vt 0 1
vt 0.5 0
vt 1 0.5
vt 1 0
vt 0.5 0.5
vt 0 0
vt 1 1
vt 0 0.5
vt 0.5 1
vt 0 1
vt 0.5 0
vt 1 0.5
vt 1 0
vt 0.5 0.5
vt 0 0
vt 1 1
vt 0 0.5
vt 0.5 1
vt 0 1
vt 0.5 0
vt 1 0.5
vt 1 0
vt 0.5 0.5
vt 0 0
vt 1 1
vt 0 0.5
vt 0.5 1
vt 0 1
vt 0.5 0
vt 1 0.5
vt 1 0
vt 0.5 0.5
vt 0 0
vt 1 1
vt 0 0.5
vt 0.5 1
vt 0 1
vt 0.5 0
vt 1 0.5
vt 1 0
vt 0.5 0.5
vt 0 0
vt 1 1
vt 0 0.5
vt 0.5 1
vt 0 1
vt 0.5 0
vt 1 0.5
vt 1 0
vt 0.5 0.5
vt 0 0
vt 1 1
vt 0 0.5
vt 0.5 1
vt 0 1
vt 0.5 0
vt 1 0.5
vt 1 0
vt 0.5 0.5
vt 0 0
vt 1 1
vt 0 0.5
vt 0.5 1
vt 0 1
vt 0.5 0
vt 1 0.5
vt 1 0
vt 0.5 0.5
vt 0 0
vt 1 1
vt 0 0.5
vt 0.5 1
vt 0 1
vt 0.5 0
vt 1 0.5
vt 1 0
vt 0.5 0.5
vt 0 0
vt 1 1
vt 0 0.5
vt 0.5 1
vt 0 1
vt 0.5 0
vt 1 0.5
vt 1 0
vt 0.5 0.5
vt 0 0
vt 1 1
vt 0 0.5
vt 0.5 1
vt 0 1

vt2 0 0
vt2 0 0
vt2 0 0
vt2 0 0
vt2 0 0
vt2 0 0
vt2 0 0
vt2 0 0
vt2 0 0
vt2 0 0
vt2 0 0
vt2 0 0
vt2 0 0
vt2 0 0
vt2 0 0
vt2 0 0
vt2 0 0
vt2 0 0
vt2 0 0
vt2 0 0
vt2 0 0
vt2 0 0
vt2 0 0
vt2 0 0
vt2 0 0
vt2 0 0
vt2 0 0
vt2 0 0
vt2 0 0
vt2 0 0
vt2 0 0
vt2 0 0
vt2 0 0
vt2 0 0
vt2 0 0
vt2 0 0
vt2 0 0
vt2 0 0
vt2 0 0
vt2 0 0
vt2 0 0
vt2 0 0
vt2 0 0
vt2 0 0
vt2 0 0
vt2 0 0
vt2 0 0
vt2 0 0
vt2 0 0
vt2 0 0
vt2 0 0
vt2 0 0
vt2 0 0
vt2 0 0
vt2 0 0
vt2 0 0
vt2 0 0
vt2 0 0
vt2 0 0
vt2 0 0
vt2 0 0
vt2 0 0
vt2 0 0
vt2 0 0
vt2 0 0
vt2 0 0
vt2 0 0
vt2 0 0
vt2 0 0
vt2 0 0
vt2 0 0
vt2 0 0
vt2 0 0
vt2 0 0
vt2 0 0
vt2 0 0
vt2 0 0
vt2 0 0
vt2 0 0
vt2 0 0
vt2 0 0
vt2 0 0
vt2 0 0
vt2 0 0
vt2 0 0
vt2 0 0
vt2 0 0
vt2 0 0
vt2 0 0
vt2 0 0
vt2 0 0
vt2 0 0
vt2 0 0
vt2 0 0
vt2 0 0
vt2 0 0
vt2 0 0
vt2 0 0
vt2 0 0
vt2 0 0
vt2 0 0
vt2 0 0
vt2 0 0
vt2 0 0
vt2 0 0
vt2 0 0
vt2 0 0
vt2 0 0
vt2 0 0
vt2 0 0
vt2 0 0
vt2 0 0
vt2 0 0
vt2 0 0
vt2 0 0
vt2 0 0
vt2 0 0
vt2 0 0
vt2 0 0
vt2 0 0
vt2 0 0
vt2 0 0
vt2 0 0
vt2 0 0
vt2 0 0
vt2 0 0
vt2 0 0
vt2 0 0
vt2 0 0
vt2 0 0
vt2 0 0
vt2 0 0
vt2 0 0
vt2 0 0
vt2 0 0

vt2 0 0
vt2 0 0
vt2 0 0
vt2 0 0
vt2 0 0
vt2 0 0
vt2 0 0
vt2 0 0
vt2 0 0
vt2 0 0
vt2 0 0
vt2 0 0
vt2 0 0
vt2 0 0
vt2 0 0
vt2 0 0
vt2 0 0
vt2 0 0
vt2 0 0
vt2 0 0
vt2 0 0
vt2 0 0
vt2 0 0
vt2 0 0
vt2 0 0
vt2 0 0
vt2 0 0
vt2 0 0
vt2 0 0
vt2 0 0
vt2 0 0
vt2 0 0
vt2 0 0
vt2 0 0
vt2 0 0
vt2 0 0
vt2 0 0
vt2 0 0
vt2 0 0
vt2 0 0
vt2 0 0
vt2 0 0
vt2 0 0
vt2 0 0
vt2 0 0
vt2 0 0
vt2 0 0
vt2 0 0
vt2 0 0
vt2 0 0
vt2 0 0
vt2 0 0
vt2 0 0
vt2 0 0
vt2 0 0
vt2 0 0
vt2 0 0
vt2 0 0
vt2 0 0
vt2 0 0
vt2 0 0
vt2 0 0
vt2 0 0
vt2 0 0
vt2 0 0
vt2 0 0
vt2 0 0
vt2 0 0
vt2 0 0
vt2 0 0
vt2 0 0
vt2 0 0
vt2 0 0
vt2 0 0
vt2 0 0
vt2 0 0
vt2 0 0
vt2 0 0
vt2 0 0
vt2 0 0
vt2 0 0
vt2 0 0
vt2 0 0
vt2 0 0
vt2 0 0
vt2 0 0
vt2 0 0
vt2 0 0
vt2 0 0
vt2 0 0
vt2 0 0
vt2 0 0
vt2 0 0
vt2 0 0
vt2 0 0
vt2 0 0
vt2 0 0
vt2 0 0
vt2 0 0
vt2 0 0
vt2 0 0
vt2 0 0
vt2 0 0
vt2 0 0
vt2 0 0
vt2 0 0
vt2 0 0
vt2 0 0
vt2 0 0
vt2 0 0
vt2 0 0
vt2 0 0
vt2 0 0
vt2 0 0
vt2 0 0
vt2 0 0
vt2 0 0
vt2 0 0
vt2 0 0
vt2 0 0
vt2 0 0
vt2 0 0
vt2 0 0
vt2 0 0
vt2 0 0
vt2 0 0
vt2 0 0
vt2 0 0
vt2 0 0
vt2 0 0
vt2 0 0
vt2 0 0
vt2 0 0
vt2 0 0
vt2 0 0

vc 1 1 1 1
vc 1 1 1 1
vc 1 1 1 1
vc 1 1 1 1
vc 1 1 1 1
vc 1 1 1 1
vc 1 1 1 1
vc 1 1 1 1
vc 1 1 1 1
vc 1 1 1 1
vc 1 1 1 1
vc 1 1 1 1
vc 1 1 1 1
vc 1 1 1 1
vc 1 1 1 1
vc 1 1 1 1
vc 1 1 1 1
vc 1 1 1 1
vc 1 1 1 1
vc 1 1 1 1
vc 1 1 1 1
vc 1 1 1 1
vc 1 1 1 1
vc 1 1 1 1
vc 1 1 1 1
vc 1 1 1 1
vc 1 1 1 1
vc 1 1 1 1
vc 1 1 1 1
vc 1 1 1 1
vc 1 1 1 1
vc 1 1 1 1
vc 1 1 1 1
vc 1 1 1 1
vc 1 1 1 1
vc 1 1 1 1
vc 1 1 1 1
vc 1 1 1 1
vc 1 1 1 1
vc 1 1 1 1
vc 1 1 1 1
vc 1 1 1 1
vc 1 1 1 1
vc 1 1 1 1
vc 1 1 1 1
vc 1 1 1 1
vc 1 1 1 1
vc 1 1 1 1
vc 1 1 1 1
vc 1 1 1 1
vc 1 1 1 1
vc 1 1 1 1
vc 1 1 1 1
vc 1 1 1 1
vc 1 1 1 1
vc 1 1 1 1
vc 1 1 1 1
vc 1 1 1 1
vc 1 1 1 1
vc 1 1 1 1
vc 1 1 1 1
vc 1 1 1 1
vc 1 1 1 1
vc 1 1 1 1
vc 1 1 1 1
vc 1 1 1 1
vc 1 1 1 1
vc 1 1 1 1
vc 1 1 1 1
vc 1 1 1 1
vc 1 1 1 1
vc 1 1 1 1
vc 1 1 1 1
vc 1 1 1 1
vc 1 1 1 1
vc 1 1 1 1
vc 1 1 1 1
vc 1 1 1 1
vc 1 1 1 1
vc 1 1 1 1
vc 1 1 1 1
vc 1 1 1 1
vc 1 1 1 1
vc 1 1 1 1
vc 1 1 1 1
vc 1 1 1 1
vc 1 1 1 1
vc 1 1 1 1
vc 1 1 1 1
vc 1 1 1 1
vc 1 1 1 1
vc 1 1 1 1
vc 1 1 1 1
vc 1 1 1 1
vc 1 1 1 1
vc 1 1 1 1
vc 1 1 1 1
vc 1 1 1 1
vc 1 1 1 1
vc 1 1 1 1
vc 1 1 1 1
vc 1 1 1 1
vc 1 1 1 1
vc 1 1 1 1
vc 1 1 1 1
vc 1 1 1 1
vc 1 1 1 1
vc 1 1 1 1
vc 1 1 1 1
vc 1 1 1 1
vc 1 1 1 1
vc 1 1 1 1
vc 1 1 1 1
vc 1 1 1 1
vc 1 1 1 1
vc 1 1 1 1
vc 1 1 1 1
vc 1 1 1 1
vc 1 1 1 1
vc 1 1 1 1
vc 1 1 1 1
vc 1 1 1 1
vc 1 1 1 1
vc 1 1 1 1
vc 1 1 1 1
vc 1 1 1 1
vc 1 1 1 1
vc 1 1 1 1
vc 1 1 1 1
vc 1 1 1 1
vc 1 1 1 1
vc 1 1 1 1
vc 1 1 1 1
vc 1 1 1 1
vc 1 1 1 1

usemtl Default-Diffuse
usemap Default-Diffuse
f 3/3/3 2/2/2 1/1/1
f 2/2/2 4/4/4 1/1/1
f 1/1/1 4/4/4 5/5/5
f 2/2/2 6/6/6 4/4/4
f 4/4/4 7/7/7 5/5/5
f 6/6/6 8/8/8 4/4/4
f 4/4/4 8/8/8 7/7/7
f 8/8/8 9/9/9 7/7/7
f 12/12/12 11/11/11 10/10/10
f 11/11/11 13/13/13 10/10/10
f 10/10/10 13/13/13 14/14/14
f 11/11/11 15/15/15 13/13/13
f 13/13/13 16/16/16 14/14/14
f 15/15/15 17/17/17 13/13/13
f 13/13/13 17/17/17 16/16/16
f 17/17/17 18/18/18 16/16/16
f 21/21/21 20/20/20 19/19/19
f 20/20/20 22/22/22 19/19/19
f 19/19/19 22/22/22 23/23/23
f 20/20/20 24/24/24 22/22/22
f 22/22/22 25/25/25 23/23/23
f 24/24/24 26/26/26 22/22/22
f 22/22/22 26/26/26 25/25/25
f 26/26/26 27/27/27 25/25/25
f 30/30/30 29/29/29 28/28/28
f 29/29/29 31/31/31 28/28/28
f 28/28/28 31/31/31 32/32/32
f 29/29/29 33/33/33 31/31/31
f 31/31/31 34/34/34 32/32/32
f 33/33/33 35/35/35 31/31/31
f 31/31/31 35/35/35 34/34/34
f 35/35/35 36/36/36 34/34/34
f 39/39/39 38/38/38 37/37/37
f 38/38/38 40/40/40 37/37/37
f 37/37/37 40/40/40 41/41/41
f 38/38/38 42/42/42 40/40/40
f 40/40/40 43/43/43 41/41/41
f 42/42/42 44/44/44 40/40/40
f 40/40/40 44/44/44 43/43/43
f 44/44/44 45/45/45 43/43/43
f 48/48/48 47/47/47 46/46/46
f 47/47/47 49/49/49 46/46/46
f 46/46/46 49/49/49 50/50/50
f 47/47/47 51/51/51 49/49/49
f 49/49/49 52/52/52 50/50/50
f 51/51/51 53/53/53 49/49/49
f 49/49/49 53/53/53 52/52/52
f 53/53/53 54/54/54 52/52/52
f 57/57/57 56/56/56 55/55/55
f 56/56/56 58/58/58 55/55/55
f 55/55/55 58/58/58 59/59/59
f 56/56/56 60/60/60 58/58/58
f 58/58/58 61/61/61 59/59/59
f 60/60/60 62/62/62 58/58/58
f 58/58/58 62/62/62 61/61/61
f 62/62/62 63/63/63 61/61/61
f 66/66/66 65/65/65 64/64/64
f 65/65/65 67/67/67 64/64/64
f 64/64/64 67/67/67 68/68/68
f 65/65/65 69/69/69 67/67/67
f 67/67/67 70/70/70 68/68/68
f 69/69/69 71/71/71 67/67/67
f 67/67/67 71/71/71 70/70/70
f 71/71/71 72/72/72 70/70/70
f 75/75/75 74/74/74 73/73/73
f 74/74/74 76/76/76 73/73/73
f 73/73/73 76/76/76 77/77/77
f 74/74/74 78/78/78 76/76/76
f 76/76/76 79/79/79 77/77/77
f 78/78/78 80/80/80 76/76/76
f 76/76/76 80/80/80 79/79/79
f 80/80/80 81/81/81 79/79/79
f 84/84/84 83/83/83 82/82/82
f 83/83/83 85/85/85 82/82/82
f 82/82/82 85/85/85 86/86/86
f 83/83/83 87/87/87 85/85/85
f 85/85/85 88/88/88 86/86/86
f 87/87/87 89/89/89 85/85/85
f 85/85/85 89/89/89 88/88/88
f 89/89/89 90/90/90 88/88/88
f 93/93/93 92/92/92 91/91/91
f 92/92/92 94/94/94 91/91/91
f 91/91/91 94/94/94 95/95/95
f 92/92/92 96/96/96 94/94/94
f 94/94/94 97/97/97 95/95/95
f 96/96/96 98/98/98 94/94/94
f 94/94/94 98/98/98 97/97/97
f 98/98/98 99/99/99 97/97/97
f 102/102/102 101/101/101 100/100/100
f 101/101/101 103/103/103 100/100/100
f 100/100/100 103/103/103 104/104/104
f 101/101/101 105/105/105 103/103/103
f 103/103/103 106/106/106 104/104/104
f 105/105/105 107/107/107 103/103/103
f 103/103/103 107/107/107 106/106/106
f 107/107/107 108/108/108 106/106/106
f 111/111/111 110/110/110 109/109/109
f 110/110/110 112/112/112 109/109/109
f 109/109/109 112/112/112 113/113/113
f 110/110/110 114/114/114 112/112/112
f 112/112/112 115/115/115 113/113/113
f 114/114/114 116/116/116 112/112/112
f 112/112/112 116/116/116 115/115/115
f 116/116/116 117/117/117 115/115/115
f 120/120/120 119/119/119 118/118/118
f 119/119/119 121/121/121 118/118/118
f 118/118/118 121/121/121 122/122/122
f 119/119/119 123/123/123 121/121/121
f 121/121/121 124/124/124 122/122/122
f 123/123/123 125/125/125 121/121/121
f 121/121/121 125/125/125 124/124/124
f 125/125/125 126/126/126 124/124/124
f 129/129/129 128/128/128 127/127/127
f 128/128/128 130/130/130 127/127/127
f 127/127/127 130/130/130 131/131/131
f 128/128/128 132/132/132 130/130/130
f 130/130/130 133/133/133 131/131/131
f 132/132/132 134/134/134 130/130/130
f 130/130/130 134/134/134 133/133/133
f 134/134/134 135/135/135 133/133/133
