g Custom Mesh - Baked
v 717.5483 41.0208 -752.1799
v 726.2866 40.72715 -753.7729
v 725.8002 40.81882 -750.814
v 718.037 40.93103 -755.1385
v 709.2946 41.23145 -753.5529
v 726.7729 40.63548 -756.7318
v 709.7853 41.1435 -756.5112
v 718.5258 40.84127 -758.097
v 710.2761 41.05555 -759.4694
v 701.0398 41.44913 -754.9314
v 709.7853 41.1435 -756.5112
v 709.2946 41.23145 -753.5529
v 701.5323 41.36292 -757.8894
v 692.7859 41.6725 -756.3145
v 710.2761 41.05555 -759.4694
v 693.2801 41.58799 -759.2723
v 702.0249 41.27671 -760.8474
v 693.7742 41.50346 -762.2301
v 684.5315 41.9006 -757.7018
v 693.2801 41.58799 -759.2723
v 692.7859 41.67251 -756.3145
v 685.027 41.81771 -760.6594
v 676.2764 42.13256 -759.093
v 693.7742 41.50347 -762.2301
v 676.7731 42.05128 -762.0504
v 685.5225 41.73483 -763.6171
v 677.2698 41.97001 -765.0079
v 668.02 42.36767 -760.4877
v 676.7731 42.05128 -762.0504
v 676.2764 42.13256 -759.093
v 668.5178 42.28796 -763.445
v 659.7632 42.60527 -761.8853
v 677.2698 41.97001 -765.0079
v 660.2621 42.52712 -764.8425
v 669.0156 42.20826 -766.4023
v 660.7609 42.44897 -767.7997
v 651.506 42.84481 -763.2859
v 660.2621 42.52712 -764.8425
v 659.7632 42.60527 -761.8853
v 652.0058 42.76819 -766.243
v 643.2477 43.08574 -764.689
v 660.7609 42.44897 -767.7997
v 643.7484 43.01065 -767.6459
v 652.5056 42.69157 -769.2001
v 644.249 42.93555 -770.6029
v 634.9883 43.32761 -766.0945
v 643.7484 43.01065 -767.6459
v 643.2477 43.08574 -764.689
v 635.4897 43.25402 -769.0514
v 626.7281 43.56991 -767.5024
v 644.249 42.93555 -770.6029
v 627.2303 43.49783 -770.4592
v 635.9911 43.18044 -772.0083
v 627.7325 43.42576 -773.416
v 618.467 43.81215 -768.9122
v 627.2303 43.49783 -770.4592
v 626.7281 43.56991 -767.5024
v 618.9699 43.74159 -771.869
v 610.205 44.05386 -770.324
v 627.7325 43.42576 -773.416
v 610.7085 43.98482 -773.2806
v 619.4728 43.67103 -774.8257
v 611.212 43.91578 -776.2373
v 601.942 44.29451 -771.7377
v 610.7085 43.98482 -773.2806
v 610.205 44.05386 -770.324
v 602.4461 44.227 -774.6942
v 593.6779 44.53357 -773.1533
v 611.212 43.91578 -776.2373
v 594.1827 44.46761 -776.1097
v 602.9503 44.15949 -777.6508
v 594.6874 44.40164 -779.0662
v 585.4123 44.7704 -774.5704
v 594.1827 44.46761 -776.1097
v 593.6779 44.53357 -773.1533
v 585.9176 44.70601 -777.5268
v 577.1456 45.0043 -775.9892
v 594.6874 44.40164 -779.0662
v 577.6515 44.9415 -778.9456
v 586.4229 44.64161 -780.4832
v 578.1573 44.87869 -781.9019
v 568.8773 45.23445 -777.4095
v 577.6515 44.9415 -778.9456
v 577.1456 45.0043 -775.9892
v 569.3837 45.17327 -780.3658
v 560.6082 45.45979 -778.8312
v 578.1573 44.87869 -781.9019
v 561.1151 45.40029 -781.7875
v 569.8901 45.1121 -783.3221
v 561.622 45.34079 -784.7438
v 552.3369 45.67913 -780.2544
v 561.1151 45.40029 -781.7875
v 560.6082 45.45979 -778.8312
v 552.8442 45.62136 -783.2106
v 544.0631 45.89077 -781.6792
v 561.622 45.34079 -784.7438
v 544.5709 45.83481 -784.6354
v 553.3516 45.5636 -786.1669
v 545.0787 45.77885 -787.5916
v 535.7861 46.09254 -783.1055
v 544.5709 45.83481 -784.6354
v 544.0631 45.89077 -781.6792
v 536.2944 46.03848 -786.0616
v 527.5058 46.28119 -784.5331
v 545.0787 45.77885 -787.5916
v 528.0145 46.22914 -787.4893
v 536.8027 45.98441 -789.0177
v 528.5233 46.17709 -790.4454
v 519.225 46.4517 -785.9617
v 528.0145 46.22914 -787.4893
v 527.5058 46.28119 -784.5331
v 519.7341 46.40183 -788.9178
v 510.939 46.59586 -787.3917
v 528.5233 46.17709 -790.4454
v 511.4485 46.54842 -790.3477
v 520.2432 46.35197 -791.8738
v 511.9579 46.50098 -793.3038
v 502.6496 46.69665 -788.8224
v 511.4485 46.54842 -790.3477
v 510.939 46.59586 -787.3917
v 503.1594 46.65204 -791.7784
v 494.3505 46.70903 -790.2538
v 511.958 46.50098 -793.3038
v 494.8601 46.66806 -793.21
v 503.6691 46.60743 -794.7345
v 495.3698 46.62709 -796.1661
v 486.1333 46.55934 -791.6135
v 494.8601 46.66806 -793.21
v 494.3505 46.70903 -790.2538
v 486.5811 46.52328 -794.5797
v 477.8994 46.58744 -792.7565
v 495.3698 46.62709 -796.1661
v 478.2834 46.55444 -795.7317
v 487.0289 46.48722 -797.5458
v 478.6674 46.52143 -798.7068
v 469.6145 46.77541 -793.7792
v 478.2834 46.55444 -795.7317
v 477.8994 46.58744 -792.7565
v 469.9686 46.74414 -796.7581
v 461.2996 47.07312 -794.759
v 478.6674 46.52143 -798.7068
v 461.6496 47.04269 -797.7383
v 470.3228 46.71287 -799.7369
v 461.9997 47.01226 -800.7177
v 452.961 47.44813 -795.7686
v 461.6496 47.04269 -797.7383
v 461.2996 47.07312 -794.759
v 453.3349 47.41768 -798.745
v 444.5923 47.87422 -796.9106
v 461.9997 47.01226 -800.7177
v 445.0373 47.84248 -799.8773
v 453.7088 47.38722 -801.7214
v 445.4823 47.81073 -802.8439
v 436.1425 48.31494 -798.425
v 445.0373 47.84248 -799.8773
v 444.5923 47.87422 -796.9106
v 436.7928 48.27855 -801.3535
v 426.4964 48.53697 -804.1111
v 445.4823 47.81073 -802.8439
v 429.436 48.4565 -804.7046
v 437.4432 48.24215 -804.2819
v 432.3756 48.37603 -805.2981
v 427.1937 48.14878 -813.3537
v 429.436 48.4565 -804.7046
v 426.4964 48.53697 -804.1111
v 430.17 48.07355 -812.9847
v 428.2832 48.17213 -821.6972
v 432.3756 48.37603 -805.2981
v 431.2549 48.09722 -821.2933
v 433.1462 47.99833 -812.6157
v 434.2267 48.02231 -820.8893
v 429.4546 48.25272 -830.0222
v 431.2549 48.09722 -821.2933
v 428.2832 48.17213 -821.6972
v 432.4226 48.17805 -829.5918
v 430.6745 48.26157 -838.1361
v 434.2267 48.02231 -820.8893
v 433.6374 48.18723 -837.6719
v 435.3907 48.10339 -829.1614
v 436.6003 48.11289 -837.2076

vn 0.03929546 1.332322 -0.03393372
vn 0.03791748 1.332333 -0.03504782
vn 0.03791748 1.332333 -0.03504782
vn 0.03929546 1.332322 -0.03393372
vn 0.0403865 1.332315 -0.03291044
vn 0.03791748 1.332333 -0.03504782
vn 0.0403865 1.332315 -0.03291044
vn 0.03929546 1.332322 -0.03393372
vn 0.0403865 1.332315 -0.03291044
vn 0.04125606 1.332312 -0.03195832
vn 0.0403865 1.332315 -0.03291044
vn 0.0403865 1.332315 -0.03291044
vn 0.04125606 1.332312 -0.03195832
vn 0.04194991 1.332311 -0.03106323
vn 0.0403865 1.332315 -0.03291044
vn 0.04194991 1.332311 -0.03106323
vn 0.04125606 1.332312 -0.03195832
vn 0.04194991 1.332311 -0.03106323
vn 0.04250037 1.332313 -0.03021472
vn 0.04194991 1.332311 -0.03106323
vn 0.04194991 1.332311 -0.03106323
vn 0.04250037 1.332313 -0.03021472
vn 0.04292954 1.332318 -0.02940435
vn 0.04194991 1.332311 -0.03106323
vn 0.04292954 1.332318 -0.02940435
vn 0.04250037 1.332313 -0.03021472
vn 0.04292954 1.332318 -0.02940435
vn 0.04325438 1.332324 -0.02862607
vn 0.04292954 1.332318 -0.02940435
vn 0.04292954 1.332318 -0.02940435
vn 0.04325438 1.332324 -0.02862607
vn 0.043486 1.332332 -0.02787501
vn 0.04292954 1.332318 -0.02940435
vn 0.043486 1.332332 -0.02787501
vn 0.04325438 1.332324 -0.02862607
vn 0.043486 1.332332 -0.02787501
vn 0.04363357 1.332343 -0.02714683
vn 0.043486 1.332332 -0.02787501
vn 0.043486 1.332332 -0.02787501
vn 0.04363357 1.332343 -0.02714683
vn 0.04370191 1.332355 -0.02643839
vn 0.043486 1.332332 -0.02787501
vn 0.04370191 1.332355 -0.02643839
vn 0.04363357 1.332343 -0.02714683
vn 0.04370191 1.332355 -0.02643839
vn 0.04369438 1.332368 -0.02574727
vn 0.04370191 1.332355 -0.02643839
vn 0.04370191 1.332355 -0.02643839
vn 0.04369438 1.332368 -0.02574727
vn 0.0436125 1.332384 -0.02507062
vn 0.04370191 1.332355 -0.02643839
vn 0.0436125 1.332384 -0.02507062
vn 0.04369438 1.332368 -0.02574727
vn 0.0436125 1.332384 -0.02507062
vn 0.04345462 1.332401 -0.0244067
vn 0.0436125 1.332384 -0.02507062
vn 0.0436125 1.332384 -0.02507062
vn 0.04345462 1.332401 -0.0244067
vn 0.04321819 1.332421 -0.02375388
vn 0.0436125 1.332384 -0.02507062
vn 0.04321819 1.332421 -0.02375388
vn 0.04345462 1.332401 -0.0244067
vn 0.04321819 1.332421 -0.02375388
vn 0.04289754 1.332443 -0.02311116
vn 0.04321819 1.332421 -0.02375388
vn 0.04321819 1.332421 -0.02375388
vn 0.04289754 1.332443 -0.02311116
vn 0.04248471 1.332467 -0.02247763
vn 0.04321819 1.332421 -0.02375388
vn 0.04248471 1.332467 -0.02247763
vn 0.04289754 1.332443 -0.02311116
vn 0.04248471 1.332467 -0.02247763
vn 0.04196737 1.332494 -0.02185268
vn 0.04248471 1.332467 -0.02247763
vn 0.04248471 1.332467 -0.02247763
vn 0.04196737 1.332494 -0.02185268
vn 0.04132923 1.332523 -0.02123616
vn 0.04248471 1.332467 -0.02247763
vn 0.04132923 1.332523 -0.02123616
vn 0.04196737 1.332494 -0.02185268
vn 0.04132923 1.332523 -0.02123616
vn 0.04054689 1.332557 -0.02062911
vn 0.04132923 1.332523 -0.02123616
vn 0.04132923 1.332523 -0.02123616
vn 0.04054689 1.332557 -0.02062911
vn 0.03958615 1.332595 -0.02003253
vn 0.04132923 1.332523 -0.02123616
vn 0.03958615 1.332595 -0.02003253
vn 0.04054689 1.332557 -0.02062911
vn 0.03958615 1.332595 -0.02003253
vn 0.03839959 1.332638 -0.01944997
vn 0.03958615 1.332595 -0.02003253
vn 0.03958615 1.332595 -0.02003253
vn 0.03839959 1.332638 -0.01944997
vn 0.03691223 1.332688 -0.01888751
vn 0.03958615 1.332595 -0.02003253
vn 0.03691223 1.332688 -0.01888751
vn 0.03839959 1.332638 -0.01944997
vn 0.03691223 1.332688 -0.01888751
vn 0.03500897 1.332747 -0.01835581
vn 0.03691223 1.332688 -0.01888751
vn 0.03691223 1.332688 -0.01888751
vn 0.03500897 1.332747 -0.01835581
vn 0.03249222 1.332817 -0.01787558
vn 0.03691223 1.332688 -0.01888751
vn 0.03249222 1.332817 -0.01787558
vn 0.03500897 1.332747 -0.01835581
vn 0.03249222 1.332817 -0.01787558
vn 0.02899647 1.332903 -0.01749027
vn 0.03249222 1.332817 -0.01787558
vn 0.03249222 1.332817 -0.01787558
vn 0.02899647 1.332903 -0.01749027
vn 0.02374737 1.33301 -0.01729906
vn 0.03249222 1.332817 -0.01787558
vn 0.02374737 1.33301 -0.01729906
vn 0.02899647 1.332903 -0.01749027
vn 0.02374737 1.33301 -0.01729906
vn 0.01463367 1.333137 -0.01759704
vn 0.02374737 1.33301 -0.01729906
vn 0.02374737 1.33301 -0.01729906
vn 0.01463367 1.333137 -0.01759704
vn -0.007322931 1.333167 -0.01973926
vn 0.02374737 1.33301 -0.01729906
vn -0.007322931 1.333167 -0.01973926
vn 0.01463367 1.333137 -0.01759704
vn -0.007322931 1.333167 -0.01973926
vn -0.009162251 1.333186 -0.01758867
vn -0.007322931 1.333167 -0.01973926
vn -0.007322931 1.333167 -0.01973926
vn -0.009162251 1.333186 -0.01758867
vn 0.02099645 1.333113 -0.01208081
vn -0.007322931 1.333167 -0.01973926
vn 0.02099645 1.333113 -0.01208081
vn -0.009162251 1.333186 -0.01758867
vn 0.02099645 1.333113 -0.01208081
vn 0.04120607 1.332665 -0.009090666
vn 0.02099645 1.333113 -0.01208081
vn 0.02099645 1.333113 -0.01208081
vn 0.04120607 1.332665 -0.009090666
vn 0.05550066 1.332159 -0.007086685
vn 0.02099645 1.333113 -0.01208081
vn 0.05550066 1.332159 -0.007086685
vn 0.04120607 1.332665 -0.009090666
vn 0.05550066 1.332159 -0.007086685
vn 0.06551887 1.331712 -0.005393305
vn 0.05550066 1.332159 -0.007086685
vn 0.05550066 1.332159 -0.007086685
vn 0.06551887 1.331712 -0.005393305
vn 0.07117061 1.331428 -0.003572389
vn 0.05550066 1.332159 -0.007086685
vn 0.07117061 1.331428 -0.003572389
vn 0.06551887 1.331712 -0.005393305
vn 0.07117061 1.331428 -0.003572389
vn 0.06797798 1.331599 -0.001451027
vn 0.07117061 1.331428 -0.003572389
vn 0.07117061 1.331428 -0.003572389
vn 0.06797798 1.331599 -0.001451027
vn 0.00589795 1.324809 -0.1504153
vn 0.07117061 1.331428 -0.003572389
vn 0.00589795 1.324809 -0.1504153
vn 0.06797798 1.331599 -0.001451027
vn 0.00589795 1.324809 -0.1504153
vn 0.03446951 1.332873 -0.006297192
vn 0.00589795 1.324809 -0.1504153
vn 0.00589795 1.324809 -0.1504153
vn 0.03446951 1.332873 -0.006297192
vn 0.03135994 1.332863 0.0164698
vn 0.00589795 1.324809 -0.1504153
vn 0.03135994 1.332863 0.0164698
vn 0.03446951 1.332873 -0.006297192
vn 0.03135994 1.332863 0.0164698
vn 0.03131694 1.332878 0.01525876
vn 0.03135994 1.332863 0.0164698
vn 0.03135994 1.332863 0.0164698
vn 0.03131694 1.332878 0.01525876
vn 0.03462693 1.332862 -0.007566213
vn 0.03135994 1.332863 0.0164698
vn 0.03462693 1.332862 -0.007566213
vn 0.03131694 1.332878 0.01525876
vn 0.03462693 1.332862 -0.007566213

vt 0.5 0
vt 1 0.5
vt 1 0
vt 0.5 0.5
vt 0 0
vt 1 1
vt 0 0.5
vt 0.5 1
vt 0 1
vt 0.5 0
vt 1 0.5
vt 1 0
vt 0.5 0.5
vt 0 0
vt 1 1
vt 0 0.5
vt 0.5 1
vt 0 1
vt 0.5 0
vt 1 0.5
vt 1 0
vt 0.5 0.5
vt 0 0
vt 1 1
vt 0 0.5
vt 0.5 1
vt 0 1
vt 0.5 0
vt 1 0.5
vt 1 0
vt 0.5 0.5
vt 0 0
vt 1 1
vt 0 0.5
vt 0.5 1
vt 0 1
vt 0.5 0
vt 1 0.5
vt 1 0
vt 0.5 0.5
vt 0 0
vt 1 1
vt 0 0.5
vt 0.5 1
vt 0 1
vt 0.5 0
vt 1 0.5
vt 1 0
vt 0.5 0.5
vt 0 0
vt 1 1
vt 0 0.5
vt 0.5 1
vt 0 1
vt 0.5 0
vt 1 0.5
vt 1 0
vt 0.5 0.5
vt 0 0
vt 1 1
vt 0 0.5
vt 0.5 1
vt 0 1
vt 0.5 0
vt 1 0.5
vt 1 0
vt 0.5 0.5
vt 0 0
vt 1 1
vt 0 0.5
vt 0.5 1
vt 0 1
vt 0.5 0
vt 1 0.5
vt 1 0
vt 0.5 0.5
vt 0 0
vt 1 1
vt 0 0.5
vt 0.5 1
vt 0 1
vt 0.5 0
vt 1 0.5
vt 1 0
vt 0.5 0.5
vt 0 0
vt 1 1
vt 0 0.5
vt 0.5 1
vt 0 1
vt 0.5 0
vt 1 0.5
vt 1 0
vt 0.5 0.5
vt 0 0
vt 1 1
vt 0 0.5
vt 0.5 1
vt 0 1
vt 0.5 0
vt 1 0.5
vt 1 0
vt 0.5 0.5
vt 0 0
vt 1 1
vt 0 0.5
vt 0.5 1
vt 0 1
vt 0.5 0
vt 1 0.5
vt 1 0
vt 0.5 0.5
vt 0 0
vt 1 1
vt 0 0.5
vt 0.5 1
vt 0 1
vt 0.5 0
vt 1 0.5
vt 1 0
vt 0.5 0.5
vt 0 0
vt 1 1
vt 0 0.5
vt 0.5 1
vt 0 1
vt 0.5 0
vt 1 0.5
vt 1 0
vt 0.5 0.5
vt 0 0
vt 1 1
vt 0 0.5
vt 0.5 1
vt 0 1
vt 0.5 0
vt 1 0.5
vt 1 0
vt 0.5 0.5
vt 0 0
vt 1 1
vt 0 0.5
vt 0.5 1
vt 0 1
vt 0.5 0
vt 1 0.5
vt 1 0
vt 0.5 0.5
vt 0 0
vt 1 1
vt 0 0.5
vt 0.5 1
vt 0 1
vt 0.5 0
vt 1 0.5
vt 1 0
vt 0.5 0.5
vt 0 0
vt 1 1
vt 0 0.5
vt 0.5 1
vt 0 1
vt 0.5 0
vt 1 0.5
vt 1 0
vt 0.5 0.5
vt 0 0
vt 1 1
vt 0 0.5
vt 0.5 1
vt 0 1
vt 0.5 0
vt 1 0.5
vt 1 0
vt 0.5 0.5
vt 0 0
vt 1 1
vt 0 0.5
vt 0.5 1
vt 0 1

vt2 0 0
vt2 0 0
vt2 0 0
vt2 0 0
vt2 0 0
vt2 0 0
vt2 0 0
vt2 0 0
vt2 0 0
vt2 0 0
vt2 0 0
vt2 0 0
vt2 0 0
vt2 0 0
vt2 0 0
vt2 0 0
vt2 0 0
vt2 0 0
vt2 0 0
vt2 0 0
vt2 0 0
vt2 0 0
vt2 0 0
vt2 0 0
vt2 0 0
vt2 0 0
vt2 0 0
vt2 0 0
vt2 0 0
vt2 0 0
vt2 0 0
vt2 0 0
vt2 0 0
vt2 0 0
vt2 0 0
vt2 0 0
vt2 0 0
vt2 0 0
vt2 0 0
vt2 0 0
vt2 0 0
vt2 0 0
vt2 0 0
vt2 0 0
vt2 0 0
vt2 0 0
vt2 0 0
vt2 0 0
vt2 0 0
vt2 0 0
vt2 0 0
vt2 0 0
vt2 0 0
vt2 0 0
vt2 0 0
vt2 0 0
vt2 0 0
vt2 0 0
vt2 0 0
vt2 0 0
vt2 0 0
vt2 0 0
vt2 0 0
vt2 0 0
vt2 0 0
vt2 0 0
vt2 0 0
vt2 0 0
vt2 0 0
vt2 0 0
vt2 0 0
vt2 0 0
vt2 0 0
vt2 0 0
vt2 0 0
vt2 0 0
vt2 0 0
vt2 0 0
vt2 0 0
vt2 0 0
vt2 0 0
vt2 0 0
vt2 0 0
vt2 0 0
vt2 0 0
vt2 0 0
vt2 0 0
vt2 0 0
vt2 0 0
vt2 0 0
vt2 0 0
vt2 0 0
vt2 0 0
vt2 0 0
vt2 0 0
vt2 0 0
vt2 0 0
vt2 0 0
vt2 0 0
vt2 0 0
vt2 0 0
vt2 0 0
vt2 0 0
vt2 0 0
vt2 0 0
vt2 0 0
vt2 0 0
vt2 0 0
vt2 0 0
vt2 0 0
vt2 0 0
vt2 0 0
vt2 0 0
vt2 0 0
vt2 0 0
vt2 0 0
vt2 0 0
vt2 0 0
vt2 0 0
vt2 0 0
vt2 0 0
vt2 0 0
vt2 0 0
vt2 0 0
vt2 0 0
vt2 0 0
vt2 0 0
vt2 0 0
vt2 0 0
vt2 0 0
vt2 0 0
vt2 0 0
vt2 0 0
vt2 0 0
vt2 0 0
vt2 0 0
vt2 0 0
vt2 0 0
vt2 0 0
vt2 0 0
vt2 0 0
vt2 0 0
vt2 0 0
vt2 0 0
vt2 0 0
vt2 0 0
vt2 0 0
vt2 0 0
vt2 0 0
vt2 0 0
vt2 0 0
vt2 0 0
vt2 0 0
vt2 0 0
vt2 0 0
vt2 0 0
vt2 0 0
vt2 0 0
vt2 0 0
vt2 0 0
vt2 0 0
vt2 0 0
vt2 0 0
vt2 0 0
vt2 0 0
vt2 0 0
vt2 0 0
vt2 0 0
vt2 0 0
vt2 0 0
vt2 0 0
vt2 0 0
vt2 0 0
vt2 0 0
vt2 0 0
vt2 0 0
vt2 0 0
vt2 0 0
vt2 0 0
vt2 0 0

vt2 0 0
vt2 0 0
vt2 0 0
vt2 0 0
vt2 0 0
vt2 0 0
vt2 0 0
vt2 0 0
vt2 0 0
vt2 0 0
vt2 0 0
vt2 0 0
vt2 0 0
vt2 0 0
vt2 0 0
vt2 0 0
vt2 0 0
vt2 0 0
vt2 0 0
vt2 0 0
vt2 0 0
vt2 0 0
vt2 0 0
vt2 0 0
vt2 0 0
vt2 0 0
vt2 0 0
vt2 0 0
vt2 0 0
vt2 0 0
vt2 0 0
vt2 0 0
vt2 0 0
vt2 0 0
vt2 0 0
vt2 0 0
vt2 0 0
vt2 0 0
vt2 0 0
vt2 0 0
vt2 0 0
vt2 0 0
vt2 0 0
vt2 0 0
vt2 0 0
vt2 0 0
vt2 0 0
vt2 0 0
vt2 0 0
vt2 0 0
vt2 0 0
vt2 0 0
vt2 0 0
vt2 0 0
vt2 0 0
vt2 0 0
vt2 0 0
vt2 0 0
vt2 0 0
vt2 0 0
vt2 0 0
vt2 0 0
vt2 0 0
vt2 0 0
vt2 0 0
vt2 0 0
vt2 0 0
vt2 0 0
vt2 0 0
vt2 0 0
vt2 0 0
vt2 0 0
vt2 0 0
vt2 0 0
vt2 0 0
vt2 0 0
vt2 0 0
vt2 0 0
vt2 0 0
vt2 0 0
vt2 0 0
vt2 0 0
vt2 0 0
vt2 0 0
vt2 0 0
vt2 0 0
vt2 0 0
vt2 0 0
vt2 0 0
vt2 0 0
vt2 0 0
vt2 0 0
vt2 0 0
vt2 0 0
vt2 0 0
vt2 0 0
vt2 0 0
vt2 0 0
vt2 0 0
vt2 0 0
vt2 0 0
vt2 0 0
vt2 0 0
vt2 0 0
vt2 0 0
vt2 0 0
vt2 0 0
vt2 0 0
vt2 0 0
vt2 0 0
vt2 0 0
vt2 0 0
vt2 0 0
vt2 0 0
vt2 0 0
vt2 0 0
vt2 0 0
vt2 0 0
vt2 0 0
vt2 0 0
vt2 0 0
vt2 0 0
vt2 0 0
vt2 0 0
vt2 0 0
vt2 0 0
vt2 0 0
vt2 0 0
vt2 0 0
vt2 0 0
vt2 0 0
vt2 0 0
vt2 0 0
vt2 0 0
vt2 0 0
vt2 0 0
vt2 0 0
vt2 0 0
vt2 0 0
vt2 0 0
vt2 0 0
vt2 0 0
vt2 0 0
vt2 0 0
vt2 0 0
vt2 0 0
vt2 0 0
vt2 0 0
vt2 0 0
vt2 0 0
vt2 0 0
vt2 0 0
vt2 0 0
vt2 0 0
vt2 0 0
vt2 0 0
vt2 0 0
vt2 0 0
vt2 0 0
vt2 0 0
vt2 0 0
vt2 0 0
vt2 0 0
vt2 0 0
vt2 0 0
vt2 0 0
vt2 0 0
vt2 0 0
vt2 0 0
vt2 0 0
vt2 0 0
vt2 0 0
vt2 0 0
vt2 0 0
vt2 0 0
vt2 0 0
vt2 0 0
vt2 0 0
vt2 0 0
vt2 0 0

vc 1 1 1 1
vc 1 1 1 1
vc 1 1 1 1
vc 1 1 1 1
vc 1 1 1 1
vc 1 1 1 1
vc 1 1 1 1
vc 1 1 1 1
vc 1 1 1 1
vc 1 1 1 1
vc 1 1 1 1
vc 1 1 1 1
vc 1 1 1 1
vc 1 1 1 1
vc 1 1 1 1
vc 1 1 1 1
vc 1 1 1 1
vc 1 1 1 1
vc 1 1 1 1
vc 1 1 1 1
vc 1 1 1 1
vc 1 1 1 1
vc 1 1 1 1
vc 1 1 1 1
vc 1 1 1 1
vc 1 1 1 1
vc 1 1 1 1
vc 1 1 1 1
vc 1 1 1 1
vc 1 1 1 1
vc 1 1 1 1
vc 1 1 1 1
vc 1 1 1 1
vc 1 1 1 1
vc 1 1 1 1
vc 1 1 1 1
vc 1 1 1 1
vc 1 1 1 1
vc 1 1 1 1
vc 1 1 1 1
vc 1 1 1 1
vc 1 1 1 1
vc 1 1 1 1
vc 1 1 1 1
vc 1 1 1 1
vc 1 1 1 1
vc 1 1 1 1
vc 1 1 1 1
vc 1 1 1 1
vc 1 1 1 1
vc 1 1 1 1
vc 1 1 1 1
vc 1 1 1 1
vc 1 1 1 1
vc 1 1 1 1
vc 1 1 1 1
vc 1 1 1 1
vc 1 1 1 1
vc 1 1 1 1
vc 1 1 1 1
vc 1 1 1 1
vc 1 1 1 1
vc 1 1 1 1
vc 1 1 1 1
vc 1 1 1 1
vc 1 1 1 1
vc 1 1 1 1
vc 1 1 1 1
vc 1 1 1 1
vc 1 1 1 1
vc 1 1 1 1
vc 1 1 1 1
vc 1 1 1 1
vc 1 1 1 1
vc 1 1 1 1
vc 1 1 1 1
vc 1 1 1 1
vc 1 1 1 1
vc 1 1 1 1
vc 1 1 1 1
vc 1 1 1 1
vc 1 1 1 1
vc 1 1 1 1
vc 1 1 1 1
vc 1 1 1 1
vc 1 1 1 1
vc 1 1 1 1
vc 1 1 1 1
vc 1 1 1 1
vc 1 1 1 1
vc 1 1 1 1
vc 1 1 1 1
vc 1 1 1 1
vc 1 1 1 1
vc 1 1 1 1
vc 1 1 1 1
vc 1 1 1 1
vc 1 1 1 1
vc 1 1 1 1
vc 1 1 1 1
vc 1 1 1 1
vc 1 1 1 1
vc 1 1 1 1
vc 1 1 1 1
vc 1 1 1 1
vc 1 1 1 1
vc 1 1 1 1
vc 1 1 1 1
vc 1 1 1 1
vc 1 1 1 1
vc 1 1 1 1
vc 1 1 1 1
vc 1 1 1 1
vc 1 1 1 1
vc 1 1 1 1
vc 1 1 1 1
vc 1 1 1 1
vc 1 1 1 1
vc 1 1 1 1
vc 1 1 1 1
vc 1 1 1 1
vc 1 1 1 1
vc 1 1 1 1
vc 1 1 1 1
vc 1 1 1 1
vc 1 1 1 1
vc 1 1 1 1
vc 1 1 1 1
vc 1 1 1 1
vc 1 1 1 1
vc 1 1 1 1
vc 1 1 1 1
vc 1 1 1 1
vc 1 1 1 1
vc 1 1 1 1
vc 1 1 1 1
vc 1 1 1 1
vc 1 1 1 1
vc 1 1 1 1
vc 1 1 1 1
vc 1 1 1 1
vc 1 1 1 1
vc 1 1 1 1
vc 1 1 1 1
vc 1 1 1 1
vc 1 1 1 1
vc 1 1 1 1
vc 1 1 1 1
vc 1 1 1 1
vc 1 1 1 1
vc 1 1 1 1
vc 1 1 1 1
vc 1 1 1 1
vc 1 1 1 1
vc 1 1 1 1
vc 1 1 1 1
vc 1 1 1 1
vc 1 1 1 1
vc 1 1 1 1
vc 1 1 1 1
vc 1 1 1 1
vc 1 1 1 1
vc 1 1 1 1
vc 1 1 1 1
vc 1 1 1 1
vc 1 1 1 1
vc 1 1 1 1
vc 1 1 1 1
vc 1 1 1 1
vc 1 1 1 1
vc 1 1 1 1
vc 1 1 1 1
vc 1 1 1 1
vc 1 1 1 1
vc 1 1 1 1
vc 1 1 1 1
vc 1 1 1 1
vc 1 1 1 1
vc 1 1 1 1
vc 1 1 1 1

usemtl Default-Diffuse
usemap Default-Diffuse
f 3/3/3 2/2/2 1/1/1
f 2/2/2 4/4/4 1/1/1
f 1/1/1 4/4/4 5/5/5
f 2/2/2 6/6/6 4/4/4
f 4/4/4 7/7/7 5/5/5
f 6/6/6 8/8/8 4/4/4
f 4/4/4 8/8/8 7/7/7
f 8/8/8 9/9/9 7/7/7
f 12/12/12 11/11/11 10/10/10
f 11/11/11 13/13/13 10/10/10
f 10/10/10 13/13/13 14/14/14
f 11/11/11 15/15/15 13/13/13
f 13/13/13 16/16/16 14/14/14
f 15/15/15 17/17/17 13/13/13
f 13/13/13 17/17/17 16/16/16
f 17/17/17 18/18/18 16/16/16
f 21/21/21 20/20/20 19/19/19
f 20/20/20 22/22/22 19/19/19
f 19/19/19 22/22/22 23/23/23
f 20/20/20 24/24/24 22/22/22
f 22/22/22 25/25/25 23/23/23
f 24/24/24 26/26/26 22/22/22
f 22/22/22 26/26/26 25/25/25
f 26/26/26 27/27/27 25/25/25
f 30/30/30 29/29/29 28/28/28
f 29/29/29 31/31/31 28/28/28
f 28/28/28 31/31/31 32/32/32
f 29/29/29 33/33/33 31/31/31
f 31/31/31 34/34/34 32/32/32
f 33/33/33 35/35/35 31/31/31
f 31/31/31 35/35/35 34/34/34
f 35/35/35 36/36/36 34/34/34
f 39/39/39 38/38/38 37/37/37
f 38/38/38 40/40/40 37/37/37
f 37/37/37 40/40/40 41/41/41
f 38/38/38 42/42/42 40/40/40
f 40/40/40 43/43/43 41/41/41
f 42/42/42 44/44/44 40/40/40
f 40/40/40 44/44/44 43/43/43
f 44/44/44 45/45/45 43/43/43
f 48/48/48 47/47/47 46/46/46
f 47/47/47 49/49/49 46/46/46
f 46/46/46 49/49/49 50/50/50
f 47/47/47 51/51/51 49/49/49
f 49/49/49 52/52/52 50/50/50
f 51/51/51 53/53/53 49/49/49
f 49/49/49 53/53/53 52/52/52
f 53/53/53 54/54/54 52/52/52
f 57/57/57 56/56/56 55/55/55
f 56/56/56 58/58/58 55/55/55
f 55/55/55 58/58/58 59/59/59
f 56/56/56 60/60/60 58/58/58
f 58/58/58 61/61/61 59/59/59
f 60/60/60 62/62/62 58/58/58
f 58/58/58 62/62/62 61/61/61
f 62/62/62 63/63/63 61/61/61
f 66/66/66 65/65/65 64/64/64
f 65/65/65 67/67/67 64/64/64
f 64/64/64 67/67/67 68/68/68
f 65/65/65 69/69/69 67/67/67
f 67/67/67 70/70/70 68/68/68
f 69/69/69 71/71/71 67/67/67
f 67/67/67 71/71/71 70/70/70
f 71/71/71 72/72/72 70/70/70
f 75/75/75 74/74/74 73/73/73
f 74/74/74 76/76/76 73/73/73
f 73/73/73 76/76/76 77/77/77
f 74/74/74 78/78/78 76/76/76
f 76/76/76 79/79/79 77/77/77
f 78/78/78 80/80/80 76/76/76
f 76/76/76 80/80/80 79/79/79
f 80/80/80 81/81/81 79/79/79
f 84/84/84 83/83/83 82/82/82
f 83/83/83 85/85/85 82/82/82
f 82/82/82 85/85/85 86/86/86
f 83/83/83 87/87/87 85/85/85
f 85/85/85 88/88/88 86/86/86
f 87/87/87 89/89/89 85/85/85
f 85/85/85 89/89/89 88/88/88
f 89/89/89 90/90/90 88/88/88
f 93/93/93 92/92/92 91/91/91
f 92/92/92 94/94/94 91/91/91
f 91/91/91 94/94/94 95/95/95
f 92/92/92 96/96/96 94/94/94
f 94/94/94 97/97/97 95/95/95
f 96/96/96 98/98/98 94/94/94
f 94/94/94 98/98/98 97/97/97
f 98/98/98 99/99/99 97/97/97
f 102/102/102 101/101/101 100/100/100
f 101/101/101 103/103/103 100/100/100
f 100/100/100 103/103/103 104/104/104
f 101/101/101 105/105/105 103/103/103
f 103/103/103 106/106/106 104/104/104
f 105/105/105 107/107/107 103/103/103
f 103/103/103 107/107/107 106/106/106
f 107/107/107 108/108/108 106/106/106
f 111/111/111 110/110/110 109/109/109
f 110/110/110 112/112/112 109/109/109
f 109/109/109 112/112/112 113/113/113
f 110/110/110 114/114/114 112/112/112
f 112/112/112 115/115/115 113/113/113
f 114/114/114 116/116/116 112/112/112
f 112/112/112 116/116/116 115/115/115
f 116/116/116 117/117/117 115/115/115
f 120/120/120 119/119/119 118/118/118
f 119/119/119 121/121/121 118/118/118
f 118/118/118 121/121/121 122/122/122
f 119/119/119 123/123/123 121/121/121
f 121/121/121 124/124/124 122/122/122
f 123/123/123 125/125/125 121/121/121
f 121/121/121 125/125/125 124/124/124
f 125/125/125 126/126/126 124/124/124
f 129/129/129 128/128/128 127/127/127
f 128/128/128 130/130/130 127/127/127
f 127/127/127 130/130/130 131/131/131
f 128/128/128 132/132/132 130/130/130
f 130/130/130 133/133/133 131/131/131
f 132/132/132 134/134/134 130/130/130
f 130/130/130 134/134/134 133/133/133
f 134/134/134 135/135/135 133/133/133
f 138/138/138 137/137/137 136/136/136
f 137/137/137 139/139/139 136/136/136
f 136/136/136 139/139/139 140/140/140
f 137/137/137 141/141/141 139/139/139
f 139/139/139 142/142/142 140/140/140
f 141/141/141 143/143/143 139/139/139
f 139/139/139 143/143/143 142/142/142
f 143/143/143 144/144/144 142/142/142
f 147/147/147 146/146/146 145/145/145
f 146/146/146 148/148/148 145/145/145
f 145/145/145 148/148/148 149/149/149
f 146/146/146 150/150/150 148/148/148
f 148/148/148 151/151/151 149/149/149
f 150/150/150 152/152/152 148/148/148
f 148/148/148 152/152/152 151/151/151
f 152/152/152 153/153/153 151/151/151
f 156/156/156 155/155/155 154/154/154
f 155/155/155 157/157/157 154/154/154
f 154/154/154 157/157/157 158/158/158
f 155/155/155 159/159/159 157/157/157
f 157/157/157 160/160/160 158/158/158
f 159/159/159 161/161/161 157/157/157
f 157/157/157 161/161/161 160/160/160
f 161/161/161 162/162/162 160/160/160
f 165/165/165 164/164/164 163/163/163
f 164/164/164 166/166/166 163/163/163
f 163/163/163 166/166/166 167/167/167
f 164/164/164 168/168/168 166/166/166
f 166/166/166 169/169/169 167/167/167
f 168/168/168 170/170/170 166/166/166
f 166/166/166 170/170/170 169/169/169
f 170/170/170 171/171/171 169/169/169
f 174/174/174 173/173/173 172/172/172
f 173/173/173 175/175/175 172/172/172
f 172/172/172 175/175/175 176/176/176
f 173/173/173 177/177/177 175/175/175
f 175/175/175 178/178/178 176/176/176
f 177/177/177 179/179/179 175/175/175
f 175/175/175 179/179/179 178/178/178
f 179/179/179 180/180/180 178/178/178
