g Custom Mesh - Baked
v 91.49628 47.93473 -1285.092
v 88.88161 48.08517 -1277.947
v 87.29163 48.01767 -1279.159
v 93.15844 48.00708 -1283.982
v 95.062 47.90044 -1290.749
v 90.4716 48.15268 -1276.736
v 96.77454 47.97683 -1289.719
v 94.82059 48.07944 -1282.872
v 98.48709 48.05322 -1288.688
v 98.28329 47.89302 -1296.278
v 96.77454 47.97683 -1289.719
v 95.062 47.90044 -1290.749
v 100.019 47.97347 -1295.288
v 101.4509 47.89064 -1301.82
v 98.48709 48.05322 -1288.688
v 103.1809 47.9761 -1300.82
v 101.7547 48.05393 -1294.298
v 104.9109 48.06155 -1299.821
v 104.8529 47.87182 -1307.501
v 103.1809 47.9761 -1300.82
v 101.4509 47.89064 -1301.82
v 106.5492 47.96378 -1306.446
v 108.7751 47.81559 -1313.438
v 104.9109 48.06155 -1299.821
v 110.4131 47.91558 -1312.294
v 108.2455 48.05573 -1305.39
v 112.051 48.01558 -1311.151
v 113.4998 47.70142 -1319.741
v 110.4131 47.91558 -1312.294
v 108.7751 47.81559 -1313.438
v 115.0616 47.8106 -1318.496
v 119.307 47.50894 -1326.525
v 112.051 48.01558 -1311.151
v 120.7837 47.62789 -1325.182
v 116.6233 47.91977 -1317.252
v 122.2604 47.74684 -1323.838
v 126.4767 47.21764 -1333.911
v 120.7837 47.62789 -1325.182
v 119.307 47.50894 -1326.525
v 127.8686 47.34653 -1332.481
v 135.2918 46.80685 -1342.026
v 122.2604 47.74684 -1323.838
v 136.6053 46.94561 -1340.524
v 129.2605 47.47542 -1331.051
v 137.9187 47.08436 -1339.022
v 146.449 46.23183 -1351.245
v 136.6053 46.94561 -1340.524
v 135.2918 46.80685 -1342.026
v 147.7008 46.36806 -1349.691
v 159.5733 45.50557 -1361.421
v 137.9187 47.08436 -1339.022
v 160.7852 45.63872 -1359.835
v 148.9526 46.50428 -1348.137
v 161.997 45.77187 -1358.25
v 174.2366 44.66282 -1372.33
v 160.7852 45.63872 -1359.835
v 159.5733 45.50557 -1361.421
v 175.4219 44.79261 -1370.724
v 190.0067 43.73852 -1383.745
v 161.997 45.77187 -1358.25
v 191.1744 43.86475 -1382.126
v 176.6072 44.92239 -1369.118
v 192.3421 43.99097 -1380.507
v 206.4496 42.76766 -1395.435
v 191.1744 43.86475 -1382.126
v 190.0067 43.73852 -1383.745
v 207.6062 42.89016 -1393.808
v 223.1298 41.78527 -1407.17
v 192.3421 43.99097 -1380.507
v 224.2807 41.90387 -1405.539
v 208.7628 43.01266 -1392.181
v 225.4317 42.02246 -1403.907
v 239.6112 40.82643 -1418.718
v 224.2807 41.90387 -1405.539
v 223.1298 41.78527 -1407.17
v 240.7615 40.9409 -1417.085
v 255.457 39.92622 -1429.845
v 225.4317 42.02246 -1403.907
v 256.6119 40.03627 -1428.216
v 241.9117 41.05537 -1415.453
v 257.7668 40.14632 -1426.587
v 270.2294 39.11983 -1440.32
v 256.6119 40.03627 -1428.216
v 255.457 39.92622 -1429.845
v 271.3955 39.22501 -1438.698
v 283.4891 38.44254 -1449.907
v 257.7668 40.14632 -1426.587
v 284.6757 38.54213 -1448.3
v 272.5616 39.33019 -1437.077
v 285.8623 38.64172 -1446.693
v 295.1959 37.90083 -1458.54
v 284.6757 38.54213 -1448.3
v 283.4891 38.44254 -1449.907
v 296.386 37.99784 -1456.936
v 306.0601 37.43964 -1466.59
v 285.8623 38.64172 -1446.693
v 307.2536 37.53411 -1464.988
v 297.5761 38.09485 -1455.331
v 308.4472 37.62857 -1463.386
v 316.2294 37.04487 -1474.159
v 307.2536 37.53411 -1464.988
v 306.0601 37.43965 -1466.59
v 317.4261 37.13684 -1472.56
v 325.8514 36.70241 -1481.35
v 308.4472 37.62858 -1463.386
v 327.0508 36.79193 -1479.752
v 318.6228 37.22881 -1470.96
v 328.2502 36.88146 -1478.154
v 335.0738 36.39816 -1488.265
v 327.0508 36.79193 -1479.752
v 325.8514 36.70241 -1481.35
v 336.2752 36.4853 -1486.668
v 344.0443 36.11803 -1495.005
v 328.2502 36.88146 -1478.154
v 345.2469 36.20283 -1493.409
v 337.4766 36.57243 -1485.071
v 346.4494 36.28762 -1491.813
v 352.9105 35.84792 -1501.673
v 345.2469 36.20283 -1493.409
v 344.0443 36.11803 -1495.005
v 354.1132 35.93042 -1500.077
v 361.8197 35.57375 -1508.371
v 346.4494 36.28762 -1491.813
v 363.0216 35.654 -1506.774
v 355.3159 36.01293 -1498.481
v 364.2236 35.73424 -1505.177
v 370.9194 35.28143 -1515.2
v 363.0216 35.654 -1506.774
v 361.8197 35.57375 -1508.371
v 372.1197 35.35944 -1513.602
v 380.357 34.95689 -1522.264
v 364.2236 35.73424 -1505.177
v 381.5548 35.03266 -1520.664
v 373.3199 35.43745 -1512.005
v 382.7526 35.10843 -1519.064

vn -0.02593858 0.9993175 -0.02630015
vn -0.01806554 0.9993254 -0.03197577
vn -0.01806554 0.9993254 -0.03197577
vn -0.02593858 0.9993175 -0.02630015
vn -0.03163594 0.9992681 -0.02150657
vn -0.01806554 0.9993254 -0.03197577
vn -0.03163594 0.9992681 -0.02150657
vn -0.02593858 0.9993175 -0.02630015
vn -0.03163594 0.9992681 -0.02150657
vn -0.03518547 0.9991904 -0.01950716
vn -0.03163594 0.9992681 -0.02150657
vn -0.03163594 0.9992681 -0.02150657
vn -0.03518547 0.9991904 -0.01950716
vn -0.03692329 0.9990869 -0.02149999
vn -0.03163594 0.9992681 -0.02150657
vn -0.03692329 0.9990869 -0.02149999
vn -0.03518547 0.9991904 -0.01950716
vn -0.03692329 0.9990869 -0.02149999
vn -0.03700866 0.9989353 -0.02754656
vn -0.03692329 0.9990869 -0.02149999
vn -0.03692329 0.9990869 -0.02149999
vn -0.03700866 0.9989353 -0.02754656
vn -0.0353751 0.9987012 -0.03666493
vn -0.03692329 0.9990869 -0.02149999
vn -0.0353751 0.9987012 -0.03666493
vn -0.03700866 0.9989353 -0.02754656
vn -0.0353751 0.9987012 -0.03666493
vn -0.03209054 0.9983649 -0.04730489
vn -0.0353751 0.9987012 -0.03666493
vn -0.0353751 0.9987012 -0.03666493
vn -0.03209054 0.9983649 -0.04730489
vn -0.02761787 0.9979348 -0.05799477
vn -0.0353751 0.9987012 -0.03666493
vn -0.02761787 0.9979348 -0.05799477
vn -0.03209054 0.9983649 -0.04730489
vn -0.02761787 0.9979348 -0.05799477
vn -0.02267667 0.9974404 -0.06781238
vn -0.02761787 0.9979348 -0.05799477
vn -0.02761787 0.9979348 -0.05799477
vn -0.02267667 0.9974404 -0.06781238
vn -0.01791439 0.9969135 -0.07643615
vn -0.02761787 0.9979348 -0.05799477
vn -0.01791439 0.9969135 -0.07643615
vn -0.02267667 0.9974404 -0.06781238
vn -0.01791439 0.9969135 -0.07643615
vn -0.009873328 0.9967914 -0.07943257
vn -0.01791439 0.9969135 -0.07643615
vn -0.01791439 0.9969135 -0.07643615
vn -0.009873328 0.9967914 -0.07943257
vn -0.004396256 0.9967571 -0.08034892
vn -0.01791439 0.9969135 -0.07643615
vn -0.004396256 0.9967571 -0.08034892
vn -0.009873328 0.9967914 -0.07943257
vn -0.004396256 0.9967571 -0.08034892
vn -0.0005520654 0.9967818 -0.08016159
vn -0.004396256 0.9967571 -0.08034892
vn -0.004396256 0.9967571 -0.08034892
vn -0.0005520654 0.9967818 -0.08016159
vn 0.002180176 0.9968483 -0.07930164
vn -0.004396256 0.9967571 -0.08034892
vn 0.002180176 0.9968483 -0.07930164
vn -0.0005520654 0.9967818 -0.08016159
vn 0.002180176 0.9968483 -0.07930164
vn 0.004076934 0.9969481 -0.07795927
vn 0.002180176 0.9968483 -0.07930164
vn 0.002180176 0.9968483 -0.07930164
vn 0.004076934 0.9969481 -0.07795927
vn 0.005269624 0.9970784 -0.07620368
vn 0.002180176 0.9968483 -0.07930164
vn 0.005269624 0.9970784 -0.07620368
vn 0.004076934 0.9969481 -0.07795927
vn 0.005269624 0.9970784 -0.07620368
vn 0.005788183 0.9972396 -0.0740229
vn 0.005269624 0.9970784 -0.07620368
vn 0.005269624 0.9970784 -0.07620368
vn 0.005788183 0.9972396 -0.0740229
vn 0.005566548 0.9974376 -0.07132442
vn 0.005269624 0.9970784 -0.07620368
vn 0.005566548 0.9974376 -0.07132442
vn 0.005788183 0.9972396 -0.0740229
vn 0.005566548 0.9974376 -0.07132442
vn 0.004416659 0.9976828 -0.06789471
vn 0.005566548 0.9974376 -0.07132442
vn 0.005566548 0.9974376 -0.07132442
vn 0.004416659 0.9976828 -0.06789471
vn 0.00197727 0.997992 -0.06331032
vn 0.005566548 0.9974376 -0.07132442
vn 0.00197727 0.997992 -0.06331032
vn 0.004416659 0.9976828 -0.06789471
vn 0.00197727 0.997992 -0.06331032
vn 9.651198E-06 0.9981768 -0.06035924
vn 0.00197727 0.997992 -0.06331032
vn 0.00197727 0.997992 -0.06331032
vn 9.651198E-06 0.9981768 -0.06035924
vn -0.001870638 0.9983453 -0.05747489
vn 0.00197727 0.997992 -0.06331032
vn -0.001870638 0.9983453 -0.05747489
vn 9.651198E-06 0.9981768 -0.06035924
vn -0.001870638 0.9983453 -0.05747489
vn -0.003531626 0.9984933 -0.05475866
vn -0.001870638 0.9983453 -0.05747489
vn -0.001870638 0.9983453 -0.05747489
vn -0.003531626 0.9984933 -0.05475866
vn -0.004826556 0.9986185 -0.05232399
vn -0.001870638 0.9983453 -0.05747489
vn -0.004826556 0.9986185 -0.05232399
vn -0.003531626 0.9984933 -0.05475866
vn -0.004826556 0.9986185 -0.05232399
vn -0.005612088 0.9987193 -0.05028248
vn -0.004826556 0.9986185 -0.05232399
vn -0.004826556 0.9986185 -0.05232399
vn -0.005612088 0.9987193 -0.05028248
vn -0.005767915 0.9987956 -0.04872563
vn -0.004826556 0.9986185 -0.05232399
vn -0.005767915 0.9987956 -0.04872563
vn -0.005612088 0.9987193 -0.05028248
vn -0.005767915 0.9987956 -0.04872563
vn -0.005217987 0.9988477 -0.04770882
vn -0.005767915 0.9987956 -0.04872563
vn -0.005767915 0.9987956 -0.04872563
vn -0.005217987 0.9988477 -0.04770882
vn -0.003943764 0.9988759 -0.04723825
vn -0.005767915 0.9987956 -0.04872563
vn -0.003943764 0.9988759 -0.04723825
vn -0.005217987 0.9988477 -0.04770882
vn -0.003943764 0.9988759 -0.04723825
vn -0.001989635 0.9988802 -0.04726946
vn -0.003943764 0.9988759 -0.04723825
vn -0.003943764 0.9988759 -0.04723825
vn -0.001989635 0.9988802 -0.04726946
vn 0.0005444902 0.9988608 -0.04771348
vn -0.003943764 0.9988759 -0.04723825
vn 0.0005444902 0.9988608 -0.04771348
vn -0.001989635 0.9988802 -0.04726946
vn 0.0005444902 0.9988608 -0.04771348

vt 0.5 0
vt 1 0.5
vt 1 0
vt 0.5 0.5
vt 0 0
vt 1 1
vt 0 0.5
vt 0.5 1
vt 0 1
vt 0.5 0
vt 1 0.5
vt 1 0
vt 0.5 0.5
vt 0 0
vt 1 1
vt 0 0.5
vt 0.5 1
vt 0 1
vt 0.5 0
vt 1 0.5
vt 1 0
vt 0.5 0.5
vt 0 0
vt 1 1
vt 0 0.5
vt 0.5 1
vt 0 1
vt 0.5 0
vt 1 0.5
vt 1 0
vt 0.5 0.5
vt 0 0
vt 1 1
vt 0 0.5
vt 0.5 1
vt 0 1
vt 0.5 0
vt 1 0.5
vt 1 0
vt 0.5 0.5
vt 0 0
vt 1 1
vt 0 0.5
vt 0.5 1
vt 0 1
vt 0.5 0
vt 1 0.5
vt 1 0
vt 0.5 0.5
vt 0 0
vt 1 1
vt 0 0.5
vt 0.5 1
vt 0 1
vt 0.5 0
vt 1 0.5
vt 1 0
vt 0.5 0.5
vt 0 0
vt 1 1
vt 0 0.5
vt 0.5 1
vt 0 1
vt 0.5 0
vt 1 0.5
vt 1 0
vt 0.5 0.5
vt 0 0
vt 1 1
vt 0 0.5
vt 0.5 1
vt 0 1
vt 0.5 0
vt 1 0.5
vt 1 0
vt 0.5 0.5
vt 0 0
vt 1 1
vt 0 0.5
vt 0.5 1
vt 0 1
vt 0.5 0
vt 1 0.5
vt 1 0
vt 0.5 0.5
vt 0 0
vt 1 1
vt 0 0.5
vt 0.5 1
vt 0 1
vt 0.5 0
vt 1 0.5
vt 1 0
vt 0.5 0.5
vt 0 0
vt 1 1
vt 0 0.5
vt 0.5 1
vt 0 1
vt 0.5 0
vt 1 0.5
vt 1 0
vt 0.5 0.5
vt 0 0
vt 1 1
vt 0 0.5
vt 0.5 1
vt 0 1
vt 0.5 0
vt 1 0.5
vt 1 0
vt 0.5 0.5
vt 0 0
vt 1 1
vt 0 0.5
vt 0.5 1
vt 0 1
vt 0.5 0
vt 1 0.5
vt 1 0
vt 0.5 0.5
vt 0 0
vt 1 1
vt 0 0.5
vt 0.5 1
vt 0 1
vt 0.5 0
vt 1 0.5
vt 1 0
vt 0.5 0.5
vt 0 0
vt 1 1
vt 0 0.5
vt 0.5 1
vt 0 1

vt2 0 0
vt2 0 0
vt2 0 0
vt2 0 0
vt2 0 0
vt2 0 0
vt2 0 0
vt2 0 0
vt2 0 0
vt2 0 0
vt2 0 0
vt2 0 0
vt2 0 0
vt2 0 0
vt2 0 0
vt2 0 0
vt2 0 0
vt2 0 0
vt2 0 0
vt2 0 0
vt2 0 0
vt2 0 0
vt2 0 0
vt2 0 0
vt2 0 0
vt2 0 0
vt2 0 0
vt2 0 0
vt2 0 0
vt2 0 0
vt2 0 0
vt2 0 0
vt2 0 0
vt2 0 0
vt2 0 0
vt2 0 0
vt2 0 0
vt2 0 0
vt2 0 0
vt2 0 0
vt2 0 0
vt2 0 0
vt2 0 0
vt2 0 0
vt2 0 0
vt2 0 0
vt2 0 0
vt2 0 0
vt2 0 0
vt2 0 0
vt2 0 0
vt2 0 0
vt2 0 0
vt2 0 0
vt2 0 0
vt2 0 0
vt2 0 0
vt2 0 0
vt2 0 0
vt2 0 0
vt2 0 0
vt2 0 0
vt2 0 0
vt2 0 0
vt2 0 0
vt2 0 0
vt2 0 0
vt2 0 0
vt2 0 0
vt2 0 0
vt2 0 0
vt2 0 0
vt2 0 0
vt2 0 0
vt2 0 0
vt2 0 0
vt2 0 0
vt2 0 0
vt2 0 0
vt2 0 0
vt2 0 0
vt2 0 0
vt2 0 0
vt2 0 0
vt2 0 0
vt2 0 0
vt2 0 0
vt2 0 0
vt2 0 0
vt2 0 0
vt2 0 0
vt2 0 0
vt2 0 0
vt2 0 0
vt2 0 0
vt2 0 0
vt2 0 0
vt2 0 0
vt2 0 0
vt2 0 0
vt2 0 0
vt2 0 0
vt2 0 0
vt2 0 0
vt2 0 0
vt2 0 0
vt2 0 0
vt2 0 0
vt2 0 0
vt2 0 0
vt2 0 0
vt2 0 0
vt2 0 0
vt2 0 0
vt2 0 0
vt2 0 0
vt2 0 0
vt2 0 0
vt2 0 0
vt2 0 0
vt2 0 0
vt2 0 0
vt2 0 0
vt2 0 0
vt2 0 0
vt2 0 0
vt2 0 0
vt2 0 0
vt2 0 0
vt2 0 0
vt2 0 0
vt2 0 0
vt2 0 0
vt2 0 0
vt2 0 0

vt2 0 0
vt2 0 0
vt2 0 0
vt2 0 0
vt2 0 0
vt2 0 0
vt2 0 0
vt2 0 0
vt2 0 0
vt2 0 0
vt2 0 0
vt2 0 0
vt2 0 0
vt2 0 0
vt2 0 0
vt2 0 0
vt2 0 0
vt2 0 0
vt2 0 0
vt2 0 0
vt2 0 0
vt2 0 0
vt2 0 0
vt2 0 0
vt2 0 0
vt2 0 0
vt2 0 0
vt2 0 0
vt2 0 0
vt2 0 0
vt2 0 0
vt2 0 0
vt2 0 0
vt2 0 0
vt2 0 0
vt2 0 0
vt2 0 0
vt2 0 0
vt2 0 0
vt2 0 0
vt2 0 0
vt2 0 0
vt2 0 0
vt2 0 0
vt2 0 0
vt2 0 0
vt2 0 0
vt2 0 0
vt2 0 0
vt2 0 0
vt2 0 0
vt2 0 0
vt2 0 0
vt2 0 0
vt2 0 0
vt2 0 0
vt2 0 0
vt2 0 0
vt2 0 0
vt2 0 0
vt2 0 0
vt2 0 0
vt2 0 0
vt2 0 0
vt2 0 0
vt2 0 0
vt2 0 0
vt2 0 0
vt2 0 0
vt2 0 0
vt2 0 0
vt2 0 0
vt2 0 0
vt2 0 0
vt2 0 0
vt2 0 0
vt2 0 0
vt2 0 0
vt2 0 0
vt2 0 0
vt2 0 0
vt2 0 0
vt2 0 0
vt2 0 0
vt2 0 0
vt2 0 0
vt2 0 0
vt2 0 0
vt2 0 0
vt2 0 0
vt2 0 0
vt2 0 0
vt2 0 0
vt2 0 0
vt2 0 0
vt2 0 0
vt2 0 0
vt2 0 0
vt2 0 0
vt2 0 0
vt2 0 0
vt2 0 0
vt2 0 0
vt2 0 0
vt2 0 0
vt2 0 0
vt2 0 0
vt2 0 0
vt2 0 0
vt2 0 0
vt2 0 0
vt2 0 0
vt2 0 0
vt2 0 0
vt2 0 0
vt2 0 0
vt2 0 0
vt2 0 0
vt2 0 0
vt2 0 0
vt2 0 0
vt2 0 0
vt2 0 0
vt2 0 0
vt2 0 0
vt2 0 0
vt2 0 0
vt2 0 0
vt2 0 0
vt2 0 0
vt2 0 0
vt2 0 0
vt2 0 0
vt2 0 0
vt2 0 0

vc 1 1 1 1
vc 1 1 1 1
vc 1 1 1 1
vc 1 1 1 1
vc 1 1 1 1
vc 1 1 1 1
vc 1 1 1 1
vc 1 1 1 1
vc 1 1 1 1
vc 1 1 1 1
vc 1 1 1 1
vc 1 1 1 1
vc 1 1 1 1
vc 1 1 1 1
vc 1 1 1 1
vc 1 1 1 1
vc 1 1 1 1
vc 1 1 1 1
vc 1 1 1 1
vc 1 1 1 1
vc 1 1 1 1
vc 1 1 1 1
vc 1 1 1 1
vc 1 1 1 1
vc 1 1 1 1
vc 1 1 1 1
vc 1 1 1 1
vc 1 1 1 1
vc 1 1 1 1
vc 1 1 1 1
vc 1 1 1 1
vc 1 1 1 1
vc 1 1 1 1
vc 1 1 1 1
vc 1 1 1 1
vc 1 1 1 1
vc 1 1 1 1
vc 1 1 1 1
vc 1 1 1 1
vc 1 1 1 1
vc 1 1 1 1
vc 1 1 1 1
vc 1 1 1 1
vc 1 1 1 1
vc 1 1 1 1
vc 1 1 1 1
vc 1 1 1 1
vc 1 1 1 1
vc 1 1 1 1
vc 1 1 1 1
vc 1 1 1 1
vc 1 1 1 1
vc 1 1 1 1
vc 1 1 1 1
vc 1 1 1 1
vc 1 1 1 1
vc 1 1 1 1
vc 1 1 1 1
vc 1 1 1 1
vc 1 1 1 1
vc 1 1 1 1
vc 1 1 1 1
vc 1 1 1 1
vc 1 1 1 1
vc 1 1 1 1
vc 1 1 1 1
vc 1 1 1 1
vc 1 1 1 1
vc 1 1 1 1
vc 1 1 1 1
vc 1 1 1 1
vc 1 1 1 1
vc 1 1 1 1
vc 1 1 1 1
vc 1 1 1 1
vc 1 1 1 1
vc 1 1 1 1
vc 1 1 1 1
vc 1 1 1 1
vc 1 1 1 1
vc 1 1 1 1
vc 1 1 1 1
vc 1 1 1 1
vc 1 1 1 1
vc 1 1 1 1
vc 1 1 1 1
vc 1 1 1 1
vc 1 1 1 1
vc 1 1 1 1
vc 1 1 1 1
vc 1 1 1 1
vc 1 1 1 1
vc 1 1 1 1
vc 1 1 1 1
vc 1 1 1 1
vc 1 1 1 1
vc 1 1 1 1
vc 1 1 1 1
vc 1 1 1 1
vc 1 1 1 1
vc 1 1 1 1
vc 1 1 1 1
vc 1 1 1 1
vc 1 1 1 1
vc 1 1 1 1
vc 1 1 1 1
vc 1 1 1 1
vc 1 1 1 1
vc 1 1 1 1
vc 1 1 1 1
vc 1 1 1 1
vc 1 1 1 1
vc 1 1 1 1
vc 1 1 1 1
vc 1 1 1 1
vc 1 1 1 1
vc 1 1 1 1
vc 1 1 1 1
vc 1 1 1 1
vc 1 1 1 1
vc 1 1 1 1
vc 1 1 1 1
vc 1 1 1 1
vc 1 1 1 1
vc 1 1 1 1
vc 1 1 1 1
vc 1 1 1 1
vc 1 1 1 1
vc 1 1 1 1
vc 1 1 1 1
vc 1 1 1 1
vc 1 1 1 1
vc 1 1 1 1
vc 1 1 1 1
vc 1 1 1 1

usemtl Default-Diffuse
usemap Default-Diffuse
f 3/3/3 2/2/2 1/1/1
f 2/2/2 4/4/4 1/1/1
f 1/1/1 4/4/4 5/5/5
f 2/2/2 6/6/6 4/4/4
f 4/4/4 7/7/7 5/5/5
f 6/6/6 8/8/8 4/4/4
f 4/4/4 8/8/8 7/7/7
f 8/8/8 9/9/9 7/7/7
f 12/12/12 11/11/11 10/10/10
f 11/11/11 13/13/13 10/10/10
f 10/10/10 13/13/13 14/14/14
f 11/11/11 15/15/15 13/13/13
f 13/13/13 16/16/16 14/14/14
f 15/15/15 17/17/17 13/13/13
f 13/13/13 17/17/17 16/16/16
f 17/17/17 18/18/18 16/16/16
f 21/21/21 20/20/20 19/19/19
f 20/20/20 22/22/22 19/19/19
f 19/19/19 22/22/22 23/23/23
f 20/20/20 24/24/24 22/22/22
f 22/22/22 25/25/25 23/23/23
f 24/24/24 26/26/26 22/22/22
f 22/22/22 26/26/26 25/25/25
f 26/26/26 27/27/27 25/25/25
f 30/30/30 29/29/29 28/28/28
f 29/29/29 31/31/31 28/28/28
f 28/28/28 31/31/31 32/32/32
f 29/29/29 33/33/33 31/31/31
f 31/31/31 34/34/34 32/32/32
f 33/33/33 35/35/35 31/31/31
f 31/31/31 35/35/35 34/34/34
f 35/35/35 36/36/36 34/34/34
f 39/39/39 38/38/38 37/37/37
f 38/38/38 40/40/40 37/37/37
f 37/37/37 40/40/40 41/41/41
f 38/38/38 42/42/42 40/40/40
f 40/40/40 43/43/43 41/41/41
f 42/42/42 44/44/44 40/40/40
f 40/40/40 44/44/44 43/43/43
f 44/44/44 45/45/45 43/43/43
f 48/48/48 47/47/47 46/46/46
f 47/47/47 49/49/49 46/46/46
f 46/46/46 49/49/49 50/50/50
f 47/47/47 51/51/51 49/49/49
f 49/49/49 52/52/52 50/50/50
f 51/51/51 53/53/53 49/49/49
f 49/49/49 53/53/53 52/52/52
f 53/53/53 54/54/54 52/52/52
f 57/57/57 56/56/56 55/55/55
f 56/56/56 58/58/58 55/55/55
f 55/55/55 58/58/58 59/59/59
f 56/56/56 60/60/60 58/58/58
f 58/58/58 61/61/61 59/59/59
f 60/60/60 62/62/62 58/58/58
f 58/58/58 62/62/62 61/61/61
f 62/62/62 63/63/63 61/61/61
f 66/66/66 65/65/65 64/64/64
f 65/65/65 67/67/67 64/64/64
f 64/64/64 67/67/67 68/68/68
f 65/65/65 69/69/69 67/67/67
f 67/67/67 70/70/70 68/68/68
f 69/69/69 71/71/71 67/67/67
f 67/67/67 71/71/71 70/70/70
f 71/71/71 72/72/72 70/70/70
f 75/75/75 74/74/74 73/73/73
f 74/74/74 76/76/76 73/73/73
f 73/73/73 76/76/76 77/77/77
f 74/74/74 78/78/78 76/76/76
f 76/76/76 79/79/79 77/77/77
f 78/78/78 80/80/80 76/76/76
f 76/76/76 80/80/80 79/79/79
f 80/80/80 81/81/81 79/79/79
f 84/84/84 83/83/83 82/82/82
f 83/83/83 85/85/85 82/82/82
f 82/82/82 85/85/85 86/86/86
f 83/83/83 87/87/87 85/85/85
f 85/85/85 88/88/88 86/86/86
f 87/87/87 89/89/89 85/85/85
f 85/85/85 89/89/89 88/88/88
f 89/89/89 90/90/90 88/88/88
f 93/93/93 92/92/92 91/91/91
f 92/92/92 94/94/94 91/91/91
f 91/91/91 94/94/94 95/95/95
f 92/92/92 96/96/96 94/94/94
f 94/94/94 97/97/97 95/95/95
f 96/96/96 98/98/98 94/94/94
f 94/94/94 98/98/98 97/97/97
f 98/98/98 99/99/99 97/97/97
f 102/102/102 101/101/101 100/100/100
f 101/101/101 103/103/103 100/100/100
f 100/100/100 103/103/103 104/104/104
f 101/101/101 105/105/105 103/103/103
f 103/103/103 106/106/106 104/104/104
f 105/105/105 107/107/107 103/103/103
f 103/103/103 107/107/107 106/106/106
f 107/107/107 108/108/108 106/106/106
f 111/111/111 110/110/110 109/109/109
f 110/110/110 112/112/112 109/109/109
f 109/109/109 112/112/112 113/113/113
f 110/110/110 114/114/114 112/112/112
f 112/112/112 115/115/115 113/113/113
f 114/114/114 116/116/116 112/112/112
f 112/112/112 116/116/116 115/115/115
f 116/116/116 117/117/117 115/115/115
f 120/120/120 119/119/119 118/118/118
f 119/119/119 121/121/121 118/118/118
f 118/118/118 121/121/121 122/122/122
f 119/119/119 123/123/123 121/121/121
f 121/121/121 124/124/124 122/122/122
f 123/123/123 125/125/125 121/121/121
f 121/121/121 125/125/125 124/124/124
f 125/125/125 126/126/126 124/124/124
f 129/129/129 128/128/128 127/127/127
f 128/128/128 130/130/130 127/127/127
f 127/127/127 130/130/130 131/131/131
f 128/128/128 132/132/132 130/130/130
f 130/130/130 133/133/133 131/131/131
f 132/132/132 134/134/134 130/130/130
f 130/130/130 134/134/134 133/133/133
f 134/134/134 135/135/135 133/133/133
