g Custom Mesh - Baked
v 533.7427 79.99342 883.6833
v 532.8731 79.94888 881.1957
v 534.0919 79.83902 881.2127
v 532.4456 80.10983 883.4627
v 533.3934 80.14781 886.154
v 531.9942 80.02325 881.1942
v 532.0181 80.27077 885.7297
v 531.4813 80.18849 883.2498
v 530.9684 80.35373 885.3053
v 531.4813 80.18849 883.2498
v 531.2747 80.08352 881.1874
v 531.9942 80.02325 881.1942
v 530.715 80.24431 883.0353
v 530.9684 80.35373 885.3053
v 530.5016 80.15148 881.139
v 530.1554 80.4051 884.8832
v 529.9901 80.29439 882.8065
v 529.4786 80.43729 884.474
v 529.9901 80.29439 882.8065
v 529.551 80.23719 881.0518
v 530.5016 80.15148 881.139
v 529.1435 80.35694 882.5554
v 529.4786 80.43729 884.474
v 528.3152 80.35134 880.9324
v 528.736 80.47669 884.0591
v 528.0151 80.44959 882.2706
v 527.715 80.54784 883.6089
v 528.0151 80.44959 882.2706
v 525.7205 80.58712 880.5229
v 528.3152 80.35134 880.9324
v 525.482 80.67559 881.7467
v 527.715 80.54784 883.6088
v 518.0273 81.26714 878.9949
v 525.2435 80.76406 882.9705
v 517.7938 81.36307 880.2191
v 517.5602 81.45899 881.4434
v 517.7938 81.36307 880.2191
v 504.6776 82.44137 876.3771
v 518.0273 81.26714 878.9949
v 504.4483 82.54483 877.6015
v 517.5602 81.45899 881.4434
v 487.9734 83.89165 873.1607
v 504.2189 82.64829 878.8259
v 487.7496 84.00253 874.3855
v 487.5258 84.11342 875.6103
v 487.7496 84.00253 874.3854
v 470.4131 85.3865 869.863
v 487.9734 83.89165 873.1607
v 470.1975 85.50462 871.0886
v 487.5258 84.11342 875.6102
v 454.2917 86.70514 866.9825
v 469.9819 85.62275 872.3141
v 454.0913 86.83003 868.21
v 453.891 86.95493 869.4375
v 454.0913 86.83003 868.21
v 441.9443 87.6281 865.0126
v 454.2917 86.70514 866.9825
v 441.7852 87.7578 866.2456
v 453.891 86.95493 869.4375
v 433.5414 88.08548 863.4686
v 441.6261 87.8875 867.4786
v 433.6294 88.28033 865.5828
v 433.7174 88.47519 867.697
v 433.6294 88.28033 865.5828
v 426.4897 88.42286 863.3888
v 433.5414 88.08548 863.4686
v 427.5783 88.63775 866.6423
v 433.7174 88.47519 867.697
v 419.9304 88.78394 865.2977
v 428.667 88.85264 869.8958
v 422.7177 88.90408 869.1421
v 425.5049 89.02421 872.9865
v 422.7177 88.90408 869.1421
v 414.0534 89.14223 869.0345
v 419.9304 88.78394 865.2977
v 418.7798 89.0849 872.8309
v 425.5049 89.02421 872.9865
v 409.1797 89.40936 874.2061
v 423.5061 89.02757 876.6272
v 415.67 89.16579 877.7
v 422.1603 88.92221 881.1938
v 415.67 89.16579 877.7
v 405.002 89.56911 880.1876
v 409.1797 89.40936 874.2061
v 413.0594 89.15981 883.4099
v 422.1604 88.92221 881.1938
v 401.2616 89.61294 886.6229
v 421.1168 88.75052 886.6323
v 410.7378 89.06998 889.7703
v 420.2141 88.52702 892.9177

vn 0.2000972 1.987652 -0.09592274
vn 0.2063597 2.149287 -0.1136877
vn 0.2000972 1.987652 -0.09592274
vn 0.2063595 2.149287 -0.1136877
vn 0.2000972 1.987652 -0.09592274
vn 0.2129059 2.3394 -0.134934
vn 0.2063595 2.149287 -0.1136877
vn 0.2129059 2.3394 -0.134934
vn 0.2129059 2.3394 -0.134934
vn 0.2129059 2.3394 -0.134934
vn 0.2250511 2.566129 -0.1551174
vn 0.2129059 2.3394 -0.134934
vn 0.2250511 2.566129 -0.1551174
vn 0.2129059 2.3394 -0.134934
vn 0.2519557 2.841154 -0.1662097
vn 0.2250511 2.566129 -0.1551174
vn 0.2519557 2.841154 -0.1662097
vn 0.2519557 2.841154 -0.1662097
vn 0.2519557 2.841154 -0.1662097
vn 0.2951714 3.181635 -0.1734026
vn 0.2519557 2.841154 -0.1662097
vn 0.2951714 3.181635 -0.1734026
vn 0.2519557 2.841154 -0.1662097
vn 0.3534884 3.614355 -0.1860812
vn 0.2951714 3.181635 -0.1734026
vn 0.3534884 3.614355 -0.1860812
vn 0.3534884 3.614355 -0.1860812
vn 0.3534884 3.614355 -0.1860812
vn 0.4002816 3.974414 -0.2092951
vn 0.3534884 3.614355 -0.1860812
vn 0.4002816 3.974414 -0.2092951
vn 0.3534884 3.614355 -0.1860812
vn 0.4004323 3.972967 -0.2349168
vn 0.4002816 3.974414 -0.2092951
vn 0.4004323 3.972967 -0.2349168
vn 0.4004323 3.972967 -0.2349168
vn 0.4004323 3.972967 -0.2349168
vn 0.4004939 3.971362 -0.2605494
vn 0.4004323 3.972967 -0.2349168
vn 0.4004939 3.971362 -0.2605494
vn 0.4004323 3.972967 -0.2349168
vn 0.3982498 3.969791 -0.2866272
vn 0.4004939 3.971362 -0.2605494
vn 0.3982498 3.969791 -0.2866272
vn 0.3982498 3.969791 -0.2866272
vn 0.3982498 3.969791 -0.2866272
vn 0.3919436 3.968385 -0.313529
vn 0.3982498 3.969791 -0.2866272
vn 0.3919436 3.968385 -0.313529
vn 0.3982498 3.969791 -0.2866272
vn 0.3746139 3.96766 -0.3425459
vn 0.3919436 3.968385 -0.313529
vn 0.3746139 3.96766 -0.3425459
vn 0.3746139 3.96766 -0.3425459
vn 0.3746139 3.96766 -0.3425459
vn 0.3167025 3.969609 -0.3767001
vn 0.3746139 3.96766 -0.3425459
vn 0.3167025 3.969609 -0.3767001
vn 0.3746139 3.96766 -0.3425459
vn 0.132505 2.338783 -0.2210723
vn 0.3167025 3.969609 -0.3767001
vn 0.132505 2.338782 -0.2210723
vn 0.132505 2.338782 -0.2210723
vn 0.1325049 2.338782 -0.2210723
vn 0.04661279 1.449529 -0.111338
vn 0.132505 2.338782 -0.2210723
vn 0.04661279 1.449529 -0.111338
vn 0.1325049 2.338782 -0.2210723
vn 0.01954163 1.051399 -0.04702334
vn 0.04661279 1.449528 -0.111338
vn 0.01954163 1.051399 -0.04702335
vn 0.01954162 1.051399 -0.04702334
vn 0.01954162 1.051399 -0.04702334
vn 0.01822802 0.824477 -0.01024286
vn 0.01954162 1.051399 -0.04702334
vn 0.01822802 0.824477 -0.01024286
vn 0.01954162 1.051399 -0.04702334
vn 0.02188486 0.6775808 0.006584088
vn 0.01822802 0.824477 -0.01024286
vn 0.02188486 0.6775808 0.006584088
vn 0.02188486 0.6775808 0.006584088
vn 0.02188485 0.6775808 0.006584104
vn 0.02355248 0.5748838 0.0141276
vn 0.02188486 0.6775808 0.006584088
vn 0.02355248 0.5748838 0.0141276
vn 0.02188485 0.6775808 0.006584104
vn 0.02261877 0.4991633 0.01800985
vn 0.02355248 0.5748838 0.0141276
vn 0.02261877 0.4991633 0.01800985
vn 0.02261881 0.4991633 0.0180098

vt 0.5 0
vt 1 0.5
vt 1 0
vt 0.5 0.5
vt 0 0
vt 1 1
vt 0 0.5
vt 0.5 1
vt 0 1
vt 0.5 0
vt 1 0.5
vt 1 0
vt 0.5 0.5
vt 0 0
vt 1 1
vt 0 0.5
vt 0.5 1
vt 0 1
vt 0.5 0
vt 1 0.5
vt 1 0
vt 0.5 0.5
vt 0 0
vt 1 1
vt 0 0.5
vt 0.5 1
vt 0 1
vt 0.5 0
vt 1 0.5
vt 1 0
vt 0.5 0.5
vt 0 0
vt 1 1
vt 0 0.5
vt 0.5 1
vt 0 1
vt 0.5 0
vt 1 0.5
vt 1 0
vt 0.5 0.5
vt 0 0
vt 1 1
vt 0 0.5
vt 0.5 1
vt 0 1
vt 0.5 0
vt 1 0.5
vt 1 0
vt 0.5 0.5
vt 0 0
vt 1 1
vt 0 0.5
vt 0.5 1
vt 0 1
vt 0.5 0
vt 1 0.5
vt 1 0
vt 0.5 0.5
vt 0 0
vt 1 1
vt 0 0.5
vt 0.5 1
vt 0 1
vt 0.5 0
vt 1 0.5
vt 1 0
vt 0.5 0.5
vt 0 0
vt 1 1
vt 0 0.5
vt 0.5 1
vt 0 1
vt 0.5 0
vt 1 0.5
vt 1 0
vt 0.5 0.5
vt 0 0
vt 1 1
vt 0 0.5
vt 0.5 1
vt 0 1
vt 0.5 0
vt 1 0.5
vt 1 0
vt 0.5 0.5
vt 0 0
vt 1 1
vt 0 0.5
vt 0.5 1
vt 0 1

vt2 0.9924245 0.2020326
vt2 0.9871097 0.1831651
vt2 0.996188 0.1838243
vt2 0.9828514 0.1998288
vt2 0.9886615 0.2202408
vt2 0.9805617 0.1827673
vt2 0.9785934 0.2164924
vt2 0.9757612 0.1978249
vt2 0.9709607 0.2128825
vt2 0.9757612 0.1978249
vt2 0.9752038 0.1824002
vt2 0.9805617 0.1827673
vt2 0.9701512 0.195895
vt2 0.9709607 0.2128825
vt2 0.9694636 0.1817024
vt2 0.9650986 0.2093897
vt2 0.9648574 0.1938756
vt2 0.9602512 0.2060488
vt2 0.9648574 0.1938756
vt2 0.9624145 0.1806392
vt2 0.9694636 0.1817024
vt2 0.958665 0.1916384
vt2 0.9602512 0.2060488
vt2 0.9532525 0.1792141
vt2 0.9549153 0.2026376
vt2 0.9503835 0.1890298
vt2 0.9475145 0.1988455
vt2 0.9503835 0.1890298
vt2 0.934086 0.1750426
vt2 0.9532525 0.1792141
vt2 0.9317287 0.1840353
vt2 0.9475145 0.1988455
vt2 0.8774083 0.1603402
vt2 0.9293714 0.1930279
vt2 0.8750821 0.1693411
vt2 0.8727558 0.1783421
vt2 0.8750821 0.1693411
vt2 0.7790486 0.1350747
vt2 0.8774083 0.1603402
vt2 0.776747 0.1440821
vt2 0.8727558 0.1783421
vt2 0.6559612 0.1038905
vt2 0.7744456 0.1530895
vt2 0.653695 0.1129068
vt2 0.6514287 0.121923
vt2 0.653695 0.1129068
vt2 0.5265532 0.07171153
vt2 0.6559612 0.1038905
vt2 0.5243414 0.08074129
vt2 0.6514287 0.121923
vt2 0.4077255 0.0432286
vt2 0.5221295 0.08977105
vt2 0.4056205 0.05228368
vt2 0.4035154 0.06133876
vt2 0.4056205 0.05228368
vt2 0.3166754 0.02310832
vt2 0.4077255 0.0432286
vt2 0.3148697 0.03222797
vt2 0.4035154 0.06133876
vt2 0.2549116 0.007800075
vt2 0.313064 0.0413476
vt2 0.2545015 0.02359922
vt2 0.2540919 0.03939808
vt2 0.2545015 0.02359922
vt2 0.2025459 0.00390625
vt2 0.2549116 0.007800075
vt2 0.2090127 0.02864239
vt2 0.2540919 0.03939808
vt2 0.1528847 0.01497843
vt2 0.2154819 0.05337659
vt2 0.1716908 0.0448892
vt2 0.1904984 0.07479684
vt2 0.1716908 0.0448892
vt2 0.1074067 0.03991697
vt2 0.1528847 0.01497843
vt2 0.1406557 0.07037965
vt2 0.1904984 0.07479684
vt2 0.06869536 0.07595116
vt2 0.1739008 0.1008458
vt2 0.1152119 0.1050214
vt2 0.1617245 0.1341009
vt2 0.1152119 0.1050214
vt2 0.03477496 0.1183164
vt2 0.06869536 0.07595116
vt2 0.09308424 0.1461466
vt2 0.1617245 0.1341009
vt2 0.00390625 0.1642664
vt2 0.1513917 0.1739882
vt2 0.07280903 0.1922467
vt2 0.1417108 0.2202408

vt2 0 0
vt2 0 0
vt2 0 0
vt2 0 0
vt2 0 0
vt2 0 0
vt2 0 0
vt2 0 0
vt2 0 0
vt2 0 0
vt2 0 0
vt2 0 0
vt2 0 0
vt2 0 0
vt2 0 0
vt2 0 0
vt2 0 0
vt2 0 0
vt2 0 0
vt2 0 0
vt2 0 0
vt2 0 0
vt2 0 0
vt2 0 0
vt2 0 0
vt2 0 0
vt2 0 0
vt2 0 0
vt2 0 0
vt2 0 0
vt2 0 0
vt2 0 0
vt2 0 0
vt2 0 0
vt2 0 0
vt2 0 0
vt2 0 0
vt2 0 0
vt2 0 0
vt2 0 0
vt2 0 0
vt2 0 0
vt2 0 0
vt2 0 0
vt2 0 0
vt2 0 0
vt2 0 0
vt2 0 0
vt2 0 0
vt2 0 0
vt2 0 0
vt2 0 0
vt2 0 0
vt2 0 0
vt2 0 0
vt2 0 0
vt2 0 0
vt2 0 0
vt2 0 0
vt2 0 0
vt2 0 0
vt2 0 0
vt2 0 0
vt2 0 0
vt2 0 0
vt2 0 0
vt2 0 0
vt2 0 0
vt2 0 0
vt2 0 0
vt2 0 0
vt2 0 0
vt2 0 0
vt2 0 0
vt2 0 0
vt2 0 0
vt2 0 0
vt2 0 0
vt2 0 0
vt2 0 0
vt2 0 0
vt2 0 0
vt2 0 0
vt2 0 0
vt2 0 0
vt2 0 0
vt2 0 0
vt2 0 0
vt2 0 0
vt2 0 0

vc 1 1 1 1
vc 1 1 1 1
vc 1 1 1 1
vc 1 1 1 1
vc 1 1 1 1
vc 1 1 1 1
vc 1 1 1 1
vc 1 1 1 1
vc 1 1 1 1
vc 1 1 1 1
vc 1 1 1 1
vc 1 1 1 1
vc 1 1 1 1
vc 1 1 1 1
vc 1 1 1 1
vc 1 1 1 1
vc 1 1 1 1
vc 1 1 1 1
vc 1 1 1 1
vc 1 1 1 1
vc 1 1 1 1
vc 1 1 1 1
vc 1 1 1 1
vc 1 1 1 1
vc 1 1 1 1
vc 1 1 1 1
vc 1 1 1 1
vc 1 1 1 1
vc 1 1 1 1
vc 1 1 1 1
vc 1 1 1 1
vc 1 1 1 1
vc 1 1 1 1
vc 1 1 1 1
vc 1 1 1 1
vc 1 1 1 1
vc 1 1 1 1
vc 1 1 1 1
vc 1 1 1 1
vc 1 1 1 1
vc 1 1 1 1
vc 1 1 1 1
vc 1 1 1 1
vc 1 1 1 1
vc 1 1 1 1
vc 1 1 1 1
vc 1 1 1 1
vc 1 1 1 1
vc 1 1 1 1
vc 1 1 1 1
vc 1 1 1 1
vc 1 1 1 1
vc 1 1 1 1
vc 1 1 1 1
vc 1 1 1 1
vc 1 1 1 1
vc 1 1 1 1
vc 1 1 1 1
vc 1 1 1 1
vc 1 1 1 1
vc 1 1 1 1
vc 1 1 1 1
vc 1 1 1 1
vc 1 1 1 1
vc 1 1 1 1
vc 1 1 1 1
vc 1 1 1 1
vc 1 1 1 1
vc 1 1 1 1
vc 1 1 1 1
vc 1 1 1 1
vc 1 1 1 1
vc 1 1 1 1
vc 1 1 1 1
vc 1 1 1 1
vc 1 1 1 1
vc 1 1 1 1
vc 1 1 1 1
vc 1 1 1 1
vc 1 1 1 1
vc 1 1 1 1
vc 1 1 1 1
vc 1 1 1 1
vc 1 1 1 1
vc 1 1 1 1
vc 1 1 1 1
vc 1 1 1 1
vc 1 1 1 1
vc 1 1 1 1
vc 1 1 1 1

usemtl Default-Diffuse
usemap Default-Diffuse
f 3/3/3 2/2/2 1/1/1
f 2/2/2 4/4/4 1/1/1
f 1/1/1 4/4/4 5/5/5
f 2/2/2 6/6/6 4/4/4
f 4/4/4 7/7/7 5/5/5
f 6/6/6 8/8/8 4/4/4
f 4/4/4 8/8/8 7/7/7
f 8/8/8 9/9/9 7/7/7
f 12/12/12 11/11/11 10/10/10
f 11/11/11 13/13/13 10/10/10
f 10/10/10 13/13/13 14/14/14
f 11/11/11 15/15/15 13/13/13
f 13/13/13 16/16/16 14/14/14
f 15/15/15 17/17/17 13/13/13
f 13/13/13 17/17/17 16/16/16
f 17/17/17 18/18/18 16/16/16
f 21/21/21 20/20/20 19/19/19
f 20/20/20 22/22/22 19/19/19
f 19/19/19 22/22/22 23/23/23
f 20/20/20 24/24/24 22/22/22
f 22/22/22 25/25/25 23/23/23
f 24/24/24 26/26/26 22/22/22
f 22/22/22 26/26/26 25/25/25
f 26/26/26 27/27/27 25/25/25
f 30/30/30 29/29/29 28/28/28
f 29/29/29 31/31/31 28/28/28
f 28/28/28 31/31/31 32/32/32
f 29/29/29 33/33/33 31/31/31
f 31/31/31 34/34/34 32/32/32
f 33/33/33 35/35/35 31/31/31
f 31/31/31 35/35/35 34/34/34
f 35/35/35 36/36/36 34/34/34
f 39/39/39 38/38/38 37/37/37
f 38/38/38 40/40/40 37/37/37
f 37/37/37 40/40/40 41/41/41
f 38/38/38 42/42/42 40/40/40
f 40/40/40 43/43/43 41/41/41
f 42/42/42 44/44/44 40/40/40
f 40/40/40 44/44/44 43/43/43
f 44/44/44 45/45/45 43/43/43
f 48/48/48 47/47/47 46/46/46
f 47/47/47 49/49/49 46/46/46
f 46/46/46 49/49/49 50/50/50
f 47/47/47 51/51/51 49/49/49
f 49/49/49 52/52/52 50/50/50
f 51/51/51 53/53/53 49/49/49
f 49/49/49 53/53/53 52/52/52
f 53/53/53 54/54/54 52/52/52
f 57/57/57 56/56/56 55/55/55
f 56/56/56 58/58/58 55/55/55
f 55/55/55 58/58/58 59/59/59
f 56/56/56 60/60/60 58/58/58
f 58/58/58 61/61/61 59/59/59
f 60/60/60 62/62/62 58/58/58
f 58/58/58 62/62/62 61/61/61
f 62/62/62 63/63/63 61/61/61
f 66/66/66 65/65/65 64/64/64
f 65/65/65 67/67/67 64/64/64
f 64/64/64 67/67/67 68/68/68
f 65/65/65 69/69/69 67/67/67
f 67/67/67 70/70/70 68/68/68
f 69/69/69 71/71/71 67/67/67
f 67/67/67 71/71/71 70/70/70
f 71/71/71 72/72/72 70/70/70
f 75/75/75 74/74/74 73/73/73
f 74/74/74 76/76/76 73/73/73
f 73/73/73 76/76/76 77/77/77
f 74/74/74 78/78/78 76/76/76
f 76/76/76 79/79/79 77/77/77
f 78/78/78 80/80/80 76/76/76
f 76/76/76 80/80/80 79/79/79
f 80/80/80 81/81/81 79/79/79
f 84/84/84 83/83/83 82/82/82
f 83/83/83 85/85/85 82/82/82
f 82/82/82 85/85/85 86/86/86
f 83/83/83 87/87/87 85/85/85
f 85/85/85 88/88/88 86/86/86
f 87/87/87 89/89/89 85/85/85
f 85/85/85 89/89/89 88/88/88
f 89/89/89 90/90/90 88/88/88
