g Custom Mesh - Baked
v -289.2774 146.8113 340.7799
v -292.5555 147.5634 325.336
v -284.9458 146.1441 338.3732
v -296.78 148.2099 327.9314
v -293.609 147.4786 343.1865
v -299.4828 148.859 312.8341
v -301.0044 148.8565 330.5268
v -303.922 149.5443 315.0304
v -308.3612 150.2296 317.2267
v -303.922 149.5443 315.0304
v -304.373 149.8021 300.6952
v -299.4828 148.859 312.8341
v -308.9817 150.513 302.4993
v -308.3612 150.2296 317.2267
v -307.4514 150.4308 290.353
v -313.5904 151.2239 304.3033
v -312.3094 151.1854 291.2647
v -317.1673 151.94 292.1765
v -312.3094 151.1854 291.2647
v -308.2906 150.609 274.7141
v -307.4514 150.4308 290.353
v -313.2271 151.388 274.5595
v -317.1673 151.94 292.1765
v -306.0768 150.2533 246.1568
v -318.1636 152.1669 274.405
v -310.9908 151.0003 245.6136
v -315.9047 151.7474 245.0705
v -310.9908 151.0003 245.6136
v -301.4497 149.4061 212.9138
v -306.0768 150.2533 246.1568
v -306.3208 150.1006 212.0251
v -315.9047 151.7474 245.0705
v -295.2733 148.0498 186.5684
v -311.192 150.7952 211.1365
v -300.0016 148.7025 185.0796
v -304.73 149.3553 183.5909
v -300.0016 148.7025 185.0796
v -287.4963 146.1748 165.8683
v -295.2733 148.0498 186.5684
v -291.9901 146.8325 163.777
v -304.73 149.3553 183.5909
v -277.5045 143.6111 146.1497
v -296.4838 147.4902 161.6857
v -281.7968 144.2955 143.6783
v -286.0891 144.98 141.2068
v -281.7968 144.2955 143.6783
v -263.8013 139.9796 124.4394
v -277.5045 143.6111 146.1497
v -267.8388 140.5256 121.541
v -286.0891 144.98 141.2068
v -248.6938 135.9602 104.2883
v -271.8763 141.0715 118.6426
v -252.5026 136.3534 101.073
v -256.3114 136.7466 97.85765
v -252.5026 136.3534 101.073
v -237.335 133.195 92.11738
v -248.6938 135.9602 104.2883
v -240.5657 133.3694 88.30528
v -256.3114 136.7466 97.85765
v -230.1347 131.6242 87.64992
v -243.7964 133.5439 84.49319
v -231.8745 131.4589 82.96529
v -233.6143 131.2936 78.28065
v -231.8745 131.4589 82.96529
v -221.8297 130.1435 85.80057
v -230.1347 131.6242 87.64992
v -222.7031 129.817 80.8883
v -233.6143 131.2936 78.28065
v -211.3122 128.672 86.67738
v -223.5766 129.4904 75.97603
v -210.4231 128.0992 81.79053
v -209.534 127.5263 76.90369
v -210.4231 128.0992 81.79053
v -198.2531 127.0748 89.23981
v -211.3122 128.672 86.67738
v -197.6862 126.5426 84.30064
v -209.534 127.5263 76.90369
v -186.7742 125.569 88.65228
v -197.1193 126.0104 79.36147
v -187.8594 125.276 83.78027
v -188.9446 124.983 78.90826
v -187.8594 125.276 83.78027
v -177.7749 124.3131 85.16295
v -186.7742 125.569 88.65228
v -180.4616 124.3061 80.94612
v -188.9446 124.983 78.90826
v -171.028 123.0548 77.88724
v -183.1483 124.2991 76.72929
v -175.4189 123.4585 75.52979
v -179.8097 123.8622 73.17235

vn 0.1595649 0.9870947 0.01353084
vn 0.1598634 0.9870355 0.01431513
vn 0.1595649 0.9870947 0.01353084
vn 0.1598634 0.9870355 0.01431513
vn 0.1595648 0.9870947 0.01353084
vn 0.158785 0.9872288 0.01291336
vn 0.1598634 0.9870355 0.01431513
vn 0.158785 0.9872288 0.01291336
vn 0.158785 0.9872288 0.01291338
vn 0.158785 0.9872288 0.01291336
vn 0.1577843 0.9873744 0.01399849
vn 0.158785 0.9872288 0.01291338
vn 0.1577844 0.9873744 0.01399845
vn 0.158785 0.9872286 0.01291337
vn 0.1551743 0.9878441 0.009207648
vn 0.1577844 0.9873744 0.01399846
vn 0.1551742 0.9878441 0.009207661
vn 0.1551742 0.9878441 0.009207667
vn 0.1551742 0.9878441 0.009207663
vn 0.1558903 0.9877741 -0.0007297521
vn 0.1551742 0.9878441 0.009207667
vn 0.1558903 0.9877741 -0.0007298109
vn 0.1551742 0.9878441 0.009207669
vn 0.1506021 0.9885905 -0.002814943
vn 0.1558903 0.9877741 -0.0007298114
vn 0.1506021 0.9885905 -0.002814939
vn 0.1506021 0.9885905 -0.002814939
vn 0.1506021 0.9885905 -0.002814935
vn 0.1431009 0.9896479 -0.01092136
vn 0.1506021 0.9885905 -0.002814939
vn 0.1431009 0.9896479 -0.01092136
vn 0.1506021 0.9885905 -0.002814935
vn 0.1443328 0.9892219 -0.0246572
vn 0.1431009 0.9896478 -0.01092135
vn 0.1443328 0.9892219 -0.02465718
vn 0.1443328 0.9892219 -0.02465718
vn 0.1443328 0.9892219 -0.02465718
vn 0.1603831 0.9864559 -0.03438018
vn 0.1443328 0.9892219 -0.02465718
vn 0.1603831 0.9864559 -0.03438018
vn 0.1443328 0.9892219 -0.02465718
vn 0.1800377 0.9828259 -0.0404913
vn 0.1603831 0.9864559 -0.03438013
vn 0.1800377 0.9828259 -0.0404913
vn 0.180038 0.9828259 -0.04049187
vn 0.180038 0.9828259 -0.04049187
vn 0.178323 0.9819236 -0.06345583
vn 0.180038 0.9828259 -0.04049187
vn 0.178323 0.9819236 -0.06345583
vn 0.180038 0.9828259 -0.04049184
vn 0.1663789 0.9830605 -0.07687704
vn 0.178323 0.9819236 -0.06345583
vn 0.1663789 0.9830605 -0.07687703
vn 0.1663789 0.9830605 -0.07687703
vn 0.1663789 0.9830605 -0.07687704
vn 0.1569516 0.9836779 -0.08800019
vn 0.1663789 0.9830605 -0.07687703
vn 0.1569516 0.9836779 -0.08800019
vn 0.1663789 0.9830605 -0.07687704
vn 0.1609263 0.9824384 -0.09443345
vn 0.1569516 0.9836779 -0.08800019
vn 0.1609263 0.9824384 -0.09443345
vn 0.1609263 0.9824384 -0.09443345
vn 0.1609263 0.9824384 -0.09443345
vn 0.1464006 0.9849841 -0.09150405
vn 0.1609263 0.9824384 -0.09443345
vn 0.1463994 0.9849843 -0.0915039
vn 0.1609262 0.9824383 -0.0944334
vn 0.1420466 0.9857855 -0.08971833
vn 0.1463994 0.9849843 -0.0915039
vn 0.1420466 0.9857855 -0.08971833
vn 0.1420466 0.9857855 -0.08971839
vn 0.1420466 0.9857855 -0.08971839
vn 0.1329086 0.9869336 -0.09108975
vn 0.1420466 0.9857855 -0.08971839
vn 0.1329086 0.9869336 -0.09108975
vn 0.1420466 0.9857855 -0.08971839
vn 0.1096897 0.9904112 -0.08398718
vn 0.1329086 0.9869335 -0.09108971
vn 0.1096898 0.9904112 -0.08398708
vn 0.1096898 0.9904112 -0.08398708
vn 0.1096898 0.9904112 -0.08398709
vn 0.09823714 0.9930873 -0.06424077
vn 0.1096898 0.9904112 -0.08398708
vn 0.09823714 0.9930873 -0.06424077
vn 0.1096898 0.9904112 -0.08398709
vn 0.1209337 0.9911064 -0.05552548
vn 0.09823708 0.9930874 -0.06424081
vn 0.1209337 0.9911064 -0.05552548
vn 0.1209337 0.9911064 -0.05552555

vt 0.5 0
vt 1 0.5
vt 1 0
vt 0.5 0.5
vt 0 0
vt 1 1
vt 0 0.5
vt 0.5 1
vt 0 1
vt 0.5 0
vt 1 0.5
vt 1 0
vt 0.5 0.5
vt 0 0
vt 1 1
vt 0 0.5
vt 0.5 1
vt 0 1
vt 0.5 0
vt 1 0.5
vt 1 0
vt 0.5 0.5
vt 0 0
vt 1 1
vt 0 0.5
vt 0.5 1
vt 0 1
vt 0.5 0
vt 1 0.5
vt 1 0
vt 0.5 0.5
vt 0 0
vt 1 1
vt 0 0.5
vt 0.5 1
vt 0 1
vt 0.5 0
vt 1 0.5
vt 1 0
vt 0.5 0.5
vt 0 0
vt 1 1
vt 0 0.5
vt 0.5 1
vt 0 1
vt 0.5 0
vt 1 0.5
vt 1 0
vt 0.5 0.5
vt 0 0
vt 1 1
vt 0 0.5
vt 0.5 1
vt 0 1
vt 0.5 0
vt 1 0.5
vt 1 0
vt 0.5 0.5
vt 0 0
vt 1 1
vt 0 0.5
vt 0.5 1
vt 0 1
vt 0.5 0
vt 1 0.5
vt 1 0
vt 0.5 0.5
vt 0 0
vt 1 1
vt 0 0.5
vt 0.5 1
vt 0 1
vt 0.5 0
vt 1 0.5
vt 1 0
vt 0.5 0.5
vt 0 0
vt 1 1
vt 0 0.5
vt 0.5 1
vt 0 1
vt 0.5 0
vt 1 0.5
vt 1 0
vt 0.5 0.5
vt 0 0
vt 1 1
vt 0 0.5
vt 0.5 1
vt 0 1

vt2 0 0
vt2 0 0
vt2 0 0
vt2 0 0
vt2 0 0
vt2 0 0
vt2 0 0
vt2 0 0
vt2 0 0
vt2 0 0
vt2 0 0
vt2 0 0
vt2 0 0
vt2 0 0
vt2 0 0
vt2 0 0
vt2 0 0
vt2 0 0
vt2 0 0
vt2 0 0
vt2 0 0
vt2 0 0
vt2 0 0
vt2 0 0
vt2 0 0
vt2 0 0
vt2 0 0
vt2 0 0
vt2 0 0
vt2 0 0
vt2 0 0
vt2 0 0
vt2 0 0
vt2 0 0
vt2 0 0
vt2 0 0
vt2 0 0
vt2 0 0
vt2 0 0
vt2 0 0
vt2 0 0
vt2 0 0
vt2 0 0
vt2 0 0
vt2 0 0
vt2 0 0
vt2 0 0
vt2 0 0
vt2 0 0
vt2 0 0
vt2 0 0
vt2 0 0
vt2 0 0
vt2 0 0
vt2 0 0
vt2 0 0
vt2 0 0
vt2 0 0
vt2 0 0
vt2 0 0
vt2 0 0
vt2 0 0
vt2 0 0
vt2 0 0
vt2 0 0
vt2 0 0
vt2 0 0
vt2 0 0
vt2 0 0
vt2 0 0
vt2 0 0
vt2 0 0
vt2 0 0
vt2 0 0
vt2 0 0
vt2 0 0
vt2 0 0
vt2 0 0
vt2 0 0
vt2 0 0
vt2 0 0
vt2 0 0
vt2 0 0
vt2 0 0
vt2 0 0
vt2 0 0
vt2 0 0
vt2 0 0
vt2 0 0
vt2 0 0

vt2 0 0
vt2 0 0
vt2 0 0
vt2 0 0
vt2 0 0
vt2 0 0
vt2 0 0
vt2 0 0
vt2 0 0
vt2 0 0
vt2 0 0
vt2 0 0
vt2 0 0
vt2 0 0
vt2 0 0
vt2 0 0
vt2 0 0
vt2 0 0
vt2 0 0
vt2 0 0
vt2 0 0
vt2 0 0
vt2 0 0
vt2 0 0
vt2 0 0
vt2 0 0
vt2 0 0
vt2 0 0
vt2 0 0
vt2 0 0
vt2 0 0
vt2 0 0
vt2 0 0
vt2 0 0
vt2 0 0
vt2 0 0
vt2 0 0
vt2 0 0
vt2 0 0
vt2 0 0
vt2 0 0
vt2 0 0
vt2 0 0
vt2 0 0
vt2 0 0
vt2 0 0
vt2 0 0
vt2 0 0
vt2 0 0
vt2 0 0
vt2 0 0
vt2 0 0
vt2 0 0
vt2 0 0
vt2 0 0
vt2 0 0
vt2 0 0
vt2 0 0
vt2 0 0
vt2 0 0
vt2 0 0
vt2 0 0
vt2 0 0
vt2 0 0
vt2 0 0
vt2 0 0
vt2 0 0
vt2 0 0
vt2 0 0
vt2 0 0
vt2 0 0
vt2 0 0
vt2 0 0
vt2 0 0
vt2 0 0
vt2 0 0
vt2 0 0
vt2 0 0
vt2 0 0
vt2 0 0
vt2 0 0
vt2 0 0
vt2 0 0
vt2 0 0
vt2 0 0
vt2 0 0
vt2 0 0
vt2 0 0
vt2 0 0
vt2 0 0

vc 1 1 1 1
vc 1 1 1 1
vc 1 1 1 1
vc 1 1 1 1
vc 1 1 1 1
vc 1 1 1 1
vc 1 1 1 1
vc 1 1 1 1
vc 1 1 1 1
vc 1 1 1 1
vc 1 1 1 1
vc 1 1 1 1
vc 1 1 1 1
vc 1 1 1 1
vc 1 1 1 1
vc 1 1 1 1
vc 1 1 1 1
vc 1 1 1 1
vc 1 1 1 1
vc 1 1 1 1
vc 1 1 1 1
vc 1 1 1 1
vc 1 1 1 1
vc 1 1 1 1
vc 1 1 1 1
vc 1 1 1 1
vc 1 1 1 1
vc 1 1 1 1
vc 1 1 1 1
vc 1 1 1 1
vc 1 1 1 1
vc 1 1 1 1
vc 1 1 1 1
vc 1 1 1 1
vc 1 1 1 1
vc 1 1 1 1
vc 1 1 1 1
vc 1 1 1 1
vc 1 1 1 1
vc 1 1 1 1
vc 1 1 1 1
vc 1 1 1 1
vc 1 1 1 1
vc 1 1 1 1
vc 1 1 1 1
vc 1 1 1 1
vc 1 1 1 1
vc 1 1 1 1
vc 1 1 1 1
vc 1 1 1 1
vc 1 1 1 1
vc 1 1 1 1
vc 1 1 1 1
vc 1 1 1 1
vc 1 1 1 1
vc 1 1 1 1
vc 1 1 1 1
vc 1 1 1 1
vc 1 1 1 1
vc 1 1 1 1
vc 1 1 1 1
vc 1 1 1 1
vc 1 1 1 1
vc 1 1 1 1
vc 1 1 1 1
vc 1 1 1 1
vc 1 1 1 1
vc 1 1 1 1
vc 1 1 1 1
vc 1 1 1 1
vc 1 1 1 1
vc 1 1 1 1
vc 1 1 1 1
vc 1 1 1 1
vc 1 1 1 1
vc 1 1 1 1
vc 1 1 1 1
vc 1 1 1 1
vc 1 1 1 1
vc 1 1 1 1
vc 1 1 1 1
vc 1 1 1 1
vc 1 1 1 1
vc 1 1 1 1
vc 1 1 1 1
vc 1 1 1 1
vc 1 1 1 1
vc 1 1 1 1
vc 1 1 1 1
vc 1 1 1 1

usemtl Default-Diffuse
usemap Default-Diffuse
f 3/3/3 2/2/2 1/1/1
f 2/2/2 4/4/4 1/1/1
f 1/1/1 4/4/4 5/5/5
f 2/2/2 6/6/6 4/4/4
f 4/4/4 7/7/7 5/5/5
f 6/6/6 8/8/8 4/4/4
f 4/4/4 8/8/8 7/7/7
f 8/8/8 9/9/9 7/7/7
f 12/12/12 11/11/11 10/10/10
f 11/11/11 13/13/13 10/10/10
f 10/10/10 13/13/13 14/14/14
f 11/11/11 15/15/15 13/13/13
f 13/13/13 16/16/16 14/14/14
f 15/15/15 17/17/17 13/13/13
f 13/13/13 17/17/17 16/16/16
f 17/17/17 18/18/18 16/16/16
f 21/21/21 20/20/20 19/19/19
f 20/20/20 22/22/22 19/19/19
f 19/19/19 22/22/22 23/23/23
f 20/20/20 24/24/24 22/22/22
f 22/22/22 25/25/25 23/23/23
f 24/24/24 26/26/26 22/22/22
f 22/22/22 26/26/26 25/25/25
f 26/26/26 27/27/27 25/25/25
f 30/30/30 29/29/29 28/28/28
f 29/29/29 31/31/31 28/28/28
f 28/28/28 31/31/31 32/32/32
f 29/29/29 33/33/33 31/31/31
f 31/31/31 34/34/34 32/32/32
f 33/33/33 35/35/35 31/31/31
f 31/31/31 35/35/35 34/34/34
f 35/35/35 36/36/36 34/34/34
f 39/39/39 38/38/38 37/37/37
f 38/38/38 40/40/40 37/37/37
f 37/37/37 40/40/40 41/41/41
f 38/38/38 42/42/42 40/40/40
f 40/40/40 43/43/43 41/41/41
f 42/42/42 44/44/44 40/40/40
f 40/40/40 44/44/44 43/43/43
f 44/44/44 45/45/45 43/43/43
f 48/48/48 47/47/47 46/46/46
f 47/47/47 49/49/49 46/46/46
f 46/46/46 49/49/49 50/50/50
f 47/47/47 51/51/51 49/49/49
f 49/49/49 52/52/52 50/50/50
f 51/51/51 53/53/53 49/49/49
f 49/49/49 53/53/53 52/52/52
f 53/53/53 54/54/54 52/52/52
f 57/57/57 56/56/56 55/55/55
f 56/56/56 58/58/58 55/55/55
f 55/55/55 58/58/58 59/59/59
f 56/56/56 60/60/60 58/58/58
f 58/58/58 61/61/61 59/59/59
f 60/60/60 62/62/62 58/58/58
f 58/58/58 62/62/62 61/61/61
f 62/62/62 63/63/63 61/61/61
f 66/66/66 65/65/65 64/64/64
f 65/65/65 67/67/67 64/64/64
f 64/64/64 67/67/67 68/68/68
f 65/65/65 69/69/69 67/67/67
f 67/67/67 70/70/70 68/68/68
f 69/69/69 71/71/71 67/67/67
f 67/67/67 71/71/71 70/70/70
f 71/71/71 72/72/72 70/70/70
f 75/75/75 74/74/74 73/73/73
f 74/74/74 76/76/76 73/73/73
f 73/73/73 76/76/76 77/77/77
f 74/74/74 78/78/78 76/76/76
f 76/76/76 79/79/79 77/77/77
f 78/78/78 80/80/80 76/76/76
f 76/76/76 80/80/80 79/79/79
f 80/80/80 81/81/81 79/79/79
f 84/84/84 83/83/83 82/82/82
f 83/83/83 85/85/85 82/82/82
f 82/82/82 85/85/85 86/86/86
f 83/83/83 87/87/87 85/85/85
f 85/85/85 88/88/88 86/86/86
f 87/87/87 89/89/89 85/85/85
f 85/85/85 89/89/89 88/88/88
f 89/89/89 90/90/90 88/88/88
