g Custom Mesh - Baked
v 143.9025 76.25511 -425.7772
v 140.3755 76.45629 -430.8975
v 144.34 76.11893 -430.4859
v 139.933 76.59489 -426.1344
v 143.4945 76.39659 -420.8335
v 136.4111 76.79366 -431.309
v 139.5224 76.73789 -421.1584
v 135.9635 76.93466 -426.4917
v 135.5502 77.07919 -421.4833
v 143.1028 76.54116 -415.7516
v 139.5224 76.73789 -421.1584
v 143.4945 76.39659 -420.8335
v 139.1296 76.88338 -416.0627
v 142.7137 76.68678 -410.6261
v 135.5502 77.07919 -421.4833
v 138.7408 77.02943 -410.9402
v 135.1564 77.22559 -416.3737
v 134.7679 77.37207 -411.2544
v 142.3133 76.83142 -405.5496
v 138.7408 77.02943 -410.9402
v 142.7137 76.68678 -410.6261
v 138.3421 77.1741 -405.8844
v 141.8871 76.97315 -400.6128
v 134.7679 77.37208 -411.2544
v 137.9195 77.31544 -400.9883
v 134.3708 77.51677 -406.2192
v 133.9519 77.65774 -401.3637
v 141.42 77.11009 -395.9038
v 137.9195 77.31544 -400.9883
v 141.8871 76.97315 -400.6128
v 137.4591 77.45154 -396.345
v 140.8955 77.24053 -391.5061
v 133.9519 77.65774 -401.3637
v 136.9469 77.58044 -392.0478
v 133.4982 77.79298 -396.7862
v 132.9984 77.92034 -392.5895
v 140.294 77.36305 -387.4956
v 136.9469 77.58044 -392.0478
v 140.8955 77.24053 -391.5061
v 136.3692 77.70023 -388.1898
v 139.588 77.47691 -383.9339
v 132.9984 77.92034 -392.5895
v 135.7119 77.80897 -384.8643
v 132.4444 78.03741 -388.8841
v 131.8358 78.14102 -385.7946
v 138.6429 77.58437 -381.0957
v 135.7119 77.80897 -384.8643
v 139.588 77.47691 -383.9339
v 135.0015 77.89358 -382.1374
v 137.6613 77.66962 -378.6446
v 131.8358 78.14103 -385.7946
v 134.2762 77.95377 -379.8363
v 131.3602 78.20279 -383.1791
v 130.8911 78.23792 -381.0281
v 136.6176 77.74147 -376.5327
v 134.2762 77.95377 -379.8363
v 137.6613 77.66962 -378.6446
v 133.5216 77.99731 -377.9144
v 135.4849 77.80872 -374.724
v 130.8911 78.23792 -381.0281
v 132.7233 78.03201 -376.3252
v 130.4255 78.25316 -379.296
v 129.9617 78.25529 -377.9263
v 134.2432 77.87934 -373.2004
v 132.7233 78.03201 -376.3252
v 135.4849 77.80872 -374.724
v 131.867 78.06562 -375.0222
v 132.893 77.95933 -371.9594
v 129.9617 78.25529 -377.9263
v 130.9385 78.10594 -373.9589
v 129.4908 78.2519 -376.8439
v 128.9839 78.25256 -375.9585
v 131.4601 78.05245 -370.9946
v 130.9385 78.10594 -373.9589
v 132.893 77.95933 -371.9594
v 129.9233 78.16074 -373.089
v 129.9812 78.16185 -370.274
v 128.9839 78.25256 -375.9585
v 128.8072 78.23782 -372.3658
v 128.3865 78.26904 -375.1834
v 127.6331 78.31377 -374.4576
v 128.4764 78.29247 -369.7364
v 128.8072 78.23782 -372.3658
v 129.9812 78.16186 -370.274
v 127.5757 78.34493 -371.7429
v 126.9341 78.45217 -369.3081
v 127.6331 78.31378 -374.4576
v 126.2147 78.48987 -371.1739
v 126.6751 78.39739 -373.7494
v 125.4953 78.52757 -373.0396
v 124.9932 78.67743 -368.8112
v 126.2147 78.48987 -371.1739
v 126.9341 78.45217 -369.3081
v 124.6717 78.68073 -370.7852
v 122.9887 78.9268 -368.6636
v 125.4953 78.52757 -373.0396
v 122.9672 78.90497 -370.6634
v 124.3501 78.68402 -372.7592
v 122.9457 78.88313 -372.6631
v 120.94 79.19581 -368.7709
v 122.9672 78.90497 -370.6634
v 122.9887 78.9268 -368.6636
v 121.1296 79.15677 -370.7616
v 118.8566 79.48049 -369.0613
v 122.9457 78.88313 -372.6631
v 119.187 79.43029 -371.0332
v 121.3191 79.11773 -372.7522
v 119.5174 79.38009 -373.0051
v 116.7502 79.77647 -369.4764
v 119.187 79.43029 -371.0332
v 118.8566 79.48049 -369.0613
v 117.1677 79.71967 -371.4315
v 114.6384 80.07888 -369.9648
v 119.5174 79.38009 -373.0051
v 115.1 80.01907 -371.9099
v 117.5852 79.66287 -373.3866
v 115.5616 79.95927 -373.8549
v 112.5438 80.38233 -370.4781
v 115.1 80.01907 -371.9099
v 114.6384 80.07888 -369.9648
v 113.0122 80.32265 -372.4216
v 110.4935 80.68104 -370.9695
v 115.5616 79.95927 -373.8549
v 110.9324 80.62457 -372.92
v 113.4806 80.26298 -374.3651
v 111.3712 80.56811 -374.8704
v 108.5191 80.9688 -371.3934
v 110.9324 80.62457 -372.92
v 110.4935 80.68104 -370.9695
v 108.8889 80.91897 -373.3583
v 106.657 81.23901 -371.7065
v 111.3712 80.56811 -374.8704
v 106.91 81.2 -373.69
v 109.2587 80.86913 -375.3232
v 107.1631 81.16098 -375.6736

vn 0.04357779 0.4979849 -0.01058325
vn 0.04344147 0.4980041 -0.01023269
vn 0.04344147 0.4980041 -0.01023269
vn 0.04357779 0.4979849 -0.01058325
vn 0.04367067 0.4979723 -0.01079208
vn 0.04344147 0.4980041 -0.01023269
vn 0.04367067 0.4979723 -0.01079208
vn 0.04357779 0.4979849 -0.01058325
vn 0.04367067 0.4979723 -0.01079208
vn 0.0437418 0.4979641 -0.01088005
vn 0.04367067 0.4979723 -0.01079208
vn 0.04367067 0.4979723 -0.01079208
vn 0.0437418 0.4979641 -0.01088005
vn 0.04380533 0.4979592 -0.01085392
vn 0.04367067 0.4979723 -0.01079208
vn 0.04380533 0.4979592 -0.01085392
vn 0.0437418 0.4979641 -0.01088005
vn 0.04380533 0.4979592 -0.01085392
vn 0.04387101 0.4979564 -0.01070931
vn 0.04380533 0.4979592 -0.01085392
vn 0.04380533 0.4979592 -0.01085392
vn 0.04387101 0.4979564 -0.01070931
vn 0.04394642 0.4979558 -0.01042692
vn 0.04380533 0.4979592 -0.01085392
vn 0.04394642 0.4979558 -0.01042692
vn 0.04387101 0.4979564 -0.01070931
vn 0.04394642 0.4979558 -0.01042692
vn 0.04403595 0.4979573 -0.009968515
vn 0.04394642 0.4979558 -0.01042692
vn 0.04394642 0.4979558 -0.01042692
vn 0.04403595 0.4979573 -0.009968515
vn 0.04413692 0.497962 -0.009262256
vn 0.04394642 0.4979558 -0.01042692
vn 0.04413692 0.497962 -0.009262256
vn 0.04403595 0.4979573 -0.009968515
vn 0.04413692 0.497962 -0.009262256
vn 0.04422653 0.497973 -0.008177064
vn 0.04413692 0.497962 -0.009262256
vn 0.04413692 0.497962 -0.009262256
vn 0.04422653 0.497973 -0.008177064
vn 0.04421614 0.4979991 -0.006472847
vn 0.04413692 0.497962 -0.009262256
vn 0.04421614 0.4979991 -0.006472847
vn 0.04422653 0.497973 -0.008177064
vn 0.04421614 0.4979991 -0.006472847
vn 0.04514775 0.5243713 -0.002166427
vn 0.04421614 0.4979991 -0.006472847
vn 0.04421614 0.4979991 -0.006472847
vn 0.04514775 0.5243713 -0.002166427
vn 0.04554904 0.5536789 0.002635163
vn 0.04421614 0.4979991 -0.006472847
vn 0.04554904 0.5536789 0.002635163
vn 0.04514775 0.5243713 -0.002166427
vn 0.04554904 0.5536789 0.002635163
vn 0.04515052 0.586453 0.007421361
vn 0.04554904 0.5536789 0.002635163
vn 0.04554904 0.5536789 0.002635163
vn 0.04515052 0.586453 0.007421361
vn 0.04394261 0.6233538 0.0111373
vn 0.04554904 0.5536789 0.002635163
vn 0.04394261 0.6233538 0.0111373
vn 0.04515052 0.586453 0.007421361
vn 0.04394261 0.6233538 0.0111373
vn 0.04273876 0.6651822 0.01227005
vn 0.04394261 0.6233538 0.0111373
vn 0.04394261 0.6233538 0.0111373
vn 0.04273876 0.6651822 0.01227005
vn 0.04362725 0.7128872 0.009627266
vn 0.04394261 0.6233538 0.0111373
vn 0.04362725 0.7128872 0.009627266
vn 0.04273876 0.6651822 0.01227005
vn 0.04362725 0.7128872 0.009627266
vn 0.04942881 0.7676334 0.003421965
vn 0.04362725 0.7128872 0.009627266
vn 0.04362725 0.7128872 0.009627266
vn 0.04942881 0.7676334 0.003421965
vn 0.0621581 0.8309985 -0.004710529
vn 0.04362725 0.7128872 0.009627266
vn 0.0621581 0.8309985 -0.004710529
vn 0.04942881 0.7676334 0.003421965
vn 0.0621581 0.8309985 -0.004710529
vn 0.08209838 0.9052803 -0.01318378
vn 0.0621581 0.8309985 -0.004710529
vn 0.0621581 0.8309985 -0.004710529
vn 0.08209838 0.9052803 -0.01318378
vn 0.108562 0.9938511 -0.02178133
vn 0.0621581 0.8309985 -0.004710529
vn 0.108562 0.9938511 -0.02178133
vn 0.08209838 0.9052803 -0.01318378
vn 0.108562 0.9938511 -0.02178133
vn 0.1235505 0.9921663 -0.01847049
vn 0.108562 0.9938511 -0.02178133
vn 0.108562 0.9938511 -0.02178133
vn 0.1235505 0.9921663 -0.01847049
vn 0.1329679 0.9910446 -0.01225443
vn 0.108562 0.9938511 -0.02178133
vn 0.1329679 0.9910446 -0.01225443
vn 0.1235505 0.9921663 -0.01847049
vn 0.1329679 0.9910446 -0.01225443
vn 0.1382471 0.990378 -0.006262045
vn 0.1329679 0.9910446 -0.01225443
vn 0.1329679 0.9910446 -0.01225443
vn 0.1382471 0.990378 -0.006262045
vn 0.1410204 0.9900053 -0.001572647
vn 0.1329679 0.9910446 -0.01225443
vn 0.1410204 0.9900053 -0.001572647
vn 0.1382471 0.990378 -0.006262045
vn 0.1410204 0.9900053 -0.001572647
vn 0.1423787 0.9898109 0.001645192
vn 0.1410204 0.9900053 -0.001572647
vn 0.1410204 0.9900053 -0.001572647
vn 0.1423787 0.9898109 0.001645192
vn 0.1429228 0.9897277 0.003485689
vn 0.1410204 0.9900053 -0.001572647
vn 0.1429228 0.9897277 0.003485689
vn 0.1423787 0.9898109 0.001645192
vn 0.1429228 0.9897277 0.003485689
vn 0.1429288 0.9897245 0.004055647
vn 0.1429228 0.9897277 0.003485689
vn 0.1429228 0.9897277 0.003485689
vn 0.1429288 0.9897245 0.004055647
vn 0.1424519 0.9897959 0.003399272
vn 0.1429228 0.9897277 0.003485689
vn 0.1424519 0.9897959 0.003399272
vn 0.1429288 0.9897245 0.004055647
vn 0.1424519 0.9897959 0.003399272
vn 0.1413508 0.9899583 0.001492263
vn 0.1424519 0.9897959 0.003399272
vn 0.1424519 0.9897959 0.003399272
vn 0.1413508 0.9899583 0.001492263
vn 0.1392428 0.9902569 -0.001713402
vn 0.1424519 0.9897959 0.003399272
vn 0.1392428 0.9902569 -0.001713402
vn 0.1413508 0.9899583 0.001492263
vn 0.1392428 0.9902569 -0.001713402

vt 0.5 0
vt 1 0.5
vt 1 0
vt 0.5 0.5
vt 0 0
vt 1 1
vt 0 0.5
vt 0.5 1
vt 0 1
vt 0.5 0
vt 1 0.5
vt 1 0
vt 0.5 0.5
vt 0 0
vt 1 1
vt 0 0.5
vt 0.5 1
vt 0 1
vt 0.5 0
vt 1 0.5
vt 1 0
vt 0.5 0.5
vt 0 0
vt 1 1
vt 0 0.5
vt 0.5 1
vt 0 1
vt 0.5 0
vt 1 0.5
vt 1 0
vt 0.5 0.5
vt 0 0
vt 1 1
vt 0 0.5
vt 0.5 1
vt 0 1
vt 0.5 0
vt 1 0.5
vt 1 0
vt 0.5 0.5
vt 0 0
vt 1 1
vt 0 0.5
vt 0.5 1
vt 0 1
vt 0.5 0
vt 1 0.5
vt 1 0
vt 0.5 0.5
vt 0 0
vt 1 1
vt 0 0.5
vt 0.5 1
vt 0 1
vt 0.5 0
vt 1 0.5
vt 1 0
vt 0.5 0.5
vt 0 0
vt 1 1
vt 0 0.5
vt 0.5 1
vt 0 1
vt 0.5 0
vt 1 0.5
vt 1 0
vt 0.5 0.5
vt 0 0
vt 1 1
vt 0 0.5
vt 0.5 1
vt 0 1
vt 0.5 0
vt 1 0.5
vt 1 0
vt 0.5 0.5
vt 0 0
vt 1 1
vt 0 0.5
vt 0.5 1
vt 0 1
vt 0.5 0
vt 1 0.5
vt 1 0
vt 0.5 0.5
vt 0 0
vt 1 1
vt 0 0.5
vt 0.5 1
vt 0 1
vt 0.5 0
vt 1 0.5
vt 1 0
vt 0.5 0.5
vt 0 0
vt 1 1
vt 0 0.5
vt 0.5 1
vt 0 1
vt 0.5 0
vt 1 0.5
vt 1 0
vt 0.5 0.5
vt 0 0
vt 1 1
vt 0 0.5
vt 0.5 1
vt 0 1
vt 0.5 0
vt 1 0.5
vt 1 0
vt 0.5 0.5
vt 0 0
vt 1 1
vt 0 0.5
vt 0.5 1
vt 0 1
vt 0.5 0
vt 1 0.5
vt 1 0
vt 0.5 0.5
vt 0 0
vt 1 1
vt 0 0.5
vt 0.5 1
vt 0 1
vt 0.5 0
vt 1 0.5
vt 1 0
vt 0.5 0.5
vt 0 0
vt 1 1
vt 0 0.5
vt 0.5 1
vt 0 1

vt2 0 0
vt2 0 0
vt2 0 0
vt2 0 0
vt2 0 0
vt2 0 0
vt2 0 0
vt2 0 0
vt2 0 0
vt2 0 0
vt2 0 0
vt2 0 0
vt2 0 0
vt2 0 0
vt2 0 0
vt2 0 0
vt2 0 0
vt2 0 0
vt2 0 0
vt2 0 0
vt2 0 0
vt2 0 0
vt2 0 0
vt2 0 0
vt2 0 0
vt2 0 0
vt2 0 0
vt2 0 0
vt2 0 0
vt2 0 0
vt2 0 0
vt2 0 0
vt2 0 0
vt2 0 0
vt2 0 0
vt2 0 0
vt2 0 0
vt2 0 0
vt2 0 0
vt2 0 0
vt2 0 0
vt2 0 0
vt2 0 0
vt2 0 0
vt2 0 0
vt2 0 0
vt2 0 0
vt2 0 0
vt2 0 0
vt2 0 0
vt2 0 0
vt2 0 0
vt2 0 0
vt2 0 0
vt2 0 0
vt2 0 0
vt2 0 0
vt2 0 0
vt2 0 0
vt2 0 0
vt2 0 0
vt2 0 0
vt2 0 0
vt2 0 0
vt2 0 0
vt2 0 0
vt2 0 0
vt2 0 0
vt2 0 0
vt2 0 0
vt2 0 0
vt2 0 0
vt2 0 0
vt2 0 0
vt2 0 0
vt2 0 0
vt2 0 0
vt2 0 0
vt2 0 0
vt2 0 0
vt2 0 0
vt2 0 0
vt2 0 0
vt2 0 0
vt2 0 0
vt2 0 0
vt2 0 0
vt2 0 0
vt2 0 0
vt2 0 0
vt2 0 0
vt2 0 0
vt2 0 0
vt2 0 0
vt2 0 0
vt2 0 0
vt2 0 0
vt2 0 0
vt2 0 0
vt2 0 0
vt2 0 0
vt2 0 0
vt2 0 0
vt2 0 0
vt2 0 0
vt2 0 0
vt2 0 0
vt2 0 0
vt2 0 0
vt2 0 0
vt2 0 0
vt2 0 0
vt2 0 0
vt2 0 0
vt2 0 0
vt2 0 0
vt2 0 0
vt2 0 0
vt2 0 0
vt2 0 0
vt2 0 0
vt2 0 0
vt2 0 0
vt2 0 0
vt2 0 0
vt2 0 0
vt2 0 0
vt2 0 0
vt2 0 0
vt2 0 0
vt2 0 0
vt2 0 0
vt2 0 0
vt2 0 0
vt2 0 0

vt2 0 0
vt2 0 0
vt2 0 0
vt2 0 0
vt2 0 0
vt2 0 0
vt2 0 0
vt2 0 0
vt2 0 0
vt2 0 0
vt2 0 0
vt2 0 0
vt2 0 0
vt2 0 0
vt2 0 0
vt2 0 0
vt2 0 0
vt2 0 0
vt2 0 0
vt2 0 0
vt2 0 0
vt2 0 0
vt2 0 0
vt2 0 0
vt2 0 0
vt2 0 0
vt2 0 0
vt2 0 0
vt2 0 0
vt2 0 0
vt2 0 0
vt2 0 0
vt2 0 0
vt2 0 0
vt2 0 0
vt2 0 0
vt2 0 0
vt2 0 0
vt2 0 0
vt2 0 0
vt2 0 0
vt2 0 0
vt2 0 0
vt2 0 0
vt2 0 0
vt2 0 0
vt2 0 0
vt2 0 0
vt2 0 0
vt2 0 0
vt2 0 0
vt2 0 0
vt2 0 0
vt2 0 0
vt2 0 0
vt2 0 0
vt2 0 0
vt2 0 0
vt2 0 0
vt2 0 0
vt2 0 0
vt2 0 0
vt2 0 0
vt2 0 0
vt2 0 0
vt2 0 0
vt2 0 0
vt2 0 0
vt2 0 0
vt2 0 0
vt2 0 0
vt2 0 0
vt2 0 0
vt2 0 0
vt2 0 0
vt2 0 0
vt2 0 0
vt2 0 0
vt2 0 0
vt2 0 0
vt2 0 0
vt2 0 0
vt2 0 0
vt2 0 0
vt2 0 0
vt2 0 0
vt2 0 0
vt2 0 0
vt2 0 0
vt2 0 0
vt2 0 0
vt2 0 0
vt2 0 0
vt2 0 0
vt2 0 0
vt2 0 0
vt2 0 0
vt2 0 0
vt2 0 0
vt2 0 0
vt2 0 0
vt2 0 0
vt2 0 0
vt2 0 0
vt2 0 0
vt2 0 0
vt2 0 0
vt2 0 0
vt2 0 0
vt2 0 0
vt2 0 0
vt2 0 0
vt2 0 0
vt2 0 0
vt2 0 0
vt2 0 0
vt2 0 0
vt2 0 0
vt2 0 0
vt2 0 0
vt2 0 0
vt2 0 0
vt2 0 0
vt2 0 0
vt2 0 0
vt2 0 0
vt2 0 0
vt2 0 0
vt2 0 0
vt2 0 0
vt2 0 0
vt2 0 0
vt2 0 0
vt2 0 0
vt2 0 0

vc 1 1 1 1
vc 1 1 1 1
vc 1 1 1 1
vc 1 1 1 1
vc 1 1 1 1
vc 1 1 1 1
vc 1 1 1 1
vc 1 1 1 1
vc 1 1 1 1
vc 1 1 1 1
vc 1 1 1 1
vc 1 1 1 1
vc 1 1 1 1
vc 1 1 1 1
vc 1 1 1 1
vc 1 1 1 1
vc 1 1 1 1
vc 1 1 1 1
vc 1 1 1 1
vc 1 1 1 1
vc 1 1 1 1
vc 1 1 1 1
vc 1 1 1 1
vc 1 1 1 1
vc 1 1 1 1
vc 1 1 1 1
vc 1 1 1 1
vc 1 1 1 1
vc 1 1 1 1
vc 1 1 1 1
vc 1 1 1 1
vc 1 1 1 1
vc 1 1 1 1
vc 1 1 1 1
vc 1 1 1 1
vc 1 1 1 1
vc 1 1 1 1
vc 1 1 1 1
vc 1 1 1 1
vc 1 1 1 1
vc 1 1 1 1
vc 1 1 1 1
vc 1 1 1 1
vc 1 1 1 1
vc 1 1 1 1
vc 1 1 1 1
vc 1 1 1 1
vc 1 1 1 1
vc 1 1 1 1
vc 1 1 1 1
vc 1 1 1 1
vc 1 1 1 1
vc 1 1 1 1
vc 1 1 1 1
vc 1 1 1 1
vc 1 1 1 1
vc 1 1 1 1
vc 1 1 1 1
vc 1 1 1 1
vc 1 1 1 1
vc 1 1 1 1
vc 1 1 1 1
vc 1 1 1 1
vc 1 1 1 1
vc 1 1 1 1
vc 1 1 1 1
vc 1 1 1 1
vc 1 1 1 1
vc 1 1 1 1
vc 1 1 1 1
vc 1 1 1 1
vc 1 1 1 1
vc 1 1 1 1
vc 1 1 1 1
vc 1 1 1 1
vc 1 1 1 1
vc 1 1 1 1
vc 1 1 1 1
vc 1 1 1 1
vc 1 1 1 1
vc 1 1 1 1
vc 1 1 1 1
vc 1 1 1 1
vc 1 1 1 1
vc 1 1 1 1
vc 1 1 1 1
vc 1 1 1 1
vc 1 1 1 1
vc 1 1 1 1
vc 1 1 1 1
vc 1 1 1 1
vc 1 1 1 1
vc 1 1 1 1
vc 1 1 1 1
vc 1 1 1 1
vc 1 1 1 1
vc 1 1 1 1
vc 1 1 1 1
vc 1 1 1 1
vc 1 1 1 1
vc 1 1 1 1
vc 1 1 1 1
vc 1 1 1 1
vc 1 1 1 1
vc 1 1 1 1
vc 1 1 1 1
vc 1 1 1 1
vc 1 1 1 1
vc 1 1 1 1
vc 1 1 1 1
vc 1 1 1 1
vc 1 1 1 1
vc 1 1 1 1
vc 1 1 1 1
vc 1 1 1 1
vc 1 1 1 1
vc 1 1 1 1
vc 1 1 1 1
vc 1 1 1 1
vc 1 1 1 1
vc 1 1 1 1
vc 1 1 1 1
vc 1 1 1 1
vc 1 1 1 1
vc 1 1 1 1
vc 1 1 1 1
vc 1 1 1 1
vc 1 1 1 1
vc 1 1 1 1
vc 1 1 1 1
vc 1 1 1 1
vc 1 1 1 1
vc 1 1 1 1
vc 1 1 1 1
vc 1 1 1 1

usemtl Default-Diffuse
usemap Default-Diffuse
f 3/3/3 2/2/2 1/1/1
f 2/2/2 4/4/4 1/1/1
f 1/1/1 4/4/4 5/5/5
f 2/2/2 6/6/6 4/4/4
f 4/4/4 7/7/7 5/5/5
f 6/6/6 8/8/8 4/4/4
f 4/4/4 8/8/8 7/7/7
f 8/8/8 9/9/9 7/7/7
f 12/12/12 11/11/11 10/10/10
f 11/11/11 13/13/13 10/10/10
f 10/10/10 13/13/13 14/14/14
f 11/11/11 15/15/15 13/13/13
f 13/13/13 16/16/16 14/14/14
f 15/15/15 17/17/17 13/13/13
f 13/13/13 17/17/17 16/16/16
f 17/17/17 18/18/18 16/16/16
f 21/21/21 20/20/20 19/19/19
f 20/20/20 22/22/22 19/19/19
f 19/19/19 22/22/22 23/23/23
f 20/20/20 24/24/24 22/22/22
f 22/22/22 25/25/25 23/23/23
f 24/24/24 26/26/26 22/22/22
f 22/22/22 26/26/26 25/25/25
f 26/26/26 27/27/27 25/25/25
f 30/30/30 29/29/29 28/28/28
f 29/29/29 31/31/31 28/28/28
f 28/28/28 31/31/31 32/32/32
f 29/29/29 33/33/33 31/31/31
f 31/31/31 34/34/34 32/32/32
f 33/33/33 35/35/35 31/31/31
f 31/31/31 35/35/35 34/34/34
f 35/35/35 36/36/36 34/34/34
f 39/39/39 38/38/38 37/37/37
f 38/38/38 40/40/40 37/37/37
f 37/37/37 40/40/40 41/41/41
f 38/38/38 42/42/42 40/40/40
f 40/40/40 43/43/43 41/41/41
f 42/42/42 44/44/44 40/40/40
f 40/40/40 44/44/44 43/43/43
f 44/44/44 45/45/45 43/43/43
f 48/48/48 47/47/47 46/46/46
f 47/47/47 49/49/49 46/46/46
f 46/46/46 49/49/49 50/50/50
f 47/47/47 51/51/51 49/49/49
f 49/49/49 52/52/52 50/50/50
f 51/51/51 53/53/53 49/49/49
f 49/49/49 53/53/53 52/52/52
f 53/53/53 54/54/54 52/52/52
f 57/57/57 56/56/56 55/55/55
f 56/56/56 58/58/58 55/55/55
f 55/55/55 58/58/58 59/59/59
f 56/56/56 60/60/60 58/58/58
f 58/58/58 61/61/61 59/59/59
f 60/60/60 62/62/62 58/58/58
f 58/58/58 62/62/62 61/61/61
f 62/62/62 63/63/63 61/61/61
f 66/66/66 65/65/65 64/64/64
f 65/65/65 67/67/67 64/64/64
f 64/64/64 67/67/67 68/68/68
f 65/65/65 69/69/69 67/67/67
f 67/67/67 70/70/70 68/68/68
f 69/69/69 71/71/71 67/67/67
f 67/67/67 71/71/71 70/70/70
f 71/71/71 72/72/72 70/70/70
f 75/75/75 74/74/74 73/73/73
f 74/74/74 76/76/76 73/73/73
f 73/73/73 76/76/76 77/77/77
f 74/74/74 78/78/78 76/76/76
f 76/76/76 79/79/79 77/77/77
f 78/78/78 80/80/80 76/76/76
f 76/76/76 80/80/80 79/79/79
f 80/80/80 81/81/81 79/79/79
f 84/84/84 83/83/83 82/82/82
f 83/83/83 85/85/85 82/82/82
f 82/82/82 85/85/85 86/86/86
f 83/83/83 87/87/87 85/85/85
f 85/85/85 88/88/88 86/86/86
f 87/87/87 89/89/89 85/85/85
f 85/85/85 89/89/89 88/88/88
f 89/89/89 90/90/90 88/88/88
f 93/93/93 92/92/92 91/91/91
f 92/92/92 94/94/94 91/91/91
f 91/91/91 94/94/94 95/95/95
f 92/92/92 96/96/96 94/94/94
f 94/94/94 97/97/97 95/95/95
f 96/96/96 98/98/98 94/94/94
f 94/94/94 98/98/98 97/97/97
f 98/98/98 99/99/99 97/97/97
f 102/102/102 101/101/101 100/100/100
f 101/101/101 103/103/103 100/100/100
f 100/100/100 103/103/103 104/104/104
f 101/101/101 105/105/105 103/103/103
f 103/103/103 106/106/106 104/104/104
f 105/105/105 107/107/107 103/103/103
f 103/103/103 107/107/107 106/106/106
f 107/107/107 108/108/108 106/106/106
f 111/111/111 110/110/110 109/109/109
f 110/110/110 112/112/112 109/109/109
f 109/109/109 112/112/112 113/113/113
f 110/110/110 114/114/114 112/112/112
f 112/112/112 115/115/115 113/113/113
f 114/114/114 116/116/116 112/112/112
f 112/112/112 116/116/116 115/115/115
f 116/116/116 117/117/117 115/115/115
f 120/120/120 119/119/119 118/118/118
f 119/119/119 121/121/121 118/118/118
f 118/118/118 121/121/121 122/122/122
f 119/119/119 123/123/123 121/121/121
f 121/121/121 124/124/124 122/122/122
f 123/123/123 125/125/125 121/121/121
f 121/121/121 125/125/125 124/124/124
f 125/125/125 126/126/126 124/124/124
f 129/129/129 128/128/128 127/127/127
f 128/128/128 130/130/130 127/127/127
f 127/127/127 130/130/130 131/131/131
f 128/128/128 132/132/132 130/130/130
f 130/130/130 133/133/133 131/131/131
f 132/132/132 134/134/134 130/130/130
f 130/130/130 134/134/134 133/133/133
f 134/134/134 135/135/135 133/133/133
