g Custom Mesh - Baked
v 404.6842 38.56352 -1266.738
v 417.293 38.01176 -1268.448
v 416.4848 38.01472 -1264.531
v 405.3786 38.57707 -1270.677
v 392.194 39.13621 -1268.858
v 418.1012 38.0088 -1272.366
v 392.8488 39.16316 -1272.804
v 406.0731 38.59062 -1274.616
v 393.5036 39.19011 -1276.75
v 379.6235 39.71283 -1270.991
v 392.8488 39.16316 -1272.804
v 392.194 39.13621 -1268.858
v 380.319 39.74924 -1274.93
v 367.5944 40.27292 -1273.242
v 393.5036 39.19011 -1276.75
v 368.4046 40.31456 -1277.159
v 381.0144 39.78566 -1278.869
v 369.2148 40.35619 -1281.076
v 356.957 40.79032 -1275.79
v 368.4046 40.31456 -1277.159
v 367.5944 40.27292 -1273.242
v 358.0289 40.82793 -1279.644
v 347.9397 41.26197 -1278.753
v 369.2148 40.35619 -1281.076
v 349.4995 41.27898 -1282.437
v 359.1008 40.86553 -1283.497
v 351.0592 41.29599 -1286.12
v 341.416 41.67952 -1282.584
v 349.4995 41.27898 -1282.437
v 347.9397 41.26197 -1278.753
v 343.8831 41.63272 -1285.733
v 336.9848 42.03404 -1287.079
v 351.0592 41.29599 -1286.12
v 340.2564 41.92032 -1289.378
v 346.3501 41.58592 -1288.881
v 343.528 41.80661 -1291.676
v 334.5188 42.30856 -1291.649
v 340.2564 41.92032 -1289.378
v 336.9848 42.03404 -1287.079
v 338.1684 42.15598 -1293.279
v 332.8533 42.53315 -1295.728
v 343.528 41.80661 -1291.676
v 336.5525 42.37469 -1297.242
v 341.818 42.00341 -1294.909
v 340.2517 42.21622 -1298.755
v 331.2061 42.72621 -1298.952
v 336.5525 42.37469 -1297.242
v 332.8533 42.53315 -1295.728
v 334.578 42.60293 -1301.1
v 328.9388 42.92187 -1301.709
v 340.2517 42.21622 -1298.755
v 331.5578 42.86339 -1304.731
v 337.9499 42.47964 -1303.249
v 334.1769 42.80491 -1307.754
v 324.7941 43.24723 -1304.994
v 331.5578 42.86339 -1304.731
v 328.9388 42.92188 -1301.709
v 327.1846 43.18002 -1308.2
v 320.067 43.61098 -1308.346
v 334.1769 42.80491 -1307.754
v 322.2891 43.52629 -1311.671
v 329.5752 43.1128 -1311.406
v 324.5111 43.4416 -1314.996
v 314.9325 43.9899 -1311.636
v 322.2891 43.52629 -1311.671
v 320.067 43.61098 -1308.346
v 317.0349 43.88211 -1315.037
v 309.7217 44.35758 -1314.779
v 324.5111 43.4416 -1314.996
v 311.7296 44.22354 -1318.236
v 319.1374 43.77432 -1318.439
v 313.7374 44.0895 -1321.693
v 304.7194 44.68197 -1317.62
v 311.7296 44.22354 -1318.236
v 309.7217 44.35758 -1314.779
v 306.6547 44.51944 -1321.117
v 300.1243 44.94941 -1320.132
v 313.7374 44.0895 -1321.693
v 301.9999 44.7569 -1323.66
v 308.5901 44.35691 -1324.614
v 303.8755 44.56439 -1327.187
v 296.3173 45.10539 -1321.767
v 301.9999 44.7569 -1323.66
v 300.1243 44.94941 -1320.132
v 297.6719 44.92175 -1325.526
v 292.3709 45.2214 -1323
v 303.8755 44.56439 -1327.187
v 293.389 45.04513 -1326.865
v 299.0266 44.73811 -1329.285
v 294.4071 44.86885 -1330.729
v 288.3496 45.29851 -1324.014
v 293.389 45.04513 -1326.865
v 292.3709 45.2214 -1323
v 289.3366 45.12298 -1327.886
v 284.3459 45.35121 -1325.137
v 294.4071 44.86885 -1330.729
v 285.6079 45.16948 -1328.929
v 290.3236 44.94744 -1331.759
v 286.8699 44.98774 -1332.72
v 280.4471 45.37734 -1326.887
v 285.6079 45.16948 -1328.929
v 284.3459 45.35121 -1325.137
v 282.4579 45.1831 -1330.339
v 276.8947 45.37263 -1329.697
v 286.8699 44.98774 -1332.72
v 279.9102 45.17547 -1332.318
v 284.4688 44.98885 -1333.792
v 282.9258 44.97831 -1334.939
v 274.6109 45.3059 -1333.58
v 279.9102 45.17547 -1332.318
v 276.8947 45.37263 -1329.697
v 278.3121 45.12688 -1335.086
v 273.4622 45.19395 -1337.661
v 282.9258 44.97831 -1334.939
v 277.4084 45.03884 -1338.297
v 282.0132 44.94786 -1336.593
v 281.3546 44.88373 -1338.932
v 273.0905 45.0583 -1341.682
v 277.4084 45.03884 -1338.297
v 273.4622 45.19395 -1337.661
v 277.0834 44.91793 -1341.875
v 272.9924 44.91852 -1345.567
v 281.3546 44.88373 -1338.932
v 276.99 44.78387 -1345.6
v 281.0763 44.77756 -1342.067
v 280.9876 44.64921 -1345.633
v 272.9036 44.79018 -1349.133
v 276.99 44.78387 -1345.6
v 272.9924 44.91852 -1345.567
v 276.8965 44.6498 -1349.326
v 272.6254 44.68401 -1352.269
v 280.9876 44.64921 -1345.633
v 276.5716 44.5289 -1352.904
v 280.8894 44.50943 -1349.518
v 280.5178 44.37378 -1353.539

vn 0.0449721 0.9989236 0.0113635
vn 0.04632383 0.9988875 0.008802138
vn 0.04632383 0.9988875 0.008802138
vn 0.0449721 0.9989236 0.0113635
vn 0.0442218 0.9989215 0.01416104
vn 0.04632383 0.9988875 0.008802138
vn 0.0442218 0.9989215 0.01416104
vn 0.0449721 0.9989236 0.0113635
vn 0.0442218 0.9989215 0.01416104
vn 0.04397794 0.9988878 0.01699865
vn 0.0442218 0.9989215 0.01416104
vn 0.0442218 0.9989215 0.01416104
vn 0.04397794 0.9988878 0.01699865
vn 0.04406606 0.9988338 0.01973168
vn 0.0442218 0.9989215 0.01416104
vn 0.04406606 0.9988338 0.01973168
vn 0.04397794 0.9988878 0.01699865
vn 0.04406606 0.9988338 0.01973168
vn 0.04473016 0.9987527 0.02218883
vn 0.04406606 0.9988338 0.01973168
vn 0.04406606 0.9988338 0.01973168
vn 0.04473016 0.9987527 0.02218883
vn 0.04626768 0.9986358 0.02420532
vn 0.04406606 0.9988338 0.01973168
vn 0.04626768 0.9986358 0.02420532
vn 0.04473016 0.9987527 0.02218883
vn 0.04626768 0.9986358 0.02420532
vn 0.05092649 0.9983879 0.02506495
vn 0.04626768 0.9986358 0.02420532
vn 0.04626768 0.9986358 0.02420532
vn 0.05092649 0.9983879 0.02506495
vn 0.05477471 0.9980896 0.0285821
vn 0.04626768 0.9986358 0.02420532
vn 0.05477471 0.9980896 0.0285821
vn 0.05092649 0.9983879 0.02506495
vn 0.05477471 0.9980896 0.0285821
vn 0.05590408 0.9979308 0.03175894
vn 0.05477471 0.9980896 0.0285821
vn 0.05477471 0.9980896 0.0285821
vn 0.05590408 0.9979308 0.03175894
vn 0.05592385 0.9979156 0.03220176
vn 0.05477471 0.9980896 0.0285821
vn 0.05592385 0.9979156 0.03220176
vn 0.05590408 0.9979308 0.03175894
vn 0.05592385 0.9979156 0.03220176
vn 0.05494947 0.9980686 0.02897125
vn 0.05592385 0.9979156 0.03220176
vn 0.05592385 0.9979156 0.03220176
vn 0.05494947 0.9980686 0.02897125
vn 0.05129345 0.9983674 0.02512748
vn 0.05592385 0.9979156 0.03220176
vn 0.05129345 0.9983674 0.02512748
vn 0.05494947 0.9980686 0.02897125
vn 0.05129345 0.9983674 0.02512748
vn 0.05599261 0.9982141 0.02082138
vn 0.05129345 0.9983674 0.02512748
vn 0.05129345 0.9983674 0.02512748
vn 0.05599261 0.9982141 0.02082138
vn 0.05964677 0.9981152 0.01443916
vn 0.05129345 0.9983674 0.02512748
vn 0.05964677 0.9981152 0.01443916
vn 0.05599261 0.9982141 0.02082138
vn 0.05964677 0.9981152 0.01443916
vn 0.06192658 0.9980586 0.006648869
vn 0.05964677 0.9981152 0.01443916
vn 0.05964677 0.9981152 0.01443916
vn 0.06192658 0.9980586 0.006648869
vn 0.06289922 0.9980176 -0.002165582
vn 0.05964677 0.9981152 0.01443916
vn 0.06289922 0.9980176 -0.002165582
vn 0.06192658 0.9980586 0.006648869
vn 0.06289922 0.9980176 -0.002165582
vn 0.061664 0.9980215 -0.01225988
vn 0.06289922 0.9980176 -0.002165582
vn 0.06289922 0.9980176 -0.002165582
vn 0.061664 0.9980215 -0.01225988
vn 0.05745426 0.9980618 -0.02391665
vn 0.06289922 0.9980176 -0.002165582
vn 0.05745426 0.9980618 -0.02391665
vn 0.061664 0.9980215 -0.01225988
vn 0.05745426 0.9980618 -0.02391665
vn 0.044879 0.9984602 -0.03260332
vn 0.05745426 0.9980618 -0.02391665
vn 0.05745426 0.9980618 -0.02391665
vn 0.044879 0.9984602 -0.03260332
vn 0.03334019 0.9987673 -0.03677631
vn 0.05745426 0.9980618 -0.02391665
vn 0.03334019 0.9987673 -0.03677631
vn 0.044879 0.9984602 -0.03260332
vn 0.03334019 0.9987673 -0.03677631
vn 0.02556579 0.9989213 -0.0387651
vn 0.03334019 0.9987673 -0.03677631
vn 0.03334019 0.9987673 -0.03677631
vn 0.02556579 0.9989213 -0.0387651
vn 0.0218153 0.9989363 -0.04062068
vn 0.03334019 0.9987673 -0.03677631
vn 0.0218153 0.9989363 -0.04062068
vn 0.02556579 0.9989213 -0.0387651
vn 0.0218153 0.9989363 -0.04062068
vn 0.02500356 0.9988201 -0.04163471
vn 0.0218153 0.9989363 -0.04062068
vn 0.0218153 0.9989363 -0.04062068
vn 0.02500356 0.9988201 -0.04163471
vn 0.03333994 0.9987672 -0.03677637
vn 0.0218153 0.9989363 -0.04062068
vn 0.03333994 0.9987672 -0.03677637
vn 0.02500356 0.9988201 -0.04163471
vn 0.03333994 0.9987672 -0.03677637
vn 0.03333974 0.9987673 -0.03677658
vn 0.03333994 0.9987672 -0.03677637
vn 0.03333994 0.9987672 -0.03677637
vn 0.03333974 0.9987673 -0.03677658
vn 0.03333966 0.9987672 -0.03677672
vn 0.03333994 0.9987672 -0.03677637
vn 0.03333966 0.9987672 -0.03677672
vn 0.03333974 0.9987673 -0.03677658
vn 0.03333966 0.9987672 -0.03677672
vn 0.03333943 0.9987673 -0.03677693
vn 0.03333966 0.9987672 -0.03677672
vn 0.03333966 0.9987672 -0.03677672
vn 0.03333943 0.9987673 -0.03677693
vn 0.03333957 0.9987672 -0.03677665
vn 0.03333966 0.9987672 -0.03677672
vn 0.03333957 0.9987672 -0.03677665
vn 0.03333943 0.9987673 -0.03677693
vn 0.03333957 0.9987672 -0.03677665
vn 0.0333397 0.9987672 -0.03677664
vn 0.03333957 0.9987672 -0.03677665
vn 0.03333957 0.9987672 -0.03677665
vn 0.0333397 0.9987672 -0.03677664
vn 0.0333396 0.9987672 -0.03677661
vn 0.03333957 0.9987672 -0.03677665
vn 0.0333396 0.9987672 -0.03677661
vn 0.0333397 0.9987672 -0.03677664
vn 0.0333396 0.9987672 -0.03677661

vt 0.5 0
vt 1 0.5
vt 1 0
vt 0.5 0.5
vt 0 0
vt 1 1
vt 0 0.5
vt 0.5 1
vt 0 1
vt 0.5 0
vt 1 0.5
vt 1 0
vt 0.5 0.5
vt 0 0
vt 1 1
vt 0 0.5
vt 0.5 1
vt 0 1
vt 0.5 0
vt 1 0.5
vt 1 0
vt 0.5 0.5
vt 0 0
vt 1 1
vt 0 0.5
vt 0.5 1
vt 0 1
vt 0.5 0
vt 1 0.5
vt 1 0
vt 0.5 0.5
vt 0 0
vt 1 1
vt 0 0.5
vt 0.5 1
vt 0 1
vt 0.5 0
vt 1 0.5
vt 1 0
vt 0.5 0.5
vt 0 0
vt 1 1
vt 0 0.5
vt 0.5 1
vt 0 1
vt 0.5 0
vt 1 0.5
vt 1 0
vt 0.5 0.5
vt 0 0
vt 1 1
vt 0 0.5
vt 0.5 1
vt 0 1
vt 0.5 0
vt 1 0.5
vt 1 0
vt 0.5 0.5
vt 0 0
vt 1 1
vt 0 0.5
vt 0.5 1
vt 0 1
vt 0.5 0
vt 1 0.5
vt 1 0
vt 0.5 0.5
vt 0 0
vt 1 1
vt 0 0.5
vt 0.5 1
vt 0 1
vt 0.5 0
vt 1 0.5
vt 1 0
vt 0.5 0.5
vt 0 0
vt 1 1
vt 0 0.5
vt 0.5 1
vt 0 1
vt 0.5 0
vt 1 0.5
vt 1 0
vt 0.5 0.5
vt 0 0
vt 1 1
vt 0 0.5
vt 0.5 1
vt 0 1
vt 0.5 0
vt 1 0.5
vt 1 0
vt 0.5 0.5
vt 0 0
vt 1 1
vt 0 0.5
vt 0.5 1
vt 0 1
vt 0.5 0
vt 1 0.5
vt 1 0
vt 0.5 0.5
vt 0 0
vt 1 1
vt 0 0.5
vt 0.5 1
vt 0 1
vt 0.5 0
vt 1 0.5
vt 1 0
vt 0.5 0.5
vt 0 0
vt 1 1
vt 0 0.5
vt 0.5 1
vt 0 1
vt 0.5 0
vt 1 0.5
vt 1 0
vt 0.5 0.5
vt 0 0
vt 1 1
vt 0 0.5
vt 0.5 1
vt 0 1
vt 0.5 0
vt 1 0.5
vt 1 0
vt 0.5 0.5
vt 0 0
vt 1 1
vt 0 0.5
vt 0.5 1
vt 0 1

vt2 0 0
vt2 0 0
vt2 0 0
vt2 0 0
vt2 0 0
vt2 0 0
vt2 0 0
vt2 0 0
vt2 0 0
vt2 0 0
vt2 0 0
vt2 0 0
vt2 0 0
vt2 0 0
vt2 0 0
vt2 0 0
vt2 0 0
vt2 0 0
vt2 0 0
vt2 0 0
vt2 0 0
vt2 0 0
vt2 0 0
vt2 0 0
vt2 0 0
vt2 0 0
vt2 0 0
vt2 0 0
vt2 0 0
vt2 0 0
vt2 0 0
vt2 0 0
vt2 0 0
vt2 0 0
vt2 0 0
vt2 0 0
vt2 0 0
vt2 0 0
vt2 0 0
vt2 0 0
vt2 0 0
vt2 0 0
vt2 0 0
vt2 0 0
vt2 0 0
vt2 0 0
vt2 0 0
vt2 0 0
vt2 0 0
vt2 0 0
vt2 0 0
vt2 0 0
vt2 0 0
vt2 0 0
vt2 0 0
vt2 0 0
vt2 0 0
vt2 0 0
vt2 0 0
vt2 0 0
vt2 0 0
vt2 0 0
vt2 0 0
vt2 0 0
vt2 0 0
vt2 0 0
vt2 0 0
vt2 0 0
vt2 0 0
vt2 0 0
vt2 0 0
vt2 0 0
vt2 0 0
vt2 0 0
vt2 0 0
vt2 0 0
vt2 0 0
vt2 0 0
vt2 0 0
vt2 0 0
vt2 0 0
vt2 0 0
vt2 0 0
vt2 0 0
vt2 0 0
vt2 0 0
vt2 0 0
vt2 0 0
vt2 0 0
vt2 0 0
vt2 0 0
vt2 0 0
vt2 0 0
vt2 0 0
vt2 0 0
vt2 0 0
vt2 0 0
vt2 0 0
vt2 0 0
vt2 0 0
vt2 0 0
vt2 0 0
vt2 0 0
vt2 0 0
vt2 0 0
vt2 0 0
vt2 0 0
vt2 0 0
vt2 0 0
vt2 0 0
vt2 0 0
vt2 0 0
vt2 0 0
vt2 0 0
vt2 0 0
vt2 0 0
vt2 0 0
vt2 0 0
vt2 0 0
vt2 0 0
vt2 0 0
vt2 0 0
vt2 0 0
vt2 0 0
vt2 0 0
vt2 0 0
vt2 0 0
vt2 0 0
vt2 0 0
vt2 0 0
vt2 0 0
vt2 0 0
vt2 0 0
vt2 0 0
vt2 0 0

vt2 0 0
vt2 0 0
vt2 0 0
vt2 0 0
vt2 0 0
vt2 0 0
vt2 0 0
vt2 0 0
vt2 0 0
vt2 0 0
vt2 0 0
vt2 0 0
vt2 0 0
vt2 0 0
vt2 0 0
vt2 0 0
vt2 0 0
vt2 0 0
vt2 0 0
vt2 0 0
vt2 0 0
vt2 0 0
vt2 0 0
vt2 0 0
vt2 0 0
vt2 0 0
vt2 0 0
vt2 0 0
vt2 0 0
vt2 0 0
vt2 0 0
vt2 0 0
vt2 0 0
vt2 0 0
vt2 0 0
vt2 0 0
vt2 0 0
vt2 0 0
vt2 0 0
vt2 0 0
vt2 0 0
vt2 0 0
vt2 0 0
vt2 0 0
vt2 0 0
vt2 0 0
vt2 0 0
vt2 0 0
vt2 0 0
vt2 0 0
vt2 0 0
vt2 0 0
vt2 0 0
vt2 0 0
vt2 0 0
vt2 0 0
vt2 0 0
vt2 0 0
vt2 0 0
vt2 0 0
vt2 0 0
vt2 0 0
vt2 0 0
vt2 0 0
vt2 0 0
vt2 0 0
vt2 0 0
vt2 0 0
vt2 0 0
vt2 0 0
vt2 0 0
vt2 0 0
vt2 0 0
vt2 0 0
vt2 0 0
vt2 0 0
vt2 0 0
vt2 0 0
vt2 0 0
vt2 0 0
vt2 0 0
vt2 0 0
vt2 0 0
vt2 0 0
vt2 0 0
vt2 0 0
vt2 0 0
vt2 0 0
vt2 0 0
vt2 0 0
vt2 0 0
vt2 0 0
vt2 0 0
vt2 0 0
vt2 0 0
vt2 0 0
vt2 0 0
vt2 0 0
vt2 0 0
vt2 0 0
vt2 0 0
vt2 0 0
vt2 0 0
vt2 0 0
vt2 0 0
vt2 0 0
vt2 0 0
vt2 0 0
vt2 0 0
vt2 0 0
vt2 0 0
vt2 0 0
vt2 0 0
vt2 0 0
vt2 0 0
vt2 0 0
vt2 0 0
vt2 0 0
vt2 0 0
vt2 0 0
vt2 0 0
vt2 0 0
vt2 0 0
vt2 0 0
vt2 0 0
vt2 0 0
vt2 0 0
vt2 0 0
vt2 0 0
vt2 0 0
vt2 0 0
vt2 0 0
vt2 0 0
vt2 0 0
vt2 0 0

vc 1 1 1 1
vc 1 1 1 1
vc 1 1 1 1
vc 1 1 1 1
vc 1 1 1 1
vc 1 1 1 1
vc 1 1 1 1
vc 1 1 1 1
vc 1 1 1 1
vc 1 1 1 1
vc 1 1 1 1
vc 1 1 1 1
vc 1 1 1 1
vc 1 1 1 1
vc 1 1 1 1
vc 1 1 1 1
vc 1 1 1 1
vc 1 1 1 1
vc 1 1 1 1
vc 1 1 1 1
vc 1 1 1 1
vc 1 1 1 1
vc 1 1 1 1
vc 1 1 1 1
vc 1 1 1 1
vc 1 1 1 1
vc 1 1 1 1
vc 1 1 1 1
vc 1 1 1 1
vc 1 1 1 1
vc 1 1 1 1
vc 1 1 1 1
vc 1 1 1 1
vc 1 1 1 1
vc 1 1 1 1
vc 1 1 1 1
vc 1 1 1 1
vc 1 1 1 1
vc 1 1 1 1
vc 1 1 1 1
vc 1 1 1 1
vc 1 1 1 1
vc 1 1 1 1
vc 1 1 1 1
vc 1 1 1 1
vc 1 1 1 1
vc 1 1 1 1
vc 1 1 1 1
vc 1 1 1 1
vc 1 1 1 1
vc 1 1 1 1
vc 1 1 1 1
vc 1 1 1 1
vc 1 1 1 1
vc 1 1 1 1
vc 1 1 1 1
vc 1 1 1 1
vc 1 1 1 1
vc 1 1 1 1
vc 1 1 1 1
vc 1 1 1 1
vc 1 1 1 1
vc 1 1 1 1
vc 1 1 1 1
vc 1 1 1 1
vc 1 1 1 1
vc 1 1 1 1
vc 1 1 1 1
vc 1 1 1 1
vc 1 1 1 1
vc 1 1 1 1
vc 1 1 1 1
vc 1 1 1 1
vc 1 1 1 1
vc 1 1 1 1
vc 1 1 1 1
vc 1 1 1 1
vc 1 1 1 1
vc 1 1 1 1
vc 1 1 1 1
vc 1 1 1 1
vc 1 1 1 1
vc 1 1 1 1
vc 1 1 1 1
vc 1 1 1 1
vc 1 1 1 1
vc 1 1 1 1
vc 1 1 1 1
vc 1 1 1 1
vc 1 1 1 1
vc 1 1 1 1
vc 1 1 1 1
vc 1 1 1 1
vc 1 1 1 1
vc 1 1 1 1
vc 1 1 1 1
vc 1 1 1 1
vc 1 1 1 1
vc 1 1 1 1
vc 1 1 1 1
vc 1 1 1 1
vc 1 1 1 1
vc 1 1 1 1
vc 1 1 1 1
vc 1 1 1 1
vc 1 1 1 1
vc 1 1 1 1
vc 1 1 1 1
vc 1 1 1 1
vc 1 1 1 1
vc 1 1 1 1
vc 1 1 1 1
vc 1 1 1 1
vc 1 1 1 1
vc 1 1 1 1
vc 1 1 1 1
vc 1 1 1 1
vc 1 1 1 1
vc 1 1 1 1
vc 1 1 1 1
vc 1 1 1 1
vc 1 1 1 1
vc 1 1 1 1
vc 1 1 1 1
vc 1 1 1 1
vc 1 1 1 1
vc 1 1 1 1
vc 1 1 1 1
vc 1 1 1 1
vc 1 1 1 1
vc 1 1 1 1
vc 1 1 1 1
vc 1 1 1 1
vc 1 1 1 1
vc 1 1 1 1

usemtl Default-Diffuse
usemap Default-Diffuse
f 3/3/3 2/2/2 1/1/1
f 2/2/2 4/4/4 1/1/1
f 1/1/1 4/4/4 5/5/5
f 2/2/2 6/6/6 4/4/4
f 4/4/4 7/7/7 5/5/5
f 6/6/6 8/8/8 4/4/4
f 4/4/4 8/8/8 7/7/7
f 8/8/8 9/9/9 7/7/7
f 12/12/12 11/11/11 10/10/10
f 11/11/11 13/13/13 10/10/10
f 10/10/10 13/13/13 14/14/14
f 11/11/11 15/15/15 13/13/13
f 13/13/13 16/16/16 14/14/14
f 15/15/15 17/17/17 13/13/13
f 13/13/13 17/17/17 16/16/16
f 17/17/17 18/18/18 16/16/16
f 21/21/21 20/20/20 19/19/19
f 20/20/20 22/22/22 19/19/19
f 19/19/19 22/22/22 23/23/23
f 20/20/20 24/24/24 22/22/22
f 22/22/22 25/25/25 23/23/23
f 24/24/24 26/26/26 22/22/22
f 22/22/22 26/26/26 25/25/25
f 26/26/26 27/27/27 25/25/25
f 30/30/30 29/29/29 28/28/28
f 29/29/29 31/31/31 28/28/28
f 28/28/28 31/31/31 32/32/32
f 29/29/29 33/33/33 31/31/31
f 31/31/31 34/34/34 32/32/32
f 33/33/33 35/35/35 31/31/31
f 31/31/31 35/35/35 34/34/34
f 35/35/35 36/36/36 34/34/34
f 39/39/39 38/38/38 37/37/37
f 38/38/38 40/40/40 37/37/37
f 37/37/37 40/40/40 41/41/41
f 38/38/38 42/42/42 40/40/40
f 40/40/40 43/43/43 41/41/41
f 42/42/42 44/44/44 40/40/40
f 40/40/40 44/44/44 43/43/43
f 44/44/44 45/45/45 43/43/43
f 48/48/48 47/47/47 46/46/46
f 47/47/47 49/49/49 46/46/46
f 46/46/46 49/49/49 50/50/50
f 47/47/47 51/51/51 49/49/49
f 49/49/49 52/52/52 50/50/50
f 51/51/51 53/53/53 49/49/49
f 49/49/49 53/53/53 52/52/52
f 53/53/53 54/54/54 52/52/52
f 57/57/57 56/56/56 55/55/55
f 56/56/56 58/58/58 55/55/55
f 55/55/55 58/58/58 59/59/59
f 56/56/56 60/60/60 58/58/58
f 58/58/58 61/61/61 59/59/59
f 60/60/60 62/62/62 58/58/58
f 58/58/58 62/62/62 61/61/61
f 62/62/62 63/63/63 61/61/61
f 66/66/66 65/65/65 64/64/64
f 65/65/65 67/67/67 64/64/64
f 64/64/64 67/67/67 68/68/68
f 65/65/65 69/69/69 67/67/67
f 67/67/67 70/70/70 68/68/68
f 69/69/69 71/71/71 67/67/67
f 67/67/67 71/71/71 70/70/70
f 71/71/71 72/72/72 70/70/70
f 75/75/75 74/74/74 73/73/73
f 74/74/74 76/76/76 73/73/73
f 73/73/73 76/76/76 77/77/77
f 74/74/74 78/78/78 76/76/76
f 76/76/76 79/79/79 77/77/77
f 78/78/78 80/80/80 76/76/76
f 76/76/76 80/80/80 79/79/79
f 80/80/80 81/81/81 79/79/79
f 84/84/84 83/83/83 82/82/82
f 83/83/83 85/85/85 82/82/82
f 82/82/82 85/85/85 86/86/86
f 83/83/83 87/87/87 85/85/85
f 85/85/85 88/88/88 86/86/86
f 87/87/87 89/89/89 85/85/85
f 85/85/85 89/89/89 88/88/88
f 89/89/89 90/90/90 88/88/88
f 93/93/93 92/92/92 91/91/91
f 92/92/92 94/94/94 91/91/91
f 91/91/91 94/94/94 95/95/95
f 92/92/92 96/96/96 94/94/94
f 94/94/94 97/97/97 95/95/95
f 96/96/96 98/98/98 94/94/94
f 94/94/94 98/98/98 97/97/97
f 98/98/98 99/99/99 97/97/97
f 102/102/102 101/101/101 100/100/100
f 101/101/101 103/103/103 100/100/100
f 100/100/100 103/103/103 104/104/104
f 101/101/101 105/105/105 103/103/103
f 103/103/103 106/106/106 104/104/104
f 105/105/105 107/107/107 103/103/103
f 103/103/103 107/107/107 106/106/106
f 107/107/107 108/108/108 106/106/106
f 111/111/111 110/110/110 109/109/109
f 110/110/110 112/112/112 109/109/109
f 109/109/109 112/112/112 113/113/113
f 110/110/110 114/114/114 112/112/112
f 112/112/112 115/115/115 113/113/113
f 114/114/114 116/116/116 112/112/112
f 112/112/112 116/116/116 115/115/115
f 116/116/116 117/117/117 115/115/115
f 120/120/120 119/119/119 118/118/118
f 119/119/119 121/121/121 118/118/118
f 118/118/118 121/121/121 122/122/122
f 119/119/119 123/123/123 121/121/121
f 121/121/121 124/124/124 122/122/122
f 123/123/123 125/125/125 121/121/121
f 121/121/121 125/125/125 124/124/124
f 125/125/125 126/126/126 124/124/124
f 129/129/129 128/128/128 127/127/127
f 128/128/128 130/130/130 127/127/127
f 127/127/127 130/130/130 131/131/131
f 128/128/128 132/132/132 130/130/130
f 130/130/130 133/133/133 131/131/131
f 132/132/132 134/134/134 130/130/130
f 130/130/130 134/134/134 133/133/133
f 134/134/134 135/135/135 133/133/133
