g Custom Mesh - Baked
v 548.2064 44.27261 -792.3029
v 549.7154 44.33228 -783.9376
v 546.7653 44.41261 -784.4763
v 551.1547 44.18393 -791.7554
v 549.6446 44.1334 -800.1124
v 552.6655 44.25195 -783.3988
v 552.5942 44.03557 -799.5735
v 554.103 44.09524 -791.2079
v 555.5438 43.93774 -799.0345
v 551.0434 44.00779 -807.9627
v 552.5942 44.03557 -799.5735
v 549.6446 44.1334 -800.1124
v 553.9972 43.90087 -807.4493
v 552.3818 43.89617 -815.91
v 555.5438 43.93774 -799.0345
v 555.3398 43.78893 -815.4218
v 556.951 43.79395 -806.9359
v 558.2979 43.68168 -814.9336
v 553.6868 43.79799 -823.9321
v 555.3398 43.78893 -815.4218
v 552.3818 43.89617 -815.91
v 556.6462 43.69064 -823.4522
v 554.9944 43.69961 -831.9708
v 558.2979 43.68168 -814.9336
v 557.9525 43.59236 -831.4826
v 559.6056 43.58329 -822.9723
v 560.9106 43.48512 -830.9944

vn 0.04336656 1.332511 -0.01767788
vn 0.03943925 1.332638 -0.01726967
vn 0.03943925 1.332638 -0.01726967
vn 0.04336656 1.332511 -0.01767788
vn 0.04709303 1.332407 -0.01587144
vn 0.03943925 1.332638 -0.01726967
vn 0.04709303 1.332407 -0.01587144
vn 0.04336656 1.332511 -0.01767788
vn 0.04709303 1.332407 -0.01587144
vn 0.05031443 1.332329 -0.01201741
vn 0.04709303 1.332407 -0.01587144
vn 0.04709303 1.332407 -0.01587144
vn 0.05031443 1.332329 -0.01201741
vn 0.04977629 1.332374 -0.008911381
vn 0.04709303 1.332407 -0.01587144
vn 0.04977629 1.332374 -0.008911381
vn 0.05031443 1.332329 -0.01201741
vn 0.04977629 1.332374 -0.008911381
vn 0.04961025 1.332387 -0.007887243
vn 0.04977629 1.332374 -0.008911381
vn 0.04977629 1.332374 -0.008911381
vn 0.04961025 1.332387 -0.007887243
vn 0.049776 1.332374 -0.008911395
vn 0.04977629 1.332374 -0.008911381
vn 0.049776 1.332374 -0.008911395
vn 0.04961025 1.332387 -0.007887243
vn 0.049776 1.332374 -0.008911395

vt 0.5 0
vt 1 0.5
vt 1 0
vt 0.5 0.5
vt 0 0
vt 1 1
vt 0 0.5
vt 0.5 1
vt 0 1
vt 0.5 0
vt 1 0.5
vt 1 0
vt 0.5 0.5
vt 0 0
vt 1 1
vt 0 0.5
vt 0.5 1
vt 0 1
vt 0.5 0
vt 1 0.5
vt 1 0
vt 0.5 0.5
vt 0 0
vt 1 1
vt 0 0.5
vt 0.5 1
vt 0 1

vt2 0 0
vt2 0 0
vt2 0 0
vt2 0 0
vt2 0 0
vt2 0 0
vt2 0 0
vt2 0 0
vt2 0 0
vt2 0 0
vt2 0 0
vt2 0 0
vt2 0 0
vt2 0 0
vt2 0 0
vt2 0 0
vt2 0 0
vt2 0 0
vt2 0 0
vt2 0 0
vt2 0 0
vt2 0 0
vt2 0 0
vt2 0 0
vt2 0 0
vt2 0 0
vt2 0 0

vt2 0 0
vt2 0 0
vt2 0 0
vt2 0 0
vt2 0 0
vt2 0 0
vt2 0 0
vt2 0 0
vt2 0 0
vt2 0 0
vt2 0 0
vt2 0 0
vt2 0 0
vt2 0 0
vt2 0 0
vt2 0 0
vt2 0 0
vt2 0 0
vt2 0 0
vt2 0 0
vt2 0 0
vt2 0 0
vt2 0 0
vt2 0 0
vt2 0 0
vt2 0 0
vt2 0 0

vc 1 1 1 1
vc 1 1 1 1
vc 1 1 1 1
vc 1 1 1 1
vc 1 1 1 1
vc 1 1 1 1
vc 1 1 1 1
vc 1 1 1 1
vc 1 1 1 1
vc 1 1 1 1
vc 1 1 1 1
vc 1 1 1 1
vc 1 1 1 1
vc 1 1 1 1
vc 1 1 1 1
vc 1 1 1 1
vc 1 1 1 1
vc 1 1 1 1
vc 1 1 1 1
vc 1 1 1 1
vc 1 1 1 1
vc 1 1 1 1
vc 1 1 1 1
vc 1 1 1 1
vc 1 1 1 1
vc 1 1 1 1
vc 1 1 1 1

usemtl Default-Diffuse
usemap Default-Diffuse
f 3/3/3 2/2/2 1/1/1
f 2/2/2 4/4/4 1/1/1
f 1/1/1 4/4/4 5/5/5
f 2/2/2 6/6/6 4/4/4
f 4/4/4 7/7/7 5/5/5
f 6/6/6 8/8/8 4/4/4
f 4/4/4 8/8/8 7/7/7
f 8/8/8 9/9/9 7/7/7
f 12/12/12 11/11/11 10/10/10
f 11/11/11 13/13/13 10/10/10
f 10/10/10 13/13/13 14/14/14
f 11/11/11 15/15/15 13/13/13
f 13/13/13 16/16/16 14/14/14
f 15/15/15 17/17/17 13/13/13
f 13/13/13 17/17/17 16/16/16
f 17/17/17 18/18/18 16/16/16
f 21/21/21 20/20/20 19/19/19
f 20/20/20 22/22/22 19/19/19
f 19/19/19 22/22/22 23/23/23
f 20/20/20 24/24/24 22/22/22
f 22/22/22 25/25/25 23/23/23
f 24/24/24 26/26/26 22/22/22
f 22/22/22 26/26/26 25/25/25
f 26/26/26 27/27/27 25/25/25
