g Custom Mesh - Baked
v 94.54433 74.64243 -475.1607
v 94.28485 75.00345 -471.2921
v 94.21803 74.61632 -475.2728
v 94.76526 75.00896 -471.3178
v 94.89455 74.66685 -475.0529
v 94.35167 75.39058 -467.3115
v 95.24027 75.01372 -471.3518
v 94.98619 75.37548 -467.4749
v 95.58599 75.36058 -467.6507
v 95.27888 74.6877 -474.9621
v 95.24027 75.01372 -471.3518
v 94.89455 74.66685 -475.0529
v 95.70451 75.017 -471.4026
v 95.70367 74.70531 -474.8833
v 95.58599 75.36058 -467.6507
v 96.16334 75.01953 -471.4617
v 96.13013 75.3463 -467.843
v 96.62301 75.33375 -468.04
v 96.14828 74.72129 -474.8111
v 96.16334 75.01953 -471.4617
v 95.70367 74.70531 -474.8833
v 96.61948 75.02169 -471.525
v 96.65131 74.7338 -474.7467
v 96.62301 75.33375 -468.04
v 97.07562 75.02385 -471.5883
v 97.09067 75.32209 -468.2388
v 97.49994 75.3139 -468.4298
v 97.17189 74.74586 -474.6796
v 97.07562 75.02385 -471.5883
v 96.65131 74.7338 -474.7467
v 97.53446 75.02637 -471.6474
v 97.72707 74.75713 -474.6062
v 97.49994 75.3139 -468.4298
v 97.99869 75.02966 -471.6982
v 97.89703 75.30689 -468.6152
v 98.27031 75.3022 -468.7902
v 98.31372 74.76901 -474.515
v 97.99869 75.02966 -471.6982
v 97.72707 74.75713 -474.6062
v 98.4737 75.03442 -471.7322
v 98.90955 74.78185 -474.4116
v 98.27031 75.3022 -468.7902
v 98.95411 75.03993 -471.7578
v 98.63368 75.29984 -468.9494
v 98.99866 75.29802 -469.1041
v 99.54675 74.79776 -474.2652
v 98.95411 75.03993 -471.7578
v 98.90955 74.78185 -474.4116
v 99.45879 75.04878 -471.7458
v 100.1857 74.81623 -474.0954
v 98.99866 75.29802 -469.1041
v 99.97424 75.05913 -471.7171
v 99.37082 75.2998 -469.2265
v 99.76275 75.30202 -469.3388
v 100.8408 74.8386 -473.8853
v 99.97424 75.05913 -471.7171
v 100.1857 74.81623 -474.0954
v 100.5113 75.07243 -471.655
v 101.5084 74.86591 -473.6279
v 99.76275 75.30202 -469.3388
v 101.0753 75.08948 -471.551
v 100.1818 75.30627 -469.4246
v 100.6422 75.31305 -469.4741
v 102.1735 74.89621 -473.3453
v 101.0753 75.08948 -471.551
v 101.5084 74.86591 -473.6279
v 101.6528 75.10838 -471.426
v 102.8898 74.91986 -473.1214
v 100.6422 75.31305 -469.4741
v 102.2761 75.13359 -471.23
v 101.132 75.32054 -469.5067
v 101.6623 75.34732 -469.3385
v 103.6087 74.94597 -472.8758
v 102.2761 75.13359 -471.23
v 102.8898 74.91986 -473.1214
v 102.9129 75.16066 -471.0131
v 104.3346 74.9763 -472.5926
v 101.6623 75.34732 -469.3385
v 103.5767 75.19146 -470.7543
v 102.217 75.37535 -469.1503
v 102.8187 75.40662 -468.916
v 105.0682 75.00986 -472.2797
v 103.5767 75.19146 -470.7543
v 104.3346 74.9763 -472.5926
v 104.262 75.22523 -470.4621
v 105.8055 75.04507 -471.9519
v 102.8187 75.40662 -468.916
v 104.9581 75.26048 -470.1531
v 103.4558 75.44059 -468.6445
v 104.1107 75.4759 -468.3544
v 106.5524 75.08369 -471.5926
v 104.9581 75.26048 -470.1531
v 105.8055 75.04507 -471.9519
v 105.6785 75.29909 -469.8065
v 107.3007 75.12311 -471.2264
v 104.1107 75.4759 -468.3544
v 106.4043 75.33844 -469.4516
v 104.8046 75.51448 -468.0205
v 105.5079 75.55377 -467.6768
v 108.052 75.164 -470.8472
v 106.4043 75.33844 -469.4516
v 107.3007 75.12311 -471.2264
v 107.1409 75.37928 -469.0799
v 108.802 75.20562 -470.463
v 105.5079 75.55377 -467.6768
v 107.8828 75.42086 -468.6998
v 106.2297 75.59456 -467.3126
v 106.9636 75.6361 -466.9367
v 109.5514 75.24759 -470.0763
v 107.8828 75.42086 -468.6998
v 108.802 75.20562 -470.463
v 108.6275 75.46281 -468.3156
v 110.2914 75.28952 -469.6945
v 106.9636 75.6361 -466.9367
v 109.3721 75.50476 -467.9314
v 107.7035 75.67802 -466.5549
v 108.4529 75.72 -466.1682
v 111.0253 75.33106 -469.3186
v 109.3721 75.50476 -467.9314
v 110.2914 75.28952 -469.6945
v 110.1141 75.54634 -467.5513
v 111.7471 75.37184 -468.9544
v 108.4529 75.72 -466.1682
v 110.8507 75.58717 -467.1796
v 109.203 75.76162 -465.784
v 109.9543 75.80251 -465.4048
v 112.4504 75.41113 -468.6107
v 110.8507 75.58717 -467.1796
v 111.7471 75.37184 -468.9544
v 111.5765 75.62652 -466.8246
v 113.1443 75.4497 -468.2768
v 109.9543 75.80251 -465.4048
v 112.2969 75.66512 -466.4781
v 110.7026 75.84191 -465.0386
v 111.4494 75.88053 -464.6793

vn -0.008540633 0.5148808 -0.04861623
vn -0.007963311 0.4976017 -0.04825988
vn -0.007963311 0.4976017 -0.04825988
vn -0.008540633 0.5148808 -0.04861623
vn -0.009029774 0.5333789 -0.04914435
vn -0.007963311 0.4976017 -0.04825988
vn -0.009029774 0.5333789 -0.04914435
vn -0.008540633 0.5148808 -0.04861623
vn -0.009029774 0.5333789 -0.04914435
vn -0.009446434 0.5532159 -0.05004979
vn -0.009029774 0.5333789 -0.04914435
vn -0.009029774 0.5333789 -0.04914435
vn -0.009446434 0.5532159 -0.05004979
vn -0.009835931 0.5745411 -0.05143933
vn -0.009029774 0.5333789 -0.04914435
vn -0.009835931 0.5745411 -0.05143933
vn -0.009446434 0.5532159 -0.05004979
vn -0.009835931 0.5745411 -0.05143933
vn -0.01023779 0.597553 -0.05315667
vn -0.009835931 0.5745411 -0.05143933
vn -0.009835931 0.5745411 -0.05143933
vn -0.01023779 0.597553 -0.05315667
vn -0.01065518 0.6224196 -0.05572598
vn -0.009835931 0.5745411 -0.05143933
vn -0.01065518 0.6224196 -0.05572598
vn -0.01023779 0.597553 -0.05315667
vn -0.01065518 0.6224196 -0.05572598
vn -0.01108869 0.6494272 -0.05875415
vn -0.01065518 0.6224196 -0.05572598
vn -0.01065518 0.6224196 -0.05572598
vn -0.01108869 0.6494272 -0.05875415
vn -0.0114919 0.6788458 -0.06254759
vn -0.01065518 0.6224196 -0.05572598
vn -0.0114919 0.6788458 -0.06254759
vn -0.01108869 0.6494272 -0.05875415
vn -0.0114919 0.6788458 -0.06254759
vn -0.01179404 0.7110258 -0.06713701
vn -0.0114919 0.6788458 -0.06254759
vn -0.0114919 0.6788458 -0.06254759
vn -0.01179404 0.7110258 -0.06713701
vn -0.01194525 0.7464027 -0.07238966
vn -0.0114919 0.6788458 -0.06254759
vn -0.01194525 0.7464027 -0.07238966
vn -0.01179404 0.7110258 -0.06713701
vn -0.01194525 0.7464027 -0.07238966
vn -0.01175514 0.7854561 -0.07867207
vn -0.01194525 0.7464027 -0.07238966
vn -0.01194525 0.7464027 -0.07238966
vn -0.01175514 0.7854561 -0.07867207
vn -0.01122865 0.8288442 -0.08564815
vn -0.01194525 0.7464027 -0.07238966
vn -0.01122865 0.8288442 -0.08564815
vn -0.01175514 0.7854561 -0.07867207
vn -0.01122865 0.8288442 -0.08564815
vn -0.01022143 0.8773265 -0.09349106
vn -0.01122865 0.8288442 -0.08564815
vn -0.01122865 0.8288442 -0.08564815
vn -0.01022143 0.8773265 -0.09349106
vn -0.008719755 0.9318794 -0.1021318
vn -0.01122865 0.8288442 -0.08564815
vn -0.008719755 0.9318794 -0.1021318
vn -0.01022143 0.8773265 -0.09349106
vn -0.008719755 0.9318794 -0.1021318
vn -0.006661486 0.9937243 -0.1116572
vn -0.008719755 0.9318794 -0.1021318
vn -0.008719755 0.9318794 -0.1021318
vn -0.006661486 0.9937243 -0.1116572
vn -0.004262651 0.9935122 -0.1136457
vn -0.008719755 0.9318794 -0.1021318
vn -0.004262651 0.9935122 -0.1136457
vn -0.006661486 0.9937243 -0.1116572
vn -0.004262651 0.9935122 -0.1136457
vn -0.001958188 0.9933379 -0.1152223
vn -0.004262651 0.9935122 -0.1136457
vn -0.004262651 0.9935122 -0.1136457
vn -0.001958188 0.9933379 -0.1152223
vn -0.0001009024 0.9932149 -0.1162932
vn -0.004262651 0.9935122 -0.1136457
vn -0.0001009024 0.9932149 -0.1162932
vn -0.001958188 0.9933379 -0.1152223
vn -0.0001009024 0.9932149 -0.1162932
vn 0.001407438 0.9931253 -0.1170476
vn -0.0001009024 0.9932149 -0.1162932
vn -0.0001009024 0.9932149 -0.1162932
vn 0.001407438 0.9931253 -0.1170476
vn 0.002741322 0.993053 -0.1176354
vn -0.0001009024 0.9932149 -0.1162932
vn 0.002741322 0.993053 -0.1176354
vn 0.001407438 0.9931253 -0.1170476
vn 0.002741322 0.993053 -0.1176354
vn 0.003619944 0.9930089 -0.1179836
vn 0.002741322 0.993053 -0.1176354
vn 0.002741322 0.993053 -0.1176354
vn 0.003619944 0.9930089 -0.1179836
vn 0.004378461 0.992973 -0.1182606
vn 0.002741322 0.993053 -0.1176354
vn 0.004378461 0.992973 -0.1182606
vn 0.003619944 0.9930089 -0.1179836
vn 0.004378461 0.992973 -0.1182606
vn 0.004881651 0.99295 -0.1184326
vn 0.004378461 0.992973 -0.1182606
vn 0.004378461 0.992973 -0.1182606
vn 0.004881651 0.99295 -0.1184326
vn 0.005159148 0.9929378 -0.1185238
vn 0.004378461 0.992973 -0.1182606
vn 0.005159148 0.9929378 -0.1185238
vn 0.004881651 0.99295 -0.1184326
vn 0.005159148 0.9929378 -0.1185238
vn 0.005322438 0.9929307 -0.1185763
vn 0.005159148 0.9929378 -0.1185238
vn 0.005159148 0.9929378 -0.1185238
vn 0.005322438 0.9929307 -0.1185763
vn 0.005158927 0.9929378 -0.1185238
vn 0.005159148 0.9929378 -0.1185238
vn 0.005158927 0.9929378 -0.1185238
vn 0.005322438 0.9929307 -0.1185763
vn 0.005158927 0.9929378 -0.1185238
vn 0.004881629 0.99295 -0.1184328
vn 0.005158927 0.9929378 -0.1185238
vn 0.005158927 0.9929378 -0.1185238
vn 0.004881629 0.99295 -0.1184328
vn 0.004378191 0.992973 -0.1182607
vn 0.005158927 0.9929378 -0.1185238
vn 0.004378191 0.992973 -0.1182607
vn 0.004881629 0.99295 -0.1184328
vn 0.004378191 0.992973 -0.1182607
vn 0.003620053 0.9930089 -0.1179836
vn 0.004378191 0.992973 -0.1182607
vn 0.004378191 0.992973 -0.1182607
vn 0.003620053 0.9930089 -0.1179836
vn 0.002741671 0.9930531 -0.1176353
vn 0.004378191 0.992973 -0.1182607
vn 0.002741671 0.9930531 -0.1176353
vn 0.003620053 0.9930089 -0.1179836
vn 0.002741671 0.9930531 -0.1176353

vt 0.5 0
vt 1 0.5
vt 1 0
vt 0.5 0.5
vt 0 0
vt 1 1
vt 0 0.5
vt 0.5 1
vt 0 1
vt 0.5 0
vt 1 0.5
vt 1 0
vt 0.5 0.5
vt 0 0
vt 1 1
vt 0 0.5
vt 0.5 1
vt 0 1
vt 0.5 0
vt 1 0.5
vt 1 0
vt 0.5 0.5
vt 0 0
vt 1 1
vt 0 0.5
vt 0.5 1
vt 0 1
vt 0.5 0
vt 1 0.5
vt 1 0
vt 0.5 0.5
vt 0 0
vt 1 1
vt 0 0.5
vt 0.5 1
vt 0 1
vt 0.5 0
vt 1 0.5
vt 1 0
vt 0.5 0.5
vt 0 0
vt 1 1
vt 0 0.5
vt 0.5 1
vt 0 1
vt 0.5 0
vt 1 0.5
vt 1 0
vt 0.5 0.5
vt 0 0
vt 1 1
vt 0 0.5
vt 0.5 1
vt 0 1
vt 0.5 0
vt 1 0.5
vt 1 0
vt 0.5 0.5
vt 0 0
vt 1 1
vt 0 0.5
vt 0.5 1
vt 0 1
vt 0.5 0
vt 1 0.5
vt 1 0
vt 0.5 0.5
vt 0 0
vt 1 1
vt 0 0.5
vt 0.5 1
vt 0 1
vt 0.5 0
vt 1 0.5
vt 1 0
vt 0.5 0.5
vt 0 0
vt 1 1
vt 0 0.5
vt 0.5 1
vt 0 1
vt 0.5 0
vt 1 0.5
vt 1 0
vt 0.5 0.5
vt 0 0
vt 1 1
vt 0 0.5
vt 0.5 1
vt 0 1
vt 0.5 0
vt 1 0.5
vt 1 0
vt 0.5 0.5
vt 0 0
vt 1 1
vt 0 0.5
vt 0.5 1
vt 0 1
vt 0.5 0
vt 1 0.5
vt 1 0
vt 0.5 0.5
vt 0 0
vt 1 1
vt 0 0.5
vt 0.5 1
vt 0 1
vt 0.5 0
vt 1 0.5
vt 1 0
vt 0.5 0.5
vt 0 0
vt 1 1
vt 0 0.5
vt 0.5 1
vt 0 1
vt 0.5 0
vt 1 0.5
vt 1 0
vt 0.5 0.5
vt 0 0
vt 1 1
vt 0 0.5
vt 0.5 1
vt 0 1
vt 0.5 0
vt 1 0.5
vt 1 0
vt 0.5 0.5
vt 0 0
vt 1 1
vt 0 0.5
vt 0.5 1
vt 0 1

vt2 0 0
vt2 0 0
vt2 0 0
vt2 0 0
vt2 0 0
vt2 0 0
vt2 0 0
vt2 0 0
vt2 0 0
vt2 0 0
vt2 0 0
vt2 0 0
vt2 0 0
vt2 0 0
vt2 0 0
vt2 0 0
vt2 0 0
vt2 0 0
vt2 0 0
vt2 0 0
vt2 0 0
vt2 0 0
vt2 0 0
vt2 0 0
vt2 0 0
vt2 0 0
vt2 0 0
vt2 0 0
vt2 0 0
vt2 0 0
vt2 0 0
vt2 0 0
vt2 0 0
vt2 0 0
vt2 0 0
vt2 0 0
vt2 0 0
vt2 0 0
vt2 0 0
vt2 0 0
vt2 0 0
vt2 0 0
vt2 0 0
vt2 0 0
vt2 0 0
vt2 0 0
vt2 0 0
vt2 0 0
vt2 0 0
vt2 0 0
vt2 0 0
vt2 0 0
vt2 0 0
vt2 0 0
vt2 0 0
vt2 0 0
vt2 0 0
vt2 0 0
vt2 0 0
vt2 0 0
vt2 0 0
vt2 0 0
vt2 0 0
vt2 0 0
vt2 0 0
vt2 0 0
vt2 0 0
vt2 0 0
vt2 0 0
vt2 0 0
vt2 0 0
vt2 0 0
vt2 0 0
vt2 0 0
vt2 0 0
vt2 0 0
vt2 0 0
vt2 0 0
vt2 0 0
vt2 0 0
vt2 0 0
vt2 0 0
vt2 0 0
vt2 0 0
vt2 0 0
vt2 0 0
vt2 0 0
vt2 0 0
vt2 0 0
vt2 0 0
vt2 0 0
vt2 0 0
vt2 0 0
vt2 0 0
vt2 0 0
vt2 0 0
vt2 0 0
vt2 0 0
vt2 0 0
vt2 0 0
vt2 0 0
vt2 0 0
vt2 0 0
vt2 0 0
vt2 0 0
vt2 0 0
vt2 0 0
vt2 0 0
vt2 0 0
vt2 0 0
vt2 0 0
vt2 0 0
vt2 0 0
vt2 0 0
vt2 0 0
vt2 0 0
vt2 0 0
vt2 0 0
vt2 0 0
vt2 0 0
vt2 0 0
vt2 0 0
vt2 0 0
vt2 0 0
vt2 0 0
vt2 0 0
vt2 0 0
vt2 0 0
vt2 0 0
vt2 0 0
vt2 0 0
vt2 0 0
vt2 0 0
vt2 0 0
vt2 0 0

vt2 0 0
vt2 0 0
vt2 0 0
vt2 0 0
vt2 0 0
vt2 0 0
vt2 0 0
vt2 0 0
vt2 0 0
vt2 0 0
vt2 0 0
vt2 0 0
vt2 0 0
vt2 0 0
vt2 0 0
vt2 0 0
vt2 0 0
vt2 0 0
vt2 0 0
vt2 0 0
vt2 0 0
vt2 0 0
vt2 0 0
vt2 0 0
vt2 0 0
vt2 0 0
vt2 0 0
vt2 0 0
vt2 0 0
vt2 0 0
vt2 0 0
vt2 0 0
vt2 0 0
vt2 0 0
vt2 0 0
vt2 0 0
vt2 0 0
vt2 0 0
vt2 0 0
vt2 0 0
vt2 0 0
vt2 0 0
vt2 0 0
vt2 0 0
vt2 0 0
vt2 0 0
vt2 0 0
vt2 0 0
vt2 0 0
vt2 0 0
vt2 0 0
vt2 0 0
vt2 0 0
vt2 0 0
vt2 0 0
vt2 0 0
vt2 0 0
vt2 0 0
vt2 0 0
vt2 0 0
vt2 0 0
vt2 0 0
vt2 0 0
vt2 0 0
vt2 0 0
vt2 0 0
vt2 0 0
vt2 0 0
vt2 0 0
vt2 0 0
vt2 0 0
vt2 0 0
vt2 0 0
vt2 0 0
vt2 0 0
vt2 0 0
vt2 0 0
vt2 0 0
vt2 0 0
vt2 0 0
vt2 0 0
vt2 0 0
vt2 0 0
vt2 0 0
vt2 0 0
vt2 0 0
vt2 0 0
vt2 0 0
vt2 0 0
vt2 0 0
vt2 0 0
vt2 0 0
vt2 0 0
vt2 0 0
vt2 0 0
vt2 0 0
vt2 0 0
vt2 0 0
vt2 0 0
vt2 0 0
vt2 0 0
vt2 0 0
vt2 0 0
vt2 0 0
vt2 0 0
vt2 0 0
vt2 0 0
vt2 0 0
vt2 0 0
vt2 0 0
vt2 0 0
vt2 0 0
vt2 0 0
vt2 0 0
vt2 0 0
vt2 0 0
vt2 0 0
vt2 0 0
vt2 0 0
vt2 0 0
vt2 0 0
vt2 0 0
vt2 0 0
vt2 0 0
vt2 0 0
vt2 0 0
vt2 0 0
vt2 0 0
vt2 0 0
vt2 0 0
vt2 0 0
vt2 0 0
vt2 0 0
vt2 0 0
vt2 0 0

vc 1 1 1 1
vc 1 1 1 1
vc 1 1 1 1
vc 1 1 1 1
vc 1 1 1 1
vc 1 1 1 1
vc 1 1 1 1
vc 1 1 1 1
vc 1 1 1 1
vc 1 1 1 1
vc 1 1 1 1
vc 1 1 1 1
vc 1 1 1 1
vc 1 1 1 1
vc 1 1 1 1
vc 1 1 1 1
vc 1 1 1 1
vc 1 1 1 1
vc 1 1 1 1
vc 1 1 1 1
vc 1 1 1 1
vc 1 1 1 1
vc 1 1 1 1
vc 1 1 1 1
vc 1 1 1 1
vc 1 1 1 1
vc 1 1 1 1
vc 1 1 1 1
vc 1 1 1 1
vc 1 1 1 1
vc 1 1 1 1
vc 1 1 1 1
vc 1 1 1 1
vc 1 1 1 1
vc 1 1 1 1
vc 1 1 1 1
vc 1 1 1 1
vc 1 1 1 1
vc 1 1 1 1
vc 1 1 1 1
vc 1 1 1 1
vc 1 1 1 1
vc 1 1 1 1
vc 1 1 1 1
vc 1 1 1 1
vc 1 1 1 1
vc 1 1 1 1
vc 1 1 1 1
vc 1 1 1 1
vc 1 1 1 1
vc 1 1 1 1
vc 1 1 1 1
vc 1 1 1 1
vc 1 1 1 1
vc 1 1 1 1
vc 1 1 1 1
vc 1 1 1 1
vc 1 1 1 1
vc 1 1 1 1
vc 1 1 1 1
vc 1 1 1 1
vc 1 1 1 1
vc 1 1 1 1
vc 1 1 1 1
vc 1 1 1 1
vc 1 1 1 1
vc 1 1 1 1
vc 1 1 1 1
vc 1 1 1 1
vc 1 1 1 1
vc 1 1 1 1
vc 1 1 1 1
vc 1 1 1 1
vc 1 1 1 1
vc 1 1 1 1
vc 1 1 1 1
vc 1 1 1 1
vc 1 1 1 1
vc 1 1 1 1
vc 1 1 1 1
vc 1 1 1 1
vc 1 1 1 1
vc 1 1 1 1
vc 1 1 1 1
vc 1 1 1 1
vc 1 1 1 1
vc 1 1 1 1
vc 1 1 1 1
vc 1 1 1 1
vc 1 1 1 1
vc 1 1 1 1
vc 1 1 1 1
vc 1 1 1 1
vc 1 1 1 1
vc 1 1 1 1
vc 1 1 1 1
vc 1 1 1 1
vc 1 1 1 1
vc 1 1 1 1
vc 1 1 1 1
vc 1 1 1 1
vc 1 1 1 1
vc 1 1 1 1
vc 1 1 1 1
vc 1 1 1 1
vc 1 1 1 1
vc 1 1 1 1
vc 1 1 1 1
vc 1 1 1 1
vc 1 1 1 1
vc 1 1 1 1
vc 1 1 1 1
vc 1 1 1 1
vc 1 1 1 1
vc 1 1 1 1
vc 1 1 1 1
vc 1 1 1 1
vc 1 1 1 1
vc 1 1 1 1
vc 1 1 1 1
vc 1 1 1 1
vc 1 1 1 1
vc 1 1 1 1
vc 1 1 1 1
vc 1 1 1 1
vc 1 1 1 1
vc 1 1 1 1
vc 1 1 1 1
vc 1 1 1 1
vc 1 1 1 1
vc 1 1 1 1
vc 1 1 1 1
vc 1 1 1 1
vc 1 1 1 1
vc 1 1 1 1

usemtl Default-Diffuse
usemap Default-Diffuse
f 3/3/3 2/2/2 1/1/1
f 2/2/2 4/4/4 1/1/1
f 1/1/1 4/4/4 5/5/5
f 2/2/2 6/6/6 4/4/4
f 4/4/4 7/7/7 5/5/5
f 6/6/6 8/8/8 4/4/4
f 4/4/4 8/8/8 7/7/7
f 8/8/8 9/9/9 7/7/7
f 12/12/12 11/11/11 10/10/10
f 11/11/11 13/13/13 10/10/10
f 10/10/10 13/13/13 14/14/14
f 11/11/11 15/15/15 13/13/13
f 13/13/13 16/16/16 14/14/14
f 15/15/15 17/17/17 13/13/13
f 13/13/13 17/17/17 16/16/16
f 17/17/17 18/18/18 16/16/16
f 21/21/21 20/20/20 19/19/19
f 20/20/20 22/22/22 19/19/19
f 19/19/19 22/22/22 23/23/23
f 20/20/20 24/24/24 22/22/22
f 22/22/22 25/25/25 23/23/23
f 24/24/24 26/26/26 22/22/22
f 22/22/22 26/26/26 25/25/25
f 26/26/26 27/27/27 25/25/25
f 30/30/30 29/29/29 28/28/28
f 29/29/29 31/31/31 28/28/28
f 28/28/28 31/31/31 32/32/32
f 29/29/29 33/33/33 31/31/31
f 31/31/31 34/34/34 32/32/32
f 33/33/33 35/35/35 31/31/31
f 31/31/31 35/35/35 34/34/34
f 35/35/35 36/36/36 34/34/34
f 39/39/39 38/38/38 37/37/37
f 38/38/38 40/40/40 37/37/37
f 37/37/37 40/40/40 41/41/41
f 38/38/38 42/42/42 40/40/40
f 40/40/40 43/43/43 41/41/41
f 42/42/42 44/44/44 40/40/40
f 40/40/40 44/44/44 43/43/43
f 44/44/44 45/45/45 43/43/43
f 48/48/48 47/47/47 46/46/46
f 47/47/47 49/49/49 46/46/46
f 46/46/46 49/49/49 50/50/50
f 47/47/47 51/51/51 49/49/49
f 49/49/49 52/52/52 50/50/50
f 51/51/51 53/53/53 49/49/49
f 49/49/49 53/53/53 52/52/52
f 53/53/53 54/54/54 52/52/52
f 57/57/57 56/56/56 55/55/55
f 56/56/56 58/58/58 55/55/55
f 55/55/55 58/58/58 59/59/59
f 56/56/56 60/60/60 58/58/58
f 58/58/58 61/61/61 59/59/59
f 60/60/60 62/62/62 58/58/58
f 58/58/58 62/62/62 61/61/61
f 62/62/62 63/63/63 61/61/61
f 66/66/66 65/65/65 64/64/64
f 65/65/65 67/67/67 64/64/64
f 64/64/64 67/67/67 68/68/68
f 65/65/65 69/69/69 67/67/67
f 67/67/67 70/70/70 68/68/68
f 69/69/69 71/71/71 67/67/67
f 67/67/67 71/71/71 70/70/70
f 71/71/71 72/72/72 70/70/70
f 75/75/75 74/74/74 73/73/73
f 74/74/74 76/76/76 73/73/73
f 73/73/73 76/76/76 77/77/77
f 74/74/74 78/78/78 76/76/76
f 76/76/76 79/79/79 77/77/77
f 78/78/78 80/80/80 76/76/76
f 76/76/76 80/80/80 79/79/79
f 80/80/80 81/81/81 79/79/79
f 84/84/84 83/83/83 82/82/82
f 83/83/83 85/85/85 82/82/82
f 82/82/82 85/85/85 86/86/86
f 83/83/83 87/87/87 85/85/85
f 85/85/85 88/88/88 86/86/86
f 87/87/87 89/89/89 85/85/85
f 85/85/85 89/89/89 88/88/88
f 89/89/89 90/90/90 88/88/88
f 93/93/93 92/92/92 91/91/91
f 92/92/92 94/94/94 91/91/91
f 91/91/91 94/94/94 95/95/95
f 92/92/92 96/96/96 94/94/94
f 94/94/94 97/97/97 95/95/95
f 96/96/96 98/98/98 94/94/94
f 94/94/94 98/98/98 97/97/97
f 98/98/98 99/99/99 97/97/97
f 102/102/102 101/101/101 100/100/100
f 101/101/101 103/103/103 100/100/100
f 100/100/100 103/103/103 104/104/104
f 101/101/101 105/105/105 103/103/103
f 103/103/103 106/106/106 104/104/104
f 105/105/105 107/107/107 103/103/103
f 103/103/103 107/107/107 106/106/106
f 107/107/107 108/108/108 106/106/106
f 111/111/111 110/110/110 109/109/109
f 110/110/110 112/112/112 109/109/109
f 109/109/109 112/112/112 113/113/113
f 110/110/110 114/114/114 112/112/112
f 112/112/112 115/115/115 113/113/113
f 114/114/114 116/116/116 112/112/112
f 112/112/112 116/116/116 115/115/115
f 116/116/116 117/117/117 115/115/115
f 120/120/120 119/119/119 118/118/118
f 119/119/119 121/121/121 118/118/118
f 118/118/118 121/121/121 122/122/122
f 119/119/119 123/123/123 121/121/121
f 121/121/121 124/124/124 122/122/122
f 123/123/123 125/125/125 121/121/121
f 121/121/121 125/125/125 124/124/124
f 125/125/125 126/126/126 124/124/124
f 129/129/129 128/128/128 127/127/127
f 128/128/128 130/130/130 127/127/127
f 127/127/127 130/130/130 131/131/131
f 128/128/128 132/132/132 130/130/130
f 130/130/130 133/133/133 131/131/131
f 132/132/132 134/134/134 130/130/130
f 130/130/130 134/134/134 133/133/133
f 134/134/134 135/135/135 133/133/133
