g Custom Mesh - Baked
v 706.4588 43.41599 -700.2375
v 719.033 42.8785 -701.1205
v 718.5337 43.09698 -698.1704
v 706.9581 43.19941 -703.1877
v 694.3839 43.735 -702.3047
v 719.5322 42.66002 -704.0706
v 694.8832 43.52031 -705.255
v 707.4575 42.98282 -706.1379
v 695.3826 43.30562 -708.2053
v 682.309 44.05401 -704.3718
v 694.8832 43.52031 -705.255
v 694.3839 43.735 -702.3047
v 682.8084 43.84122 -707.3223
v 670.2339 44.37302 -706.439
v 695.3826 43.30562 -708.2053
v 670.7335 44.16213 -709.3895
v 683.3079 43.62843 -710.2727
v 671.2331 43.95123 -712.3401
v 658.1591 44.69203 -708.5061
v 670.7335 44.16213 -709.3895
v 670.2339 44.37302 -706.439
v 658.6587 44.48303 -711.4568
v 646.0842 45.01105 -710.5732
v 671.2331 43.95123 -712.3401
v 646.5839 44.80394 -713.524
v 659.1583 44.27403 -714.4075
v 647.0836 44.59683 -716.4749
v 634.0092 45.33006 -712.6404
v 646.5839 44.80394 -713.524
v 646.0842 45.01105 -710.5732
v 634.509 45.12485 -715.5913
v 621.9343 45.64908 -714.7075
v 647.0836 44.59683 -716.4749
v 622.4341 45.44576 -717.6586
v 635.0087 44.91963 -718.5422
v 622.934 45.24243 -720.6096
v 609.8594 45.9681 -716.7746
v 622.4341 45.44576 -717.6586
v 621.9343 45.64908 -714.7075
v 610.3593 45.76666 -719.7258
v 597.7844 46.28712 -718.8418
v 622.934 45.24243 -720.6096
v 598.2844 46.08757 -721.7931
v 610.8591 45.56523 -722.6769
v 598.7844 45.88802 -724.7444
v 585.7095 46.60614 -720.9089
v 598.2844 46.08757 -721.7931
v 597.7844 46.28712 -718.8418
v 586.2096 46.40848 -723.8604
v 573.6346 46.92516 -722.976
v 598.7844 45.88802 -724.7444
v 574.1347 46.72939 -725.9276
v 586.7097 46.21082 -726.8118
v 574.6348 46.53362 -728.8791
v 561.5597 47.24418 -725.0431
v 574.1347 46.72939 -725.9276
v 573.6346 46.92516 -722.976
v 562.0599 47.0503 -727.9948
v 549.4847 47.56319 -727.1102
v 574.6348 46.53362 -728.8791
v 549.985 47.3712 -730.062
v 562.5601 46.85641 -730.9464
v 550.4852 47.17921 -733.0138
v 537.4099 47.88221 -729.1774
v 549.985 47.3712 -730.062
v 549.4847 47.56319 -727.1102
v 537.9102 47.69211 -732.1293
v 525.335 48.20123 -731.2446
v 550.4852 47.17921 -733.0138
v 525.8353 48.01302 -734.1965
v 538.4105 47.50201 -735.0811
v 526.3357 47.8248 -737.1485
v 513.26 48.52025 -733.3117
v 525.8353 48.01302 -734.1965
v 525.335 48.20123 -731.2446
v 513.7604 48.33392 -736.2638
v 501.1851 48.83927 -735.3788
v 526.3357 47.8248 -737.1485
v 501.6856 48.65483 -738.3311
v 514.2609 48.14759 -739.2159
v 502.1861 48.47039 -741.2833
v 489.1102 49.15829 -737.446
v 501.6856 48.65483 -738.3311
v 501.1851 48.83927 -735.3788
v 489.6107 48.97574 -740.3983
v 477.0352 49.47731 -739.5132
v 502.1861 48.47039 -741.2833
v 477.5359 49.29665 -742.4656
v 490.1113 48.79319 -743.3506
v 478.0366 49.11599 -745.418

vn 0.05057396 1.329396 -0.0890363
vn 0.05071461 1.329334 -0.08986688
vn 0.05071461 1.329334 -0.08986688
vn 0.05057396 1.329396 -0.0890363
vn 0.05043346 1.329456 -0.08820607
vn 0.05071461 1.329334 -0.08986688
vn 0.05043346 1.329456 -0.08820607
vn 0.05057396 1.329396 -0.0890363
vn 0.05043346 1.329456 -0.08820607
vn 0.05029243 1.329517 -0.08737265
vn 0.05043346 1.329456 -0.08820607
vn 0.05043346 1.329456 -0.08820607
vn 0.05029243 1.329517 -0.08737265
vn 0.05015176 1.329576 -0.08654208
vn 0.05043346 1.329456 -0.08820607
vn 0.05015176 1.329576 -0.08654208
vn 0.05029243 1.329517 -0.08737265
vn 0.05015176 1.329576 -0.08654208
vn 0.05001114 1.329635 -0.08571119
vn 0.05015176 1.329576 -0.08654208
vn 0.05015176 1.329576 -0.08654208
vn 0.05001114 1.329635 -0.08571119
vn 0.04987052 1.329694 -0.08488097
vn 0.05015176 1.329576 -0.08654208
vn 0.04987052 1.329694 -0.08488097
vn 0.05001114 1.329635 -0.08571119
vn 0.04987052 1.329694 -0.08488097
vn 0.04973017 1.329752 -0.08405212
vn 0.04987052 1.329694 -0.08488097
vn 0.04987052 1.329694 -0.08488097
vn 0.04973017 1.329752 -0.08405212
vn 0.04958975 1.329809 -0.08322331
vn 0.04987052 1.329694 -0.08488097
vn 0.04958975 1.329809 -0.08322331
vn 0.04973017 1.329752 -0.08405212
vn 0.04958975 1.329809 -0.08322331
vn 0.04944942 1.329866 -0.08239429
vn 0.04958975 1.329809 -0.08322331
vn 0.04958975 1.329809 -0.08322331
vn 0.04944942 1.329866 -0.08239429
vn 0.04930925 1.329922 -0.08156655
vn 0.04958975 1.329809 -0.08322331
vn 0.04930925 1.329922 -0.08156655
vn 0.04944942 1.329866 -0.08239429
vn 0.04930925 1.329922 -0.08156655
vn 0.04916903 1.329978 -0.08073912
vn 0.04930925 1.329922 -0.08156655
vn 0.04930925 1.329922 -0.08156655
vn 0.04916903 1.329978 -0.08073912
vn 0.04902848 1.330033 -0.07990986
vn 0.04930925 1.329922 -0.08156655
vn 0.04902848 1.330033 -0.07990986
vn 0.04916903 1.329978 -0.08073912
vn 0.04902848 1.330033 -0.07990986
vn 0.04888843 1.330088 -0.07908276
vn 0.04902848 1.330033 -0.07990986
vn 0.04902848 1.330033 -0.07990986
vn 0.04888843 1.330088 -0.07908276
vn 0.04874787 1.330142 -0.0782538
vn 0.04902848 1.330033 -0.07990986
vn 0.04874787 1.330142 -0.0782538
vn 0.04888843 1.330088 -0.07908276
vn 0.04874787 1.330142 -0.0782538
vn 0.04860767 1.330196 -0.0774264
vn 0.04874787 1.330142 -0.0782538
vn 0.04874787 1.330142 -0.0782538
vn 0.04860767 1.330196 -0.0774264
vn 0.04846735 1.330248 -0.07659864
vn 0.04874787 1.330142 -0.0782538
vn 0.04846735 1.330248 -0.07659864
vn 0.04860767 1.330196 -0.0774264
vn 0.04846735 1.330248 -0.07659864
vn 0.04832717 1.330301 -0.07577223
vn 0.04846735 1.330248 -0.07659864
vn 0.04846735 1.330248 -0.07659864
vn 0.04832717 1.330301 -0.07577223
vn 0.04818689 1.330353 -0.07494387
vn 0.04846735 1.330248 -0.07659864
vn 0.04818689 1.330353 -0.07494387
vn 0.04832717 1.330301 -0.07577223
vn 0.04818689 1.330353 -0.07494387
vn 0.0480467 1.330404 -0.0741174
vn 0.04818689 1.330353 -0.07494387
vn 0.04818689 1.330353 -0.07494387
vn 0.0480467 1.330404 -0.0741174
vn 0.04790608 1.330455 -0.07328846
vn 0.04818689 1.330353 -0.07494387
vn 0.04790608 1.330455 -0.07328846
vn 0.0480467 1.330404 -0.0741174
vn 0.04790608 1.330455 -0.07328846

vt 0.5 0
vt 1 0.5
vt 1 0
vt 0.5 0.5
vt 0 0
vt 1 1
vt 0 0.5
vt 0.5 1
vt 0 1
vt 0.5 0
vt 1 0.5
vt 1 0
vt 0.5 0.5
vt 0 0
vt 1 1
vt 0 0.5
vt 0.5 1
vt 0 1
vt 0.5 0
vt 1 0.5
vt 1 0
vt 0.5 0.5
vt 0 0
vt 1 1
vt 0 0.5
vt 0.5 1
vt 0 1
vt 0.5 0
vt 1 0.5
vt 1 0
vt 0.5 0.5
vt 0 0
vt 1 1
vt 0 0.5
vt 0.5 1
vt 0 1
vt 0.5 0
vt 1 0.5
vt 1 0
vt 0.5 0.5
vt 0 0
vt 1 1
vt 0 0.5
vt 0.5 1
vt 0 1
vt 0.5 0
vt 1 0.5
vt 1 0
vt 0.5 0.5
vt 0 0
vt 1 1
vt 0 0.5
vt 0.5 1
vt 0 1
vt 0.5 0
vt 1 0.5
vt 1 0
vt 0.5 0.5
vt 0 0
vt 1 1
vt 0 0.5
vt 0.5 1
vt 0 1
vt 0.5 0
vt 1 0.5
vt 1 0
vt 0.5 0.5
vt 0 0
vt 1 1
vt 0 0.5
vt 0.5 1
vt 0 1
vt 0.5 0
vt 1 0.5
vt 1 0
vt 0.5 0.5
vt 0 0
vt 1 1
vt 0 0.5
vt 0.5 1
vt 0 1
vt 0.5 0
vt 1 0.5
vt 1 0
vt 0.5 0.5
vt 0 0
vt 1 1
vt 0 0.5
vt 0.5 1
vt 0 1

vt2 0 0
vt2 0 0
vt2 0 0
vt2 0 0
vt2 0 0
vt2 0 0
vt2 0 0
vt2 0 0
vt2 0 0
vt2 0 0
vt2 0 0
vt2 0 0
vt2 0 0
vt2 0 0
vt2 0 0
vt2 0 0
vt2 0 0
vt2 0 0
vt2 0 0
vt2 0 0
vt2 0 0
vt2 0 0
vt2 0 0
vt2 0 0
vt2 0 0
vt2 0 0
vt2 0 0
vt2 0 0
vt2 0 0
vt2 0 0
vt2 0 0
vt2 0 0
vt2 0 0
vt2 0 0
vt2 0 0
vt2 0 0
vt2 0 0
vt2 0 0
vt2 0 0
vt2 0 0
vt2 0 0
vt2 0 0
vt2 0 0
vt2 0 0
vt2 0 0
vt2 0 0
vt2 0 0
vt2 0 0
vt2 0 0
vt2 0 0
vt2 0 0
vt2 0 0
vt2 0 0
vt2 0 0
vt2 0 0
vt2 0 0
vt2 0 0
vt2 0 0
vt2 0 0
vt2 0 0
vt2 0 0
vt2 0 0
vt2 0 0
vt2 0 0
vt2 0 0
vt2 0 0
vt2 0 0
vt2 0 0
vt2 0 0
vt2 0 0
vt2 0 0
vt2 0 0
vt2 0 0
vt2 0 0
vt2 0 0
vt2 0 0
vt2 0 0
vt2 0 0
vt2 0 0
vt2 0 0
vt2 0 0
vt2 0 0
vt2 0 0
vt2 0 0
vt2 0 0
vt2 0 0
vt2 0 0
vt2 0 0
vt2 0 0
vt2 0 0

vt2 0 0
vt2 0 0
vt2 0 0
vt2 0 0
vt2 0 0
vt2 0 0
vt2 0 0
vt2 0 0
vt2 0 0
vt2 0 0
vt2 0 0
vt2 0 0
vt2 0 0
vt2 0 0
vt2 0 0
vt2 0 0
vt2 0 0
vt2 0 0
vt2 0 0
vt2 0 0
vt2 0 0
vt2 0 0
vt2 0 0
vt2 0 0
vt2 0 0
vt2 0 0
vt2 0 0
vt2 0 0
vt2 0 0
vt2 0 0
vt2 0 0
vt2 0 0
vt2 0 0
vt2 0 0
vt2 0 0
vt2 0 0
vt2 0 0
vt2 0 0
vt2 0 0
vt2 0 0
vt2 0 0
vt2 0 0
vt2 0 0
vt2 0 0
vt2 0 0
vt2 0 0
vt2 0 0
vt2 0 0
vt2 0 0
vt2 0 0
vt2 0 0
vt2 0 0
vt2 0 0
vt2 0 0
vt2 0 0
vt2 0 0
vt2 0 0
vt2 0 0
vt2 0 0
vt2 0 0
vt2 0 0
vt2 0 0
vt2 0 0
vt2 0 0
vt2 0 0
vt2 0 0
vt2 0 0
vt2 0 0
vt2 0 0
vt2 0 0
vt2 0 0
vt2 0 0
vt2 0 0
vt2 0 0
vt2 0 0
vt2 0 0
vt2 0 0
vt2 0 0
vt2 0 0
vt2 0 0
vt2 0 0
vt2 0 0
vt2 0 0
vt2 0 0
vt2 0 0
vt2 0 0
vt2 0 0
vt2 0 0
vt2 0 0
vt2 0 0

vc 1 1 1 1
vc 1 1 1 1
vc 1 1 1 1
vc 1 1 1 1
vc 1 1 1 1
vc 1 1 1 1
vc 1 1 1 1
vc 1 1 1 1
vc 1 1 1 1
vc 1 1 1 1
vc 1 1 1 1
vc 1 1 1 1
vc 1 1 1 1
vc 1 1 1 1
vc 1 1 1 1
vc 1 1 1 1
vc 1 1 1 1
vc 1 1 1 1
vc 1 1 1 1
vc 1 1 1 1
vc 1 1 1 1
vc 1 1 1 1
vc 1 1 1 1
vc 1 1 1 1
vc 1 1 1 1
vc 1 1 1 1
vc 1 1 1 1
vc 1 1 1 1
vc 1 1 1 1
vc 1 1 1 1
vc 1 1 1 1
vc 1 1 1 1
vc 1 1 1 1
vc 1 1 1 1
vc 1 1 1 1
vc 1 1 1 1
vc 1 1 1 1
vc 1 1 1 1
vc 1 1 1 1
vc 1 1 1 1
vc 1 1 1 1
vc 1 1 1 1
vc 1 1 1 1
vc 1 1 1 1
vc 1 1 1 1
vc 1 1 1 1
vc 1 1 1 1
vc 1 1 1 1
vc 1 1 1 1
vc 1 1 1 1
vc 1 1 1 1
vc 1 1 1 1
vc 1 1 1 1
vc 1 1 1 1
vc 1 1 1 1
vc 1 1 1 1
vc 1 1 1 1
vc 1 1 1 1
vc 1 1 1 1
vc 1 1 1 1
vc 1 1 1 1
vc 1 1 1 1
vc 1 1 1 1
vc 1 1 1 1
vc 1 1 1 1
vc 1 1 1 1
vc 1 1 1 1
vc 1 1 1 1
vc 1 1 1 1
vc 1 1 1 1
vc 1 1 1 1
vc 1 1 1 1
vc 1 1 1 1
vc 1 1 1 1
vc 1 1 1 1
vc 1 1 1 1
vc 1 1 1 1
vc 1 1 1 1
vc 1 1 1 1
vc 1 1 1 1
vc 1 1 1 1
vc 1 1 1 1
vc 1 1 1 1
vc 1 1 1 1
vc 1 1 1 1
vc 1 1 1 1
vc 1 1 1 1
vc 1 1 1 1
vc 1 1 1 1
vc 1 1 1 1

usemtl Default-Diffuse
usemap Default-Diffuse
f 3/3/3 2/2/2 1/1/1
f 2/2/2 4/4/4 1/1/1
f 1/1/1 4/4/4 5/5/5
f 2/2/2 6/6/6 4/4/4
f 4/4/4 7/7/7 5/5/5
f 6/6/6 8/8/8 4/4/4
f 4/4/4 8/8/8 7/7/7
f 8/8/8 9/9/9 7/7/7
f 12/12/12 11/11/11 10/10/10
f 11/11/11 13/13/13 10/10/10
f 10/10/10 13/13/13 14/14/14
f 11/11/11 15/15/15 13/13/13
f 13/13/13 16/16/16 14/14/14
f 15/15/15 17/17/17 13/13/13
f 13/13/13 17/17/17 16/16/16
f 17/17/17 18/18/18 16/16/16
f 21/21/21 20/20/20 19/19/19
f 20/20/20 22/22/22 19/19/19
f 19/19/19 22/22/22 23/23/23
f 20/20/20 24/24/24 22/22/22
f 22/22/22 25/25/25 23/23/23
f 24/24/24 26/26/26 22/22/22
f 22/22/22 26/26/26 25/25/25
f 26/26/26 27/27/27 25/25/25
f 30/30/30 29/29/29 28/28/28
f 29/29/29 31/31/31 28/28/28
f 28/28/28 31/31/31 32/32/32
f 29/29/29 33/33/33 31/31/31
f 31/31/31 34/34/34 32/32/32
f 33/33/33 35/35/35 31/31/31
f 31/31/31 35/35/35 34/34/34
f 35/35/35 36/36/36 34/34/34
f 39/39/39 38/38/38 37/37/37
f 38/38/38 40/40/40 37/37/37
f 37/37/37 40/40/40 41/41/41
f 38/38/38 42/42/42 40/40/40
f 40/40/40 43/43/43 41/41/41
f 42/42/42 44/44/44 40/40/40
f 40/40/40 44/44/44 43/43/43
f 44/44/44 45/45/45 43/43/43
f 48/48/48 47/47/47 46/46/46
f 47/47/47 49/49/49 46/46/46
f 46/46/46 49/49/49 50/50/50
f 47/47/47 51/51/51 49/49/49
f 49/49/49 52/52/52 50/50/50
f 51/51/51 53/53/53 49/49/49
f 49/49/49 53/53/53 52/52/52
f 53/53/53 54/54/54 52/52/52
f 57/57/57 56/56/56 55/55/55
f 56/56/56 58/58/58 55/55/55
f 55/55/55 58/58/58 59/59/59
f 56/56/56 60/60/60 58/58/58
f 58/58/58 61/61/61 59/59/59
f 60/60/60 62/62/62 58/58/58
f 58/58/58 62/62/62 61/61/61
f 62/62/62 63/63/63 61/61/61
f 66/66/66 65/65/65 64/64/64
f 65/65/65 67/67/67 64/64/64
f 64/64/64 67/67/67 68/68/68
f 65/65/65 69/69/69 67/67/67
f 67/67/67 70/70/70 68/68/68
f 69/69/69 71/71/71 67/67/67
f 67/67/67 71/71/71 70/70/70
f 71/71/71 72/72/72 70/70/70
f 75/75/75 74/74/74 73/73/73
f 74/74/74 76/76/76 73/73/73
f 73/73/73 76/76/76 77/77/77
f 74/74/74 78/78/78 76/76/76
f 76/76/76 79/79/79 77/77/77
f 78/78/78 80/80/80 76/76/76
f 76/76/76 80/80/80 79/79/79
f 80/80/80 81/81/81 79/79/79
f 84/84/84 83/83/83 82/82/82
f 83/83/83 85/85/85 82/82/82
f 82/82/82 85/85/85 86/86/86
f 83/83/83 87/87/87 85/85/85
f 85/85/85 88/88/88 86/86/86
f 87/87/87 89/89/89 85/85/85
f 85/85/85 89/89/89 88/88/88
f 89/89/89 90/90/90 88/88/88
