g Custom Mesh - Baked
v 258.4936 52.18845 -917.6998
v 259.4226 52.13246 -911.1265
v 255.899 52.18504 -913.0189
v 261.9756 52.13083 -915.7321
v 261.0058 52.2077 -922.156
v 262.9462 52.07989 -909.234
v 264.5023 52.14405 -920.2144
v 265.4576 52.0732 -913.7643
v 267.9989 52.08041 -918.2727
v 263.5553 52.1792 -926.9216
v 264.5023 52.14405 -920.2144
v 261.0058 52.2077 -922.156
v 267.1146 52.10899 -925.0976
v 266.3235 52.0343 -932.5896
v 267.9989 52.08041 -918.2727
v 269.9293 51.96659 -930.8593
v 270.6738 52.03879 -923.2736
v 273.535 51.89887 -929.129
v 269.4066 51.77836 -938.9403
v 269.9293 51.96659 -930.8593
v 266.3235 52.0343 -932.5896
v 273.0092 51.73981 -937.2025
v 272.5659 51.44515 -945.8276
v 273.535 51.89887 -929.129
v 276.2371 51.42945 -944.2396
v 276.6118 51.70126 -935.4646
v 279.9083 51.41376 -942.6516
v 275.6608 51.02193 -953.6699
v 276.2371 51.42945 -944.2396
v 272.5659 51.44515 -945.8276
v 279.4297 51.01867 -952.33
v 278.5731 50.4724 -963.1345
v 279.9083 51.41376 -942.6516
v 282.4397 50.46021 -962.1101
v 283.1987 51.0154 -950.9902
v 286.3062 50.44802 -961.0858
v 281.4142 49.71321 -975.0507
v 282.4397 50.46021 -962.1101
v 278.5731 50.4724 -963.1345
v 285.3178 49.69149 -974.1779
v 284.2281 48.8798 -987.8303
v 286.3062 50.44802 -961.0858
v 288.1315 48.85812 -986.957
v 289.2213 49.66978 -973.3052
v 292.035 48.83643 -986.0838
v 287.0697 48.15285 -999.5577
v 288.1315 48.85812 -986.957
v 284.2281 48.8798 -987.8303
v 290.9292 48.14234 -998.5069
v 290.0974 47.6494 -1008.802
v 292.035 48.83643 -986.0838
v 293.8084 47.65176 -1007.309
v 294.7887 48.13183 -997.4561
v 297.5194 47.65413 -1005.816
v 293.1666 47.32402 -1015.647
v 293.8084 47.65176 -1007.309
v 290.0974 47.6494 -1008.802
v 296.7794 47.31591 -1013.93
v 295.8764 47.09949 -1021.82
v 297.5194 47.65413 -1005.816
v 299.6131 47.05785 -1020.394
v 300.3922 47.30781 -1012.213
v 303.3497 47.0162 -1018.967
v 298.1794 46.88037 -1029.521
v 299.6131 47.05785 -1020.394
v 295.8764 47.09949 -1021.82
v 302.0838 46.80696 -1028.655
v 299.8449 46.71172 -1038.998
v 303.3497 47.0162 -1018.967
v 303.8048 46.61238 -1038.442
v 305.9882 46.73354 -1027.789
v 307.7648 46.51304 -1037.886
v 301.0881 46.5954 -1049.556
v 303.8048 46.61238 -1038.442
v 299.8449 46.71172 -1038.998
v 305.0641 46.47333 -1049.136
v 302.5357 46.39672 -1063.022
v 307.7648 46.51304 -1037.886
v 306.5072 46.25493 -1062.567
v 309.0401 46.35125 -1048.715
v 310.4787 46.11313 -1062.112
v 304.882 45.97383 -1081.389
v 306.5072 46.25493 -1062.567
v 302.5357 46.39672 -1063.022
v 308.8404 45.81564 -1080.835
v 308.645 45.25259 -1107.404
v 310.4787 46.11313 -1062.112
v 312.5983 45.08286 -1106.818
v 312.7988 45.65746 -1080.282
v 316.5515 44.91312 -1106.232
v 312.9394 44.378 -1137.141
v 312.5983 45.08286 -1106.818
v 308.645 45.25259 -1107.404
v 316.8959 44.19574 -1136.581
v 316.3907 43.56126 -1163.602
v 316.5515 44.91313 -1106.232
v 320.3597 43.36587 -1163.145
v 320.8524 44.01348 -1136.022
v 324.3287 43.17049 -1162.688
v 317.8813 42.95061 -1180.759
v 320.3597 43.36587 -1163.145
v 316.3907 43.56126 -1163.602
v 321.8705 42.75249 -1180.543
v 317.9501 42.4529 -1189.992
v 324.3287 43.17049 -1162.688
v 321.9345 42.2605 -1190.288
v 325.8598 42.55437 -1180.328
v 325.9189 42.0681 -1190.583
v 317.1071 42.06721 -1194.641
v 321.9345 42.2605 -1190.288
v 317.9501 42.4529 -1189.992
v 320.8754 41.8801 -1195.97
v 315.1631 41.83358 -1198.776
v 325.9189 42.0681 -1190.583
v 318.7291 41.651 -1200.579
v 324.6436 41.69299 -1197.298
v 322.2951 41.46841 -1202.382
v 312.4821 41.78242 -1202.871
v 318.7291 41.651 -1200.579
v 315.1631 41.83358 -1198.776
v 315.3854 41.61286 -1205.617
v 308.4634 41.92146 -1206.085
v 322.2951 41.46841 -1202.382
v 310.6347 41.77317 -1209.441
v 318.2887 41.4433 -1208.363
v 312.806 41.62488 -1212.797
v 303.2361 42.16423 -1209.197
v 310.6347 41.77317 -1209.441
v 308.4634 41.92146 -1206.085
v 305.2559 42.02089 -1212.647
v 297.6018 42.39921 -1212.899
v 312.806 41.62488 -1212.797
v 300.0703 42.24171 -1216.042
v 307.2756 41.87754 -1216.096
v 302.5387 42.08421 -1219.186

vn 0.01105793 0.9998917 0.009714024
vn 0.01427267 0.9998974 0.001203856
vn 0.01427267 0.9998974 0.001203856
vn 0.01105793 0.9998917 0.009714024
vn 0.01391536 0.9998734 0.007713583
vn 0.01427267 0.9998974 0.001203856
vn 0.01391536 0.9998734 0.007713583
vn 0.01105793 0.9998917 0.009714024
vn 0.01391536 0.9998734 0.007713583
vn 0.02178517 0.9997544 -0.004032499
vn 0.01391536 0.9998734 0.007713583
vn 0.01391536 0.9998734 0.007713583
vn 0.02178517 0.9997544 -0.004032499
vn 0.02765172 0.9994462 -0.01851065
vn 0.01391536 0.9998734 0.007713583
vn 0.02765172 0.9994462 -0.01851065
vn 0.02178517 0.9997544 -0.004032499
vn 0.02765172 0.9994462 -0.01851065
vn 0.02430644 0.9993061 -0.02822289
vn 0.02765172 0.9994462 -0.01851065
vn 0.02765172 0.9994462 -0.01851065
vn 0.02430644 0.9993061 -0.02822289
vn 0.02089926 0.9990423 -0.03844251
vn 0.02765172 0.9994462 -0.01851065
vn 0.02089926 0.9990423 -0.03844251
vn 0.02430644 0.9993061 -0.02822289
vn 0.02089926 0.9990423 -0.03844251
vn 0.01766733 0.9987261 -0.04726582
vn 0.02089926 0.9990423 -0.03844251
vn 0.02089926 0.9990423 -0.03844251
vn 0.01766733 0.9987261 -0.04726582
vn 0.01803005 0.9982578 -0.05618064
vn 0.02089926 0.9990423 -0.03844251
vn 0.01803005 0.9982578 -0.05618064
vn 0.01766733 0.9987261 -0.04726582
vn 0.01803005 0.9982578 -0.05618064
vn 0.01913344 0.9979699 -0.0607461
vn 0.01803005 0.9982578 -0.05618064
vn 0.01803005 0.9982578 -0.05618064
vn 0.01913344 0.9979699 -0.0607461
vn 0.01900247 0.998008 -0.0601588
vn 0.01803005 0.9982578 -0.05618064
vn 0.01900247 0.998008 -0.0601588
vn 0.01913344 0.9979699 -0.0607461
vn 0.01900247 0.998008 -0.0601588
vn 0.01722724 0.9984307 -0.05328479
vn 0.01900247 0.998008 -0.0601588
vn 0.01900247 0.998008 -0.0601588
vn 0.01722724 0.9984307 -0.05328479
vn 0.01810569 0.9987501 -0.0465895
vn 0.01900247 0.998008 -0.0601588
vn 0.01810569 0.9987501 -0.0465895
vn 0.01722724 0.9984307 -0.05328479
vn 0.01810569 0.9987501 -0.0465895
vn 0.01965484 0.9991351 -0.03664372
vn 0.01810569 0.9987501 -0.0465895
vn 0.01810569 0.9987501 -0.0465895
vn 0.01965484 0.9991351 -0.03664372
vn 0.02123784 0.9994246 -0.02644811
vn 0.01810569 0.9987501 -0.0465895
vn 0.02123784 0.9994246 -0.02644811
vn 0.01965484 0.9991351 -0.03664372
vn 0.02123784 0.9994246 -0.02644811
vn 0.02369365 0.9994752 -0.0220817
vn 0.02123784 0.9994246 -0.02644811
vn 0.02123784 0.9994246 -0.02644811
vn 0.02369365 0.9994752 -0.0220817
vn 0.02661763 0.9995853 -0.01097696
vn 0.02123784 0.9994246 -0.02644811
vn 0.02661763 0.9995853 -0.01097696
vn 0.02369365 0.9994752 -0.0220817
vn 0.02661763 0.9995853 -0.01097696
vn 0.03172792 0.9994479 -0.009853533
vn 0.02661763 0.9995853 -0.01097696
vn 0.02661763 0.9995853 -0.01097696
vn 0.03172792 0.9994479 -0.009853533
vn 0.03743598 0.9991808 -0.01537279
vn 0.02661763 0.9995853 -0.01097696
vn 0.03743598 0.9991808 -0.01537279
vn 0.03172792 0.9994479 -0.009853533
vn 0.03743598 0.9991808 -0.01537279
vn 0.04285038 0.9988611 -0.02098061
vn 0.03743598 0.9991808 -0.01537279
vn 0.03743598 0.9991808 -0.01537279
vn 0.04285038 0.9988611 -0.02098061
vn 0.04617859 0.9986849 -0.02227475
vn 0.03743598 0.9991808 -0.01537279
vn 0.04617859 0.9986849 -0.02227475
vn 0.04285038 0.9988611 -0.02098061
vn 0.04617859 0.9986849 -0.02227475
vn 0.04932126 0.9985063 -0.02351017
vn 0.04617859 0.9986849 -0.02227475
vn 0.04617859 0.9986849 -0.02227475
vn 0.04932126 0.9985063 -0.02351017
vn 0.05218376 0.9982885 -0.0264031
vn 0.04617859 0.9986849 -0.02227475
vn 0.05218376 0.9982885 -0.0264031
vn 0.04932126 0.9985063 -0.02351017
vn 0.05218376 0.9982885 -0.0264031
vn 0.05169104 0.997885 -0.03941251
vn 0.05218376 0.9982885 -0.0264031
vn 0.05218376 0.9982885 -0.0264031
vn 0.05169104 0.997885 -0.03941251
vn 0.04334531 0.9969661 -0.06465084
vn 0.05218376 0.9982885 -0.0264031
vn 0.04334531 0.9969661 -0.06465084
vn 0.05169104 0.997885 -0.03941251
vn 0.04334531 0.9969661 -0.06465084
vn 0.02272168 0.9968533 -0.07594153
vn 0.04334531 0.9969661 -0.06465084
vn 0.04334531 0.9969661 -0.06465084
vn 0.02272168 0.9968533 -0.07594153
vn 0.02872258 0.9986044 -0.04431973
vn 0.04334531 0.9969661 -0.06465084
vn 0.02872258 0.9986044 -0.04431973
vn 0.02272168 0.9968533 -0.07594153
vn 0.02872258 0.9986044 -0.04431973
vn 0.03968755 0.9990174 -0.01972512
vn 0.02872258 0.9986044 -0.04431973
vn 0.02872258 0.9986044 -0.04431973
vn 0.03968755 0.9990174 -0.01972512
vn 0.05036652 0.9986641 -0.01154065
vn 0.02872258 0.9986044 -0.04431973
vn 0.05036652 0.9986641 -0.01154065
vn 0.03968755 0.9990174 -0.01972512
vn 0.05036652 0.9986641 -0.01154065
vn 0.05272557 0.9985526 -0.01062343
vn 0.05036652 0.9986641 -0.01154065
vn 0.05036652 0.9986641 -0.01154065
vn 0.05272557 0.9985526 -0.01062343
vn 0.04582873 0.9988504 -0.0140591
vn 0.05036652 0.9986641 -0.01154065
vn 0.04582873 0.9988504 -0.0140591
vn 0.05272557 0.9985526 -0.01062343
vn 0.04582873 0.9988504 -0.0140591

vt 0.5 0
vt 1 0.5
vt 1 0
vt 0.5 0.5
vt 0 0
vt 1 1
vt 0 0.5
vt 0.5 1
vt 0 1
vt 0.5 0
vt 1 0.5
vt 1 0
vt 0.5 0.5
vt 0 0
vt 1 1
vt 0 0.5
vt 0.5 1
vt 0 1
vt 0.5 0
vt 1 0.5
vt 1 0
vt 0.5 0.5
vt 0 0
vt 1 1
vt 0 0.5
vt 0.5 1
vt 0 1
vt 0.5 0
vt 1 0.5
vt 1 0
vt 0.5 0.5
vt 0 0
vt 1 1
vt 0 0.5
vt 0.5 1
vt 0 1
vt 0.5 0
vt 1 0.5
vt 1 0
vt 0.5 0.5
vt 0 0
vt 1 1
vt 0 0.5
vt 0.5 1
vt 0 1
vt 0.5 0
vt 1 0.5
vt 1 0
vt 0.5 0.5
vt 0 0
vt 1 1
vt 0 0.5
vt 0.5 1
vt 0 1
vt 0.5 0
vt 1 0.5
vt 1 0
vt 0.5 0.5
vt 0 0
vt 1 1
vt 0 0.5
vt 0.5 1
vt 0 1
vt 0.5 0
vt 1 0.5
vt 1 0
vt 0.5 0.5
vt 0 0
vt 1 1
vt 0 0.5
vt 0.5 1
vt 0 1
vt 0.5 0
vt 1 0.5
vt 1 0
vt 0.5 0.5
vt 0 0
vt 1 1
vt 0 0.5
vt 0.5 1
vt 0 1
vt 0.5 0
vt 1 0.5
vt 1 0
vt 0.5 0.5
vt 0 0
vt 1 1
vt 0 0.5
vt 0.5 1
vt 0 1
vt 0.5 0
vt 1 0.5
vt 1 0
vt 0.5 0.5
vt 0 0
vt 1 1
vt 0 0.5
vt 0.5 1
vt 0 1
vt 0.5 0
vt 1 0.5
vt 1 0
vt 0.5 0.5
vt 0 0
vt 1 1
vt 0 0.5
vt 0.5 1
vt 0 1
vt 0.5 0
vt 1 0.5
vt 1 0
vt 0.5 0.5
vt 0 0
vt 1 1
vt 0 0.5
vt 0.5 1
vt 0 1
vt 0.5 0
vt 1 0.5
vt 1 0
vt 0.5 0.5
vt 0 0
vt 1 1
vt 0 0.5
vt 0.5 1
vt 0 1
vt 0.5 0
vt 1 0.5
vt 1 0
vt 0.5 0.5
vt 0 0
vt 1 1
vt 0 0.5
vt 0.5 1
vt 0 1

vt2 0 0
vt2 0 0
vt2 0 0
vt2 0 0
vt2 0 0
vt2 0 0
vt2 0 0
vt2 0 0
vt2 0 0
vt2 0 0
vt2 0 0
vt2 0 0
vt2 0 0
vt2 0 0
vt2 0 0
vt2 0 0
vt2 0 0
vt2 0 0
vt2 0 0
vt2 0 0
vt2 0 0
vt2 0 0
vt2 0 0
vt2 0 0
vt2 0 0
vt2 0 0
vt2 0 0
vt2 0 0
vt2 0 0
vt2 0 0
vt2 0 0
vt2 0 0
vt2 0 0
vt2 0 0
vt2 0 0
vt2 0 0
vt2 0 0
vt2 0 0
vt2 0 0
vt2 0 0
vt2 0 0
vt2 0 0
vt2 0 0
vt2 0 0
vt2 0 0
vt2 0 0
vt2 0 0
vt2 0 0
vt2 0 0
vt2 0 0
vt2 0 0
vt2 0 0
vt2 0 0
vt2 0 0
vt2 0 0
vt2 0 0
vt2 0 0
vt2 0 0
vt2 0 0
vt2 0 0
vt2 0 0
vt2 0 0
vt2 0 0
vt2 0 0
vt2 0 0
vt2 0 0
vt2 0 0
vt2 0 0
vt2 0 0
vt2 0 0
vt2 0 0
vt2 0 0
vt2 0 0
vt2 0 0
vt2 0 0
vt2 0 0
vt2 0 0
vt2 0 0
vt2 0 0
vt2 0 0
vt2 0 0
vt2 0 0
vt2 0 0
vt2 0 0
vt2 0 0
vt2 0 0
vt2 0 0
vt2 0 0
vt2 0 0
vt2 0 0
vt2 0 0
vt2 0 0
vt2 0 0
vt2 0 0
vt2 0 0
vt2 0 0
vt2 0 0
vt2 0 0
vt2 0 0
vt2 0 0
vt2 0 0
vt2 0 0
vt2 0 0
vt2 0 0
vt2 0 0
vt2 0 0
vt2 0 0
vt2 0 0
vt2 0 0
vt2 0 0
vt2 0 0
vt2 0 0
vt2 0 0
vt2 0 0
vt2 0 0
vt2 0 0
vt2 0 0
vt2 0 0
vt2 0 0
vt2 0 0
vt2 0 0
vt2 0 0
vt2 0 0
vt2 0 0
vt2 0 0
vt2 0 0
vt2 0 0
vt2 0 0
vt2 0 0
vt2 0 0
vt2 0 0
vt2 0 0
vt2 0 0
vt2 0 0
vt2 0 0

vt2 0 0
vt2 0 0
vt2 0 0
vt2 0 0
vt2 0 0
vt2 0 0
vt2 0 0
vt2 0 0
vt2 0 0
vt2 0 0
vt2 0 0
vt2 0 0
vt2 0 0
vt2 0 0
vt2 0 0
vt2 0 0
vt2 0 0
vt2 0 0
vt2 0 0
vt2 0 0
vt2 0 0
vt2 0 0
vt2 0 0
vt2 0 0
vt2 0 0
vt2 0 0
vt2 0 0
vt2 0 0
vt2 0 0
vt2 0 0
vt2 0 0
vt2 0 0
vt2 0 0
vt2 0 0
vt2 0 0
vt2 0 0
vt2 0 0
vt2 0 0
vt2 0 0
vt2 0 0
vt2 0 0
vt2 0 0
vt2 0 0
vt2 0 0
vt2 0 0
vt2 0 0
vt2 0 0
vt2 0 0
vt2 0 0
vt2 0 0
vt2 0 0
vt2 0 0
vt2 0 0
vt2 0 0
vt2 0 0
vt2 0 0
vt2 0 0
vt2 0 0
vt2 0 0
vt2 0 0
vt2 0 0
vt2 0 0
vt2 0 0
vt2 0 0
vt2 0 0
vt2 0 0
vt2 0 0
vt2 0 0
vt2 0 0
vt2 0 0
vt2 0 0
vt2 0 0
vt2 0 0
vt2 0 0
vt2 0 0
vt2 0 0
vt2 0 0
vt2 0 0
vt2 0 0
vt2 0 0
vt2 0 0
vt2 0 0
vt2 0 0
vt2 0 0
vt2 0 0
vt2 0 0
vt2 0 0
vt2 0 0
vt2 0 0
vt2 0 0
vt2 0 0
vt2 0 0
vt2 0 0
vt2 0 0
vt2 0 0
vt2 0 0
vt2 0 0
vt2 0 0
vt2 0 0
vt2 0 0
vt2 0 0
vt2 0 0
vt2 0 0
vt2 0 0
vt2 0 0
vt2 0 0
vt2 0 0
vt2 0 0
vt2 0 0
vt2 0 0
vt2 0 0
vt2 0 0
vt2 0 0
vt2 0 0
vt2 0 0
vt2 0 0
vt2 0 0
vt2 0 0
vt2 0 0
vt2 0 0
vt2 0 0
vt2 0 0
vt2 0 0
vt2 0 0
vt2 0 0
vt2 0 0
vt2 0 0
vt2 0 0
vt2 0 0
vt2 0 0
vt2 0 0
vt2 0 0
vt2 0 0
vt2 0 0
vt2 0 0

vc 1 1 1 1
vc 1 1 1 1
vc 1 1 1 1
vc 1 1 1 1
vc 1 1 1 1
vc 1 1 1 1
vc 1 1 1 1
vc 1 1 1 1
vc 1 1 1 1
vc 1 1 1 1
vc 1 1 1 1
vc 1 1 1 1
vc 1 1 1 1
vc 1 1 1 1
vc 1 1 1 1
vc 1 1 1 1
vc 1 1 1 1
vc 1 1 1 1
vc 1 1 1 1
vc 1 1 1 1
vc 1 1 1 1
vc 1 1 1 1
vc 1 1 1 1
vc 1 1 1 1
vc 1 1 1 1
vc 1 1 1 1
vc 1 1 1 1
vc 1 1 1 1
vc 1 1 1 1
vc 1 1 1 1
vc 1 1 1 1
vc 1 1 1 1
vc 1 1 1 1
vc 1 1 1 1
vc 1 1 1 1
vc 1 1 1 1
vc 1 1 1 1
vc 1 1 1 1
vc 1 1 1 1
vc 1 1 1 1
vc 1 1 1 1
vc 1 1 1 1
vc 1 1 1 1
vc 1 1 1 1
vc 1 1 1 1
vc 1 1 1 1
vc 1 1 1 1
vc 1 1 1 1
vc 1 1 1 1
vc 1 1 1 1
vc 1 1 1 1
vc 1 1 1 1
vc 1 1 1 1
vc 1 1 1 1
vc 1 1 1 1
vc 1 1 1 1
vc 1 1 1 1
vc 1 1 1 1
vc 1 1 1 1
vc 1 1 1 1
vc 1 1 1 1
vc 1 1 1 1
vc 1 1 1 1
vc 1 1 1 1
vc 1 1 1 1
vc 1 1 1 1
vc 1 1 1 1
vc 1 1 1 1
vc 1 1 1 1
vc 1 1 1 1
vc 1 1 1 1
vc 1 1 1 1
vc 1 1 1 1
vc 1 1 1 1
vc 1 1 1 1
vc 1 1 1 1
vc 1 1 1 1
vc 1 1 1 1
vc 1 1 1 1
vc 1 1 1 1
vc 1 1 1 1
vc 1 1 1 1
vc 1 1 1 1
vc 1 1 1 1
vc 1 1 1 1
vc 1 1 1 1
vc 1 1 1 1
vc 1 1 1 1
vc 1 1 1 1
vc 1 1 1 1
vc 1 1 1 1
vc 1 1 1 1
vc 1 1 1 1
vc 1 1 1 1
vc 1 1 1 1
vc 1 1 1 1
vc 1 1 1 1
vc 1 1 1 1
vc 1 1 1 1
vc 1 1 1 1
vc 1 1 1 1
vc 1 1 1 1
vc 1 1 1 1
vc 1 1 1 1
vc 1 1 1 1
vc 1 1 1 1
vc 1 1 1 1
vc 1 1 1 1
vc 1 1 1 1
vc 1 1 1 1
vc 1 1 1 1
vc 1 1 1 1
vc 1 1 1 1
vc 1 1 1 1
vc 1 1 1 1
vc 1 1 1 1
vc 1 1 1 1
vc 1 1 1 1
vc 1 1 1 1
vc 1 1 1 1
vc 1 1 1 1
vc 1 1 1 1
vc 1 1 1 1
vc 1 1 1 1
vc 1 1 1 1
vc 1 1 1 1
vc 1 1 1 1
vc 1 1 1 1
vc 1 1 1 1
vc 1 1 1 1
vc 1 1 1 1
vc 1 1 1 1
vc 1 1 1 1
vc 1 1 1 1
vc 1 1 1 1

usemtl Default-Diffuse
usemap Default-Diffuse
f 3/3/3 2/2/2 1/1/1
f 2/2/2 4/4/4 1/1/1
f 1/1/1 4/4/4 5/5/5
f 2/2/2 6/6/6 4/4/4
f 4/4/4 7/7/7 5/5/5
f 6/6/6 8/8/8 4/4/4
f 4/4/4 8/8/8 7/7/7
f 8/8/8 9/9/9 7/7/7
f 12/12/12 11/11/11 10/10/10
f 11/11/11 13/13/13 10/10/10
f 10/10/10 13/13/13 14/14/14
f 11/11/11 15/15/15 13/13/13
f 13/13/13 16/16/16 14/14/14
f 15/15/15 17/17/17 13/13/13
f 13/13/13 17/17/17 16/16/16
f 17/17/17 18/18/18 16/16/16
f 21/21/21 20/20/20 19/19/19
f 20/20/20 22/22/22 19/19/19
f 19/19/19 22/22/22 23/23/23
f 20/20/20 24/24/24 22/22/22
f 22/22/22 25/25/25 23/23/23
f 24/24/24 26/26/26 22/22/22
f 22/22/22 26/26/26 25/25/25
f 26/26/26 27/27/27 25/25/25
f 30/30/30 29/29/29 28/28/28
f 29/29/29 31/31/31 28/28/28
f 28/28/28 31/31/31 32/32/32
f 29/29/29 33/33/33 31/31/31
f 31/31/31 34/34/34 32/32/32
f 33/33/33 35/35/35 31/31/31
f 31/31/31 35/35/35 34/34/34
f 35/35/35 36/36/36 34/34/34
f 39/39/39 38/38/38 37/37/37
f 38/38/38 40/40/40 37/37/37
f 37/37/37 40/40/40 41/41/41
f 38/38/38 42/42/42 40/40/40
f 40/40/40 43/43/43 41/41/41
f 42/42/42 44/44/44 40/40/40
f 40/40/40 44/44/44 43/43/43
f 44/44/44 45/45/45 43/43/43
f 48/48/48 47/47/47 46/46/46
f 47/47/47 49/49/49 46/46/46
f 46/46/46 49/49/49 50/50/50
f 47/47/47 51/51/51 49/49/49
f 49/49/49 52/52/52 50/50/50
f 51/51/51 53/53/53 49/49/49
f 49/49/49 53/53/53 52/52/52
f 53/53/53 54/54/54 52/52/52
f 57/57/57 56/56/56 55/55/55
f 56/56/56 58/58/58 55/55/55
f 55/55/55 58/58/58 59/59/59
f 56/56/56 60/60/60 58/58/58
f 58/58/58 61/61/61 59/59/59
f 60/60/60 62/62/62 58/58/58
f 58/58/58 62/62/62 61/61/61
f 62/62/62 63/63/63 61/61/61
f 66/66/66 65/65/65 64/64/64
f 65/65/65 67/67/67 64/64/64
f 64/64/64 67/67/67 68/68/68
f 65/65/65 69/69/69 67/67/67
f 67/67/67 70/70/70 68/68/68
f 69/69/69 71/71/71 67/67/67
f 67/67/67 71/71/71 70/70/70
f 71/71/71 72/72/72 70/70/70
f 75/75/75 74/74/74 73/73/73
f 74/74/74 76/76/76 73/73/73
f 73/73/73 76/76/76 77/77/77
f 74/74/74 78/78/78 76/76/76
f 76/76/76 79/79/79 77/77/77
f 78/78/78 80/80/80 76/76/76
f 76/76/76 80/80/80 79/79/79
f 80/80/80 81/81/81 79/79/79
f 84/84/84 83/83/83 82/82/82
f 83/83/83 85/85/85 82/82/82
f 82/82/82 85/85/85 86/86/86
f 83/83/83 87/87/87 85/85/85
f 85/85/85 88/88/88 86/86/86
f 87/87/87 89/89/89 85/85/85
f 85/85/85 89/89/89 88/88/88
f 89/89/89 90/90/90 88/88/88
f 93/93/93 92/92/92 91/91/91
f 92/92/92 94/94/94 91/91/91
f 91/91/91 94/94/94 95/95/95
f 92/92/92 96/96/96 94/94/94
f 94/94/94 97/97/97 95/95/95
f 96/96/96 98/98/98 94/94/94
f 94/94/94 98/98/98 97/97/97
f 98/98/98 99/99/99 97/97/97
f 102/102/102 101/101/101 100/100/100
f 101/101/101 103/103/103 100/100/100
f 100/100/100 103/103/103 104/104/104
f 101/101/101 105/105/105 103/103/103
f 103/103/103 106/106/106 104/104/104
f 105/105/105 107/107/107 103/103/103
f 103/103/103 107/107/107 106/106/106
f 107/107/107 108/108/108 106/106/106
f 111/111/111 110/110/110 109/109/109
f 110/110/110 112/112/112 109/109/109
f 109/109/109 112/112/112 113/113/113
f 110/110/110 114/114/114 112/112/112
f 112/112/112 115/115/115 113/113/113
f 114/114/114 116/116/116 112/112/112
f 112/112/112 116/116/116 115/115/115
f 116/116/116 117/117/117 115/115/115
f 120/120/120 119/119/119 118/118/118
f 119/119/119 121/121/121 118/118/118
f 118/118/118 121/121/121 122/122/122
f 119/119/119 123/123/123 121/121/121
f 121/121/121 124/124/124 122/122/122
f 123/123/123 125/125/125 121/121/121
f 121/121/121 125/125/125 124/124/124
f 125/125/125 126/126/126 124/124/124
f 129/129/129 128/128/128 127/127/127
f 128/128/128 130/130/130 127/127/127
f 127/127/127 130/130/130 131/131/131
f 128/128/128 132/132/132 130/130/130
f 130/130/130 133/133/133 131/131/131
f 132/132/132 134/134/134 130/130/130
f 130/130/130 134/134/134 133/133/133
f 134/134/134 135/135/135 133/133/133
