g Custom Mesh - Baked
v -281.2943 131.3081 -25.30096
v -283.433 131.4744 -18.66607
v -285.966 131.3081 -23.51896
v -279.2973 131.4744 -20.43966
v -276.6227 131.3081 -27.08296
v -280.7672 131.6228 -13.79239
v -275.1615 131.4744 -22.21324
v -277.099 131.6228 -15.38748
v -273.4308 131.6228 -16.98256
v -277.099 131.6228 -15.38748
v -278.261 131.8008 -9.138473
v -280.7672 131.6228 -13.79239
v -275.0125 131.8008 -10.44134
v -273.4308 131.6228 -16.98256
v -276.2138 132.0556 -5.001814
v -271.764 131.8008 -11.7442
v -273.3509 132.0556 -5.898156
v -270.4879 132.0556 -6.794498
v -273.3509 132.0556 -5.898155
v -274.9083 132.4349 -1.748456
v -276.2138 132.0556 -5.001813
v -272.4271 132.4349 -2.054852
v -270.4879 132.0556 -6.794498
v -275.448 132.8641 0.2397022
v -269.946 132.4349 -2.361249
v -272.5063 132.7865 0.8234699
v -269.5647 132.709 1.407238
v -272.5063 132.7865 0.8234705
v -276.3636 133.1264 1.296803
v -275.448 132.8641 0.2397024
v -273.3105 132.9797 3.001917
v -269.5647 132.709 1.407239
v -277.6434 133.2949 2.254012
v -270.2575 132.8329 4.70703
v -274.5468 133.0869 4.777404
v -271.4501 132.8788 7.300796
v -274.5468 133.0869 4.777404
v -279.4474 133.4996 3.668168
v -277.6434 133.2949 2.254013
v -275.9222 133.1807 6.446849
v -271.4501 132.8788 7.300797
v -281.5719 133.8761 6.048754
v -272.3969 132.8618 9.225533
v -277.1441 133.3338 8.30717
v -272.7163 132.7915 10.56559

vn -0.01384835 0.9992447 -0.03630467
vn -0.01206085 1.11069 -0.02812449
vn -0.01384835 0.9992447 -0.03630467
vn -0.01206085 1.11069 -0.02812449
vn -0.01384835 0.9992447 -0.03630467
vn -0.0140253 1.249505 -0.03225387
vn -0.01206085 1.11069 -0.02812449
vn -0.0140253 1.249505 -0.03225387
vn -0.0140253 1.249505 -0.03225387
vn -0.0140253 1.249505 -0.03225387
vn -0.02157643 1.427395 -0.05379717
vn -0.0140253 1.249505 -0.03225387
vn -0.02157643 1.427395 -0.05379717
vn -0.0140253 1.249505 -0.03225387
vn -0.03516652 1.662505 -0.112323
vn -0.02157643 1.427395 -0.05379717
vn -0.03516652 1.662505 -0.1123231
vn -0.03516652 1.662505 -0.1123231
vn -0.03516653 1.662506 -0.1123231
vn -0.03320218 1.981567 -0.2688678
vn -0.03516652 1.662505 -0.1123231
vn -0.03320223 1.981567 -0.2688677
vn -0.03516654 1.662506 -0.1123231
vn 0.07537498 1.657291 -0.1596335
vn -0.03320223 1.981567 -0.2688677
vn 0.07537489 1.657291 -0.1596335
vn 0.07537487 1.657291 -0.1596335
vn 0.07537486 1.657291 -0.1596335
vn 0.09574778 1.424523 -0.04881151
vn 0.07537487 1.657291 -0.1596335
vn 0.09574777 1.424523 -0.04881147
vn 0.07537487 1.657291 -0.1596335
vn 0.08271445 1.247259 0.001332538
vn 0.09574777 1.424523 -0.04881147
vn 0.08271445 1.247259 0.001332538
vn 0.08271458 1.24726 0.001332655
vn 0.08271458 1.24726 0.001332655
vn 0.09722665 1.106843 0.003664771
vn 0.08271458 1.24726 0.001332655
vn 0.09722652 1.106843 0.003664716
vn 0.08271458 1.24726 0.001332655
vn 0.1378255 0.9899226 -0.03251604
vn 0.09722652 1.106843 0.003664716
vn 0.1378255 0.9899226 -0.03251604
vn 0.1378274 0.9899225 -0.0325151

vt 0.5 0
vt 1 0.5
vt 1 0
vt 0.5 0.5
vt 0 0
vt 1 1
vt 0 0.5
vt 0.5 1
vt 0 1
vt 0.5 0
vt 1 0.5
vt 1 0
vt 0.5 0.5
vt 0 0
vt 1 1
vt 0 0.5
vt 0.5 1
vt 0 1
vt 0.5 0
vt 1 0.5
vt 1 0
vt 0.5 0.5
vt 0 0
vt 1 1
vt 0 0.5
vt 0.5 1
vt 0 1
vt 0.5 0
vt 1 0.5
vt 1 0
vt 0.5 0.5
vt 0 0
vt 1 1
vt 0 0.5
vt 0.5 1
vt 0 1
vt 0.5 0
vt 1 0.5
vt 1 0
vt 0.5 0.5
vt 0 0
vt 1 1
vt 0 0.5
vt 0.5 1
vt 0 1

vt2 0 0
vt2 0 0
vt2 0 0
vt2 0 0
vt2 0 0
vt2 0 0
vt2 0 0
vt2 0 0
vt2 0 0
vt2 0 0
vt2 0 0
vt2 0 0
vt2 0 0
vt2 0 0
vt2 0 0
vt2 0 0
vt2 0 0
vt2 0 0
vt2 0 0
vt2 0 0
vt2 0 0
vt2 0 0
vt2 0 0
vt2 0 0
vt2 0 0
vt2 0 0
vt2 0 0
vt2 0 0
vt2 0 0
vt2 0 0
vt2 0 0
vt2 0 0
vt2 0 0
vt2 0 0
vt2 0 0
vt2 0 0
vt2 0 0
vt2 0 0
vt2 0 0
vt2 0 0
vt2 0 0
vt2 0 0
vt2 0 0
vt2 0 0
vt2 0 0

vt2 0 0
vt2 0 0
vt2 0 0
vt2 0 0
vt2 0 0
vt2 0 0
vt2 0 0
vt2 0 0
vt2 0 0
vt2 0 0
vt2 0 0
vt2 0 0
vt2 0 0
vt2 0 0
vt2 0 0
vt2 0 0
vt2 0 0
vt2 0 0
vt2 0 0
vt2 0 0
vt2 0 0
vt2 0 0
vt2 0 0
vt2 0 0
vt2 0 0
vt2 0 0
vt2 0 0
vt2 0 0
vt2 0 0
vt2 0 0
vt2 0 0
vt2 0 0
vt2 0 0
vt2 0 0
vt2 0 0
vt2 0 0
vt2 0 0
vt2 0 0
vt2 0 0
vt2 0 0
vt2 0 0
vt2 0 0
vt2 0 0
vt2 0 0
vt2 0 0

vc 1 1 1 1
vc 1 1 1 1
vc 1 1 1 1
vc 1 1 1 1
vc 1 1 1 1
vc 1 1 1 1
vc 1 1 1 1
vc 1 1 1 1
vc 1 1 1 1
vc 1 1 1 1
vc 1 1 1 1
vc 1 1 1 1
vc 1 1 1 1
vc 1 1 1 1
vc 1 1 1 1
vc 1 1 1 1
vc 1 1 1 1
vc 1 1 1 1
vc 1 1 1 1
vc 1 1 1 1
vc 1 1 1 1
vc 1 1 1 1
vc 1 1 1 1
vc 1 1 1 1
vc 1 1 1 1
vc 1 1 1 1
vc 1 1 1 1
vc 1 1 1 1
vc 1 1 1 1
vc 1 1 1 1
vc 1 1 1 1
vc 1 1 1 1
vc 1 1 1 1
vc 1 1 1 1
vc 1 1 1 1
vc 1 1 1 1
vc 1 1 1 1
vc 1 1 1 1
vc 1 1 1 1
vc 1 1 1 1
vc 1 1 1 1
vc 1 1 1 1
vc 1 1 1 1
vc 1 1 1 1
vc 1 1 1 1

usemtl Default-Diffuse
usemap Default-Diffuse
f 3/3/3 2/2/2 1/1/1
f 2/2/2 4/4/4 1/1/1
f 1/1/1 4/4/4 5/5/5
f 2/2/2 6/6/6 4/4/4
f 4/4/4 7/7/7 5/5/5
f 6/6/6 8/8/8 4/4/4
f 4/4/4 8/8/8 7/7/7
f 8/8/8 9/9/9 7/7/7
f 12/12/12 11/11/11 10/10/10
f 11/11/11 13/13/13 10/10/10
f 10/10/10 13/13/13 14/14/14
f 11/11/11 15/15/15 13/13/13
f 13/13/13 16/16/16 14/14/14
f 15/15/15 17/17/17 13/13/13
f 13/13/13 17/17/17 16/16/16
f 17/17/17 18/18/18 16/16/16
f 21/21/21 20/20/20 19/19/19
f 20/20/20 22/22/22 19/19/19
f 19/19/19 22/22/22 23/23/23
f 20/20/20 24/24/24 22/22/22
f 22/22/22 25/25/25 23/23/23
f 24/24/24 26/26/26 22/22/22
f 22/22/22 26/26/26 25/25/25
f 26/26/26 27/27/27 25/25/25
f 30/30/30 29/29/29 28/28/28
f 29/29/29 31/31/31 28/28/28
f 28/28/28 31/31/31 32/32/32
f 29/29/29 33/33/33 31/31/31
f 31/31/31 34/34/34 32/32/32
f 33/33/33 35/35/35 31/31/31
f 31/31/31 35/35/35 34/34/34
f 35/35/35 36/36/36 34/34/34
f 39/39/39 38/38/38 37/37/37
f 38/38/38 40/40/40 37/37/37
f 37/37/37 40/40/40 41/41/41
f 38/38/38 42/42/42 40/40/40
f 40/40/40 43/43/43 41/41/41
f 42/42/42 44/44/44 40/40/40
f 40/40/40 44/44/44 43/43/43
f 44/44/44 45/45/45 43/43/43
